<?xml version="1.0" encoding="utf-8"?>
<!-- Generator: Adobe Illustrator 26.2.1, SVG Export Plug-In . SVG Version: 6.00 Build 0)  -->
<svg version="1.1" id="Capa_1" xmlns="http://www.w3.org/2000/svg" xmlns:xlink="http://www.w3.org/1999/xlink" x="0px" y="0px"
	 viewBox="0 0 70.7 51.9" style="enable-background:new 0 0 70.7 51.9;" xml:space="preserve">
<style type="text/css">
	.st0{fill:#FFFFFF;}
</style>
<g>
	<path class="st0" d="M52.3,20.3c-3.7-0.3-7.5,0.9-10.3,3.8c-3.2,3.2-4.5,7.8-3.6,11.9C45.7,34.2,51.4,28,52.3,20.3z"/>
	<path class="st0" d="M16.1,20.4c0.9,7.8,6.7,14,14.2,15.7c0.9-4.1-0.3-8.6-3.5-11.8C23.9,21.2,19.9,19.9,16.1,20.4z"/>
	<g>
		<g>
			<path class="st0" d="M34.2,0C24.1,0,16,8.2,16,18.2c0,0,0,0.1,0,0.1c0.6-0.1,1.2-0.1,1.8-0.1c1.3,0,2.5,0.2,3.7,0.6
				c0.5-6.6,6-11.7,12.7-11.7c6.7,0,12.2,5.2,12.7,11.8c1.3-0.4,2.6-0.7,3.9-0.7c0.6,0,1.1,0,1.6,0.1c0,0,0-0.1,0-0.1
				C52.4,8.2,44.3,0,34.2,0z"/>
		</g>
	</g>
	<path class="st0" d="M36.1,32.9c0-5.9,4.2-11,9.1-13.3v0c-0.1-5.9-4.9-10.7-10.9-10.7c-5.9,0-10.8,4.7-10.9,10.7
		c4.5,2.1,7.8,6.6,8.8,10.9c0,0,0,0,0,0c0.2,0.8,0.3,1.6,0.3,2.4c0,1.2-0.1,2.3-0.4,3.4c0.7,0.1,1.5,0.2,2.2,0.2
		c0.8,0,1.5-0.1,2.2-0.2v0C36.2,35.2,36.1,34.1,36.1,32.9z"/>
	<path class="st0" d="M33.8,47.4l-0.8,2h-1.9l3.3-8.7h2l3.4,8.7h-1.9l-1.2-3.3L33.8,47.4z M36.7,45.9c0,0-1.1-3-1.2-3.5h0
		c-0.1,0.5-1.2,3.5-1.2,3.5H36.7z"/>
	<path class="st0" d="M40.3,45c0-0.9,0-1.5-0.1-2h1.5v1.4l0.1-0.2c0.3-0.9,1-1.3,1.8-1.3c0.2,0,0.2,0,0.4,0l0,1.7
		c-0.1-0.1-0.4-0.1-0.6-0.1c-0.9,0-1.2,0.6-1.3,1.2c0,0.1-0.1,0.4-0.1,0.6l0,3.2h-1.6V45z"/>
	<path class="st0" d="M49.6,47.7c0,0.6,0,1.3,0.1,1.6h-1.5l-0.1-0.9L48,48.4c-0.4,0.5-1,1-2.1,1c-1.2,0-2.1-0.9-2.1-1.9
		c0-1.8,1.4-2.2,4.1-2.2l0-0.3c0-0.6-0.5-1.1-1.5-1.1c-0.6,0-1.5,0.4-1.9,0.7v-1.4c0.4-0.2,1.1-0.5,2.2-0.5c2.1,0,2.6,1,2.6,2.7
		L49.6,47.7z M48,46.4c-1.8-0.1-2.5,0.3-2.5,1c0,0.6,0.4,0.9,1,0.9c0.5,0,1-0.3,1.3-0.7c0.1-0.1,0.2-0.5,0.2-0.6L48,46.4z"/>
	<path class="st0" d="M56.3,47.2c0,0.8,0,1.6,0.1,2.1h-1.6v-0.9h-0.1c-0.2,0.4-1,1-2.1,1c-1.3,0-2.1-0.8-2.1-2.3V43h1.6v3.3
		c0,1.1,0.2,1.8,1.1,1.8c0.8,0,1.1-0.8,1.2-1.1c0.1-0.1,0.1-0.3,0.1-0.4V43h1.7V47.2z"/>
	<path class="st0" d="M61.8,49.2c-0.3,0.2-1.1,0.2-1.8,0.2c-2,0-3-1.4-3-3.4c0-1.8,0.9-3.2,3.2-3.2c0.5,0,1,0.1,1.4,0.2l-0.1,1.2
		c-0.2-0.1-0.6-0.2-1.1-0.2c-1,0-1.7,1-1.7,2c0,1.1,0.8,2,1.7,2c0.5,0,1-0.1,1.3-0.2L61.8,49.2z"/>
	<path class="st0" d="M68.4,46.1c0,2.3-1.6,3.4-3.3,3.4c-1.8,0-3.3-1.2-3.3-3.2c0-2,1.3-3.3,3.4-3.3C67.1,42.9,68.4,44.2,68.4,46.1z
		 M63.6,46.1c0,1.1,0.6,2,1.6,2c1,0,1.6-0.8,1.6-2c0-1-0.5-2-1.6-2C64,44.1,63.6,45.2,63.6,46.1z"/>
	<g>
		<g>
			<path class="st0" d="M0,40.7c0,0,1.1,0,2,0c1,0,1.7,0.2,2.1,0.7c0.4,0.4,0.7,1,0.7,1.8c0,0.8-0.1,1.2-0.6,1.7
				c-0.6,0.6-1.4,0.9-2.4,0.9l-1,0v3.7H0V40.7z M0.9,44.9c0,0,0.6,0,1,0c1.2,0,2-0.6,2-1.8c0-1.2-0.7-1.7-1.9-1.7
				c-0.4,0-1.1,0-1.1,0V44.9z"/>
			<path class="st0" d="M10.9,45.1c0-0.7,0-1.5,0-2.1h0.7v1.4h0c0.3-0.8,0.9-1.5,1.6-1.5c0.1,0,0.5,0,0.6,0.1v0.8
				c-0.1,0-0.3,0-0.7,0c-0.7,0-1.3,0.6-1.4,1.5c0,0.2,0,0.7,0,0.9v3.3h-0.8V45.1z"/>
			<path class="st0" d="M18.4,48.2l-0.1,0.1c-0.3,0.6-0.8,1.1-2,1.1c-1.3,0-2.4-1.3-2.4-3.2c0-2.4,1-3.4,2.6-3.4
				c0.9,0,1.6,0.4,1.8,1l0.1,0.1l0-1h0.9c0,0.5,0,1.1,0,1.7v7.1h-0.8V48.2z M18.3,45.6c0-0.2-0.1-0.4-0.1-0.6
				c-0.2-0.8-0.8-1.4-1.6-1.4c-1.2,0-1.9,1.1-1.9,2.6c0,1.4,0.6,2.6,1.9,2.6c0.7,0,1.4-0.5,1.6-1.4c0.1-0.2,0.2-0.6,0.2-0.8
				L18.3,45.6z"/>
			<path class="st0" d="M25.3,47.6c0,0.7,0,1.2,0,1.7h-0.8v-1.1l-0.1,0.1c-0.3,0.5-0.8,1.1-2,1.1c-1.1,0-2.1-0.6-2.1-2.8V43h0.8v3.5
				c0,2,0.6,2.3,1.6,2.3c1,0,1.4-0.8,1.6-1.3c0.1-0.2,0.1-0.4,0.1-0.6V43h0.8V47.6z"/>
			<path class="st0" d="M27,46.4c0,1.5,1,2.4,2,2.4c0.7,0,1.4-0.3,1.8-0.4l0,0.8c-0.4,0.2-0.9,0.4-1.9,0.4c-1.8,0-2.8-1.3-2.8-3.2
				c0-1.9,1-3.4,2.7-3.4c2,0,2.4,1.8,2.4,2.9c0,0.2,0,0.4,0,0.5H27z M30.4,45.7c0-0.8-0.3-2.2-1.6-2.2c-1.2,0-1.7,1.2-1.8,2.2H30.4z
				"/>
			<path class="st0" d="M9.8,49.3l-0.8,0l0-1l-0.1,0.2c-0.3,0.5-1,0.9-1.8,0.9c-1.3,0-2.1-0.6-2.1-1.8c0-1.7,1.6-2.2,3.8-2.2l0.2,0
				c0-0.5,0.2-1.9-1.5-1.9c-0.5,0-1.3,0.2-1.7,0.5l0-0.7c0.5-0.2,1.2-0.5,1.9-0.5c1.7,0,2.1,1.1,2.1,2.6v2.9L9.8,49.3z M8.9,46.1
				c-1.4,0-3.1,0.2-3.1,1.5c0,0.8,0.5,1.1,1.2,1.1c0.9,0,1.5-0.3,1.7-0.9c0-0.1,0.2-0.6,0.2-0.7L8.9,46.1z"/>
		</g>
	</g>
	<g>
		<g>
			<path class="st0" d="M68.3,41.2H68v-2.2h0.8c0.5,0,0.8,0.2,0.8,0.6c0,0.3-0.2,0.5-0.6,0.6l0.7,1.1h-0.3l-0.7-1h-0.4V41.2z
				 M68.3,39.9h0.5c0.5,0,0.6-0.2,0.6-0.4c0-0.2-0.2-0.4-0.6-0.4h-0.5V39.9z"/>
		</g>
		<path class="st0" d="M68.7,38c-1.1,0-2,0.9-2,2c0,1.1,0.9,2,2,2c1.1,0,2-0.9,2-2C70.7,38.9,69.8,38,68.7,38z M68.7,41.7
			c-0.9,0-1.6-0.7-1.6-1.6c0-0.9,0.7-1.6,1.6-1.6s1.6,0.7,1.6,1.6C70.3,40.9,69.6,41.7,68.7,41.7z"/>
	</g>
</g>
</svg>
