<?xml version="1.0" encoding="utf-8"?>
<!-- Generator: Adobe Illustrator 26.2.1, SVG Export Plug-In . SVG Version: 6.00 Build 0)  -->
<svg version="1.1" id="Capa_1" xmlns="http://www.w3.org/2000/svg" xmlns:xlink="http://www.w3.org/1999/xlink" x="0px" y="0px"
	 viewBox="0 0 106.1 26.7" style="enable-background:new 0 0 106.1 26.7;" xml:space="preserve">
<style type="text/css">
	.st0{fill:#FFFFFF;}
</style>
<g>
	<path class="st0" d="M31.6,26.7h-2c-0.3,0-0.5-0.1-0.7-0.3c-0.2-0.2-0.3-0.4-0.3-0.7v-3.8h0.8v3.8c0,0.1,0,0.1,0.1,0.2
		c0.1,0.1,0.1,0.1,0.2,0.1h2V26.7z"/>
	<path class="st0" d="M35.9,23.6c0-0.5-0.2-0.9-0.5-1.2c-0.3-0.3-0.7-0.5-1.2-0.5c-0.5,0-0.8,0.2-1.2,0.5c-0.3,0.3-0.5,0.7-0.5,1.2
		v3.1h0.8v-2.6h1.8v2.6h0.8V23.6z M33.6,22.9c0.2-0.2,0.4-0.3,0.6-0.3c0.2,0,0.5,0.1,0.6,0.3c0.2,0.2,0.3,0.4,0.3,0.6h-1.8
		C33.3,23.3,33.4,23.1,33.6,22.9"/>
	<path class="st0" d="M44.6,26.7h-2c-0.7,0-1.2-0.2-1.7-0.7c-0.5-0.5-0.8-1-0.8-1.7c0-0.7,0.2-1.2,0.8-1.7c0.5-0.5,1.1-0.7,1.7-0.7
		c0.7,0,1.3,0.3,1.9,0.8l-0.5,0.5c-0.4-0.4-0.9-0.6-1.3-0.6c-0.5,0-0.9,0.2-1.2,0.5c-0.3,0.3-0.5,0.7-0.5,1.2c0,0.5,0.2,0.9,0.5,1.2
		c0.3,0.3,0.7,0.5,1.2,0.5h2V26.7z"/>
	<path class="st0" d="M48.9,23.6c0-0.5-0.2-0.9-0.5-1.2c-0.3-0.3-0.7-0.5-1.2-0.5c-0.5,0-0.8,0.2-1.2,0.5c-0.3,0.3-0.5,0.7-0.5,1.2
		v3.1h0.8v-2.6h1.8v2.6h0.8V23.6z M46.6,22.9c0.2-0.2,0.4-0.3,0.6-0.3c0.2,0,0.5,0.1,0.6,0.3c0.2,0.2,0.3,0.4,0.3,0.6h-1.8
		C46.3,23.3,46.4,23.1,46.6,22.9"/>
	<path class="st0" d="M53,22.3c-0.2-0.2-0.4-0.3-0.7-0.3H50v4.8h0.8v-2.6h1.6c0.3,0,0.5-0.1,0.7-0.3c0.2-0.2,0.3-0.5,0.3-0.8
		C53.3,22.8,53.2,22.5,53,22.3 M52.5,23.3c0,0.1-0.1,0.1-0.2,0.1h-1.6v-0.8h1.5c0.1,0,0.2,0,0.2,0.1c0.1,0.1,0.1,0.2,0.1,0.3
		C52.6,23.1,52.5,23.2,52.5,23.3"/>
	<rect x="54.4" y="21.9" class="st0" width="0.8" height="4.8"/>
	<polygon class="st0" points="59.3,22.7 58.1,22.7 58.1,26.7 57.4,26.7 57.4,22.7 56.3,22.7 56.3,21.9 59.3,21.9 	"/>
	<g>
		<path class="st0" d="M63.5,23.6c0-0.5-0.2-0.9-0.5-1.2c-0.3-0.3-0.7-0.5-1.2-0.5c-0.5,0-0.9,0.2-1.2,0.5c-0.3,0.3-0.5,0.7-0.5,1.2
			v3.1h0.8v-2.6h1.8v2.6h0.8V23.6z M61.2,22.9c0.2-0.2,0.4-0.3,0.6-0.3c0.2,0,0.5,0.1,0.6,0.3c0.2,0.2,0.3,0.4,0.3,0.6h-1.8
			C60.9,23.3,61,23.1,61.2,22.9"/>
		<path class="st0" d="M67.6,26.7h-2c-0.3,0-0.5-0.1-0.7-0.3c-0.2-0.2-0.3-0.4-0.3-0.7v-3.8h0.8v3.8c0,0.1,0,0.1,0.1,0.2
			c0.1,0.1,0.1,0.1,0.2,0.1h2V26.7z"/>
		<path class="st0" d="M75.4,22.6c-0.5-0.5-1.1-0.7-1.7-0.7h-1.8v4.8h1.8c0.7,0,1.2-0.2,1.7-0.7c0.5-0.5,0.7-1,0.7-1.7
			C76.1,23.7,75.9,23.1,75.4,22.6 M74.8,25.5c-0.3,0.3-0.7,0.5-1.2,0.5h-1v-3.3h1c0.5,0,0.9,0.2,1.2,0.5c0.3,0.3,0.5,0.7,0.5,1.2
			C75.4,24.8,75.2,25.2,74.8,25.5"/>
		<path class="st0" d="M80.2,26.7h-2c-0.3,0-0.5-0.1-0.7-0.3c-0.2-0.2-0.3-0.4-0.3-0.7v-2.8c0-0.3,0.1-0.5,0.3-0.7
			c0.2-0.2,0.4-0.3,0.7-0.3h2v0.7h-2c-0.2,0-0.3,0.1-0.3,0.4c0,0,0,0.1,0,0.2c0,0.1,0,0.1,0,0.1h1.9v0.7h-1.9l0,1.6
			c0,0.1,0,0.1,0.1,0.2c0,0.1,0.1,0.1,0.2,0.1h2V26.7z"/>
		<path class="st0" d="M84.2,26.7h-2c-0.3,0-0.5-0.1-0.7-0.3c-0.2-0.2-0.3-0.4-0.3-0.7v-3.8H82v3.8c0,0.1,0,0.1,0.1,0.2
			c0.1,0.1,0.1,0.1,0.2,0.1h2V26.7z"/>
		<path class="st0" d="M92.8,26.7h-2c-0.7,0-1.2-0.2-1.7-0.7c-0.5-0.5-0.7-1-0.7-1.7c0-0.7,0.2-1.2,0.7-1.7c0.5-0.5,1.1-0.7,1.7-0.7
			c0.7,0,1.3,0.3,1.9,0.8l-0.5,0.5c-0.4-0.4-0.9-0.6-1.3-0.6c-0.5,0-0.9,0.2-1.2,0.5c-0.3,0.3-0.5,0.7-0.5,1.2
			c0,0.5,0.2,0.9,0.5,1.2c0.3,0.3,0.7,0.5,1.2,0.5h2V26.7z"/>
	</g>
	<rect x="93.9" y="21.9" class="st0" width="0.8" height="4.8"/>
	<g>
		<path class="st0" d="M99.5,26.7h-0.8v-2.2c0-0.4-0.4-0.9-1.1-1.4c-0.2-0.2-0.5-0.3-0.9-0.4v4h-0.8v-4.8h0.6c0.2,0,0.4,0.1,0.7,0.2
			c0.3,0.1,0.6,0.2,0.7,0.3c0.3,0.2,0.5,0.4,0.8,0.6v-1.1h0.8V26.7z"/>
		<path class="st0" d="M103.6,26.7h-2c-0.3,0-0.5-0.1-0.7-0.3c-0.2-0.2-0.3-0.4-0.3-0.7v-2.8c0-0.3,0.1-0.5,0.3-0.7
			c0.2-0.2,0.4-0.3,0.7-0.3h2v0.7h-2c-0.2,0-0.3,0.1-0.3,0.4c0,0,0,0.1,0,0.2c0,0.1,0,0.1,0,0.1h1.9v0.7h-1.9l0,1.6
			c0,0.1,0,0.1,0.1,0.2c0.1,0.1,0.1,0.1,0.2,0.1h2V26.7z"/>
	</g>
	<path class="st0" d="M45.5,18.4h-3.2v-9h3.2V18.4z M42.3,5.6h3.2v2.6h-3.2V5.6z"/>
	<g>
		<path class="st0" d="M50,18.4h-3.2v-9h2.9v1.4c0.4-0.6,0.8-1,1.2-1.3c0.4-0.3,0.9-0.4,1.5-0.4c1,0,1.7,0.3,2.3,0.9
			c0.5,0.6,0.8,1.5,0.8,2.7v5.6h-3.2v-5c0-0.5-0.1-0.9-0.3-1.1c-0.2-0.2-0.5-0.4-0.8-0.4c-0.4,0-0.6,0.1-0.9,0.4
			c-0.2,0.3-0.3,0.7-0.3,1.3V18.4z"/>
		<path class="st0" d="M65.5,12.9c-0.2-0.8-0.5-1.5-0.9-2c-0.4-0.6-1-1-1.6-1.3c-0.6-0.3-1.3-0.4-2-0.4c-1.4,0-2.4,0.5-3.3,1.4
			c-0.8,0.9-1.2,2.1-1.2,3.5c0,1.4,0.4,2.5,1.2,3.3c0.8,0.9,1.9,1.3,3.4,1.3c0.9,0,1.7-0.2,2.3-0.5c0.7-0.3,1.2-0.8,1.5-1.3
			c0.2-0.3,0.4-0.7,0.5-1.1h-3c-0.2,0.5-0.6,0.7-1.1,0.7c-0.5,0-0.9-0.2-1.2-0.4c-0.3-0.3-0.4-0.7-0.4-1.2h6
			C65.7,14,65.7,13.4,65.5,12.9 M60.2,11.8c0.2-0.3,0.6-0.4,1-0.4c0.4,0,0.8,0.1,1.1,0.4c0.3,0.3,0.4,0.7,0.4,1.2h-2.9
			C59.8,12.4,59.9,12,60.2,11.8"/>
		<path class="st0" d="M70,17.6c0.2,0.3,0.4,0.5,0.6,0.7c0.2,0.1,0.4,0.3,0.6,0.4c0.3,0.1,0.6,0.1,0.9,0.1c1,0,1.9-0.4,2.6-1.3
			c0.7-0.9,1-2,1-3.5c0-0.9-0.1-1.7-0.4-2.5c-0.3-0.7-0.7-1.3-1.2-1.7c-0.5-0.4-1.2-0.6-1.8-0.6c-0.6,0-1.1,0.2-1.6,0.5
			c-0.5,0.3-0.8,0.7-1,1.1V9.5h-2.8v12.5H70V17.6z M72.2,12.4c0.3,0.3,0.4,0.9,0.4,1.5c0,0.4-0.1,0.8-0.2,1.1
			c-0.1,0.3-0.3,0.6-0.5,0.7c-0.2,0.1-0.4,0.2-0.7,0.2c-0.4,0-0.7-0.2-0.9-0.5c-0.2-0.3-0.4-0.9-0.4-1.6c0-0.7,0.1-1.2,0.4-1.5
			c0.3-0.3,0.6-0.5,1-0.5C71.6,11.8,71.9,12,72.2,12.4"/>
		<path class="st0" d="M77.8,10.5c-0.8,0.9-1.2,2-1.2,3.5c0,1.1,0.2,2,0.6,2.7c0.4,0.7,1,1.2,1.7,1.6c0.7,0.3,1.4,0.5,2.2,0.5
			c0.9,0,1.7-0.2,2.4-0.6c0.7-0.4,1.2-1,1.6-1.7c0.3-0.7,0.5-1.5,0.5-2.4c0-1.4-0.4-2.6-1.2-3.5c-0.8-0.9-1.9-1.3-3.3-1.3
			C79.7,9.2,78.6,9.6,77.8,10.5 M80.5,16.1c-0.2-0.1-0.4-0.4-0.5-0.7c-0.1-0.3-0.2-0.8-0.2-1.3c0-0.9,0.1-1.5,0.4-1.9
			c0.3-0.4,0.6-0.6,1-0.6c0.4,0,0.7,0.2,0.9,0.5c0.3,0.4,0.4,1,0.4,1.9c0,0.6-0.1,1-0.2,1.4c-0.1,0.4-0.3,0.6-0.5,0.8
			c-0.2,0.1-0.4,0.2-0.7,0.2C80.9,16.3,80.7,16.2,80.5,16.1"/>
	</g>
	<rect x="86.8" y="6.1" class="st0" width="3.1" height="12.4"/>
	<path class="st0" d="M94.5,18.4h-3.2v-9h3.2V18.4z M91.3,5.7h3.2v2.6h-3.2V5.7z"/>
	<g>
		<path class="st0" d="M95.4,15.6h3c0,0.3,0.1,0.6,0.3,0.8c0.2,0.2,0.5,0.3,0.8,0.3c0.3,0,0.6-0.1,0.7-0.2c0.2-0.2,0.2-0.3,0.2-0.6
			c0-0.2,0-0.3-0.1-0.4c-0.1-0.1-0.3-0.2-0.5-0.3l-1.8-0.5c-0.9-0.2-1.5-0.6-1.9-1c-0.4-0.4-0.5-1-0.5-1.6c0-0.6,0.1-1.1,0.4-1.5
			c0.3-0.4,0.7-0.8,1.3-1c0.6-0.3,1.3-0.4,2.2-0.4c1.3,0,2.3,0.3,2.9,0.8c0.6,0.5,0.9,1.2,1,2h-2.9c0-0.3-0.1-0.5-0.3-0.6
			c-0.2-0.2-0.4-0.2-0.7-0.2c-0.3,0-0.5,0.1-0.7,0.2c-0.1,0.1-0.2,0.3-0.2,0.4c0,0.1,0,0.3,0.1,0.4c0.1,0.1,0.3,0.2,0.7,0.3l1.5,0.4
			c1,0.3,1.7,0.6,2.1,1.1c0.4,0.5,0.6,1,0.6,1.7c0,0.5-0.1,1-0.3,1.4c-0.2,0.4-0.5,0.7-0.9,1c-0.4,0.3-0.8,0.4-1.3,0.6
			c-0.5,0.1-1,0.2-1.6,0.2c-0.7,0-1.3-0.1-1.8-0.2c-0.5-0.1-1-0.4-1.3-0.7c-0.3-0.3-0.6-0.7-0.8-1.1C95.5,16.5,95.4,16.1,95.4,15.6"
			/>
	</g>
	<polygon class="st0" points="61.5,8.3 63.2,8.3 65.3,6.2 62.7,6.2 	"/>
	<path class="st0" d="M36.9,9.6c-0.1-1.2-1-1.8-2.4-1.8c-2,0-2.4,2.4-2.4,4.4c0,1.9,0.4,4.1,2.4,4.1c1.5,0,2.3-0.7,2.4-1.9h3.7
		c0.1,3.3-3,4.4-6.1,4.4c-4,0-6.1-2.4-6.1-6.8c0-4.4,2.1-6.7,6.1-6.8c3.1,0,6.1,1.1,6.1,4.4H36.9z"/>
	<path class="st0" d="M105.3,18.4c-0.4,0-0.7-0.3-0.7-0.8c0-0.4,0.3-0.8,0.7-0.8c0.4,0,0.7,0.3,0.7,0.8
		C106,18.1,105.7,18.4,105.3,18.4 M105.3,16.8c-0.5,0-0.9,0.4-0.9,0.9c0,0.5,0.4,0.9,0.9,0.9c0.5,0,0.9-0.4,0.9-0.9
		C106.1,17.2,105.8,16.8,105.3,16.8"/>
	<path class="st0" d="M105.1,17.8h0.2c0.1,0,0.1,0.1,0.1,0.1c0,0.1,0,0.2,0,0.3h0.3c0-0.1-0.1-0.2-0.1-0.3c0-0.2,0-0.3-0.2-0.3v0
		c0.1,0,0.2-0.1,0.2-0.3c0-0.2-0.2-0.3-0.4-0.3h-0.5v1.1h0.2V17.8z M105.1,17.3h0.2c0.1,0,0.2,0,0.2,0.1c0,0.1-0.1,0.2-0.2,0.2h-0.2
		V17.3z"/>
	<path class="st0" d="M13.7,3.6C13.7,3.6,13.7,3.6,13.7,3.6l-0.4,0.1c0,0-0.1,0-0.1-0.1l0-0.2c0,0,0-0.1,0.1-0.1l0.3,0
		c0,0,0.1,0,0.1,0.1L13.7,3.6z M13.6,4.3C13.6,4.4,13.6,4.4,13.6,4.3l-0.4,0.1c0,0-0.1,0-0.1-0.1l0-0.2c0,0,0-0.1,0.1-0.1l0.3,0
		c0,0,0.1,0,0.1,0.1L13.6,4.3z M13.5,5.1C13.5,5.1,13.5,5.1,13.5,5.1l-0.4,0.1c0,0-0.1,0-0.1-0.1l0-0.2c0,0,0-0.1,0.1-0.1l0.3,0
		c0,0,0.1,0,0.1,0.1L13.5,5.1z M13.4,5.8C13.3,5.9,13.3,5.9,13.4,5.8l-0.4,0.1c0,0-0.1,0,0-0.1l0.1-0.2c0,0,0.1-0.1,0.1-0.1l0.3,0
		c0,0,0.1,0,0,0.1L13.4,5.8z M13.1,6.6C13.1,6.6,13.1,6.6,13.1,6.6l-0.4,0.1c0,0-0.1,0,0-0.1l0.1-0.2c0,0,0.1-0.1,0.1-0.1l0.3,0
		c0,0,0.1,0,0,0.1L13.1,6.6z M12.9,7.3C12.9,7.4,12.9,7.4,12.9,7.3l-0.4,0.1c0,0-0.1,0,0-0.1l0.1-0.2c0,0,0.1-0.1,0.1-0.1l0.3,0
		c0,0,0.1,0,0,0.1L12.9,7.3z M12.7,8.1C12.6,8.1,12.6,8.1,12.7,8.1l-0.4,0.1c0,0-0.1,0,0-0.1l0.1-0.2c0,0,0.1-0.1,0.1-0.1l0.3,0
		c0,0,0.1,0,0,0.1L12.7,8.1z M12.4,8.8C12.4,8.9,12.4,8.9,12.4,8.8L12,8.9c0,0-0.1,0,0-0.1L12,8.6c0,0,0.1-0.1,0.1-0.1l0.3,0
		c0,0,0.1,0,0,0.1L12.4,8.8z M12.2,9.6C12.2,9.6,12.1,9.6,12.2,9.6l-0.4,0.1c0,0-0.1,0,0-0.1l0.1-0.2c0,0,0.1-0.1,0.1-0.1l0.3,0
		c0,0,0.1,0,0,0.1L12.2,9.6z M11.9,10.3C11.9,10.4,11.9,10.4,11.9,10.3l-0.4,0.1c0,0-0.1,0,0-0.1l0.1-0.2c0,0,0.1-0.1,0.1-0.1l0.3,0
		c0,0,0.1,0,0,0.1L11.9,10.3z M9.8,2.9l-0.3,0c0,0-0.1,0-0.1-0.1l0-0.2c0,0,0-0.1,0.1-0.1h0.3c0,0,0.1,0,0.1,0.1L9.8,2.9
		C9.9,2.8,9.8,2.9,9.8,2.9 M9.9,3.5C9.9,3.6,9.8,3.6,9.9,3.5L9.4,3.6c0,0-0.1,0-0.1-0.1l0-0.2c0,0,0-0.1,0.1-0.1l0.3,0
		c0,0,0.1,0,0.1,0.1L9.9,3.5z M9.8,4.3C9.8,4.3,9.7,4.4,9.8,4.3L9.3,4.4c0,0-0.1,0-0.1-0.1l0-0.2c0,0,0-0.1,0.1-0.1l0.3,0
		c0,0,0.1,0,0.1,0.1L9.8,4.3z M9.6,5C9.6,5.1,9.6,5.1,9.6,5L9.2,5.1c0,0-0.1,0-0.1-0.1l0.1-0.2c0,0,0-0.1,0.1-0.1l0.3,0
		c0,0,0.1,0,0.1,0.1L9.6,5z M9.4,5.8C9.4,5.8,9.4,5.9,9.4,5.8L9,5.9c0,0-0.1,0,0-0.1L9,5.6c0,0,0.1-0.1,0.1-0.1l0.3,0
		c0,0,0.1,0,0,0.1L9.4,5.8z M9.2,6.5C9.2,6.6,9.1,6.6,9.2,6.5L8.8,6.6c0,0-0.1,0,0-0.1l0.1-0.2c0,0,0.1-0.1,0.1-0.1l0.3,0
		c0,0,0.1,0,0,0.1L9.2,6.5z M9,7.3C8.9,7.3,8.9,7.3,9,7.3L8.5,7.3c0,0-0.1,0,0-0.1L8.5,7C8.6,7,8.6,7,8.6,7L9,7C9,7,9,7,9,7L9,7.3z
		 M8.7,8C8.7,8.1,8.7,8.1,8.7,8L8.3,8.1c0,0-0.1,0,0-0.1l0.1-0.2c0,0,0.1-0.1,0.1-0.1l0.3,0c0,0,0.1,0,0,0.1L8.7,8z M8.5,8.8
		C8.5,8.8,8.4,8.8,8.5,8.8L8,8.8c0,0-0.1,0,0-0.1l0.1-0.2c0,0,0.1-0.1,0.1-0.1l0.3,0c0,0,0.1,0,0,0.1L8.5,8.8z M8.2,9.5
		C8.2,9.6,8.2,9.6,8.2,9.5L7.8,9.6c0,0-0.1,0,0-0.1l0.1-0.2c0,0,0.1-0.1,0.1-0.1l0.3,0c0,0,0.1,0,0,0.1L8.2,9.5z M8,10.3
		C8,10.3,8,10.3,8,10.3l-0.4,0.1c0,0-0.1,0,0-0.1L7.6,10c0,0,0.1-0.1,0.1-0.1L8,10c0,0,0.1,0,0,0.1L8,10.3z M9.1,0.6
		c0,0-0.1,0-0.1-0.1L8.8,0.3c0,0,0-0.1,0-0.1h0.3c0,0,0.1,0,0.1,0.1l0.1,0.2c0,0,0,0.1,0,0.1L9.1,0.6z M9.6,1.1l0.1,0.2
		c0,0,0,0.1,0,0.1l-0.3,0c0,0-0.1,0-0.1-0.1L9.1,1.1c0,0,0-0.1,0-0.1L9.6,1.1C9.6,1,9.6,1,9.6,1.1 M9.8,1.8l0,0.2c0,0,0,0.1-0.1,0.1
		l-0.3,0c0,0-0.1,0-0.1-0.1l0-0.2c0,0,0-0.1,0.1-0.1L9.8,1.8C9.7,1.8,9.8,1.8,9.8,1.8 M12.9,0.3h0.3c0,0,0.1,0,0.1,0.1l0.1,0.2
		c0,0,0,0.1,0,0.1l-0.3,0c0,0-0.1,0-0.1-0.1L12.9,0.3C12.8,0.3,12.9,0.3,12.9,0.3 M13.5,1.1l0,0.2c0,0,0,0.1-0.1,0.1l-0.3,0
		c0,0-0.1,0-0.1-0.1l0-0.2c0,0,0-0.1,0.1-0.1L13.5,1.1C13.5,1,13.5,1.1,13.5,1.1 M13.7,1.8l0,0.2c0,0,0,0.1-0.1,0.1l-0.3,0
		c0,0-0.1,0-0.1-0.1l0-0.2c0,0,0-0.1,0.1-0.1L13.7,1.8C13.6,1.8,13.7,1.8,13.7,1.8 M13.7,2.6l0,0.2c0,0,0,0.1-0.1,0.1l-0.3,0
		c0,0-0.1,0-0.1-0.1l0-0.2c0,0,0-0.1,0.1-0.1L13.7,2.6C13.7,2.5,13.7,2.6,13.7,2.6 M13.5,0L8.4,0c1.4,2.7,0.3,5.8,0,6.7
		c-0.9,2.8-1.3,3.9-1.3,3.9h5v0c0,0,0.4-1.2,1.3-4C13.7,5.7,14.6,2.8,13.5,0"/>
	<path class="st0" d="M22.4,10C22.4,10,22.3,10,22.4,10l-0.2-0.4c0,0,0-0.1,0-0.1l0.2-0.1c0,0,0.1,0,0.1,0l0.1,0.3
		c0,0,0,0.1-0.1,0.1L22.4,10z M21.7,10.1C21.7,10.2,21.6,10.1,21.7,10.1l-0.2-0.4c0,0,0-0.1,0.1-0.1l0.2,0c0,0,0.1,0,0.1,0.1L22,10
		c0,0,0,0.1-0.1,0.1L21.7,10.1z M21,10.3C20.9,10.3,20.9,10.2,21,10.3l-0.2-0.4c0,0,0-0.1,0.1-0.1l0.2,0c0,0,0.1,0,0.1,0.1l0.1,0.3
		c0,0,0,0.1-0.1,0.1L21,10.3z M20.2,10.3C20.2,10.3,20.1,10.3,20.2,10.3L20,9.9c0,0,0-0.1,0.1-0.1l0.2,0c0,0,0.1,0,0.1,0.1l0.1,0.3
		c0,0,0,0.1-0.1,0.1L20.2,10.3z M19.4,10.4C19.4,10.4,19.3,10.3,19.4,10.4L19.2,10c0,0,0-0.1,0.1-0.1l0.2,0c0,0,0.1,0,0.1,0.1
		l0.1,0.3c0,0,0,0.1-0.1,0.1H19.4z M18.7,10.4C18.6,10.4,18.6,10.3,18.7,10.4L18.5,10c0,0,0-0.1,0.1-0.1l0.2,0c0,0,0.1,0,0.1,0.1
		l0.1,0.3c0,0,0,0.1-0.1,0.1H18.7z M17.9,10.4C17.8,10.4,17.8,10.3,17.9,10.4L17.7,10c0,0,0-0.1,0.1-0.1l0.2,0c0,0,0.1,0,0.1,0.1
		l0.1,0.3c0,0,0,0.1-0.1,0.1H17.9z M17.1,10.4C17.1,10.4,17,10.3,17.1,10.4L16.9,10c0,0,0-0.1,0.1-0.1h0.2c0,0,0.1,0,0.1,0.1
		l0.1,0.3c0,0,0,0.1-0.1,0.1H17.1z M16.3,10.4c0,0-0.1,0-0.1-0.1L16.1,10c0,0,0-0.1,0.1-0.1h0.2c0,0,0.1,0,0.1,0.1l0.1,0.3
		c0,0,0,0.1-0.1,0.1H16.3z M15.5,10.4C15.5,10.4,15.5,10.3,15.5,10.4L15.3,10c0,0,0-0.1,0.1-0.1h0.2c0,0,0.1,0,0.1,0.1l0.1,0.3
		c0,0,0,0.1-0.1,0.1H15.5z M21.9,6l-0.1-0.3c0,0,0-0.1,0-0.1L22,5.5c0,0,0.1,0,0.1,0l0.1,0.3c0,0,0,0.1,0,0.1L21.9,6
		C21.9,6.1,21.9,6,21.9,6 M21.3,6.3C21.2,6.3,21.2,6.3,21.3,6.3l-0.2-0.4c0,0,0-0.1,0-0.1l0.2-0.1c0,0,0.1,0,0.1,0l0.1,0.3
		c0,0,0,0.1,0,0.1L21.3,6.3z M20.5,6.4C20.5,6.4,20.4,6.4,20.5,6.4L20.3,6c0,0,0-0.1,0.1-0.1l0.2,0c0,0,0.1,0,0.1,0.1l0.1,0.3
		c0,0,0,0.1-0.1,0.1L20.5,6.4z M19.8,6.5C19.7,6.5,19.7,6.5,19.8,6.5l-0.2-0.4c0,0,0-0.1,0.1-0.1l0.2,0c0,0,0.1,0,0.1,0.1l0.1,0.3
		c0,0,0,0.1-0.1,0.1L19.8,6.5z M19,6.5C19,6.5,18.9,6.5,19,6.5l-0.2-0.4c0,0,0-0.1,0.1-0.1l0.2,0c0,0,0.1,0,0.1,0.1l0.1,0.3
		c0,0,0,0.1-0.1,0.1L19,6.5z M18.3,6.5C18.2,6.5,18.2,6.5,18.3,6.5l-0.2-0.4c0,0,0-0.1,0.1-0.1h0.2c0,0,0.1,0,0.1,0.1l0.1,0.3
		c0,0,0,0.1-0.1,0.1H18.3z M17.5,6.5C17.4,6.5,17.4,6.5,17.5,6.5l-0.2-0.4c0,0,0-0.1,0.1-0.1l0.2,0c0,0,0.1,0,0.1,0.1l0.1,0.3
		c0,0,0,0.1-0.1,0.1H17.5z M16.7,6.5C16.7,6.5,16.6,6.5,16.7,6.5l-0.2-0.4c0,0,0-0.1,0.1-0.1h0.2c0,0,0.1,0,0.1,0.1L17,6.5
		c0,0,0,0.1-0.1,0.1H16.7z M15.9,6.6C15.9,6.6,15.9,6.5,15.9,6.6l-0.2-0.4c0,0,0-0.1,0.1-0.1l0.2,0c0,0,0.1,0,0.1,0.1l0.1,0.3
		c0,0,0,0.1-0.1,0.1H15.9z M15.2,6.5C15.1,6.5,15.1,6.5,15.2,6.5L15,6.2c0,0,0-0.1,0.1-0.1l0.2,0c0,0,0.1,0,0.1,0.1l0.1,0.3
		c0,0,0,0.1-0.1,0.1H15.2z M14.4,6.6C14.3,6.6,14.3,6.5,14.4,6.6l-0.2-0.4c0,0,0-0.1,0.1-0.1h0.2c0,0,0.1,0,0.1,0.1l0.1,0.3
		c0,0,0,0.1-0.1,0.1L14.4,6.6z M23.7,4.6c0,0,0-0.1,0-0.1L24,4.3c0,0,0.1,0,0.1,0l0.1,0.3c0,0,0,0.1,0,0.1l-0.2,0.2c0,0-0.1,0-0.1,0
		L23.7,4.6z M23.5,5.3l-0.2,0.1c0,0-0.1,0-0.1,0L23.1,5c0,0,0-0.1,0-0.1l0.2-0.1c0,0,0.1,0,0.1,0l0.1,0.3
		C23.6,5.2,23.5,5.2,23.5,5.3 M22.8,5.7l-0.2,0.1c0,0-0.1,0-0.1,0l-0.1-0.3c0,0,0-0.1,0-0.1l0.2-0.1c0,0,0.1,0,0.1,0l0.1,0.3
		C22.9,5.6,22.9,5.6,22.8,5.7 M25.3,8.2l0.1,0.3c0,0,0,0.1,0,0.1l-0.2,0.1c0,0-0.1,0-0.1,0l-0.1-0.3c0,0,0-0.1,0-0.1L25.3,8.2
		C25.2,8.1,25.3,8.1,25.3,8.2 M24.7,9.1l-0.2,0.1c0,0-0.1,0-0.1,0l-0.1-0.3c0,0,0-0.1,0-0.1l0.2-0.1c0,0,0.1,0,0.1,0l0.1,0.3
		C24.7,9,24.7,9,24.7,9.1 M24,9.4l-0.2,0.1c0,0-0.1,0-0.1,0l-0.1-0.3c0,0,0-0.1,0-0.1l0.2-0.1c0,0,0.1,0,0.1,0L24,9.4
		C24.1,9.3,24.1,9.4,24,9.4 M23.3,9.7l-0.2,0.1c0,0-0.1,0-0.1,0l-0.1-0.3c0,0,0-0.1,0-0.1l0.2-0.1c0,0,0.1,0,0.1,0L23.3,9.7
		C23.4,9.6,23.4,9.7,23.3,9.7 M25.7,8.7l-1.6-4.9c-2.1,2.2-5.3,2-6.3,2c-2.9,0-4.1,0-4.1,0l1.6,4.9l0,0c0,0,1.2,0,4.1,0
		C20.4,10.6,23.4,10.6,25.7,8.7"/>
	<path class="st0" d="M19.1,20.4c0,0,0-0.1,0-0.1l0.3-0.2c0,0,0.1,0,0.1,0l0.1,0.2c0,0,0,0.1,0,0.1l-0.3,0.2c0,0-0.1,0-0.1,0
		L19.1,20.4z M18.7,19.7c0,0,0-0.1,0-0.1l0.3-0.2c0,0,0.1,0,0.1,0l0.1,0.2c0,0,0,0.1,0,0.1l-0.3,0.2c0,0-0.1,0-0.1,0L18.7,19.7z
		 M18.4,19c0,0,0-0.1,0-0.1l0.3-0.2c0,0,0.1,0,0.1,0l0.1,0.2c0,0,0,0.1,0,0.1l-0.3,0.2c0,0-0.1,0-0.1,0L18.4,19z M18.1,18.3
		c0,0,0-0.1,0-0.1l0.3-0.2c0,0,0.1,0,0.1,0l0.1,0.2c0,0,0,0.1,0,0.1l-0.3,0.2c0,0-0.1,0-0.1,0L18.1,18.3z M17.8,17.6
		c0,0,0-0.1,0-0.1l0.3-0.2c0,0,0.1,0,0.1,0l0.1,0.2c0,0,0,0.1,0,0.1L18,17.9c0,0-0.1,0-0.1,0L17.8,17.6z M17.6,16.9c0,0,0-0.1,0-0.1
		l0.3-0.2c0,0,0.1,0,0.1,0l0.1,0.2c0,0,0,0.1,0,0.1l-0.3,0.2c0,0-0.1,0-0.1,0L17.6,16.9z M17.3,16.1c0,0,0-0.1,0-0.1l0.3-0.2
		c0,0,0.1,0,0.1,0l0.1,0.2c0,0,0,0.1,0,0.1l-0.3,0.2c0,0-0.1,0-0.1,0L17.3,16.1z M17.1,15.4c0,0,0-0.1,0-0.1l0.3-0.2
		c0,0,0.1,0,0.1,0l0.1,0.2c0,0,0,0.1,0,0.1l-0.3,0.2c0,0-0.1,0-0.1,0L17.1,15.4z M16.9,14.6c0,0,0-0.1,0-0.1l0.3-0.2
		c0,0,0.1,0,0.1,0l0.1,0.2c0,0,0,0.1,0,0.1L17,14.9c0,0-0.1,0-0.1,0L16.9,14.6z M16.6,13.9c0,0,0-0.1,0-0.1l0.3-0.2c0,0,0.1,0,0.1,0
		l0.1,0.2c0,0,0,0.1,0,0.1l-0.3,0.2c0,0-0.1,0-0.1,0L16.6,13.9z M22.7,18.6l0.3-0.2c0,0,0.1,0,0.1,0l0.1,0.2c0,0,0,0.1,0,0.1
		l-0.3,0.2c0,0-0.1,0-0.1,0l-0.1-0.2C22.6,18.7,22.6,18.6,22.7,18.6 M22.2,18.1c0,0,0-0.1,0-0.1l0.3-0.2c0,0,0.1,0,0.1,0l0.1,0.2
		c0,0,0,0.1,0,0.1l-0.3,0.2c0,0-0.1,0-0.1,0L22.2,18.1z M21.9,17.4c0,0,0-0.1,0-0.1l0.3-0.2c0,0,0.1,0,0.1,0l0.1,0.2
		c0,0,0,0.1,0,0.1l-0.3,0.2c0,0-0.1,0-0.1,0L21.9,17.4z M21.6,16.7c0,0,0-0.1,0-0.1l0.3-0.2c0,0,0.1,0,0.1,0l0.1,0.2
		c0,0,0,0.1,0,0.1L21.7,17c0,0-0.1,0-0.1,0L21.6,16.7z M21.3,16c0,0,0-0.1,0-0.1l0.3-0.2c0,0,0.1,0,0.1,0l0.1,0.2c0,0,0,0.1,0,0.1
		l-0.3,0.2c0,0-0.1,0-0.1,0L21.3,16z M21,15.3c0,0,0-0.1,0-0.1l0.3-0.2c0,0,0.1,0,0.1,0l0.1,0.2c0,0,0,0.1,0,0.1l-0.3,0.2
		c0,0-0.1,0-0.1,0L21,15.3z M20.8,14.5c0,0,0-0.1,0-0.1l0.3-0.2c0,0,0.1,0,0.1,0l0.1,0.2c0,0,0,0.1,0,0.1L21,14.8c0,0-0.1,0-0.1,0
		L20.8,14.5z M20.6,13.8c0,0,0-0.1,0-0.1l0.3-0.2c0,0,0.1,0,0.1,0l0.1,0.2c0,0,0,0.1,0,0.1l-0.3,0.2c0,0-0.1,0-0.1,0L20.6,13.8z
		 M20.3,13.1c0,0,0-0.1,0-0.1l0.3-0.2c0,0,0.1,0,0.1,0l0.1,0.2c0,0,0,0.1,0,0.1l-0.3,0.2c0,0-0.1,0-0.1,0L20.3,13.1z M20.1,12.3
		c0,0,0-0.1,0-0.1l0.3-0.2c0,0,0.1,0,0.1,0l0.1,0.2c0,0,0,0.1,0,0.1l-0.3,0.2c0,0-0.1,0-0.1,0L20.1,12.3z M19.8,11.6
		c0,0,0-0.1,0-0.1l0.3-0.2c0,0,0.1,0,0.1,0l0.1,0.2c0,0,0,0.1,0,0.1L20,11.8c0,0-0.1,0-0.1,0L19.8,11.6z M24.6,20c0,0,0.1,0,0.1,0
		l0.2,0.1c0,0,0,0.1,0,0.1l-0.3,0.2c0,0-0.1,0-0.1,0l-0.2-0.1c0,0,0-0.1,0-0.1L24.6,20z M23.9,19.9l-0.2-0.1c0,0,0-0.1,0-0.1
		l0.3-0.2c0,0,0.1,0,0.1,0l0.2,0.1c0,0,0,0.1,0,0.1L24,19.9C24,20,23.9,20,23.9,19.9 M23.3,19.4l-0.2-0.2c0,0,0-0.1,0-0.1l0.3-0.2
		c0,0,0.1,0,0.1,0l0.2,0.2c0,0,0,0.1,0,0.1l-0.3,0.2C23.4,19.5,23.3,19.5,23.3,19.4 M21.7,22.6l-0.3,0.2c0,0-0.1,0-0.1,0l-0.2-0.1
		c0,0,0-0.1,0-0.1l0.3-0.2c0,0,0.1,0,0.1,0L21.7,22.6C21.7,22.5,21.7,22.5,21.7,22.6 M20.7,22.3l-0.2-0.2c0,0,0-0.1,0-0.1l0.3-0.2
		c0,0,0.1,0,0.1,0l0.2,0.2c0,0,0,0.1,0,0.1l-0.3,0.2C20.8,22.3,20.7,22.3,20.7,22.3 M20.2,21.7L20,21.6c0,0,0-0.1,0-0.1l0.3-0.2
		c0,0,0.1,0,0.1,0l0.2,0.2c0,0,0,0.1,0,0.1l-0.3,0.2C20.2,21.8,20.2,21.8,20.2,21.7 M19.7,21.2L19.5,21c0,0,0-0.1,0-0.1l0.3-0.2
		c0,0,0.1,0,0.1,0l0.1,0.2c0,0,0,0.1,0,0.1L19.7,21.2C19.7,21.2,19.7,21.2,19.7,21.2 M21.4,23.1l4.1-3.1c-2.8-1.4-3.6-4.5-3.9-5.4
		c-0.9-2.8-1.3-3.9-1.3-3.9l-4.1,3l0,0c0,0,0.4,1.2,1.3,4C17.9,18.6,18.9,21.5,21.4,23.1"/>
	<path class="st0" d="M8.3,20.4c0,0,0.1,0,0.1,0l0.3,0.2c0,0,0,0.1,0,0.1l-0.1,0.2c0,0-0.1,0-0.1,0l-0.3-0.2c0,0,0-0.1,0-0.1
		L8.3,20.4z M8.8,19.8c0,0,0.1,0,0.1,0L9.2,20c0,0,0,0.1,0,0.1L9,20.3c0,0-0.1,0-0.1,0l-0.3-0.2c0,0,0-0.1,0-0.1L8.8,19.8z
		 M9.3,19.3c0,0,0.1,0,0.1,0l0.3,0.2c0,0,0,0.1,0,0.1l-0.2,0.2c0,0-0.1,0-0.1,0l-0.3-0.2c0,0,0-0.1,0-0.1L9.3,19.3z M9.9,18.8
		c0,0,0.1,0,0.1,0l0.3,0.2c0,0,0,0.1,0,0.1l-0.2,0.1c0,0-0.1,0-0.1,0L9.7,19c0,0,0-0.1,0-0.1L9.9,18.8z M10.5,18.3c0,0,0.1,0,0.1,0
		l0.3,0.2c0,0,0,0.1,0,0.1l-0.2,0.1c0,0-0.1,0-0.1,0l-0.3-0.2c0,0,0-0.1,0-0.1L10.5,18.3z M11.1,17.8c0,0,0.1,0,0.1,0l0.3,0.2
		c0,0,0,0.1,0,0.1l-0.2,0.1c0,0-0.1,0-0.1,0L10.9,18c0,0,0-0.1,0-0.1L11.1,17.8z M11.8,17.4c0,0,0.1,0,0.1,0l0.3,0.2
		c0,0,0,0.1,0,0.1L12,17.8c0,0-0.1,0-0.1,0l-0.3-0.2c0,0,0-0.1,0-0.1L11.8,17.4z M12.4,16.9c0,0,0.1,0,0.1,0l0.3,0.2
		c0,0,0,0.1,0,0.1l-0.2,0.1c0,0-0.1,0-0.1,0l-0.3-0.2c0,0,0-0.1,0-0.1L12.4,16.9z M13,16.4c0,0,0.1,0,0.1,0l0.3,0.2c0,0,0,0.1,0,0.1
		l-0.2,0.1c0,0-0.1,0-0.1,0l-0.3-0.2c0,0,0-0.1,0-0.1L13,16.4z M13.7,16c0,0,0.1,0,0.1,0l0.3,0.2c0,0,0,0.1,0,0.1l-0.2,0.1
		c0,0-0.1,0-0.1,0l-0.3-0.2c0,0,0-0.1,0-0.1L13.7,16z M11.1,23.3l0.3,0.2c0,0,0,0.1,0,0.1l-0.1,0.2c0,0-0.1,0-0.1,0l-0.3-0.2
		c0,0,0-0.1,0-0.1L11.1,23.3C11,23.2,11,23.2,11.1,23.3 M11.4,22.7C11.4,22.6,11.5,22.6,11.4,22.7l0.4,0.2c0,0,0,0.1,0,0.1l-0.1,0.2
		c0,0-0.1,0-0.1,0L11.3,23c0,0,0-0.1,0-0.1L11.4,22.7z M11.9,22.1c0,0,0.1,0,0.1,0l0.3,0.2c0,0,0,0.1,0,0.1l-0.2,0.2
		c0,0-0.1,0-0.1,0l-0.3-0.2c0,0,0-0.1,0-0.1L11.9,22.1z M12.5,21.6c0,0,0.1,0,0.1,0l0.3,0.2c0,0,0,0.1,0,0.1l-0.2,0.2
		c0,0-0.1,0-0.1,0l-0.3-0.2c0,0,0-0.1,0-0.1L12.5,21.6z M13.1,21.1c0,0,0.1,0,0.1,0l0.3,0.2c0,0,0,0.1,0,0.1l-0.2,0.1
		c0,0-0.1,0-0.1,0l-0.3-0.2c0,0,0-0.1,0-0.1L13.1,21.1z M13.7,20.7c0,0,0.1,0,0.1,0l0.3,0.2c0,0,0,0.1,0,0.1l-0.2,0.1
		c0,0-0.1,0-0.1,0l-0.3-0.2c0,0,0-0.1,0-0.1L13.7,20.7z M14.3,20.2c0,0,0.1,0,0.1,0l0.3,0.2c0,0,0,0.1,0,0.1l-0.2,0.1
		c0,0-0.1,0-0.1,0l-0.3-0.2c0,0,0-0.1,0-0.1L14.3,20.2z M14.9,19.7c0,0,0.1,0,0.1,0l0.3,0.2c0,0,0,0.1,0,0.1l-0.2,0.1
		c0,0-0.1,0-0.1,0L14.7,20c0,0,0-0.1,0-0.1L14.9,19.7z M15.6,19.3c0,0,0.1,0,0.1,0l0.3,0.2c0,0,0,0.1,0,0.1l-0.2,0.1
		c0,0-0.1,0-0.1,0l-0.3-0.2c0,0,0-0.1,0-0.1L15.6,19.3z M16.2,18.8c0,0,0.1,0,0.1,0l0.3,0.2c0,0,0,0.1,0,0.1l-0.2,0.1
		c0,0-0.1,0-0.1,0L16,19c0,0,0-0.1,0-0.1L16.2,18.8z M16.8,18.4c0,0,0.1,0,0.1,0l0.3,0.2c0,0,0,0.1,0,0.1L17,18.8c0,0-0.1,0-0.1,0
		l-0.3-0.2c0,0,0-0.1,0-0.1L16.8,18.4z M10.4,25.5c0,0,0,0.1,0,0.1l-0.1,0.2c0,0,0,0.1-0.1,0L10,25.7c0,0,0-0.1,0-0.1l0.1-0.2
		c0,0,0-0.1,0.1,0L10.4,25.5z M10.2,24.8l0.1-0.2c0,0,0.1-0.1,0.1,0l0.3,0.2c0,0,0,0.1,0,0.1l-0.1,0.2c0,0-0.1,0.1-0.1,0l-0.3-0.2
		C10.2,24.9,10.2,24.9,10.2,24.8 M10.5,24.1l0.1-0.2c0,0,0.1,0,0.1,0l0.3,0.2c0,0,0,0.1,0,0.1l-0.1,0.2c0,0-0.1,0-0.1,0l-0.3-0.2
		C10.5,24.2,10.5,24.2,10.5,24.1 M7.1,23.5l-0.3-0.2c0,0,0-0.1,0-0.1L6.8,23c0,0,0.1-0.1,0.1,0l0.3,0.2c0,0,0,0.1,0,0.1L7.1,23.5
		C7.1,23.5,7.1,23.5,7.1,23.5 M7,22.5l0.1-0.2c0,0,0.1,0,0.1,0l0.3,0.2c0,0,0,0.1,0,0.1l-0.1,0.2c0,0-0.1,0.1-0.1,0l-0.3-0.2
		C7,22.6,7,22.5,7,22.5 M7.4,21.8l0.1-0.2c0,0,0.1,0,0.1,0l0.3,0.2c0,0,0,0.1,0,0.1l-0.1,0.2c0,0-0.1,0-0.1,0l-0.3-0.2
		C7.4,21.9,7.3,21.8,7.4,21.8 M7.7,21.2L7.9,21c0,0,0.1,0,0.1,0l0.3,0.2c0,0,0,0.1,0,0.1l-0.1,0.2c0,0-0.1,0-0.1,0l-0.3-0.2
		C7.7,21.2,7.7,21.2,7.7,21.2 M6.4,23.4l4.1,3c0.4-3.1,3.1-4.8,3.9-5.4c2.3-1.7,3.3-2.4,3.3-2.4l-4.1-3l0,0c0,0-1,0.7-3.4,2.5
		C9.6,18.6,7.2,20.5,6.4,23.4"/>
	<path class="st0" d="M5,10C5,10,5.1,10,5,10l-0.1,0.4c0,0-0.1,0.1-0.1,0l-0.2-0.1c0,0-0.1-0.1,0-0.1l0.1-0.3c0,0,0.1-0.1,0.1,0
		L5,10z M5.7,10.3C5.7,10.3,5.7,10.3,5.7,10.3l-0.1,0.4c0,0-0.1,0-0.1,0l-0.2-0.1c0,0-0.1-0.1,0-0.1l0.1-0.3c0,0,0.1-0.1,0.1,0
		L5.7,10.3z M6.3,10.6c0,0,0.1,0.1,0,0.1l-0.1,0.3c0,0-0.1,0-0.1,0L6,11c0,0-0.1-0.1,0-0.1l0.1-0.3c0,0,0.1-0.1,0.1,0L6.3,10.6z
		 M7,11c0,0,0.1,0.1,0,0.1l-0.1,0.3c0,0,0,0-0.1,0l-0.2-0.1c0,0-0.1-0.1,0-0.1l0.1-0.3c0,0,0.1,0,0.1,0L7,11z M7.6,11.5
		c0,0,0.1,0.1,0,0.1l-0.1,0.3c0,0,0,0-0.1,0l-0.2-0.1c0,0-0.1-0.1,0-0.1l0.1-0.3c0,0,0,0,0.1,0L7.6,11.5z M8.3,11.9
		c0,0,0.1,0.1,0,0.1l-0.1,0.3c0,0,0,0-0.1,0l-0.2-0.1c0,0,0-0.1,0-0.1L8,11.8c0,0,0,0,0.1,0L8.3,11.9z M8.9,12.4c0,0,0.1,0.1,0,0.1
		l-0.1,0.3c0,0,0,0-0.1,0l-0.2-0.1c0,0-0.1-0.1,0-0.1l0.1-0.3c0,0,0,0,0.1,0L8.9,12.4z M9.5,12.8c0,0,0.1,0.1,0,0.1l-0.1,0.3
		c0,0,0,0-0.1,0l-0.2-0.1c0,0-0.1-0.1,0-0.1l0.1-0.3c0,0,0,0,0.1,0L9.5,12.8z M10.2,13.3c0,0,0.1,0.1,0,0.1l-0.1,0.3c0,0,0,0-0.1,0
		l-0.2-0.1c0,0-0.1-0.1,0-0.1l0.1-0.3c0,0,0,0,0.1,0L10.2,13.3z M10.8,13.8c0,0,0.1,0.1,0,0.1l-0.1,0.3c0,0,0,0-0.1,0l-0.2-0.1
		c0,0-0.1-0.1,0-0.1l0.1-0.3c0,0,0,0,0.1,0L10.8,13.8z M3.1,13.5L3,13.9c0,0-0.1,0.1-0.1,0l-0.2-0.1c0,0-0.1,0,0-0.1l0.1-0.3
		c0,0,0.1-0.1,0.1,0L3.1,13.5C3.1,13.4,3.1,13.5,3.1,13.5 M3.8,13.7C3.8,13.7,3.8,13.7,3.8,13.7l-0.1,0.4c0,0-0.1,0.1-0.1,0
		l-0.2-0.1c0,0-0.1-0.1,0-0.1l0.1-0.3c0,0,0.1-0.1,0.1,0L3.8,13.7z M4.5,14c0,0,0.1,0.1,0,0.1l-0.1,0.3c0,0-0.1,0.1-0.1,0l-0.2-0.1
		c0,0-0.1-0.1,0-0.1l0.1-0.3c0,0,0.1,0,0.1,0L4.5,14z M5.1,14.4c0,0,0.1,0.1,0,0.1L5,14.8c0,0-0.1,0-0.1,0l-0.2-0.1
		c0,0-0.1-0.1,0-0.1l0.1-0.3c0,0,0.1,0,0.1,0L5.1,14.4z M5.7,14.8c0,0,0.1,0.1,0,0.1l-0.1,0.3c0,0,0,0-0.1,0l-0.2-0.1
		c0,0-0.1-0.1,0-0.1l0.1-0.3c0,0,0,0,0.1,0L5.7,14.8z M6.4,15.2c0,0,0.1,0.1,0,0.1l-0.1,0.3c0,0,0,0-0.1,0L6,15.6c0,0-0.1-0.1,0-0.1
		l0.1-0.3c0,0,0,0,0.1,0L6.4,15.2z M7,15.7c0,0,0.1,0.1,0,0.1l-0.1,0.3c0,0-0.1,0-0.1,0L6.7,16c0,0-0.1-0.1,0-0.1l0.1-0.3
		c0,0,0,0,0.1,0L7,15.7z M7.6,16.2c0,0,0.1,0.1,0,0.1l-0.1,0.3c0,0-0.1,0-0.1,0l-0.2-0.1c0,0-0.1-0.1,0-0.1L7.4,16c0,0,0,0,0.1,0
		L7.6,16.2z M8.3,16.6c0,0,0.1,0.1,0,0.1l-0.1,0.3c0,0-0.1,0-0.1,0l-0.2-0.1c0,0-0.1-0.1,0-0.1L8,16.5c0,0,0,0,0.1,0L8.3,16.6z
		 M8.9,17.1c0,0,0.1,0.1,0,0.1l-0.1,0.3c0,0-0.1,0-0.1,0l-0.2-0.1c0,0-0.1-0.1,0-0.1L8.6,17c0,0,0,0,0.1,0L8.9,17.1z M9.5,17.5
		c0,0,0.1,0.1,0,0.1L9.4,18c0,0,0,0-0.1,0l-0.2-0.1c0,0-0.1-0.1,0-0.1l0.1-0.3c0,0,0,0,0.1,0L9.5,17.5z M0.8,13.6
		c0,0-0.1,0.1-0.1,0.1l-0.2,0c0,0-0.1,0-0.1-0.1l0.1-0.3c0,0,0.1-0.1,0.1-0.1l0.2,0c0,0,0.1,0,0.1,0.1L0.8,13.6z M1.4,13.2l0.2,0
		c0,0,0.1,0,0.1,0.1l-0.1,0.3c0,0-0.1,0.1-0.1,0.1l-0.2,0c0,0-0.1,0-0.1-0.1L1.4,13.2C1.3,13.2,1.3,13.2,1.4,13.2 M2.1,13.2l0.2,0
		c0,0,0.1,0,0.1,0.1l-0.1,0.3c0,0-0.1,0.1-0.1,0.1l-0.2,0c0,0-0.1,0-0.1-0.1L2.1,13.2C2.1,13.2,2.1,13.2,2.1,13.2 M1.7,9.7l0.1-0.3
		c0,0,0.1-0.1,0.1-0.1l0.2,0c0,0,0.1,0,0.1,0.1L2,9.8c0,0-0.1,0.1-0.1,0.1L1.7,9.7C1.7,9.8,1.6,9.8,1.7,9.7 M2.6,9.4l0.2,0
		c0,0,0.1,0,0.1,0.1L2.8,9.8c0,0-0.1,0.1-0.1,0.1l-0.2,0c0,0-0.1,0-0.1-0.1L2.6,9.4C2.5,9.4,2.6,9.4,2.6,9.4 M3.4,9.5l0.2,0
		c0,0,0.1,0,0.1,0.1L3.5,10c0,0-0.1,0.1-0.1,0.1l-0.2,0c0,0-0.1,0-0.1-0.1L3.4,9.5C3.3,9.5,3.3,9.5,3.4,9.5 M4.1,9.7l0.2,0.1
		c0,0,0.1,0.1,0,0.1l-0.1,0.3c0,0-0.1,0.1-0.1,0l-0.2-0.1c0,0-0.1-0.1,0-0.1L4.1,9.7C4,9.7,4,9.7,4.1,9.7 M1.6,9.1L0,14
		c3-0.5,5.5,1.5,6.3,2.1c2.3,1.7,3.3,2.4,3.3,2.4l1.6-4.9l0,0c0,0-1-0.8-3.3-2.5C7,10.6,4.6,8.9,1.6,9.1"/>
</g>
</svg>
