<?xml version="1.0" encoding="utf-8"?>
<!-- Generator: Adobe Illustrator 26.2.1, SVG Export Plug-In . SVG Version: 6.00 Build 0)  -->
<svg version="1.1" id="Capa_1" xmlns="http://www.w3.org/2000/svg" xmlns:xlink="http://www.w3.org/1999/xlink" x="0px" y="0px"
	 viewBox="0 0 39.7 47" style="enable-background:new 0 0 39.7 47;" xml:space="preserve">
<style type="text/css">
	.st0{fill:#FFFFFF;}
	.st1{fill:url(#SVGID_1_);}
	.st2{fill:url(#SVGID_00000116951633873198916010000016019459269362080950_);}
</style>
<g>
	<g>
		<path class="st0" d="M8.5,46.9H7.8c0-0.1-0.1-0.4-0.1-0.9c-0.3,0.5-0.8,1-2,1c-1.9,0-2.9-1.4-2.9-3.2c0-1.9,1.1-3.4,3-3.4
			c1.5,0,2.5,0.8,2.7,2H7.7c-0.2-0.7-0.7-1.2-1.8-1.2c-1.5,0-2.1,1.2-2.1,2.6c0,1.3,0.6,2.6,2.1,2.6c1.5,0,1.8-1,1.8-2v-0.1H5.8
			v-0.7h2.7V46.9z"/>
		<path class="st0" d="M14.2,43.9H11v2.3h3.6l-0.1,0.7h-4.3v-6.4h4.3v0.7H11v2h3.2V43.9z"/>
		<path class="st0" d="M16.8,40.5v6.4H16v-6.4H16.8z"/>
		<path class="st0" d="M18.1,46.9v-6.4h1.1c0.9,1.5,3,4.7,3.3,5.4h0C22.6,45,22.6,44,22.6,43v-2.5h0.8v6.4h-1.1
			c-0.9-1.4-3-4.8-3.4-5.6h0c0,0.7,0,1.8,0,3v2.6H18.1z"/>
		<path class="st0" d="M30.1,45.1C29.8,46.2,29,47,27.5,47c-2,0-2.9-1.5-2.9-3.3c0-1.7,1-3.3,3-3.3c1.5,0,2.4,0.9,2.6,1.9h-0.9
			c-0.2-0.7-0.7-1.2-1.7-1.2c-1.4,0-2,1.3-2,2.6c0,1.3,0.6,2.6,2.1,2.6c1,0,1.4-0.6,1.7-1.2H30.1z"/>
		<path class="st0" d="M37.1,43.6c0,1.8-1,3.3-3.1,3.3c-1.9,0-3-1.5-3-3.3c0-1.8,1.1-3.3,3.1-3.3C35.9,40.4,37.1,41.7,37.1,43.6z
			 M31.9,43.6c0,1.4,0.7,2.6,2.1,2.6c1.5,0,2.1-1.2,2.1-2.6c0-1.4-0.7-2.6-2.1-2.6C32.6,41.1,31.9,42.3,31.9,43.6z"/>
	</g>
	<g>
		<path class="st0" d="M38.9,13.8c-0.2-0.1-2.3-1.7-5-3.7c0-1.7,0-4.9,0-5.3c0-0.5-0.3-1.3-3-1.3s-2.5,1.2-2.5,1.2V6
			c-4-3-7.5-5.7-7.5-5.7S20.4,0,19.8,0c-0.5,0-1.1,0.3-1.1,0.3S1.3,13.5,0.7,13.8c-0.6,0.4-1.1,1.2-0.4,1.8c0.6,0.6,1.7,0,1.7,0
			L19.8,2.1h0.1l17.8,13.5c0,0,1,0.6,1.7,0C40,15,39.5,14.2,38.9,13.8z"/>
		<path class="st0" d="M19.8,0C19.8,0,19.8,0,19.8,0c0.1,0,0.1,0,0.1,0H19.8z"/>
	</g>
	<path class="st0" d="M19.8,6h0.1L34,16v13.5c0,1.7-1.4,3.1-3.1,3.1c-1.9,0-6.1,0-6.1,0s-0.5-0.2-0.5-1.2c0-1,0-8,0-8
		s0.4-2.8-4.4-2.8h-0.1h0.1h-0.1c-4.8,0-4.4,2.8-4.4,2.8s0,7,0,8c0,1-0.5,1.2-0.5,1.2s-4.2,0-6.1,0c-1.7,0-3.1-1.4-3.1-3.1V16
		L19.8,6h0.1H19.8z"/>
	<g>
		<linearGradient id="SVGID_1_" gradientUnits="userSpaceOnUse" x1="10.5382" y1="38.477" x2="10.5382" y2="32.551">
			<stop  offset="0" style="stop-color:#FFFFFF;stop-opacity:0"/>
			<stop  offset="1" style="stop-color:#FFFFFF"/>
		</linearGradient>
		<path class="st1" d="M15.4,33.8c0-1-0.5-1.2-0.5-1.2s-4.2,0-6.1,0c-1.7,0-3.1,1.4-3.1,3.1v2.9h9.7C15.4,36.5,15.4,34.3,15.4,33.8z
			"/>
		
			<linearGradient id="SVGID_00000172417882876869494510000006527796595841761936_" gradientUnits="userSpaceOnUse" x1="29.1479" y1="38.477" x2="29.1479" y2="32.551">
			<stop  offset="0" style="stop-color:#FFFFFF;stop-opacity:0"/>
			<stop  offset="1" style="stop-color:#FFFFFF"/>
		</linearGradient>
		<path style="fill:url(#SVGID_00000172417882876869494510000006527796595841761936_);" d="M34,35.6c0-1.7-1.4-3.1-3.1-3.1
			c-1.9,0-6.1,0-6.1,0s-0.5,0.2-0.5,1.2c0,0.5,0,2.7,0,4.7H34V35.6z"/>
	</g>
</g>
</svg>
