<?xml version="1.0" encoding="utf-8"?>
<!-- Generator: Adobe Illustrator 26.2.1, SVG Export Plug-In . SVG Version: 6.00 Build 0)  -->
<svg version="1.1" id="Capa_1" xmlns="http://www.w3.org/2000/svg" xmlns:xlink="http://www.w3.org/1999/xlink" x="0px" y="0px"
	 viewBox="0 0 107.6 24.3" style="enable-background:new 0 0 107.6 24.3;" xml:space="preserve">
<style type="text/css">
	.st0{fill:#FFFFFF;}
</style>
<g id="_x39_nOapi_00000084493765213432737320000007096825701860430980_">
	<g>
		<path class="st0" d="M13.5,7.6c0,0.4,0,0.8,0,1.2c0,4.8,0,9.6,0,14.3c0,0.1,0,0.2,0,0.2c0,0.5-0.4,0.8-0.9,0.8c-0.9,0-1.7,0-2.6,0
			c-0.5,0-0.9-0.4-0.9-0.9c0-1.4,0-2.8,0-4.2c0-5.8,0-11.6,0-17.5c0-0.1,0-0.2,0-0.3c-2.5,0-5,0-7.5,0c0,0.1,0,0.2,0,0.3
			c0,7.2,0,14.3,0,21.5c0,0.4-0.1,0.7-0.4,0.9c-0.2,0.2-0.3,0.2-0.5,0.1C0.2,24,0,23.7,0,23.2C0,15.8,0,8.5,0,1.1
			c0-0.3,0.1-0.5,0.1-0.8C0.2,0.1,0.3,0,0.6,0c3.2,0,6.3,0,9.5,0c0.2,0,0.3,0.1,0.4,0.3c0,0.1,0,0.2,0,0.2c0,0.2,0,0.4,0.2,0.7
			c0.1,0.1,0.1,0.3,0.1,0.5c0,4.1,0,8.1,0,12.2c0,2.7,0,5.4,0,8.1c0,0.4,0.2,0.7,0.6,0.7c0.2,0,0.4,0,0.6-0.1c0.2,0,0.2-0.1,0.2-0.3
			c0-1.3,0-2.5,0-3.8c0-3.8,0-7.6,0-11.4c0-0.6,0-1.1,0-1.7c0-0.3,0.1-0.4,0.4-0.5c0.4-0.1,0.7,0,1,0.3c2.1,2.1,4.1,4.1,6.2,6.2
			c0.4,0.4,0.8,0.8,1.2,1.2c0-0.4,0-0.8,0-1.2c0-0.9,0-1.7,0.1-2.6c0-0.5,0.5-1,1-1c2.8,0,5.6,0,8.4,0c0.5,0,1.1,0.5,1.1,1.1
			c0,4.8,0,9.6,0,14.4c0,0.4-0.2,0.6-0.6,0.8c-0.3,0.2-0.6,0-0.8-0.3c-2.8-2.8-5.7-5.6-8.5-8.4c-2.6-2.6-5.3-5.2-7.9-7.8
			C13.6,7.8,13.6,7.7,13.5,7.6z M22.6,9.5c0,0.1,0,0.1,0,0.1c0,1.5,0,3.1,0,4.6c0,0.1,0.1,0.2,0.1,0.3c0.5,0.5,1,1,1.5,1.5
			c1.8,1.8,3.6,3.6,5.4,5.4c0.1,0.1,0.2,0.1,0.2,0.1c0.1-0.1,0.2-0.2,0.2-0.3c0-0.1,0-0.2-0.1-0.3c-0.1-0.3-0.2-0.5-0.2-0.8
			c0-3.1,0-6.2,0-9.4c0-0.3,0-0.6,0.2-0.9c0.1-0.1,0-0.3-0.1-0.4c-0.2-0.1-0.4-0.2-0.7-0.2c-2.1,0-4.3,0-6.4,0
			C22.8,9.5,22.7,9.5,22.6,9.5z"/>
		<path class="st0" d="M50.3,17.1c-0.1,2.3-0.1,4.6-0.2,6.9c-0.6,0-1.2,0-1.8,0C48.2,24,48,24,47.9,24c-0.2,0-0.2-0.1-0.2-0.3
			c0-3.5,0-7,0-10.5c0-0.5,0.3-0.8,0.8-0.8c0.4,0,0.8,0,1.2,0c0.3,0,0.6,0.1,0.8,0.4c1.4,2,2.8,4,4.2,6c0,0.1,0.1,0.1,0.2,0.2
			c0-2.2,0.1-4.4,0.1-6.6c0.8-0.1,1.5-0.1,2.3,0c0.2,0,0.2,0.1,0.2,0.3c0,3.6,0,7.1,0,10.7c0,0.2-0.1,0.3-0.2,0.4
			c-0.4,0.3-0.9,0.2-1.4,0.2c-0.1,0-0.1,0-0.2,0c-0.3-0.1-0.6-0.2-0.8-0.5c-1.5-2.1-2.9-4.2-4.4-6.3C50.4,17.2,50.4,17.2,50.3,17.1
			C50.3,17.1,50.3,17.1,50.3,17.1z"/>
		<path class="st0" d="M78.9,17.1c0,0.1,0,0.1,0,0.2c0,1,0,2.1,0,3.1c0,0.9,0,1.8,0,2.7c0,0.2-0.1,0.4-0.1,0.5
			c-0.1,0.2-0.3,0.4-0.6,0.4c-0.6,0-1.2,0-1.8,0c0-3.9,0-7.7,0-11.5c0.8-0.1,1.5-0.1,2.2,0.1c0.1,0,0.2,0.1,0.2,0.2
			c1.4,2,2.8,4,4.2,6c0.1,0.1,0.1,0.2,0.2,0.3c0,0,0,0,0.1,0c0-0.2,0-0.5,0-0.7c0-1.8,0.1-3.6,0.1-5.4c0-0.1,0-0.2,0.2-0.3
			c0.5-0.2,1-0.2,1.6-0.1c0.2,0,0.4,0.1,0.5,0.1c0.2,0,0.2,0.1,0.2,0.3c0,0.9,0,1.9,0,2.8c0,2.6,0,5.3,0,7.9c0,0.2-0.1,0.3-0.3,0.4
			c-0.1,0-0.3,0.1-0.4,0.1c-0.5,0-1,0-1.4-0.1c-0.1,0-0.2-0.1-0.2-0.1c-1.1-1.6-2.3-3.3-3.4-4.9c-0.4-0.5-0.7-1.1-1.1-1.6
			C79,17.3,79,17.2,78.9,17.1z"/>
		<path class="st0" d="M107.6,23.9c-0.3,0-0.6,0.1-0.9,0.1c-0.6,0-1.2,0-1.7,0c-0.1,0-0.2-0.1-0.2-0.2c-0.3-0.8-0.6-1.5-0.8-2.3
			c-0.1-0.2-0.1-0.2-0.3-0.2c-1.2,0-2.4,0-3.6,0c-0.2,0-0.3,0.1-0.3,0.2c-0.2,0.7-0.5,1.3-0.7,2C98.9,24,98.9,24,98.3,24
			c-0.7,0-1.3,0-2,0c0.1-0.3,0.1-0.5,0.2-0.7c0.4-1,0.7-1.9,1.1-2.9c0.5-1.4,1-2.8,1.5-4.1c0.5-1.2,1-2.4,1.4-3.6
			c0.1-0.1,0.1-0.2,0.3-0.2c0.6,0,1.2,0,1.8-0.1c0,0,0.1,0,0.1,0c0.4-0.1,0.6,0.2,0.7,0.5c0.4,1,0.8,2.1,1.2,3.1
			c0.5,1.4,1.1,2.9,1.6,4.3c0.4,1.1,0.9,2.2,1.3,3.3C107.6,23.8,107.6,23.8,107.6,23.9z M103.1,18.9c-0.5-1-0.7-2.1-1.3-3.1
			c-0.4,1.1-0.9,2.1-1.1,3.2C101.5,19,102.3,19.2,103.1,18.9z"/>
		<path class="st0" d="M64.3,20.3c0.1-0.4,0.3-0.7,0.4-1.1c0.8-2.1,1.5-4.2,2.3-6.3c0-0.1,0.1-0.2,0.2-0.2c0.6-0.2,2-0.2,2.6,0
			c-0.2,0.4-0.3,0.8-0.5,1.3c-0.9,2.3-1.7,4.6-2.6,6.8c-0.4,1-0.8,2-1.2,3.1c-0.1,0.2-0.1,0.2-0.3,0.2c-0.7,0.1-1.5,0.1-2.2-0.1
			c-0.1,0-0.2-0.1-0.3-0.2c-0.6-1.6-1.2-3.1-1.8-4.7c-0.8-2.1-1.6-4.2-2.4-6.3c0,0,0-0.1-0.1-0.2c0.3,0,0.6-0.1,0.9-0.1
			c0.7,0,1.3,0,2,0c0.1,0,0.1,0.1,0.2,0.1c0.6,1.6,1.1,3.2,1.7,4.8c0.3,0.9,0.6,1.8,0.9,2.7C64.3,20.1,64.3,20.2,64.3,20.3z"/>
		<path class="st0" d="M94.5,15.3c-0.4-0.2-0.9-0.3-1.3-0.5c-0.5-0.2-0.9-0.3-1.5-0.3c-0.2,0-0.4,0-0.6,0.1c-0.8,0.1-1,1.1-0.5,1.6
			c0.2,0.2,0.6,0.4,0.9,0.6c0.8,0.4,1.5,0.7,2.3,1.1c0.8,0.5,1.4,1.1,1.6,2.1c0.1,0.7,0,1.3-0.1,2C95,23,94.2,23.7,93.1,24
			c-1.6,0.5-3.2,0.3-4.8-0.4c-0.7-0.3-0.7-0.5-0.6-1.2c0.1-0.5,0.3-1.2,0.6-1.4c0.4,0.2,0.9,0.4,1.3,0.6c0.9,0.4,1.8,0.5,2.7,0.2
			c0.4-0.1,0.5-0.3,0.6-0.7c0.1-0.6-0.2-1.1-0.7-1.4c-0.6-0.3-1.3-0.6-1.9-0.9c-0.4-0.2-0.8-0.4-1.2-0.6c-1.1-0.7-1.4-1.7-1.3-3
			c0.1-1.5,1-2.3,2.4-2.8c1.6-0.6,3.1-0.2,4.6,0.5c0,0,0.1,0.1,0.1,0.1c-0.1,0.6-0.2,1.2-0.3,1.8C94.6,15.1,94.6,15.2,94.5,15.3z"/>
		<path class="st0" d="M71.3,12.4c0.8,0,1.6,0.1,2.4,0.1c0.2,0,0.3,0.1,0.3,0.3c0,2.3,0,4.7,0,7c0,1.3,0,2.5,0,3.8
			c0,0.1,0,0.2,0,0.3c-0.9,0.2-1.8,0.2-2.7,0.1C71.3,20.2,71.3,16.3,71.3,12.4z"/>
		<path class="st0" d="M45.3,24c-0.1,0-0.1,0-0.2,0c-0.7,0-1.4,0-2,0c-0.2,0-0.2-0.1-0.2-0.2c0-0.8,0-1.7,0-2.5c0-2.9,0-5.7,0-8.6
			c0-0.2,0-0.3,0.3-0.3c0.7,0,1.3,0,2,0c0.1,0,0.2,0,0.3,0C45.3,16.3,45.3,20.2,45.3,24z"/>
	</g>
</g>
</svg>
