<?xml version="1.0" encoding="utf-8"?>
<!-- Generator: Adobe Illustrator 26.2.1, SVG Export Plug-In . SVG Version: 6.00 Build 0)  -->
<svg version="1.1" id="Capa_1" xmlns="http://www.w3.org/2000/svg" xmlns:xlink="http://www.w3.org/1999/xlink" x="0px" y="0px"
	 viewBox="0 0 118.4 25.8" style="enable-background:new 0 0 118.4 25.8;" xml:space="preserve">
<style type="text/css">
	.st0{fill:#FFFFFF;}
</style>
<g>
	<path class="st0" d="M24.4,16.8l0.5,0.1h1.8l-0.5-0.1H24.4z M23.4,16.2l0.5,0.3h1.8l-0.5-0.3H23.4z M84.2,16h4.4v0.7
		c0,0.4-0.3,0.7-0.7,0.7h-3.7c-0.4,0-0.7-0.3-0.7-0.7v0C83.5,16.3,83.8,16,84.2,16z M64.3,16h4.4v0.7c0,0.4-0.3,0.7-0.7,0.7h-3.7
		c-0.4,0-0.7-0.3-0.7-0.7v0C63.6,16.3,63.9,16,64.3,16z M22.5,15.3l0.4,0.5h1.8l-0.4-0.5H22.5z M21.8,14l0.3,0.7H24L23.7,14H21.8z
		 M75.3,13.8h3.9c0.4,0,0.7,0.3,0.7,0.7v2.2c0,0.4-0.3,0.7-0.7,0.7h-3.9V13.8z M51.6,13.8c0.4,0,0.7,0.3,0.7,0.7v0
		c0,0.4-0.3,0.7-0.7,0.7h-3.9v-0.7c0-0.4,0.3-0.7,0.7-0.7H51.6z M73.3,12.9v0.9h1.1v7.5h0.9v-3h3.9c0.9,0,1.6-0.7,1.6-1.6v-2.2
		c0-0.9-0.7-1.6-1.6-1.6H73.3z M91.2,12.9v5.4h0.9v-3.8c0,0,0.1-0.1,0.2-0.1c0.2-0.1,0.5-0.2,0.8-0.3c0.6-0.2,1.4-0.3,1.6-0.3H96
		c0.4,0,0.7,0.3,0.7,0.7v0.3h0.9v-0.3c0-0.9-0.7-1.6-1.6-1.6h-1.3c-0.4,0-1.2,0.1-1.9,0.3c-0.2,0.1-0.5,0.2-0.7,0.2v-0.6H91.2z
		 M82.6,12.9v0.9h5.3c0.4,0,0.7,0.3,0.7,0.7v0.7h-4.4c-0.9,0-1.6,0.7-1.6,1.6v0c0,0.9,0.7,1.6,1.6,1.6h3.7c0.9,0,1.6-0.7,1.6-1.6
		v-2.2c0-0.9-0.7-1.6-1.6-1.6H82.6z M62.7,12.9v0.9H68c0.4,0,0.7,0.3,0.7,0.7v0.7h-4.4c-0.9,0-1.6,0.7-1.6,1.6v0
		c0,0.9,0.7,1.6,1.6,1.6H68c0.9,0,1.6-0.7,1.6-1.6v-2.2c0-0.9-0.7-1.6-1.6-1.6H62.7z M48.4,12.9c-0.9,0-1.6,0.7-1.6,1.6v2.2
		c0,0.9,0.7,1.6,1.6,1.6h4.9v-0.9h-4.9c-0.4,0-0.7-0.3-0.7-0.7V16h3.9c0.9,0,1.6-0.7,1.6-1.6v0c0-0.9-0.7-1.6-1.6-1.6H48.4z
		 M21.4,12.5l0.2,0.8h1.8l-0.2-0.8H21.4z M28.5,11.2c0,0.1,0,0.2,0,0.3c0,0.2,0,0.3-0.1,0.4c0,0.1-0.1,0.3-0.1,0.4
		c0,0.1-0.1,0.3-0.1,0.4c0,0.1-0.1,0.3-0.1,0.4c0,0.1-0.1,0.3-0.2,0.4c-0.1,0.1-0.1,0.2-0.2,0.4c-0.1,0.1-0.1,0.2-0.2,0.3
		s-0.1,0.2-0.2,0.3c-0.1,0.1-0.1,0.2-0.2,0.3c-0.1,0.1-0.2,0.2-0.2,0.3c-0.1,0.1-0.2,0.2-0.2,0.2c0,0,0,0,0,0
		c0.4,0.2,0.8,0.2,1.1,0.1c1.4-0.3,2.4-2.1,2.6-4.3H28.5z M21.2,10.8l0.1,0.8h1.8L23,10.8H21.2z M24.4,9.9c0,0.1,0,0.2,0,0.3
		c0,0.1,0,0.3,0,0.4c0,0.1,0,0.1,0,0.2h8.2c0.4,0,0.7,0.3,0.7,0.7v6.3h0.9v-3.4c0-0.4,0.3-0.7,0.7-0.7h3.2c0.4,0,0.7,0.3,0.7,0.7
		v3.4h0.9v-3.4c0-0.4,0.3-0.7,0.7-0.7h3.2c0.4,0,0.7,0.3,0.7,0.7v6.8h0.9v-6.8c0-0.9-0.7-1.6-1.6-1.6h-3.2c-0.5,0-0.9,0.2-1.2,0.5
		c-0.3-0.3-0.7-0.5-1.2-0.5h-3.2c-0.2,0-0.5,0.1-0.7,0.2v-1.5c0-0.9-0.7-1.6-1.6-1.6H24.4z M18.7,9.9v0.9h2.1v0V9.9v0H18.7z
		 M71.1,18.2h0.9V9.5h-0.9V18.2z M56.5,9.5v3.5h-2.2V14h2.2v2.7c0,0.9,0.7,1.6,1.6,1.6H60c0.9,0,1.5-0.7,1.6-1.5l0.2-1.6h-0.9
		l-0.2,1.5c0,0.4-0.3,0.7-0.7,0.7h-1.9c-0.4,0-0.7-0.3-0.7-0.7V14h2.2v-0.9h-2.2V9.5H56.5z M21.2,9.1L21.2,10H23l0.1-0.8H21.2z
		 M21.6,7.5l-0.2,0.8h1.8l0.2-0.8H21.6z M22.1,6.1l-0.3,0.7h1.8L24,6.1H22.1z M27.4,5.2c-0.1,0-0.3,0-0.4,0c-0.1,0-0.2,0.1-0.4,0.1
		c0.1,0,0.1,0.1,0.2,0.2c0.1,0.1,0.1,0.1,0.2,0.2c0.1,0.1,0.1,0.1,0.2,0.2c0.1,0.1,0.1,0.1,0.2,0.2c0.1,0.1,0.1,0.2,0.2,0.2
		c0.1,0.1,0.1,0.2,0.2,0.3c0.1,0.1,0.1,0.2,0.1,0.3c0,0.1,0.1,0.2,0.1,0.3c0,0.1,0.1,0.2,0.1,0.3c0,0.1,0.1,0.2,0.1,0.3
		c0,0.1,0.1,0.2,0.1,0.3c0,0.1,0.1,0.2,0.1,0.4c0,0.1,0,0.2,0.1,0.4c0,0.1,0,0.2,0.1,0.4c0,0.1,0,0.2,0,0.3h1.8
		C30.1,7,28.8,5.2,27.4,5.2z M22.9,5l-0.4,0.5h1.8L24.8,5H22.9z M23.9,4.2l-0.5,0.3h1.8l0.5-0.3H23.9z M24.9,3.9L24.4,4h1.8l0.5-0.1
		H24.9z M27.6,3.9l0,0.4c-0.2,0-0.3,0-0.5,0l0-0.4L26.6,4l0,0.4c-0.2,0.1-0.3,0.1-0.4,0.2l-0.1-0.4l-0.5,0.3l0.1,0.4
		c-0.1,0.1-0.3,0.2-0.4,0.4L25.2,5l-0.4,0.5l0.1,0.3c-0.1,0.2-0.2,0.3-0.3,0.5l-0.2-0.2l-0.3,0.7L24.3,7c-0.1,0.2-0.2,0.4-0.2,0.7
		l-0.2-0.1l-0.2,0.8l0.2,0.2c0,0.2-0.1,0.5-0.1,0.7l-0.2-0.1L23.4,10l0.2,0.1c0,0.3,0,0.5,0,0.8l-0.2,0.1l0.1,0.8l0.2-0.1
		c0,0.2,0.1,0.5,0.1,0.7l-0.2,0.2l0.2,0.8l0.2-0.2c0.1,0.2,0.1,0.4,0.2,0.7L24.1,14l0.3,0.7l0.2-0.2c0.1,0.2,0.2,0.4,0.3,0.5
		l-0.1,0.3l0.4,0.5l0.1-0.3c0.1,0.1,0.3,0.3,0.4,0.4l-0.1,0.4l0.5,0.3l0.1-0.4c0.1,0.1,0.3,0.1,0.4,0.2l0,0.4l0.5,0.1l0-0.4
		c0.2,0,0.3,0,0.5,0l0,0.4l0.5-0.1l0-0.4c0.2-0.1,0.3-0.1,0.4-0.2l0.1,0.4l0.5-0.3l-0.1-0.4c0.1-0.1,0.3-0.2,0.4-0.4l0.1,0.3
		l0.4-0.5L29.9,15c0.1-0.2,0.2-0.3,0.3-0.5l0.2,0.2l0.3-0.7l-0.2-0.2c0.1-0.2,0.2-0.4,0.2-0.7l0.2,0.1l0.2-0.8l-0.2-0.2
		c0-0.2,0.1-0.5,0.1-0.7l0.2,0.1l0-0.4h-0.6c-0.2,2.4-1.4,4.4-2.9,4.7c-1.9,0.4-3.6-1.7-3.8-4.8c-0.2-3.1,1.1-5.9,2.9-6.3
		c0.1,0,0.2,0,0.3,0c1.7-0.1,3.2,2,3.5,4.7h0.6l0-0.4l-0.2,0.1c0-0.2-0.1-0.5-0.1-0.7l0.2-0.1L31,7.5l-0.2,0.1
		c-0.1-0.2-0.1-0.4-0.2-0.7l0.2-0.2l-0.3-0.7l-0.2,0.2C30.1,6.1,30,6,29.9,5.8L30,5.5L29.6,5l-0.1,0.3c-0.1-0.1-0.3-0.3-0.4-0.4
		l0.1-0.4l-0.5-0.3l-0.1,0.4c-0.1-0.1-0.3-0.1-0.4-0.2l0-0.4L27.6,3.9z M1,0.6h0.3H23c0.5,0.9,1,1.8,1.4,2.7H94
		c0.5-0.9,1-1.8,1.4-2.7h22.1c-2.7,4.9-5.3,9.7-8,14.6C92.8,18.5,76,21.9,59.2,25.2c-16.8-3.4-33.5-6.7-50.3-10.1
		C6.3,10.3,3.6,5.4,1,0.6 M0,0c2.8,5.2,5.7,10.4,8.5,15.6c16.9,3.4,33.8,6.8,50.7,10.2C76.1,22.4,93,19,109.9,15.6
		c2.8-5.2,5.7-10.4,8.5-15.6H95.1c-0.5,0.9-1,1.8-1.4,2.7H24.8c-0.5-0.9-1-1.8-1.4-2.7H0z"/>
</g>
</svg>
