<?xml version="1.0" encoding="utf-8"?>
<!-- Generator: Adobe Illustrator 26.2.1, SVG Export Plug-In . SVG Version: 6.00 Build 0)  -->
<svg version="1.1" id="Capa_1" xmlns="http://www.w3.org/2000/svg" xmlns:xlink="http://www.w3.org/1999/xlink" x="0px" y="0px"
	 viewBox="0 0 113.8 24.3" style="enable-background:new 0 0 113.8 24.3;" xml:space="preserve">
<style type="text/css">
	.st0{fill:#FFFFFF;}
</style>
<g>
	<path class="st0" d="M8.8,13c0,1.9-1.7,3.5-3,3.5c-1.1,0-2-0.6-2.4-1.6V5.5H0v9.6c0.1,1.4,1.4,4.1,4.4,4.1c3,0,4.5-2.3,4.5-2.3v2
		h3.2V5.5H8.8V13z"/>
	<path class="st0" d="M20.2,16.5c-2.1,0-3.1-1.9-3.1-4.3c0-3,1.4-4.3,3.1-4.3s3.1,1.9,3.1,4.3C23.2,14.6,21.8,16.5,20.2,16.5
		 M23.2,0v7.3c-1-1.3-2.5-2.1-4.1-2.1c-3.2,0-5.7,2.2-5.7,7c0,3.9,1.7,7,5.7,7c1.6,0,3-0.8,4.1-2.1v1.8h3.3V0H23.2z"/>
	<path class="st0" d="M34.5,7.8c2.1,0,3.1,1.9,3.1,4.3c0,3-1.4,4.3-3.1,4.3c-1.7,0-3.1-1.9-3.1-4.3C31.4,9.8,32.8,7.8,34.5,7.8
		 M31.4,24.3v-7.3c1,1.3,2.5,2.1,4.1,2.1c3.2,0,5.7-2.2,5.7-7c0-3.9-1.7-7-5.7-7c-1.6,0-3,0.8-4.1,2.1V5.4h-3.3v18.9H31.4z"/>
	<path class="st0" d="M43.5,5.3c0-0.1,0.1-0.2,0.2-0.2H44c0.1,0,0.2,0.1,0.2,0.2v3.4c0,0.9,0.6,1.6,1.5,1.6c1,0,1.5-0.7,1.5-1.6V5.3
		c0-0.1,0.1-0.2,0.2-0.2h0.3c0.1,0,0.2,0.1,0.2,0.2v3.4c0,1.2-0.9,2.2-2.1,2.2c-1.3,0-2.1-0.9-2.1-2.2L43.5,5.3L43.5,5.3z"/>
	<path class="st0" d="M49.8,5.3c0-0.1,0.1-0.1,0.2-0.1h0.2l3.6,4.5h0V5.3c0-0.1,0.1-0.2,0.2-0.2h0.3c0.1,0,0.2,0.1,0.2,0.2v5.4
		c0,0.1-0.1,0.1-0.2,0.1h-0.1l-3.7-4.6h0v4.4c0,0.1-0.1,0.2-0.2,0.2h-0.3c-0.1,0-0.2-0.1-0.2-0.2V5.3z"/>
	<path class="st0" d="M56.4,5.3c0-0.1,0.1-0.2,0.2-0.2h0.3C57,5.2,57,5.3,57,5.3v5.3c0,0.1-0.1,0.2-0.2,0.2h-0.3
		c-0.1,0-0.2-0.1-0.2-0.2V5.3z"/>
	<path class="st0" d="M58.3,5.4c0-0.1,0-0.2,0.1-0.2h0.3c0.1,0,0.1,0,0.1,0.1l2,4.5h0l2-4.5c0,0,0.1-0.1,0.1-0.1h0.3
		c0.1,0,0.2,0.1,0.1,0.2l-2.5,5.4c0,0-0.1,0.1-0.1,0.1h-0.1c-0.1,0-0.1,0-0.1-0.1L58.3,5.4z"/>
	<path class="st0" d="M64.9,5.3c0-0.1,0.1-0.2,0.2-0.2h3.2c0.1,0,0.2,0.1,0.2,0.2v0.2c0,0.1-0.1,0.2-0.2,0.2h-2.7v2h2.3
		c0.1,0,0.2,0.1,0.2,0.2v0.2c0,0.1-0.1,0.2-0.2,0.2h-2.3v2.1h2.7c0.1,0,0.2,0.1,0.2,0.2v0.2c0,0.1-0.1,0.2-0.2,0.2H65
		c-0.1,0-0.2-0.1-0.2-0.2V5.3z"/>
	<path class="st0" d="M72.3,8.1c0.6,0,1.2-0.5,1.2-1.2c0-0.6-0.5-1.1-1.2-1.1h-1.6v2.3H72.3z M70.1,5.3c0-0.1,0.1-0.2,0.2-0.2h2.1
		c1,0,1.8,0.8,1.8,1.7c0,0.7-0.5,1.4-1.2,1.6l1.1,2.1c0.1,0.1,0,0.2-0.1,0.2h-0.4c-0.1,0-0.1,0-0.1-0.1l-1.1-2.1h-1.5v2.1
		c0,0.1-0.1,0.2-0.2,0.2h-0.3c-0.1,0-0.2-0.1-0.2-0.2V5.3z"/>
	<path class="st0" d="M75.4,10c0,0,0.1-0.1,0.1-0.2c0.1-0.1,0.2-0.2,0.3-0.1c0.1,0,0.6,0.6,1.4,0.6c0.7,0,1.1-0.4,1.1-0.9
		c0-0.6-0.5-0.9-1.4-1.3c-0.9-0.4-1.4-0.8-1.4-1.7c0-0.5,0.4-1.4,1.7-1.4c0.8,0,1.4,0.4,1.4,0.4c0,0,0.1,0.1,0,0.3
		c0,0-0.1,0.1-0.1,0.2c-0.1,0.1-0.2,0.1-0.3,0.1c-0.1,0-0.6-0.4-1.1-0.4c-0.9,0-1.1,0.5-1.1,0.9c0,0.5,0.4,0.9,1.1,1.1
		c1.1,0.4,1.8,0.9,1.8,1.8c0,0.8-0.8,1.5-1.7,1.5c-1,0-1.6-0.6-1.7-0.7C75.4,10.2,75.3,10.1,75.4,10"/>
	<path class="st0" d="M80.5,5.3c0-0.1,0.1-0.2,0.2-0.2H81c0.1,0,0.2,0.1,0.2,0.2v5.3c0,0.1-0.1,0.2-0.2,0.2h-0.3
		c-0.1,0-0.2-0.1-0.2-0.2V5.3z"/>
	<path class="st0" d="M85,10.3c1.3,0,2.3-0.9,2.3-2.3c0-1.3-1-2.3-2.3-2.3h-1.2v4.5H85z M83.2,5.3c0-0.1,0.1-0.2,0.1-0.2h1.8
		C86.7,5.2,88,6.5,88,8c0,1.6-1.3,2.8-2.8,2.8h-1.8c-0.1,0-0.1-0.1-0.1-0.2V5.3z"/>
	<path class="st0" d="M92.7,8.9c-0.4-0.9-0.8-1.8-1.2-2.6h-0.1l-1.2,2.6H92.7z M88.8,10.6l2.5-5.4c0,0,0.1-0.1,0.1-0.1h0.1
		c0.1,0,0.1,0,0.1,0.1l2.4,5.4c0,0.1,0,0.2-0.1,0.2h-0.3c-0.1,0-0.1,0-0.1-0.1l-0.6-1.3H90l-0.6,1.3c0,0-0.1,0.1-0.1,0.1H89
		C88.8,10.8,88.8,10.7,88.8,10.6"/>
	<path class="st0" d="M97.2,10.3c1.3,0,2.3-0.9,2.3-2.3c0-1.3-1-2.3-2.3-2.3H96v4.5H97.2z M95.4,5.3c0-0.1,0.1-0.2,0.1-0.2h1.8
		c1.6,0,2.8,1.3,2.8,2.8c0,1.6-1.3,2.8-2.8,2.8h-1.8c-0.1,0-0.1-0.1-0.1-0.2V5.3z"/>
	<path class="st0" d="M45.4,18.4c1.3,0,2.3-0.9,2.3-2.3c0-1.3-1-2.3-2.3-2.3h-1.2v4.5H45.4z M43.6,13.4c0-0.1,0.1-0.2,0.1-0.2h1.8
		c1.6,0,2.8,1.3,2.8,2.8c0,1.6-1.3,2.8-2.8,2.8h-1.8c-0.1,0-0.1-0.1-0.1-0.2V13.4z"/>
	<path class="st0" d="M50,13.4c0-0.1,0.1-0.2,0.2-0.2h0.3c0.1,0,0.2,0.1,0.2,0.2v5.3c0,0.1-0.1,0.2-0.2,0.2h-0.3
		c-0.1,0-0.2-0.1-0.2-0.2V13.4z"/>
	<path class="st0" d="M52.7,13.4c0-0.1,0.1-0.2,0.2-0.2H56c0.1,0,0.2,0.1,0.2,0.2v0.2c0,0.1-0.1,0.2-0.2,0.2h-2.7v2h2.3
		c0.1,0,0.2,0.1,0.2,0.2v0.2c0,0.1-0.1,0.2-0.2,0.2h-2.3v2.1H56c0.1,0,0.2,0.1,0.2,0.2v0.2c0,0.1-0.1,0.2-0.2,0.2h-3.2
		c-0.1,0-0.2-0.1-0.2-0.2V13.4z"/>
	<path class="st0" d="M60.4,13.2c0.8,0,1.4,0.3,2,0.8c0.1,0.1,0.1,0.2,0,0.2c-0.1,0.1-0.2,0.2-0.2,0.2c-0.1,0.1-0.1,0.1-0.2,0
		c-0.4-0.4-1-0.6-1.5-0.6c-1.3,0-2.2,1.1-2.2,2.3c0,1.2,1,2.3,2.2,2.3c0.9,0,1.5-0.3,1.5-0.3v-1.1h-0.9c-0.1,0-0.2-0.1-0.2-0.1v-0.3
		c0-0.1,0.1-0.2,0.2-0.2h1.4c0.1,0,0.1,0.1,0.1,0.2v1.8c0,0,0,0.1-0.1,0.1c0,0-0.8,0.5-2,0.5c-1.6,0-2.9-1.3-2.9-2.9
		C57.4,14.5,58.7,13.2,60.4,13.2"/>
	<path class="st0" d="M66.7,18.4c1.3,0,2.3-1,2.3-2.3c0-1.3-1.1-2.4-2.3-2.4c-1.3,0-2.3,1.1-2.3,2.4C64.3,17.4,65.4,18.4,66.7,18.4
		 M66.7,13.2c1.6,0,2.9,1.3,2.9,2.9c0,1.6-1.3,2.9-2.9,2.9s-2.9-1.3-2.9-2.9C63.8,14.5,65,13.2,66.7,13.2"/>
	<path class="st0" d="M75.3,16.3c0.7,0,1.2-0.5,1.2-1.2c0-0.7-0.6-1.2-1.2-1.2H74v2.4H75.3z M73.4,13.4c0-0.1,0.1-0.2,0.2-0.2h1.8
		c1,0,1.8,0.8,1.8,1.8c0,1-0.8,1.8-1.8,1.8H74v1.9c0,0.1-0.1,0.2-0.2,0.2h-0.3c-0.1,0-0.2-0.1-0.2-0.2V13.4z"/>
	<path class="st0" d="M81.1,18.4c1.3,0,2.3-1,2.3-2.3c0-1.3-1.1-2.4-2.3-2.4c-1.3,0-2.3,1.1-2.3,2.4C78.8,17.4,79.8,18.4,81.1,18.4
		 M81.1,13.2c1.6,0,2.9,1.3,2.9,2.9c0,1.6-1.3,2.9-2.9,2.9s-2.9-1.3-2.9-2.9C78.2,14.5,79.5,13.2,81.1,13.2"/>
	<path class="st0" d="M87.9,16.2c0.6,0,1.2-0.5,1.2-1.2c0-0.6-0.5-1.1-1.2-1.1h-1.6v2.3H87.9z M85.7,13.4c0-0.1,0.1-0.2,0.2-0.2h2.1
		c1,0,1.8,0.8,1.8,1.7c0,0.7-0.5,1.4-1.2,1.6l1.1,2.1c0.1,0.1,0,0.2-0.1,0.2H89c-0.1,0-0.1,0-0.1-0.1l-1.1-2.1h-1.5v2.1
		c0,0.1-0.1,0.2-0.2,0.2h-0.3c-0.1,0-0.2-0.1-0.2-0.2V13.4z"/>
	<path class="st0" d="M92.2,13.8h-1.4c-0.1,0-0.2-0.1-0.2-0.2v-0.2c0-0.1,0.1-0.2,0.2-0.2h3.4c0.1,0,0.2,0.1,0.2,0.2v0.2
		c0,0.1-0.1,0.2-0.2,0.2h-1.4v5c0,0.1-0.1,0.2-0.2,0.2h-0.3c-0.1,0-0.2-0.1-0.2-0.2V13.8z"/>
	<path class="st0" d="M98.4,17c-0.4-0.9-0.8-1.8-1.2-2.6h-0.1L96,17H98.4z M94.6,18.7l2.5-5.4c0,0,0.1-0.1,0.1-0.1h0.1
		c0.1,0,0.1,0,0.1,0.1l2.4,5.4c0,0.1,0,0.2-0.1,0.2h-0.3c-0.1,0-0.1,0-0.1-0.1l-0.6-1.3h-2.9l-0.6,1.3c0,0-0.1,0.1-0.1,0.1h-0.3
		C94.6,18.9,94.5,18.8,94.6,18.7"/>
	<path class="st0" d="M101.1,13.4c0-0.1,0.1-0.2,0.2-0.2h0.3c0.1,0,0.2,0.1,0.2,0.2v5h2.3c0.1,0,0.2,0.1,0.2,0.2v0.2
		c0,0.1-0.1,0.2-0.2,0.2h-2.8c-0.1,0-0.2-0.1-0.2-0.2V13.4z"/>
	<path class="st0" d="M105.5,13.4c0-0.1,0.1-0.2,0.2-0.2h3.2c0.1,0,0.2,0.1,0.2,0.2v0.2c0,0.1-0.1,0.2-0.2,0.2h-2.7v2h2.3
		c0.1,0,0.2,0.1,0.2,0.2v0.2c0,0.1-0.1,0.2-0.2,0.2h-2.3v2.1h2.7c0.1,0,0.2,0.1,0.2,0.2v0.2c0,0.1-0.1,0.2-0.2,0.2h-3.2
		c-0.1,0-0.2-0.1-0.2-0.2V13.4z"/>
	<path class="st0" d="M110.3,18.1c0,0,0.1-0.1,0.1-0.2c0.1-0.1,0.2-0.2,0.3-0.1c0.1,0,0.6,0.6,1.4,0.6c0.7,0,1.1-0.4,1.1-0.9
		c0-0.6-0.5-0.9-1.4-1.3c-0.9-0.4-1.4-0.8-1.4-1.7c0-0.6,0.4-1.4,1.7-1.4c0.8,0,1.4,0.4,1.4,0.4c0,0,0.1,0.1,0,0.3
		c0,0-0.1,0.1-0.1,0.2c-0.1,0.1-0.2,0.1-0.3,0.1c-0.1,0-0.6-0.4-1.1-0.4c-0.9,0-1.1,0.5-1.1,0.9c0,0.5,0.4,0.9,1.1,1.1
		c1.1,0.4,1.8,0.9,1.8,1.8c0,0.8-0.8,1.5-1.7,1.5c-1,0-1.6-0.6-1.7-0.7C110.3,18.3,110.2,18.2,110.3,18.1"/>
</g>
</svg>
