<?xml version="1.0" encoding="utf-8"?>
<!-- Generator: Adobe Illustrator 26.2.1, SVG Export Plug-In . SVG Version: 6.00 Build 0)  -->
<svg version="1.1" id="Capa_1" xmlns="http://www.w3.org/2000/svg" xmlns:xlink="http://www.w3.org/1999/xlink" x="0px" y="0px"
	 viewBox="0 0 121.2 22.5" style="enable-background:new 0 0 121.2 22.5;" xml:space="preserve">
<style type="text/css">
	.st0{fill:#FFFFFF;}
</style>
<g>
	<path class="st0" d="M117.1,14.3c0-0.2,0.1-0.3,0.2-0.5c0.1-0.2,0.2-0.3,0.3-0.4c0.1-0.1,0.3-0.2,0.4-0.3c0.2-0.1,0.3-0.1,0.5-0.1
		c0.2,0,0.4,0,0.5,0.1c0.2,0.1,0.3,0.1,0.4,0.3c0.1,0.1,0.2,0.2,0.3,0.4c0.1,0.2,0.1,0.3,0.1,0.5H117.1z M121.2,15.4v-0.6
		c0-0.4-0.1-0.8-0.2-1.2c-0.1-0.4-0.3-0.7-0.6-0.9c-0.2-0.3-0.5-0.5-0.9-0.6c-0.3-0.2-0.7-0.2-1.1-0.2c-0.4,0-0.8,0.1-1.2,0.3
		c-0.4,0.2-0.7,0.4-0.9,0.7c-0.2,0.3-0.4,0.6-0.6,1c-0.1,0.4-0.2,0.8-0.2,1.2c0,0.4,0.1,0.8,0.2,1.2c0.1,0.4,0.3,0.7,0.6,1
		c0.2,0.3,0.5,0.5,0.9,0.7c0.4,0.2,0.7,0.3,1.2,0.3c0.3,0,0.6-0.1,0.9-0.2c0.3-0.1,0.6-0.3,0.8-0.4c0.2-0.2,0.5-0.4,0.6-0.7
		c0.2-0.3,0.3-0.6,0.4-1h-1.3c-0.1,0.4-0.3,0.7-0.5,0.8c-0.2,0.2-0.5,0.3-0.9,0.3c-0.2,0-0.4,0-0.5-0.1c-0.2-0.1-0.3-0.2-0.4-0.4
		c-0.1-0.1-0.2-0.3-0.3-0.5c-0.1-0.2-0.1-0.4-0.1-0.6H121.2z M113.3,18h1.4V9.7h-1.4V18z M110.8,18h1.4v-6.1h-1.4V18z M110.8,11.1
		h1.4V9.7h-1.4V11.1z M104.4,9.7V18h1.4v-3.6c0-0.2,0-0.4,0.1-0.5c0.1-0.2,0.2-0.3,0.3-0.4c0.1-0.1,0.3-0.2,0.4-0.3
		c0.2-0.1,0.3-0.1,0.5-0.1c0.1,0,0.2,0,0.3,0.1c0.1,0,0.2,0.1,0.3,0.2c0.1,0.1,0.2,0.2,0.2,0.3s0.1,0.3,0.1,0.5v4h1.4v-4.3
		c0-0.3,0-0.5-0.1-0.8c-0.1-0.2-0.2-0.4-0.4-0.6s-0.4-0.3-0.6-0.4c-0.2-0.1-0.5-0.2-0.8-0.2c-0.7,0-1.2,0.3-1.7,0.8V9.7H104.4z
		 M97.4,12.6c0.1-0.4,0.3-0.7,0.5-1c0.2-0.3,0.5-0.5,0.8-0.7c0.3-0.2,0.6-0.2,1-0.2c0.6,0,1,0.1,1.4,0.4c0.4,0.3,0.7,0.7,0.9,1.3
		h1.5c-0.1-0.4-0.3-0.8-0.5-1.2c-0.2-0.4-0.5-0.7-0.8-0.9c-0.3-0.3-0.7-0.5-1.1-0.6c-0.4-0.1-0.9-0.2-1.4-0.2
		c-0.4,0-0.8,0.1-1.1,0.2c-0.3,0.1-0.7,0.3-0.9,0.5c-0.3,0.2-0.5,0.4-0.8,0.7c-0.2,0.3-0.4,0.6-0.6,0.9c-0.1,0.3-0.3,0.6-0.3,1
		c-0.1,0.4-0.1,0.7-0.1,1.1c0,0.7,0.1,1.3,0.3,1.9c0.2,0.6,0.4,1,0.8,1.4c0.3,0.4,0.7,0.7,1.2,0.9c0.5,0.2,1,0.3,1.6,0.3
		c0.5,0,1-0.1,1.4-0.3s0.8-0.4,1.1-0.7c0.3-0.3,0.6-0.7,0.8-1.1c0.2-0.4,0.3-0.8,0.4-1.3h-1.4c-0.1,0.3-0.1,0.5-0.3,0.8
		c-0.1,0.3-0.3,0.5-0.5,0.7c-0.2,0.2-0.4,0.4-0.7,0.5s-0.5,0.2-0.8,0.2c-0.3,0-0.6-0.1-0.9-0.2c-0.3-0.1-0.6-0.3-0.8-0.6
		c-0.2-0.3-0.4-0.6-0.6-1c-0.1-0.4-0.2-0.9-0.2-1.5C97.2,13.3,97.3,12.9,97.4,12.6"/>
	<g>
		<path class="st0" d="M55.2,12.9c0-2.2-0.9-4.2-4.1-4.2c-1.6,0-2.9,0.5-3.7,0.9l0.5,1.8c0.7-0.4,1.7-0.8,2.7-0.8
			c1.6,0,1.9,0.9,1.9,1.5v0.1c-3.5,0-5.8,1.2-5.8,3.7c0,1.5,1.1,3,3.1,3c1.2,0,2.2-0.5,2.8-1.3h0.1c0,0,0.4,1.7,2.6,1
			c-0.1-0.7-0.2-1.5-0.2-2.4V12.9z M52.5,15.3c0,0.2,0,0.4-0.1,0.5c-0.2,0.7-0.9,1.3-1.8,1.3c-0.7,0-1.3-0.4-1.3-1.3
			c0-1.3,1.5-1.7,3.2-1.7V15.3z"/>
		<path class="st0" d="M0,5.8c0,0,2.3,9.5,2.7,11c0.4,1.8,1.2,2.5,3.4,2l1.4-5.9c0.4-1.5,0.6-2.5,0.8-4h0c0.2,1.5,0.4,2.5,0.7,4
			c0,0,0.6,2.7,0.9,4.1c0.3,1.4,1.1,2.3,3.3,1.8l3.4-13h-2.8l-1.2,5.6c-0.3,1.6-0.6,2.9-0.8,4.4h0c-0.2-1.5-0.5-2.7-0.8-4.3L10,5.8
			H7.1l-1.3,5.6c-0.4,1.7-0.7,3.1-0.9,4.5h0c-0.2-1.4-0.5-3.1-0.9-4.7c0,0-0.8-4-1.1-5.4H0z"/>
		<path class="st0" d="M24.7,12.9c0-2.2-0.9-4.2-4.1-4.2c-1.6,0-2.9,0.5-3.7,0.9l0.5,1.8c0.7-0.4,1.7-0.8,2.7-0.8
			c1.6,0,1.9,0.9,1.9,1.5v0.1c-3.5,0-5.8,1.2-5.8,3.7c0,1.5,1.1,3,3.1,3c1.2,0,2.2-0.5,2.8-1.3h0.1c0,0,0.4,1.7,2.6,1
			c-0.1-0.7-0.2-1.5-0.2-2.4V12.9z M22.1,15.3c0,0.2,0,0.4-0.1,0.5c-0.2,0.7-0.9,1.3-1.8,1.3c-0.7,0-1.3-0.4-1.3-1.3
			c0-1.3,1.5-1.7,3.2-1.7V15.3z"/>
		<polygon class="st0" points="29.1,18.8 26.5,18.8 26.5,5.8 29.1,5.8 29.1,16 		"/>
		<path class="st0" d="M66.4,5.8v3.1h2.3v2.5h-2.3V15c0,1.2,0.3,1.8,1.2,1.8c0.4,0,0.7-0.1,1-0.1l0,2.1c-0.4,0.1-1.1,0.3-1.9,0.3
			c-0.9,0-1.7-0.3-2.2-0.8c-0.5-0.6-0.8-1.5-0.8-2.8V5.8H66.4z"/>
		<path class="st0" d="M59.3,9v1.8h0.1c0.5-1.4,1.6-2.1,2.7-2.1c0.3,0,0.4,0,0.6,0.1v2.6c-0.2,0-0.5-0.1-0.8-0.1
			c-1.2,0-2,0.7-2.2,1.7c0,0.2-0.1,0.5-0.1,0.7v5h-2.7V9H59.3z"/>
		<path class="st0" d="M33.5,9v1.3h0c0.5-0.7,1.2-1.6,2.9-1.6c1.3,0,2.3,0.7,2.7,1.8h0c0.4-0.5,0.8-0.9,1.2-1.2
			c0.5-0.3,1.2-0.5,1.9-0.5c1.7,0,3.3,1.2,3.3,4.2v5.8h-2.7v-5.4c0-1.5-0.5-2.4-1.6-2.4c-0.8,0-1.4,0.5-1.6,1.2
			c-0.1,0.2-0.1,0.5-0.1,0.8v5.8H37v-5.6c0-1.3-0.5-2.2-1.6-2.2c-0.9,0-1.4,0.7-1.6,1.3c-0.1,0.2-0.1,0.5-0.1,0.8v5.7H31V9H33.5z"/>
		<path class="st0" d="M83,7.6c0.5,0,1-0.3,1-0.6l0.5-5.9C84.5,0.5,83.8,0,83,0c-0.9,0-1.5,0.5-1.5,1.1L82,6.9
			C82,7.3,82.4,7.6,83,7.6"/>
		<path class="st0" d="M79.8,9.4c0.3-0.5,0.2-1,0-1.2l-4.8-3.4c-0.5-0.3-1.3,0.1-1.7,0.8c-0.4,0.7-0.4,1.6,0.1,1.9l5.3,2.5
			C79.1,10.1,79.5,9.8,79.8,9.4"/>
		<path class="st0" d="M86.1,9.4c0.3,0.5,0.7,0.7,1.1,0.6l5.3-2.5c0.5-0.3,0.6-1.1,0.1-1.9c-0.4-0.7-1.2-1.1-1.7-0.8l-4.8,3.4
			C85.9,8.4,85.9,8.9,86.1,9.4"/>
		<path class="st0" d="M83,14.9c0.5,0,1,0.3,1,0.6l0.5,5.9c0,0.6-0.7,1.1-1.5,1.1c-0.9,0-1.5-0.5-1.5-1.1l0.5-5.9
			C82,15.2,82.4,14.9,83,14.9"/>
		<path class="st0" d="M86.1,13.1c0.3-0.5,0.7-0.7,1.1-0.6l5.3,2.5c0.5,0.3,0.6,1.1,0.1,1.9c-0.4,0.7-1.2,1.1-1.7,0.8l-4.8-3.4
			C85.9,14,85.9,13.5,86.1,13.1"/>
		<path class="st0" d="M79.8,13.1c0.3,0.5,0.2,1,0,1.2l-4.8,3.4c-0.5,0.3-1.3-0.1-1.7-0.8c-0.4-0.7-0.4-1.6,0.1-1.9l5.3-2.5
			C79.1,12.4,79.5,12.6,79.8,13.1"/>
	</g>
</g>
</svg>
