<?xml version="1.0" encoding="utf-8"?>
<!-- Generator: Adobe Illustrator 26.2.1, SVG Export Plug-In . SVG Version: 6.00 Build 0)  -->
<svg version="1.1" id="Capa_1" xmlns="http://www.w3.org/2000/svg" xmlns:xlink="http://www.w3.org/1999/xlink" x="0px" y="0px"
	 viewBox="0 0 512 512" style="enable-background:new 0 0 512 512;" xml:space="preserve">
<style type="text/css">
	.st0{fill:#EC6608;}
</style>
<path class="st0" d="M302.8,366.9c-11.3,10.6-19.3,42.7-15.5,58.4h30.6C316.2,405,314.8,385.5,302.8,366.9 M281.1,367.6h-11.2
	c-67.3,0-134.5,0.2-201.8-0.2c-9.5-0.1-14.3,2.7-16.9,10.5C38.9,415,38.9,452,51.5,489c2.4,7.1,6.9,9.8,15.6,9.8
	c67.9-0.4,135.8-0.2,203.7-0.2h10.2C266.2,454.6,266,411.7,281.1,367.6 M343.9,185.4c-3,1.1-5.3,1.9-7.5,2.9
	c-69.2,30.9-138,62.3-207.6,92.3c-14.8,6.4-19.1,13.1-19.1,28c0.5,14.4,0.3,29.5,0.3,44.9h13.8c55.3,0,110.5,0,165.8,0
	c21.6,0,29.5,3.9,35,22.9c4.8,16.8,6.6,34.3,8.7,51.6c1.3,10.5-1.4,12.3-13,12.3c-11.2,0.1-22.4,0-34.3,0c0,19.1,2.5,36.5,11,52.8
	c1.3,2.5,5.5,4.6,8.8,5.1c12.1,2.1,20.3-2.8,25.9-12.5c9.6-16.5,12.6-34.2,12.6-52.4c0.2-80.1,0.1-160.3,0.1-240.4
	C344.4,190.7,344.1,188.5,343.9,185.4 M468.6,498.1c0.2-2.7,0.5-4.5,0.5-6.2c0-120.7,0-241.4,0.2-362.1c0-6.3-3.2-8.5-8.6-10.8
	c-53.9-24-107.7-48.1-161.5-72.2c-20.8-9.3-41.6-18.5-63.2-28.1v198.5c3.4-1.5,5.6-2.5,7.9-3.5c32.7-14.6,65.4-29.2,98.1-43.8
	c14.2-6.3,18-4.2,18,9.8c0,84.5,0,169.1,0,253.6c0,21.3-4,41.7-15.6,60.6c-0.7,1.1-0.7,2.6-1.2,4.1H468.6z M94.5,353.5
	c0-21.7,0.4-41.8-0.2-61.9c-0.2-8.3,3.2-12.5,11.3-16c35.2-15.3,70-31.3,105.2-46.7c6.5-2.8,8.8-6.1,8.8-12.6
	c-0.3-66.5-0.2-133-0.2-199.4c0-2.3-0.1-4.7,0-7c0.4-9.5,4.8-12.1,14.4-7.9c29,12.8,58,25.7,86.9,38.6
	c51.5,23,102.9,46.2,154.5,69.1c7.1,3.1,9.7,7.1,9.7,14.2c-0.2,125.4-0.1,250.7-0.2,376.1c0,11.3-1.4,12.6-14,12.6
	c-135.8,0-271.5-0.1-407.3,0.2c-13.8,0-21.9-6.4-25.2-16.7c-5-15.9-9-32.2-10.9-48.5c-2.8-23.6-0.3-47.2,7.6-70
	c6.9-20,13.4-24,36.2-23.9C78.7,353.5,86,353.5,94.5,353.5"/>
</svg>
