<?xml version="1.0" encoding="utf-8"?>
<!-- Generator: Adobe Illustrator 26.2.1, SVG Export Plug-In . SVG Version: 6.00 Build 0)  -->
<svg version="1.1" id="Capa_1" xmlns="http://www.w3.org/2000/svg" xmlns:xlink="http://www.w3.org/1999/xlink" x="0px" y="0px"
	 viewBox="0 0 127 127" style="enable-background:new 0 0 127 127;" xml:space="preserve">
<style type="text/css">
	.st0{fill:#003248;}
	.st1{fill:url(#SVGID_1_);}
	.st2{fill:#FFFFFF;}
	.st3{fill:none;stroke:#FFFFFF;stroke-width:1.053;stroke-linecap:round;stroke-linejoin:round;stroke-dasharray:0,3.191;}
	.st4{fill:none;stroke:#FFFFFF;stroke-width:1.053;stroke-linecap:round;stroke-linejoin:round;}
</style>
<path class="st0" d="M63.5,118.8c30.6,0,55.3-24.8,55.3-55.3c0-30.6-24.8-55.3-55.3-55.3S8.2,32.9,8.2,63.5
	C8.2,94.1,32.9,118.8,63.5,118.8"/>
<g>
	
		<linearGradient id="SVGID_1_" gradientUnits="userSpaceOnUse" x1="-415.5489" y1="335.4307" x2="-414.5489" y2="335.4307" gradientTransform="matrix(61.9115 0 0 -61.9115 25774.0566 20822.1523)">
		<stop  offset="0" style="stop-color:#EE7601"/>
		<stop  offset="9.780220e-03" style="stop-color:#EE7601"/>
		<stop  offset="0.2223" style="stop-color:#EF7B01"/>
		<stop  offset="0.4694" style="stop-color:#F28901"/>
		<stop  offset="0.7328" style="stop-color:#F6A000"/>
		<stop  offset="0.996" style="stop-color:#FCBF00"/>
		<stop  offset="1" style="stop-color:#FCBF00"/>
	</linearGradient>
	<path class="st1" d="M74.2,65.8v6.5H48.4v-5.1l13.2-12.5c1.4-1.3,2.3-2.5,2.8-3.4c0.5-1,0.7-1.9,0.7-2.9c0-1.4-0.5-2.4-1.4-3.2
		c-0.9-0.7-2.3-1.1-4.1-1.1c-1.5,0-2.9,0.3-4.1,0.9c-1.2,0.6-2.2,1.4-3,2.6l-5.8-3.7c1.3-2,3.2-3.5,5.5-4.7c2.3-1.1,5-1.7,8.1-1.7
		c2.5,0,4.8,0.4,6.7,1.2c1.9,0.8,3.4,2,4.4,3.5c1.1,1.5,1.6,3.3,1.6,5.4c0,1.9-0.4,3.6-1.2,5.2c-0.8,1.6-2.3,3.5-4.5,5.6l-7.9,7.4
		H74.2z M92.1,72.8c-2.8,0-5.4-0.7-7.6-2.1c-2.2-1.4-4-3.4-5.2-6.1c-1.3-2.7-1.9-5.8-1.9-9.5c0-3.7,0.6-6.8,1.9-9.5
		c1.3-2.7,3-4.7,5.2-6.1c2.2-1.4,4.7-2.1,7.6-2.1s5.4,0.7,7.6,2.1c2.2,1.4,3.9,3.4,5.2,6.1c1.3,2.7,1.9,5.8,1.9,9.5
		c0,3.7-0.6,6.8-1.9,9.5c-1.3,2.7-3,4.7-5.2,6.1C97.4,72.1,94.9,72.8,92.1,72.8L92.1,72.8z M92.1,66.1c2.1,0,3.7-0.9,4.9-2.7
		c1.2-1.8,1.8-4.6,1.8-8.3c0-3.7-0.6-6.5-1.8-8.3c-1.2-1.8-2.8-2.7-4.9-2.7c-2.1,0-3.7,0.9-4.9,2.7c-1.2,1.8-1.8,4.6-1.8,8.3
		c0,3.7,0.6,6.5,1.8,8.3C88.4,65.2,90,66.1,92.1,66.1L92.1,66.1z"/>
	<g>
		<path class="st2" d="M20.3,55.1v-7.7h0.9l3.5,5.8h-0.5l3.4-5.8h0.9l0,7.7h-1.1l0-6h0.3l-3,5.1h-0.5l-3.1-5.1h0.3v6H20.3z"/>
		<path class="st2" d="M29.6,55.1l3.5-7.7h1.1l3.5,7.7h-1.2L33.4,48h0.4l-3.1,7.1H29.6z M31.1,53.2l0.3-0.9h4.3l0.3,0.9H31.1z
			 M32.8,46.8l1.5-1.4h1.3l-1.8,1.4H32.8z"/>
		<path class="st2" d="M41.1,55.2c-0.6,0-1.1-0.1-1.7-0.3s-1-0.4-1.3-0.7l0.4-0.9c0.3,0.3,0.7,0.5,1.1,0.6c0.5,0.2,0.9,0.3,1.4,0.3
			c0.4,0,0.8-0.1,1.1-0.2s0.5-0.2,0.6-0.4s0.2-0.4,0.2-0.6c0-0.3-0.1-0.5-0.3-0.6S42.3,52.1,42,52s-0.6-0.2-0.9-0.3s-0.7-0.2-1-0.3
			c-0.3-0.1-0.6-0.2-0.9-0.4s-0.5-0.4-0.7-0.6c-0.2-0.3-0.3-0.6-0.3-1c0-0.4,0.1-0.8,0.3-1.1c0.2-0.3,0.5-0.6,1-0.8
			c0.4-0.2,1-0.3,1.7-0.3c0.4,0,0.9,0.1,1.3,0.2c0.4,0.1,0.8,0.3,1.1,0.5l-0.4,0.9c-0.3-0.2-0.7-0.4-1-0.5c-0.4-0.1-0.7-0.1-1.1-0.1
			c-0.4,0-0.8,0.1-1.1,0.2c-0.3,0.1-0.5,0.3-0.6,0.4c-0.1,0.2-0.2,0.4-0.2,0.6c0,0.3,0.1,0.5,0.3,0.6c0.2,0.2,0.4,0.3,0.7,0.4
			c0.3,0.1,0.6,0.2,0.9,0.3c0.3,0.1,0.7,0.2,1,0.3c0.3,0.1,0.6,0.2,0.9,0.4s0.5,0.4,0.7,0.6c0.2,0.3,0.3,0.6,0.3,1
			c0,0.4-0.1,0.7-0.3,1.1c-0.2,0.3-0.5,0.6-1,0.8C42.3,55.1,41.7,55.2,41.1,55.2z"/>
	</g>
	<g>
		<path class="st2" d="M20.3,68.3v-7.7h3.2c0.8,0,1.5,0.2,2.2,0.5c0.6,0.3,1.1,0.8,1.5,1.4c0.3,0.6,0.5,1.3,0.5,2
			c0,0.8-0.2,1.4-0.5,2c-0.3,0.6-0.8,1-1.5,1.4c-0.6,0.3-1.4,0.5-2.2,0.5H20.3z M21.4,67.3h2.1c0.6,0,1.2-0.1,1.7-0.4
			c0.5-0.2,0.8-0.6,1.1-1c0.3-0.4,0.4-0.9,0.4-1.5c0-0.6-0.1-1.1-0.4-1.5c-0.3-0.4-0.6-0.8-1.1-1c-0.5-0.2-1-0.4-1.7-0.4h-2.1V67.3z
			"/>
		<path class="st2" d="M30.5,67.3h4.5v1h-5.6v-7.7h5.4v1h-4.3V67.3z M30.4,63.9h4v0.9h-4V63.9z"/>
	</g>
	<g>
		<path class="st2" d="M38.3,89.5c-0.6,0-1.2-0.1-1.7-0.3s-1-0.5-1.4-0.8c-0.4-0.4-0.7-0.8-0.9-1.3c-0.2-0.5-0.3-1-0.3-1.6
			c0-0.6,0.1-1.1,0.3-1.6c0.2-0.5,0.5-0.9,0.9-1.3c0.4-0.4,0.8-0.6,1.4-0.8c0.5-0.2,1.1-0.3,1.7-0.3c0.8,0,1.4,0.1,2,0.4
			c0.6,0.3,1.1,0.6,1.4,1.1l-1.6,1.5c-0.2-0.3-0.5-0.5-0.8-0.7c-0.3-0.2-0.6-0.2-0.9-0.2c-0.3,0-0.5,0-0.7,0.1
			c-0.2,0.1-0.4,0.2-0.6,0.4s-0.3,0.4-0.4,0.6c-0.1,0.2-0.1,0.5-0.1,0.8c0,0.3,0,0.6,0.1,0.8c0.1,0.2,0.2,0.4,0.4,0.6
			c0.2,0.2,0.3,0.3,0.6,0.4c0.2,0.1,0.5,0.1,0.7,0.1c0.3,0,0.7-0.1,0.9-0.2c0.3-0.2,0.5-0.4,0.8-0.7l1.6,1.5
			c-0.4,0.5-0.9,0.9-1.4,1.1S39.1,89.5,38.3,89.5z"/>
		<path class="st2" d="M42.5,89.4v-7.7h2.6v5.7h3.5v2H42.5z"/>
		<path class="st2" d="M49.3,89.4v-7.7h2.6v7.7H49.3z"/>
		<path class="st2" d="M55.7,87.4h3.8v2h-6.4v-7.7h6.3v2h-3.7V87.4z M55.6,84.5H59v1.9h-3.4V84.5z"/>
		<path class="st2" d="M60.6,89.4v-7.7h2.1l3.9,4.7h-1v-4.7h2.5v7.7H66l-3.9-4.7h1v4.7H60.6z"/>
		<path class="st2" d="M71.1,89.4v-5.7h-2.3v-2H76v2h-2.3v5.7H71.1z"/>
		<path class="st2" d="M79.2,87.4H83v2h-6.4v-7.7h6.3v2h-3.7V87.4z M79,84.5h3.4v1.9H79V84.5z"/>
		<path class="st2" d="M86.9,89.5c-0.6,0-1.3-0.1-1.9-0.2s-1.1-0.3-1.5-0.6l0.8-1.9c0.4,0.2,0.8,0.4,1.2,0.5
			c0.5,0.1,0.9,0.2,1.3,0.2c0.2,0,0.4,0,0.6,0c0.1,0,0.2-0.1,0.3-0.1c0.1-0.1,0.1-0.1,0.1-0.2c0-0.1-0.1-0.2-0.2-0.3
			c-0.2-0.1-0.4-0.1-0.6-0.2c-0.3-0.1-0.5-0.1-0.8-0.2s-0.6-0.1-0.9-0.2s-0.6-0.2-0.8-0.4s-0.5-0.4-0.6-0.7c-0.2-0.3-0.2-0.6-0.2-1
			c0-0.5,0.1-0.9,0.4-1.3c0.3-0.4,0.7-0.7,1.2-0.9c0.5-0.2,1.2-0.4,2-0.4c0.5,0,1,0.1,1.5,0.2c0.5,0.1,1,0.3,1.4,0.5L89.4,84
			c-0.4-0.2-0.8-0.3-1.1-0.4s-0.7-0.1-1-0.1c-0.2,0-0.4,0-0.6,0.1c-0.1,0-0.3,0.1-0.3,0.2c-0.1,0.1-0.1,0.2-0.1,0.2
			c0,0.1,0.1,0.2,0.2,0.3c0.2,0.1,0.4,0.1,0.6,0.2c0.3,0.1,0.5,0.1,0.8,0.2c0.3,0.1,0.6,0.1,0.9,0.2s0.6,0.2,0.8,0.4
			s0.5,0.4,0.6,0.7c0.2,0.3,0.2,0.6,0.2,1c0,0.5-0.1,0.9-0.4,1.3c-0.3,0.4-0.7,0.7-1.2,0.9C88.4,89.4,87.7,89.5,86.9,89.5z"/>
	</g>
</g>
<g>
	<path class="st3" d="M66.7,126.4c32.8-1.6,58.9-28.3,59.8-61.3"/>
	<path class="st3" d="M126.4,60.3C124.7,27.5,98.1,1.4,65.1,0.5"/>
	<path class="st3" d="M60.3,0.6C27.5,2.2,1.4,28.9,0.5,61.9"/>
	<path class="st3" d="M0.6,66.7c1.6,32.8,28.3,58.9,61.3,59.8"/>
	<path class="st4" d="M63.5,126.5L63.5,126.5 M0.5,63.5L0.5,63.5 M63.5,0.5L63.5,0.5 M126.5,63.5L126.5,63.5"/>
</g>
</svg>
