<?xml version="1.0" encoding="utf-8"?>
<!-- Generator: Adobe Illustrator 26.2.1, SVG Export Plug-In . SVG Version: 6.00 Build 0)  -->
<svg version="1.1" id="Capa_1" xmlns="http://www.w3.org/2000/svg" xmlns:xlink="http://www.w3.org/1999/xlink" x="0px" y="0px"
	 viewBox="0 0 127 127" style="enable-background:new 0 0 127 127;" xml:space="preserve">
<style type="text/css">
	.st0{fill:#003248;}
	.st1{fill:none;stroke:#FFFFFF;stroke-width:1.053;stroke-linecap:round;stroke-linejoin:round;stroke-dasharray:0,3.191;}
	.st2{fill:none;stroke:#FFFFFF;stroke-width:1.053;stroke-linecap:round;stroke-linejoin:round;}
	.st3{fill:#FFFFFF;}
	.st4{fill:url(#SVGID_1_);}
	.st5{fill:url(#SVGID_00000027592852738484350160000003168099915813539255_);}
</style>
<path class="st0" d="M63.5,118.8c30.6,0,55.3-24.8,55.3-55.3c0-30.6-24.8-55.3-55.3-55.3S8.2,32.9,8.2,63.5
	C8.2,94.1,32.9,118.8,63.5,118.8"/>
<g>
	<path class="st1" d="M66.7,126.4c32.8-1.6,58.9-28.3,59.8-61.3"/>
	<path class="st1" d="M126.4,60.3C124.7,27.5,98.1,1.4,65.1,0.5"/>
	<path class="st1" d="M60.3,0.6C27.5,2.2,1.4,28.9,0.5,61.9"/>
	<path class="st1" d="M0.6,66.7c1.6,32.8,28.3,58.9,61.3,59.8"/>
	<path class="st2" d="M63.5,126.5L63.5,126.5 M0.5,63.5L0.5,63.5 M63.5,0.5L63.5,0.5 M126.5,63.5L126.5,63.5"/>
</g>
<g>
	<g>
		<path class="st3" d="M27.4,87c-0.5,0-0.9-0.1-1.2-0.3c-0.4-0.2-0.7-0.5-0.9-0.9C25.1,85.4,25,85,25,84.5c0-0.5,0.1-1,0.3-1.3
			s0.5-0.7,0.9-0.9c0.4-0.2,0.8-0.3,1.2-0.3c0.4,0,0.8,0.1,1.1,0.3c0.3,0.2,0.5,0.5,0.7,0.8c0.2,0.4,0.3,0.8,0.3,1.4
			c0,0.6-0.1,1-0.2,1.4s-0.4,0.6-0.7,0.8C28.2,86.9,27.8,87,27.4,87z M27.7,85.8c0.2,0,0.4-0.1,0.6-0.2c0.2-0.1,0.3-0.3,0.4-0.5
			c0.1-0.2,0.2-0.4,0.2-0.7c0-0.3-0.1-0.5-0.2-0.7c-0.1-0.2-0.3-0.4-0.4-0.5c-0.2-0.1-0.4-0.2-0.6-0.2c-0.2,0-0.4,0.1-0.6,0.2
			c-0.2,0.1-0.3,0.3-0.4,0.5c-0.1,0.2-0.2,0.4-0.2,0.7c0,0.3,0.1,0.5,0.2,0.7c0.1,0.2,0.3,0.4,0.4,0.5
			C27.2,85.8,27.4,85.8,27.7,85.8z M28.9,86.9v-1l0-1.4L28.9,83v-2.8h1.4v6.7H28.9z"/>
		<path class="st3" d="M34,87c-0.6,0-1-0.1-1.5-0.3c-0.4-0.2-0.7-0.5-1-0.9s-0.3-0.8-0.3-1.3c0-0.5,0.1-0.9,0.3-1.3s0.5-0.7,0.9-0.9
			s0.8-0.3,1.3-0.3c0.5,0,0.9,0.1,1.3,0.3c0.4,0.2,0.7,0.5,0.9,0.9c0.2,0.4,0.3,0.8,0.3,1.3c0,0.1,0,0.1,0,0.2c0,0.1,0,0.1,0,0.2
			h-3.9V84h3.2L35,84.3c0-0.3-0.1-0.5-0.2-0.7c-0.1-0.2-0.2-0.3-0.4-0.4C34.2,83.1,34,83,33.8,83c-0.2,0-0.5,0.1-0.6,0.2
			c-0.2,0.1-0.3,0.3-0.4,0.4c-0.1,0.2-0.2,0.4-0.2,0.7v0.2c0,0.3,0.1,0.5,0.2,0.7c0.1,0.2,0.3,0.4,0.5,0.5c0.2,0.1,0.5,0.2,0.8,0.2
			c0.3,0,0.5,0,0.7-0.1c0.2-0.1,0.4-0.2,0.5-0.4l0.7,0.8c-0.2,0.3-0.5,0.4-0.8,0.6C34.8,86.9,34.4,87,34,87z"/>
		<path class="st3" d="M46,82c0.4,0,0.7,0.1,1,0.2s0.5,0.4,0.7,0.7c0.2,0.3,0.3,0.7,0.3,1.2v2.8h-1.4v-2.6c0-0.4-0.1-0.7-0.2-0.9
			s-0.4-0.3-0.7-0.3c-0.2,0-0.4,0-0.5,0.1c-0.2,0.1-0.3,0.2-0.4,0.4c-0.1,0.2-0.1,0.4-0.1,0.7v2.4h-1.4v-2.6c0-0.4-0.1-0.7-0.2-0.9
			s-0.4-0.3-0.7-0.3c-0.2,0-0.4,0-0.5,0.1s-0.3,0.2-0.4,0.4c-0.1,0.2-0.1,0.4-0.1,0.7v2.4h-1.4V82h1.3v1.3L40.9,83
			c0.2-0.3,0.4-0.6,0.7-0.8c0.3-0.2,0.7-0.3,1.1-0.3c0.4,0,0.8,0.1,1.2,0.3c0.3,0.2,0.6,0.6,0.7,1L44,83.2c0.2-0.4,0.4-0.7,0.8-0.9
			S45.5,82,46,82z"/>
	</g>
	<g>
		<path class="st3" d="M48.7,83.9v-0.6l1.4-1.3c0.1-0.1,0.2-0.2,0.2-0.3c0.1-0.1,0.1-0.2,0.1-0.2c0-0.1,0-0.1,0-0.2
			c0-0.1,0-0.3-0.1-0.3s-0.2-0.1-0.4-0.1c-0.2,0-0.3,0-0.4,0.1c-0.1,0.1-0.2,0.2-0.3,0.3l-0.6-0.4c0.1-0.2,0.3-0.4,0.6-0.5
			c0.3-0.1,0.5-0.2,0.9-0.2c0.3,0,0.5,0,0.7,0.1c0.2,0.1,0.4,0.2,0.5,0.4c0.1,0.2,0.2,0.4,0.2,0.6c0,0.1,0,0.2,0,0.4
			c0,0.1-0.1,0.2-0.2,0.4c-0.1,0.1-0.2,0.3-0.4,0.4l-1.2,1.1l-0.2-0.3h2.1v0.7H48.7z"/>
	</g>
	<g>
		<path class="st3" d="M54.8,86.9V82h1.3v1.4L56,83c0.1-0.3,0.4-0.6,0.7-0.8c0.3-0.2,0.7-0.3,1.2-0.3v1.3c-0.1,0-0.1,0-0.2,0
			c0,0-0.1,0-0.2,0c-0.4,0-0.7,0.1-0.9,0.3c-0.2,0.2-0.4,0.6-0.4,1v2.3H54.8z"/>
		<path class="st3" d="M61,87c-0.6,0-1-0.1-1.5-0.3c-0.4-0.2-0.7-0.5-1-0.9s-0.3-0.8-0.3-1.3c0-0.5,0.1-0.9,0.3-1.3s0.5-0.7,0.9-0.9
			s0.8-0.3,1.3-0.3c0.5,0,0.9,0.1,1.3,0.3c0.4,0.2,0.7,0.5,0.9,0.9c0.2,0.4,0.3,0.8,0.3,1.3c0,0.1,0,0.1,0,0.2c0,0.1,0,0.1,0,0.2
			h-3.9V84h3.2l-0.5,0.2c0-0.3-0.1-0.5-0.2-0.7c-0.1-0.2-0.2-0.3-0.4-0.4c-0.2-0.1-0.4-0.2-0.6-0.2c-0.2,0-0.5,0.1-0.6,0.2
			c-0.2,0.1-0.3,0.3-0.4,0.4c-0.1,0.2-0.2,0.4-0.2,0.7v0.2c0,0.3,0.1,0.5,0.2,0.7c0.1,0.2,0.3,0.4,0.5,0.5c0.2,0.1,0.5,0.2,0.8,0.2
			c0.3,0,0.5,0,0.7-0.1c0.2-0.1,0.4-0.2,0.5-0.4l0.7,0.8c-0.2,0.3-0.5,0.4-0.8,0.6C61.9,86.9,61.5,87,61,87z"/>
		<path class="st3" d="M65.5,86.9l-2-4.8H65l1.7,4.2h-0.7l1.8-4.2H69l-2,4.8H65.5z"/>
		<path class="st3" d="M70.3,81.4c-0.3,0-0.5-0.1-0.6-0.2c-0.2-0.1-0.2-0.3-0.2-0.6s0.1-0.4,0.2-0.6c0.2-0.1,0.4-0.2,0.6-0.2
			c0.3,0,0.5,0.1,0.6,0.2c0.2,0.1,0.2,0.3,0.2,0.5c0,0.2-0.1,0.4-0.2,0.6C70.8,81.3,70.6,81.4,70.3,81.4z M69.6,86.9V82H71v4.8H69.6
			z"/>
		<path class="st3" d="M73.9,87c-0.4,0-0.8,0-1.2-0.1c-0.4-0.1-0.7-0.2-0.9-0.4l0.5-1c0.2,0.1,0.5,0.3,0.8,0.3
			c0.3,0.1,0.6,0.1,0.9,0.1c0.3,0,0.6,0,0.7-0.1c0.1-0.1,0.2-0.2,0.2-0.3c0-0.1-0.1-0.2-0.2-0.3s-0.2-0.1-0.4-0.1
			C74.1,85,74,85,73.7,85c-0.2,0-0.4-0.1-0.6-0.1c-0.2-0.1-0.4-0.1-0.6-0.2c-0.2-0.1-0.3-0.2-0.4-0.4S72,83.8,72,83.5
			c0-0.3,0.1-0.6,0.3-0.8c0.2-0.2,0.4-0.4,0.8-0.6c0.3-0.1,0.7-0.2,1.2-0.2c0.3,0,0.7,0,1,0.1c0.3,0.1,0.6,0.2,0.9,0.3l-0.5,1
			c-0.2-0.1-0.5-0.2-0.7-0.3c-0.2-0.1-0.5-0.1-0.7-0.1c-0.3,0-0.5,0-0.7,0.1s-0.2,0.2-0.2,0.3c0,0.1,0.1,0.2,0.2,0.3
			c0.1,0.1,0.2,0.1,0.4,0.1c0.2,0,0.4,0.1,0.6,0.1s0.4,0.1,0.6,0.1c0.2,0.1,0.4,0.1,0.6,0.2c0.2,0.1,0.3,0.2,0.4,0.4
			s0.2,0.4,0.2,0.7c0,0.3-0.1,0.6-0.3,0.8c-0.2,0.2-0.4,0.4-0.8,0.5C74.8,86.9,74.4,87,73.9,87z"/>
		<path class="st3" d="M78.6,87c-0.4,0-0.7-0.1-1-0.2s-0.5-0.3-0.6-0.5c-0.1-0.2-0.2-0.5-0.2-0.7c0-0.3,0.1-0.5,0.2-0.8
			c0.1-0.2,0.4-0.4,0.7-0.5c0.3-0.1,0.7-0.2,1.2-0.2h1.3v0.8H79c-0.3,0-0.6,0.1-0.7,0.2c-0.1,0.1-0.2,0.2-0.2,0.4
			c0,0.2,0.1,0.3,0.2,0.4c0.1,0.1,0.3,0.2,0.6,0.2c0.2,0,0.4-0.1,0.6-0.2c0.2-0.1,0.3-0.3,0.4-0.5l0.2,0.6c-0.1,0.3-0.3,0.5-0.6,0.7
			C79.4,86.9,79,87,78.6,87z M80.1,86.9v-0.9L80,85.7V84c0-0.3-0.1-0.5-0.3-0.7c-0.2-0.2-0.5-0.3-0.8-0.3c-0.3,0-0.5,0-0.8,0.1
			s-0.5,0.2-0.6,0.3l-0.5-1c0.3-0.2,0.6-0.3,1-0.4C78.3,82,78.7,82,79,82c0.7,0,1.3,0.2,1.7,0.5c0.4,0.3,0.6,0.9,0.6,1.6v2.8H80.1z"
			/>
		<path class="st3" d="M84.8,87c-0.5,0-0.9-0.1-1.2-0.3s-0.7-0.5-0.9-0.9c-0.2-0.4-0.3-0.8-0.3-1.3c0-0.5,0.1-1,0.3-1.3
			c0.2-0.4,0.5-0.7,0.9-0.9c0.4-0.2,0.8-0.3,1.2-0.3c0.4,0,0.8,0.1,1.1,0.3c0.3,0.2,0.5,0.5,0.7,0.8c0.2,0.4,0.3,0.8,0.3,1.4
			c0,0.6-0.1,1-0.2,1.4c-0.2,0.4-0.4,0.6-0.7,0.8C85.6,86.9,85.2,87,84.8,87z M85,85.8c0.2,0,0.4-0.1,0.6-0.2
			c0.2-0.1,0.3-0.3,0.4-0.5c0.1-0.2,0.2-0.4,0.2-0.7c0-0.3-0.1-0.5-0.2-0.7c-0.1-0.2-0.3-0.4-0.4-0.5c-0.2-0.1-0.4-0.2-0.6-0.2
			c-0.2,0-0.4,0.1-0.6,0.2c-0.2,0.1-0.3,0.3-0.4,0.5c-0.1,0.2-0.2,0.4-0.2,0.7c0,0.3,0.1,0.5,0.2,0.7c0.1,0.2,0.3,0.4,0.4,0.5
			C84.6,85.8,84.8,85.8,85,85.8z M86.3,86.9v-1l0-1.4L86.2,83v-2.8h1.4v6.7H86.3z"/>
		<path class="st3" d="M91.2,87c-0.5,0-1-0.1-1.4-0.3c-0.4-0.2-0.7-0.5-0.9-0.9c-0.2-0.4-0.3-0.8-0.3-1.3c0-0.5,0.1-0.9,0.3-1.3
			c0.2-0.4,0.5-0.7,0.9-0.9c0.4-0.2,0.9-0.3,1.4-0.3c0.5,0,1,0.1,1.4,0.3c0.4,0.2,0.7,0.5,0.9,0.9c0.2,0.4,0.3,0.8,0.3,1.3
			c0,0.5-0.1,0.9-0.3,1.3c-0.2,0.4-0.5,0.7-0.9,0.9C92.2,86.8,91.7,87,91.2,87z M91.2,85.8c0.2,0,0.4-0.1,0.6-0.2
			c0.2-0.1,0.3-0.3,0.4-0.5c0.1-0.2,0.2-0.4,0.2-0.7c0-0.3-0.1-0.5-0.2-0.7c-0.1-0.2-0.3-0.4-0.4-0.5c-0.2-0.1-0.4-0.2-0.6-0.2
			c-0.2,0-0.4,0.1-0.6,0.2c-0.2,0.1-0.3,0.3-0.4,0.5C90,83.9,90,84.2,90,84.5c0,0.3,0.1,0.5,0.2,0.7c0.1,0.2,0.3,0.4,0.4,0.5
			C90.8,85.8,91,85.8,91.2,85.8z"/>
		<path class="st3" d="M96.5,87c-0.4,0-0.8,0-1.2-0.1c-0.4-0.1-0.7-0.2-0.9-0.4l0.5-1c0.2,0.1,0.5,0.3,0.8,0.3s0.6,0.1,0.9,0.1
			c0.3,0,0.6,0,0.7-0.1c0.1-0.1,0.2-0.2,0.2-0.3c0-0.1-0.1-0.2-0.2-0.3c-0.1-0.1-0.2-0.1-0.4-0.1c-0.2,0-0.4-0.1-0.6-0.1
			c-0.2,0-0.4-0.1-0.6-0.1s-0.4-0.1-0.6-0.2c-0.2-0.1-0.3-0.2-0.4-0.4c-0.1-0.2-0.2-0.4-0.2-0.7c0-0.3,0.1-0.6,0.3-0.8
			c0.2-0.2,0.4-0.4,0.8-0.6c0.3-0.1,0.7-0.2,1.2-0.2c0.3,0,0.7,0,1,0.1c0.3,0.1,0.6,0.2,0.9,0.3l-0.5,1c-0.2-0.1-0.5-0.2-0.7-0.3
			S96.9,83,96.7,83c-0.3,0-0.5,0-0.7,0.1c-0.1,0.1-0.2,0.2-0.2,0.3c0,0.1,0.1,0.2,0.2,0.3c0.1,0.1,0.2,0.1,0.4,0.1S96.8,84,97,84
			s0.4,0.1,0.6,0.1c0.2,0.1,0.4,0.1,0.6,0.2c0.2,0.1,0.3,0.2,0.4,0.4c0.1,0.2,0.2,0.4,0.2,0.7c0,0.3-0.1,0.6-0.3,0.8
			c-0.2,0.2-0.4,0.4-0.8,0.5S96.9,87,96.5,87z"/>
	</g>
	<g>
		<path class="st3" d="M37.3,96.8c-0.6,0-1-0.1-1.5-0.3c-0.4-0.2-0.7-0.5-1-0.9s-0.3-0.8-0.3-1.3c0-0.5,0.1-0.9,0.3-1.3
			s0.5-0.7,0.9-0.9s0.8-0.3,1.3-0.3c0.5,0,0.9,0.1,1.3,0.3c0.4,0.2,0.7,0.5,0.9,0.9c0.2,0.4,0.3,0.8,0.3,1.3c0,0.1,0,0.1,0,0.2
			c0,0.1,0,0.1,0,0.2h-3.9v-0.8h3.2l-0.5,0.2c0-0.3-0.1-0.5-0.2-0.7c-0.1-0.2-0.2-0.3-0.4-0.4c-0.2-0.1-0.4-0.2-0.6-0.2
			c-0.2,0-0.5,0.1-0.6,0.2c-0.2,0.1-0.3,0.3-0.4,0.4c-0.1,0.2-0.2,0.4-0.2,0.7v0.2c0,0.3,0.1,0.5,0.2,0.7c0.1,0.2,0.3,0.4,0.5,0.5
			c0.2,0.1,0.5,0.2,0.8,0.2c0.3,0,0.5,0,0.7-0.1c0.2-0.1,0.4-0.2,0.5-0.4l0.7,0.8c-0.2,0.3-0.5,0.4-0.8,0.6
			C38.1,96.7,37.7,96.8,37.3,96.8z"/>
		<path class="st3" d="M43.5,91.8c0.4,0,0.7,0.1,1,0.2c0.3,0.2,0.5,0.4,0.7,0.7c0.2,0.3,0.3,0.7,0.3,1.2v2.8h-1.4v-2.6
			c0-0.4-0.1-0.7-0.3-0.9S43.5,93,43.1,93c-0.2,0-0.4,0-0.6,0.1c-0.2,0.1-0.3,0.2-0.4,0.4C42,93.7,42,94,42,94.3v2.4h-1.4v-4.8h1.3
			v1.3l-0.3-0.4c0.2-0.3,0.4-0.6,0.7-0.7C42.7,91.9,43.1,91.8,43.5,91.8z"/>
		<path class="st3" d="M51.6,96.8c-0.5,0-1-0.1-1.4-0.3c-0.4-0.2-0.7-0.5-0.9-0.9S49,94.7,49,94.3c0-0.5,0.1-0.9,0.3-1.3
			s0.5-0.7,0.9-0.9c0.4-0.2,0.9-0.3,1.4-0.3c0.5,0,1,0.1,1.4,0.3s0.7,0.5,0.9,0.9s0.3,0.8,0.3,1.3c0,0.5-0.1,0.9-0.3,1.3
			s-0.5,0.7-0.9,0.9S52.2,96.8,51.6,96.8z M51.6,95.6c0.2,0,0.4-0.1,0.6-0.2c0.2-0.1,0.3-0.3,0.4-0.5c0.1-0.2,0.2-0.4,0.2-0.7
			c0-0.3-0.1-0.5-0.2-0.7c-0.1-0.2-0.3-0.4-0.4-0.5c-0.2-0.1-0.4-0.2-0.6-0.2c-0.2,0-0.4,0.1-0.6,0.2c-0.2,0.1-0.3,0.3-0.4,0.5
			c-0.1,0.2-0.2,0.4-0.2,0.7c0,0.3,0.1,0.5,0.2,0.7c0.1,0.2,0.3,0.4,0.4,0.5C51.2,95.6,51.4,95.6,51.6,95.6z"/>
		<path class="st3" d="M55.2,96.7V90h1.4v2.8l-0.1,1.4l0,1.4v1H55.2z M58.1,96.8c-0.4,0-0.8-0.1-1.1-0.3c-0.3-0.2-0.5-0.5-0.7-0.8
			s-0.2-0.8-0.2-1.4c0-0.6,0.1-1,0.3-1.4c0.2-0.4,0.4-0.6,0.7-0.8c0.3-0.2,0.7-0.3,1.1-0.3c0.5,0,0.9,0.1,1.2,0.3
			c0.4,0.2,0.7,0.5,0.9,0.9s0.3,0.8,0.3,1.3c0,0.5-0.1,0.9-0.3,1.3c-0.2,0.4-0.5,0.7-0.9,0.9C59,96.7,58.6,96.8,58.1,96.8z
			 M57.9,95.6c0.2,0,0.4-0.1,0.6-0.2c0.2-0.1,0.3-0.3,0.4-0.5c0.1-0.2,0.2-0.4,0.2-0.7c0-0.3-0.1-0.5-0.2-0.7
			c-0.1-0.2-0.3-0.4-0.4-0.5c-0.2-0.1-0.4-0.2-0.6-0.2s-0.4,0.1-0.6,0.2c-0.2,0.1-0.3,0.3-0.4,0.5c-0.1,0.2-0.2,0.4-0.2,0.7
			c0,0.3,0.1,0.5,0.2,0.7c0.1,0.2,0.3,0.4,0.4,0.5C57.4,95.6,57.6,95.6,57.9,95.6z"/>
		<path class="st3" d="M61.4,96.7v-4.8h1.3v1.4l-0.2-0.4c0.1-0.3,0.4-0.6,0.7-0.8c0.3-0.2,0.7-0.3,1.2-0.3v1.3c-0.1,0-0.1,0-0.2,0
			c0,0-0.1,0-0.2,0c-0.4,0-0.7,0.1-0.9,0.3c-0.2,0.2-0.4,0.6-0.4,1v2.3H61.4z"/>
		<path class="st3" d="M66.8,96.8c-0.4,0-0.7-0.1-1-0.2s-0.5-0.3-0.6-0.5c-0.1-0.2-0.2-0.5-0.2-0.7c0-0.3,0.1-0.5,0.2-0.8
			c0.1-0.2,0.4-0.4,0.7-0.5c0.3-0.1,0.7-0.2,1.2-0.2h1.3v0.8h-1.1c-0.3,0-0.6,0.1-0.7,0.2c-0.1,0.1-0.2,0.2-0.2,0.4
			c0,0.2,0.1,0.3,0.2,0.4c0.1,0.1,0.3,0.2,0.6,0.2c0.2,0,0.4-0.1,0.6-0.2c0.2-0.1,0.3-0.3,0.4-0.5l0.2,0.6c-0.1,0.3-0.3,0.5-0.6,0.7
			S67.2,96.8,66.8,96.8z M68.2,96.7v-0.9l-0.1-0.2v-1.7c0-0.3-0.1-0.5-0.3-0.7s-0.5-0.3-0.8-0.3c-0.3,0-0.5,0-0.8,0.1
			s-0.5,0.2-0.6,0.3l-0.5-1c0.3-0.2,0.6-0.3,1-0.4c0.4-0.1,0.8-0.2,1.1-0.2c0.7,0,1.3,0.2,1.7,0.5c0.4,0.3,0.6,0.9,0.6,1.6v2.8H68.2
			z"/>
		<path class="st3" d="M72.4,96.8c-0.4,0-0.8,0-1.2-0.1c-0.4-0.1-0.7-0.2-0.9-0.4l0.5-1c0.2,0.1,0.5,0.3,0.8,0.3
			c0.3,0.1,0.6,0.1,0.9,0.1c0.3,0,0.6,0,0.7-0.1c0.1-0.1,0.2-0.2,0.2-0.3c0-0.1-0.1-0.2-0.2-0.3s-0.2-0.1-0.4-0.1
			c-0.2,0-0.4-0.1-0.6-0.1c-0.2,0-0.4-0.1-0.6-0.1c-0.2-0.1-0.4-0.1-0.6-0.2c-0.2-0.1-0.3-0.2-0.4-0.4s-0.2-0.4-0.2-0.7
			c0-0.3,0.1-0.6,0.3-0.8c0.2-0.2,0.4-0.4,0.8-0.6c0.3-0.1,0.7-0.2,1.2-0.2c0.3,0,0.7,0,1,0.1c0.3,0.1,0.6,0.2,0.9,0.3l-0.5,1
			c-0.2-0.1-0.5-0.2-0.7-0.3c-0.2-0.1-0.5-0.1-0.7-0.1c-0.3,0-0.5,0-0.7,0.1s-0.2,0.2-0.2,0.3c0,0.1,0.1,0.2,0.2,0.3
			c0.1,0.1,0.2,0.1,0.4,0.1c0.2,0,0.4,0.1,0.6,0.1s0.4,0.1,0.6,0.1c0.2,0.1,0.4,0.1,0.6,0.2c0.2,0.1,0.3,0.2,0.4,0.4
			s0.2,0.4,0.2,0.7c0,0.3-0.1,0.6-0.3,0.8c-0.2,0.2-0.4,0.4-0.8,0.5C73.3,96.7,72.9,96.8,72.4,96.8z"/>
		<path class="st3" d="M80.2,96.8c-0.5,0-0.9-0.1-1.2-0.3c-0.4-0.2-0.7-0.5-0.9-0.9c-0.2-0.4-0.3-0.8-0.3-1.3c0-0.5,0.1-1,0.3-1.3
			s0.5-0.7,0.9-0.9c0.4-0.2,0.8-0.3,1.2-0.3c0.4,0,0.8,0.1,1.1,0.3c0.3,0.2,0.5,0.5,0.7,0.8c0.2,0.4,0.3,0.8,0.3,1.4
			c0,0.6-0.1,1-0.2,1.4s-0.4,0.6-0.7,0.8C81,96.7,80.6,96.8,80.2,96.8z M80.5,95.6c0.2,0,0.4-0.1,0.6-0.2c0.2-0.1,0.3-0.3,0.4-0.5
			c0.1-0.2,0.2-0.4,0.2-0.7c0-0.3-0.1-0.5-0.2-0.7c-0.1-0.2-0.3-0.4-0.4-0.5c-0.2-0.1-0.4-0.2-0.6-0.2c-0.2,0-0.4,0.1-0.6,0.2
			c-0.2,0.1-0.3,0.3-0.4,0.5c-0.1,0.2-0.2,0.4-0.2,0.7c0,0.3,0.1,0.5,0.2,0.7c0.1,0.2,0.3,0.4,0.4,0.5C80,95.6,80.2,95.6,80.5,95.6z
			 M81.7,96.7v-1l0-1.4l-0.1-1.4V90h1.4v6.7H81.7z"/>
		<path class="st3" d="M86.8,96.8c-0.6,0-1-0.1-1.5-0.3s-0.7-0.5-1-0.9c-0.2-0.4-0.3-0.8-0.3-1.3c0-0.5,0.1-0.9,0.3-1.3
			c0.2-0.4,0.5-0.7,0.9-0.9s0.8-0.3,1.3-0.3c0.5,0,0.9,0.1,1.3,0.3s0.7,0.5,0.9,0.9c0.2,0.4,0.3,0.8,0.3,1.3c0,0.1,0,0.1,0,0.2
			c0,0.1,0,0.1,0,0.2h-3.9v-0.8h3.2l-0.5,0.2c0-0.3-0.1-0.5-0.2-0.7c-0.1-0.2-0.2-0.3-0.4-0.4c-0.2-0.1-0.4-0.2-0.6-0.2
			S86.2,92.9,86,93c-0.2,0.1-0.3,0.3-0.4,0.4c-0.1,0.2-0.2,0.4-0.2,0.7v0.2c0,0.3,0.1,0.5,0.2,0.7c0.1,0.2,0.3,0.4,0.5,0.5
			c0.2,0.1,0.5,0.2,0.8,0.2c0.3,0,0.5,0,0.7-0.1c0.2-0.1,0.4-0.2,0.5-0.4l0.7,0.8c-0.2,0.3-0.5,0.4-0.8,0.6
			C87.6,96.7,87.2,96.8,86.8,96.8z"/>
	</g>
	<g>
		<path class="st3" d="M34.1,106.6c-0.5,0-1-0.1-1.4-0.3c-0.4-0.2-0.7-0.5-1-0.9s-0.3-0.8-0.3-1.3c0-0.5,0.1-0.9,0.3-1.3
			s0.6-0.7,1-0.9c0.4-0.2,0.9-0.3,1.4-0.3c0.5,0,1,0.1,1.3,0.3c0.4,0.2,0.7,0.5,0.8,0.9l-1.1,0.6c-0.1-0.2-0.3-0.4-0.5-0.5
			c-0.2-0.1-0.4-0.2-0.6-0.2c-0.2,0-0.5,0.1-0.6,0.2c-0.2,0.1-0.3,0.3-0.5,0.5c-0.1,0.2-0.2,0.4-0.2,0.7s0.1,0.5,0.2,0.7
			s0.3,0.4,0.5,0.5c0.2,0.1,0.4,0.2,0.6,0.2c0.2,0,0.4-0.1,0.6-0.2c0.2-0.1,0.3-0.3,0.5-0.5l1.1,0.6c-0.2,0.4-0.5,0.7-0.8,0.9
			C35,106.5,34.6,106.6,34.1,106.6z"/>
		<path class="st3" d="M39.3,106.6c-0.5,0-1-0.1-1.4-0.3c-0.4-0.2-0.7-0.5-0.9-0.9s-0.3-0.8-0.3-1.3c0-0.5,0.1-0.9,0.3-1.3
			s0.5-0.7,0.9-0.9c0.4-0.2,0.9-0.3,1.4-0.3c0.5,0,1,0.1,1.4,0.3s0.7,0.5,0.9,0.9s0.3,0.8,0.3,1.3c0,0.5-0.1,0.9-0.3,1.3
			s-0.5,0.7-0.9,0.9S39.8,106.6,39.3,106.6z M39.3,105.4c0.2,0,0.4-0.1,0.6-0.2c0.2-0.1,0.3-0.3,0.4-0.5c0.1-0.2,0.2-0.4,0.2-0.7
			c0-0.3-0.1-0.5-0.2-0.7c-0.1-0.2-0.3-0.4-0.4-0.5c-0.2-0.1-0.4-0.2-0.6-0.2c-0.2,0-0.4,0.1-0.6,0.2c-0.2,0.1-0.3,0.3-0.4,0.5
			c-0.1,0.2-0.2,0.4-0.2,0.7c0,0.3,0.1,0.5,0.2,0.7c0.1,0.2,0.3,0.4,0.4,0.5C38.8,105.4,39,105.4,39.3,105.4z"/>
		<path class="st3" d="M45.8,101.6c0.4,0,0.7,0.1,1,0.2c0.3,0.2,0.5,0.4,0.7,0.7c0.2,0.3,0.3,0.7,0.3,1.2v2.8h-1.4v-2.6
			c0-0.4-0.1-0.7-0.3-0.9s-0.4-0.3-0.7-0.3c-0.2,0-0.4,0-0.6,0.1c-0.2,0.1-0.3,0.2-0.4,0.4c-0.1,0.2-0.1,0.4-0.1,0.7v2.4h-1.4v-4.8
			h1.3v1.3l-0.3-0.4c0.2-0.3,0.4-0.6,0.7-0.7C45,101.7,45.4,101.6,45.8,101.6z"/>
		<path class="st3" d="M50.7,106.6c-0.4,0-0.8,0-1.2-0.1c-0.4-0.1-0.7-0.2-0.9-0.4l0.5-1c0.2,0.1,0.5,0.3,0.8,0.3
			c0.3,0.1,0.6,0.1,0.9,0.1c0.3,0,0.6,0,0.7-0.1c0.1-0.1,0.2-0.2,0.2-0.3c0-0.1-0.1-0.2-0.2-0.3s-0.2-0.1-0.4-0.1
			c-0.2,0-0.4-0.1-0.6-0.1c-0.2,0-0.4-0.1-0.6-0.1c-0.2-0.1-0.4-0.1-0.6-0.2c-0.2-0.1-0.3-0.2-0.4-0.4s-0.2-0.4-0.2-0.7
			c0-0.3,0.1-0.6,0.3-0.8c0.2-0.2,0.4-0.4,0.8-0.6c0.3-0.1,0.7-0.2,1.2-0.2c0.3,0,0.7,0,1,0.1c0.3,0.1,0.6,0.2,0.9,0.3l-0.5,1
			c-0.2-0.1-0.5-0.2-0.7-0.3c-0.2-0.1-0.5-0.1-0.7-0.1c-0.3,0-0.5,0-0.7,0.1s-0.2,0.2-0.2,0.3c0,0.1,0.1,0.2,0.2,0.3
			c0.1,0.1,0.2,0.1,0.4,0.1c0.2,0,0.4,0.1,0.6,0.1s0.4,0.1,0.6,0.1c0.2,0.1,0.4,0.1,0.6,0.2c0.2,0.1,0.3,0.2,0.4,0.4
			s0.2,0.4,0.2,0.7c0,0.3-0.1,0.6-0.3,0.8c-0.2,0.2-0.4,0.4-0.8,0.5C51.6,106.5,51.2,106.6,50.7,106.6z"/>
		<path class="st3" d="M53.3,102.8v-1.1h3.4v1.1H53.3z M55.8,106.6c-0.6,0-1-0.1-1.3-0.4s-0.5-0.7-0.5-1.3v-4.2h1.4v4.2
			c0,0.2,0.1,0.4,0.2,0.5c0.1,0.1,0.3,0.2,0.4,0.2c0.2,0,0.4-0.1,0.6-0.2l0.4,1c-0.1,0.1-0.3,0.2-0.5,0.2
			C56.3,106.5,56.1,106.6,55.8,106.6z"/>
		<path class="st3" d="M57.8,106.5v-4.8h1.3v1.4l-0.2-0.4c0.1-0.3,0.4-0.6,0.7-0.8c0.3-0.2,0.7-0.3,1.2-0.3v1.3c-0.1,0-0.1,0-0.2,0
			c0,0-0.1,0-0.2,0c-0.4,0-0.7,0.1-0.9,0.3c-0.2,0.2-0.4,0.6-0.4,1v2.3H57.8z"/>
		<path class="st3" d="M63.7,106.6c-0.4,0-0.8-0.1-1.1-0.2c-0.3-0.2-0.6-0.4-0.7-0.7c-0.2-0.3-0.3-0.7-0.3-1.2v-2.7H63v2.5
			c0,0.4,0.1,0.7,0.3,0.9c0.2,0.2,0.4,0.3,0.7,0.3c0.2,0,0.4,0,0.6-0.1s0.3-0.2,0.4-0.4c0.1-0.2,0.1-0.4,0.1-0.7v-2.4h1.4v4.8h-1.3
			v-1.3l0.2,0.4c-0.2,0.3-0.4,0.6-0.7,0.8S64.1,106.6,63.7,106.6z"/>
		<path class="st3" d="M70.2,106.6c-0.5,0-1-0.1-1.4-0.3c-0.4-0.2-0.7-0.5-1-0.9s-0.3-0.8-0.3-1.3c0-0.5,0.1-0.9,0.3-1.3
			s0.6-0.7,1-0.9c0.4-0.2,0.9-0.3,1.4-0.3c0.5,0,1,0.1,1.3,0.3c0.4,0.2,0.7,0.5,0.8,0.9l-1.1,0.6c-0.1-0.2-0.3-0.4-0.5-0.5
			c-0.2-0.1-0.4-0.2-0.6-0.2c-0.2,0-0.5,0.1-0.6,0.2c-0.2,0.1-0.3,0.3-0.5,0.5c-0.1,0.2-0.2,0.4-0.2,0.7s0.1,0.5,0.2,0.7
			s0.3,0.4,0.5,0.5c0.2,0.1,0.4,0.2,0.6,0.2c0.2,0,0.4-0.1,0.6-0.2c0.2-0.1,0.3-0.3,0.5-0.5l1.1,0.6c-0.2,0.4-0.5,0.7-0.8,0.9
			C71.1,106.5,70.7,106.6,70.2,106.6z"/>
		<path class="st3" d="M75.4,106.6c-0.5,0-1-0.1-1.4-0.3c-0.4-0.2-0.7-0.5-1-0.9s-0.3-0.8-0.3-1.3c0-0.5,0.1-0.9,0.3-1.3
			s0.6-0.7,1-0.9c0.4-0.2,0.9-0.3,1.4-0.3c0.5,0,1,0.1,1.3,0.3c0.4,0.2,0.7,0.5,0.8,0.9l-1.1,0.6c-0.1-0.2-0.3-0.4-0.5-0.5
			c-0.2-0.1-0.4-0.2-0.6-0.2c-0.2,0-0.5,0.1-0.6,0.2c-0.2,0.1-0.3,0.3-0.5,0.5c-0.1,0.2-0.2,0.4-0.2,0.7s0.1,0.5,0.2,0.7
			s0.3,0.4,0.5,0.5c0.2,0.1,0.4,0.2,0.6,0.2c0.2,0,0.4-0.1,0.6-0.2c0.2-0.1,0.3-0.3,0.5-0.5l1.1,0.6c-0.2,0.4-0.5,0.7-0.8,0.9
			C76.4,106.5,76,106.6,75.4,106.6z"/>
		<path class="st3" d="M79.1,101c-0.3,0-0.5-0.1-0.6-0.2c-0.2-0.1-0.2-0.3-0.2-0.6s0.1-0.4,0.2-0.6c0.2-0.1,0.4-0.2,0.6-0.2
			s0.5,0.1,0.6,0.2c0.2,0.1,0.2,0.3,0.2,0.5c0,0.2-0.1,0.4-0.2,0.6C79.6,100.9,79.4,101,79.1,101z M78.4,106.5v-4.8h1.4v4.8H78.4z"
			/>
		<path class="st3" d="M83.4,106.6c-0.5,0-1-0.1-1.4-0.3c-0.4-0.2-0.7-0.5-0.9-0.9c-0.2-0.4-0.3-0.8-0.3-1.3c0-0.5,0.1-0.9,0.3-1.3
			c0.2-0.4,0.5-0.7,0.9-0.9c0.4-0.2,0.9-0.3,1.4-0.3c0.5,0,1,0.1,1.4,0.3c0.4,0.2,0.7,0.5,0.9,0.9c0.2,0.4,0.3,0.8,0.3,1.3
			c0,0.5-0.1,0.9-0.3,1.3c-0.2,0.4-0.5,0.7-0.9,0.9C84.4,106.4,84,106.6,83.4,106.6z M83.4,105.4c0.2,0,0.4-0.1,0.6-0.2
			c0.2-0.1,0.3-0.3,0.4-0.5c0.1-0.2,0.2-0.4,0.2-0.7c0-0.3-0.1-0.5-0.2-0.7c-0.1-0.2-0.3-0.4-0.4-0.5c-0.2-0.1-0.4-0.2-0.6-0.2
			c-0.2,0-0.4,0.1-0.6,0.2c-0.2,0.1-0.3,0.3-0.4,0.5c-0.1,0.2-0.2,0.4-0.2,0.7c0,0.3,0.1,0.5,0.2,0.7c0.1,0.2,0.3,0.4,0.4,0.5
			C83,105.4,83.2,105.4,83.4,105.4z M82.6,101l1.2-1.3h1.5l-1.6,1.3H82.6z"/>
		<path class="st3" d="M90,101.6c0.4,0,0.7,0.1,1,0.2c0.3,0.2,0.5,0.4,0.7,0.7c0.2,0.3,0.3,0.7,0.3,1.2v2.8h-1.4v-2.6
			c0-0.4-0.1-0.7-0.3-0.9s-0.4-0.3-0.7-0.3c-0.2,0-0.4,0-0.6,0.1s-0.3,0.2-0.4,0.4c-0.1,0.2-0.1,0.4-0.1,0.7v2.4H87v-4.8h1.3v1.3
			l-0.3-0.4c0.2-0.3,0.4-0.6,0.7-0.7C89.2,101.7,89.6,101.6,90,101.6z"/>
	</g>
	<g>
		<path class="st3" d="M22.9,40.4v-7.7h0.9l3.5,5.8h-0.5l3.4-5.8H31l0,7.7H30l0-6h0.3l-3,5.1h-0.5l-3.1-5.1h0.3v6H22.9z"/>
		<path class="st3" d="M32.2,40.4l3.5-7.7h1.1l3.5,7.7h-1.2L36,33.3h0.4l-3.1,7.1H32.2z M33.7,38.5l0.3-0.9h4.3l0.3,0.9H33.7z
			 M35.4,32.1l1.5-1.4h1.3l-1.8,1.4H35.4z"/>
		<path class="st3" d="M43.7,40.5c-0.6,0-1.1-0.1-1.7-0.3s-1-0.4-1.3-0.7l0.4-0.9c0.3,0.3,0.7,0.5,1.1,0.6c0.5,0.2,0.9,0.3,1.4,0.3
			c0.4,0,0.8-0.1,1.1-0.2s0.5-0.2,0.6-0.4s0.2-0.4,0.2-0.6c0-0.3-0.1-0.5-0.3-0.6s-0.4-0.3-0.7-0.4s-0.6-0.2-0.9-0.3s-0.7-0.2-1-0.3
			c-0.3-0.1-0.6-0.2-0.9-0.4s-0.5-0.4-0.7-0.6c-0.2-0.3-0.3-0.6-0.3-1c0-0.4,0.1-0.8,0.3-1.1c0.2-0.3,0.5-0.6,1-0.8
			c0.4-0.2,1-0.3,1.7-0.3c0.4,0,0.9,0.1,1.3,0.2c0.4,0.1,0.8,0.3,1.1,0.5L46,34.2c-0.3-0.2-0.7-0.4-1-0.5c-0.4-0.1-0.7-0.1-1.1-0.1
			c-0.4,0-0.8,0.1-1.1,0.2c-0.3,0.1-0.5,0.3-0.6,0.4C42,34.4,42,34.6,42,34.8c0,0.3,0.1,0.5,0.3,0.6c0.2,0.2,0.4,0.3,0.7,0.4
			c0.3,0.1,0.6,0.2,0.9,0.3c0.3,0.1,0.7,0.2,1,0.3c0.3,0.1,0.6,0.2,0.9,0.4s0.5,0.4,0.7,0.6c0.2,0.3,0.3,0.6,0.3,1
			c0,0.4-0.1,0.7-0.3,1.1c-0.2,0.3-0.5,0.6-1,0.8C44.9,40.4,44.3,40.5,43.7,40.5z"/>
	</g>
	<g>
		<path class="st3" d="M22.9,53.6v-7.7h3.2c0.8,0,1.5,0.2,2.2,0.5c0.6,0.3,1.1,0.8,1.5,1.4c0.3,0.6,0.5,1.3,0.5,2s-0.2,1.4-0.5,2
			c-0.3,0.6-0.8,1-1.5,1.4c-0.6,0.3-1.4,0.5-2.2,0.5H22.9z M24,52.7H26c0.6,0,1.2-0.1,1.7-0.4c0.5-0.2,0.8-0.6,1.1-1
			c0.3-0.4,0.4-0.9,0.4-1.5c0-0.6-0.1-1.1-0.4-1.5c-0.3-0.4-0.6-0.8-1.1-1c-0.5-0.2-1-0.4-1.7-0.4H24V52.7z"/>
		<path class="st3" d="M33,52.7h4.5v1h-5.6v-7.7h5.4v1H33V52.7z M32.9,49.3h4v0.9h-4V49.3z"/>
	</g>
	
		<linearGradient id="SVGID_1_" gradientUnits="userSpaceOnUse" x1="-415.4612" y1="338.9365" x2="-414.4612" y2="338.9365" gradientTransform="matrix(42.6587 0 0 -42.6587 17758.1738 14496.4141)">
		<stop  offset="0" style="stop-color:#EE7601"/>
		<stop  offset="9.780220e-03" style="stop-color:#EE7601"/>
		<stop  offset="0.2223" style="stop-color:#EF7B01"/>
		<stop  offset="0.4694" style="stop-color:#F28901"/>
		<stop  offset="0.7328" style="stop-color:#F6A000"/>
		<stop  offset="0.996" style="stop-color:#FCBF00"/>
		<stop  offset="1" style="stop-color:#FCBF00"/>
	</linearGradient>
	<path class="st4" d="M76.4,48.8v6.5H50.6v-5.1l13.2-12.5c1.4-1.3,2.3-2.5,2.8-3.4c0.5-1,0.7-1.9,0.7-2.9c0-1.4-0.5-2.4-1.4-3.2
		s-2.3-1.1-4.1-1.1c-1.5,0-2.9,0.3-4.1,0.9c-1.2,0.6-2.2,1.4-3,2.6L49,26.8c1.3-2,3.2-3.5,5.5-4.7c2.3-1.1,5-1.7,8.1-1.7
		c2.5,0,4.8,0.4,6.7,1.2c1.9,0.8,3.4,2,4.4,3.5c1.1,1.5,1.6,3.3,1.6,5.4c0,1.9-0.4,3.6-1.2,5.2c-0.8,1.6-2.3,3.5-4.5,5.6l-7.9,7.4
		H76.4z"/>
	
		<linearGradient id="SVGID_00000135678559491660199010000001397139105100043911_" gradientUnits="userSpaceOnUse" x1="-415.6391" y1="336.3144" x2="-414.6391" y2="336.3144" gradientTransform="matrix(87.1359 0 0 -87.1359 36236.668 29373.7109)">
		<stop  offset="0" style="stop-color:#EE7601"/>
		<stop  offset="9.780220e-03" style="stop-color:#EE7601"/>
		<stop  offset="0.2223" style="stop-color:#EF7B01"/>
		<stop  offset="0.4694" style="stop-color:#F28901"/>
		<stop  offset="0.7328" style="stop-color:#F6A000"/>
		<stop  offset="0.996" style="stop-color:#FCBF00"/>
		<stop  offset="1" style="stop-color:#FCBF00"/>
	</linearGradient>
	<path style="fill:url(#SVGID_00000135678559491660199010000001397139105100043911_);" d="M30.4,74.2l0-5l-2.4,4h-1.6l-2.4-3.9v4.9
		h-3.4V63.1h3.1l3.6,5.9l3.5-5.9h3.1l0,11.1H30.4z M35.6,63.1h3.7v11.1h-3.7V63.1z M41.1,63.1h3.7v8.2h5v2.9h-8.7V63.1z M50.9,63.1
		h3.7v8.2h5v2.9h-8.7V63.1z M66.3,74.4c-1.2,0-2.3-0.2-3.2-0.7s-1.7-1.2-2.2-2.1c-0.5-0.9-0.8-1.9-0.8-3s0.3-2.1,0.8-3
		c0.5-0.9,1.3-1.6,2.2-2.1c0.9-0.5,2-0.7,3.2-0.7c1.2,0,2.3,0.2,3.2,0.7c0.9,0.5,1.7,1.2,2.2,2.1c0.5,0.9,0.8,1.9,0.8,3
		s-0.3,2.1-0.8,3c-0.5,0.9-1.3,1.6-2.2,2.1S67.5,74.4,66.3,74.4L66.3,74.4z M66.3,71.4c0.5,0,0.9-0.1,1.3-0.3c0.4-0.2,0.7-0.5,0.9-1
		c0.2-0.4,0.3-0.9,0.3-1.5c0-0.6-0.1-1-0.3-1.5c-0.2-0.4-0.5-0.7-0.9-1c-0.4-0.2-0.8-0.3-1.3-0.3c-0.5,0-0.9,0.1-1.3,0.3
		c-0.4,0.2-0.7,0.5-0.9,1c-0.2,0.4-0.3,0.9-0.3,1.5c0,0.6,0.1,1,0.3,1.5c0.2,0.4,0.5,0.7,0.9,1C65.4,71.3,65.8,71.4,66.3,71.4
		L66.3,71.4z M84.8,63.1v11.1h-3.1l-4.2-5v5h-3.6V63.1h3.1l4.2,5v-5H84.8z M95.8,71.4v2.8h-9.2V63.1h9v2.8h-5.3v1.3h4.7v2.7h-4.7
		v1.5H95.8z M101.4,74.4c-0.9,0-1.8-0.1-2.7-0.3c-0.9-0.2-1.6-0.5-2.1-0.8l1.2-2.7c0.5,0.3,1.1,0.6,1.8,0.7c0.7,0.2,1.3,0.3,1.9,0.3
		c0.5,0,0.9,0,1.1-0.2c0.2-0.1,0.3-0.3,0.3-0.5c0-0.2-0.1-0.4-0.4-0.5c-0.3-0.1-0.8-0.2-1.4-0.4c-0.9-0.2-1.6-0.4-2.1-0.6
		c-0.6-0.2-1.1-0.5-1.5-1c-0.4-0.5-0.6-1.1-0.6-1.9c0-0.7,0.2-1.3,0.6-1.9c0.4-0.6,1-1,1.7-1.3c0.8-0.3,1.7-0.5,2.8-0.5
		c0.8,0,1.5,0.1,2.2,0.2c0.7,0.2,1.4,0.4,1.9,0.7l-1.1,2.7c-1.1-0.5-2.1-0.8-3.1-0.8c-1,0-1.4,0.2-1.4,0.7c0,0.2,0.1,0.4,0.4,0.5
		c0.3,0.1,0.8,0.2,1.4,0.4c0.8,0.2,1.6,0.3,2.1,0.5c0.6,0.2,1.1,0.5,1.5,1c0.4,0.5,0.6,1.1,0.6,1.9c0,0.7-0.2,1.3-0.6,1.9
		c-0.4,0.6-1,1-1.7,1.3S102.5,74.4,101.4,74.4L101.4,74.4z"/>
</g>
</svg>
