<?xml version="1.0" encoding="utf-8"?>
<!-- Generator: Adobe Illustrator 26.2.1, SVG Export Plug-In . SVG Version: 6.00 Build 0)  -->
<svg version="1.1" id="Capa_1" xmlns="http://www.w3.org/2000/svg" xmlns:xlink="http://www.w3.org/1999/xlink" x="0px" y="0px"
	 viewBox="0 0 127 127" style="enable-background:new 0 0 127 127;" xml:space="preserve">
<style type="text/css">
	.st0{fill:#003248;}
	.st1{fill:none;stroke:#FFFFFF;stroke-width:1.053;stroke-linecap:round;stroke-linejoin:round;stroke-dasharray:0,3.191;}
	.st2{fill:none;stroke:#FFFFFF;stroke-width:1.053;stroke-linecap:round;stroke-linejoin:round;}
	.st3{fill:url(#SVGID_1_);}
	.st4{fill:#FFFFFF;}
</style>
<path class="st0" d="M63.5,118.8c30.6,0,55.3-24.8,55.3-55.3c0-30.6-24.8-55.3-55.3-55.3S8.2,32.9,8.2,63.5
	C8.2,94.1,32.9,118.8,63.5,118.8"/>
<g>
	<path class="st1" d="M66.7,126.4c32.8-1.6,58.9-28.3,59.8-61.3"/>
	<path class="st1" d="M126.4,60.3C124.7,27.5,98.1,1.4,65.1,0.5"/>
	<path class="st1" d="M60.3,0.6C27.5,2.2,1.4,28.9,0.5,61.9"/>
	<path class="st1" d="M0.6,66.7c1.6,32.8,28.3,58.9,61.3,59.8"/>
	<path class="st2" d="M63.5,126.5L63.5,126.5 M0.5,63.5L0.5,63.5 M63.5,0.5L63.5,0.5 M126.5,63.5L126.5,63.5"/>
</g>
<g>
	
		<linearGradient id="SVGID_1_" gradientUnits="userSpaceOnUse" x1="-415.4864" y1="333.0391" x2="-414.4864" y2="333.0391" gradientTransform="matrix(54.2397 0 0 -54.2397 22556.4102 18126.4512)">
		<stop  offset="0" style="stop-color:#EE7601"/>
		<stop  offset="9.780220e-03" style="stop-color:#EE7601"/>
		<stop  offset="0.2223" style="stop-color:#EF7B01"/>
		<stop  offset="0.4694" style="stop-color:#F28901"/>
		<stop  offset="0.7328" style="stop-color:#F6A000"/>
		<stop  offset="0.996" style="stop-color:#FCBF00"/>
		<stop  offset="1" style="stop-color:#FCBF00"/>
	</linearGradient>
	<path class="st3" d="M35.6,45.4v34.2h-7.9V51.8h-6.8v-6.4H35.6z M56.3,80.2c-2.8,0-5.4-0.7-7.6-2.1c-2.2-1.4-4-3.4-5.2-6.1
		c-1.3-2.7-1.9-5.8-1.9-9.5c0-3.7,0.6-6.8,1.9-9.5c1.3-2.7,3-4.7,5.2-6.1c2.2-1.4,4.7-2.1,7.6-2.1s5.4,0.7,7.6,2.1
		c2.2,1.4,3.9,3.4,5.2,6.1c1.3,2.7,1.9,5.8,1.9,9.5c0,3.7-0.6,6.8-1.9,9.5c-1.3,2.7-3,4.7-5.2,6.1C61.6,79.5,59.1,80.2,56.3,80.2
		L56.3,80.2z M56.3,73.5c2.1,0,3.7-0.9,4.9-2.7c1.2-1.8,1.8-4.6,1.8-8.3c0-3.7-0.6-6.5-1.8-8.3c-1.2-1.8-2.8-2.7-4.9-2.7
		c-2.1,0-3.7,0.9-4.9,2.7c-1.2,1.8-1.8,4.6-1.8,8.3c0,3.7,0.6,6.5,1.8,8.3C52.6,72.6,54.2,73.5,56.3,73.5L56.3,73.5z"/>
	<g>
		<path class="st4" d="M38.9,38.6v-7.7h0.9l3.5,5.8h-0.5l3.4-5.8h0.9l0,7.7h-1.1l0-6h0.3l-3,5.1h-0.5l-3.1-5.1H40v6H38.9z"/>
		<path class="st4" d="M48.3,38.6l3.5-7.7h1.1l3.5,7.7h-1.2l-3.1-7.1h0.4l-3.1,7.1H48.3z M49.7,36.7l0.3-0.9h4.3l0.3,0.9H49.7z
			 M51.5,30.3l1.5-1.4h1.3l-1.8,1.4H51.5z"/>
		<path class="st4" d="M59.7,38.7c-0.6,0-1.1-0.1-1.7-0.3s-1-0.4-1.3-0.7l0.4-0.9c0.3,0.3,0.7,0.5,1.1,0.6c0.5,0.2,0.9,0.3,1.4,0.3
			c0.4,0,0.8-0.1,1.1-0.2s0.5-0.2,0.6-0.4s0.2-0.4,0.2-0.6c0-0.3-0.1-0.5-0.3-0.6s-0.4-0.3-0.7-0.4c-0.3-0.1-0.6-0.2-0.9-0.3
			s-0.7-0.2-1-0.3c-0.3-0.1-0.6-0.2-0.9-0.4c-0.3-0.2-0.5-0.4-0.7-0.6c-0.2-0.3-0.3-0.6-0.3-1c0-0.4,0.1-0.8,0.3-1.1s0.5-0.6,1-0.8
			c0.4-0.2,1-0.3,1.7-0.3c0.4,0,0.9,0.1,1.3,0.2s0.8,0.3,1.1,0.5L62,32.4c-0.3-0.2-0.7-0.4-1-0.5c-0.4-0.1-0.7-0.1-1.1-0.1
			c-0.4,0-0.8,0.1-1.1,0.2c-0.3,0.1-0.5,0.3-0.6,0.4C58.1,32.6,58,32.8,58,33c0,0.3,0.1,0.5,0.3,0.6c0.2,0.2,0.4,0.3,0.7,0.4
			c0.3,0.1,0.6,0.2,0.9,0.3c0.3,0.1,0.7,0.2,1,0.3c0.3,0.1,0.6,0.2,0.9,0.4c0.3,0.2,0.5,0.4,0.7,0.6c0.2,0.3,0.3,0.6,0.3,1
			c0,0.4-0.1,0.8-0.3,1.1c-0.2,0.3-0.5,0.6-1,0.8C61,38.6,60.4,38.7,59.7,38.7z"/>
		<path class="st4" d="M67.3,38.6v-7.7h3.2c0.8,0,1.5,0.2,2.2,0.5c0.6,0.3,1.1,0.8,1.5,1.4c0.3,0.6,0.5,1.2,0.5,2s-0.2,1.4-0.5,2
			c-0.3,0.6-0.8,1-1.5,1.4c-0.6,0.3-1.4,0.5-2.2,0.5H67.3z M68.4,37.7h2.1c0.6,0,1.2-0.1,1.7-0.4c0.5-0.2,0.8-0.6,1.1-1
			c0.3-0.4,0.4-0.9,0.4-1.5c0-0.6-0.1-1.1-0.4-1.5c-0.3-0.4-0.6-0.8-1.1-1c-0.5-0.2-1-0.4-1.7-0.4h-2.1V37.7z"/>
		<path class="st4" d="M77.5,37.7h4.5v1h-5.6v-7.7h5.4v1h-4.3V37.7z M77.4,34.3h4v0.9h-4V34.3z"/>
	</g>
	<g>
		<path class="st4" d="M74.7,63.6l3.4-7.7h1.8l3.4,7.7h-1.9l-2.8-6.8h0.7l-2.8,6.8H74.7z M76.4,61.9l0.5-1.4h4l0.5,1.4H76.4z"/>
		<path class="st4" d="M84.1,63.6v-7.7h1.5l4.5,5.5h-0.7v-5.5h1.8v7.7h-1.5L85.2,58h0.7v5.5H84.1z M88.5,55.3c-0.2,0-0.4,0-0.5-0.1
			c-0.1-0.1-0.3-0.2-0.4-0.2s-0.2-0.2-0.3-0.2c-0.1-0.1-0.2-0.1-0.3-0.1c-0.1,0-0.3,0.1-0.4,0.2c-0.1,0.1-0.2,0.3-0.2,0.5h-0.9
			c0-0.5,0.1-0.9,0.4-1.2c0.2-0.3,0.5-0.4,0.9-0.4c0.2,0,0.4,0,0.5,0.1c0.1,0.1,0.3,0.2,0.4,0.2c0.1,0.1,0.2,0.2,0.3,0.2
			c0.1,0.1,0.2,0.1,0.3,0.1c0.2,0,0.3-0.1,0.4-0.2c0.1-0.1,0.1-0.3,0.2-0.4h0.9c0,0.5-0.1,0.8-0.4,1.1
			C89.2,55.1,88.9,55.3,88.5,55.3z"/>
		<path class="st4" d="M96.8,63.7c-0.6,0-1.2-0.1-1.7-0.3c-0.5-0.2-1-0.5-1.3-0.8c-0.4-0.4-0.7-0.8-0.9-1.3c-0.2-0.5-0.3-1-0.3-1.6
			c0-0.6,0.1-1.1,0.3-1.6c0.2-0.5,0.5-0.9,0.9-1.3s0.8-0.6,1.3-0.8c0.5-0.2,1.1-0.3,1.7-0.3c0.6,0,1.2,0.1,1.7,0.3s1,0.5,1.3,0.8
			s0.7,0.8,0.9,1.3s0.3,1,0.3,1.6c0,0.6-0.1,1.1-0.3,1.6s-0.5,0.9-0.9,1.3c-0.4,0.4-0.8,0.6-1.3,0.8S97.4,63.7,96.8,63.7z
			 M96.7,62.2c0.3,0,0.7-0.1,1-0.2c0.3-0.1,0.5-0.3,0.8-0.5c0.2-0.2,0.4-0.5,0.5-0.8c0.1-0.3,0.2-0.6,0.2-1c0-0.4-0.1-0.7-0.2-1
			c-0.1-0.3-0.3-0.6-0.5-0.8c-0.2-0.2-0.5-0.4-0.8-0.5c-0.3-0.1-0.6-0.2-1-0.2s-0.7,0.1-1,0.2c-0.3,0.1-0.5,0.3-0.8,0.5
			c-0.2,0.2-0.4,0.5-0.5,0.8c-0.1,0.3-0.2,0.6-0.2,1c0,0.4,0.1,0.7,0.2,1c0.1,0.3,0.3,0.6,0.5,0.8c0.2,0.2,0.5,0.4,0.8,0.5
			C96.1,62.1,96.4,62.2,96.7,62.2z"/>
		<path class="st4" d="M104.8,63.7c-0.6,0-1.2-0.1-1.8-0.2c-0.6-0.2-1-0.4-1.4-0.6l0.6-1.3c0.3,0.2,0.7,0.4,1.2,0.6
			c0.5,0.2,0.9,0.2,1.4,0.2c0.4,0,0.6,0,0.9-0.1c0.2-0.1,0.4-0.2,0.5-0.3s0.2-0.3,0.2-0.4c0-0.2-0.1-0.4-0.2-0.5
			c-0.2-0.1-0.4-0.2-0.6-0.3c-0.3-0.1-0.6-0.1-0.9-0.2c-0.3-0.1-0.6-0.2-1-0.3c-0.3-0.1-0.6-0.2-0.9-0.4c-0.3-0.2-0.5-0.4-0.6-0.6
			c-0.2-0.3-0.2-0.6-0.2-1c0-0.4,0.1-0.8,0.4-1.2s0.6-0.7,1.1-0.9c0.5-0.2,1.1-0.3,1.8-0.3c0.5,0,1,0.1,1.4,0.2
			c0.5,0.1,0.9,0.3,1.2,0.5l-0.5,1.4c-0.4-0.2-0.7-0.4-1.1-0.5c-0.4-0.1-0.7-0.1-1.1-0.1s-0.6,0-0.8,0.1c-0.2,0.1-0.4,0.2-0.5,0.3
			c-0.1,0.1-0.1,0.3-0.1,0.4c0,0.2,0.1,0.4,0.2,0.5s0.4,0.2,0.6,0.3c0.3,0.1,0.6,0.1,0.9,0.2c0.3,0.1,0.6,0.2,1,0.3
			c0.3,0.1,0.6,0.2,0.9,0.4c0.3,0.2,0.5,0.4,0.6,0.6c0.2,0.3,0.2,0.6,0.2,1c0,0.4-0.1,0.8-0.4,1.2c-0.2,0.4-0.6,0.6-1.1,0.9
			S105.6,63.7,104.8,63.7z"/>
	</g>
	<g>
		<path class="st4" d="M75.9,76.8v-7.7h3.2c0.8,0,1.5,0.2,2.2,0.5c0.6,0.3,1.1,0.8,1.5,1.4s0.5,1.2,0.5,2s-0.2,1.4-0.5,2
			s-0.8,1-1.5,1.4c-0.6,0.3-1.4,0.5-2.2,0.5H75.9z M77,75.8h2.1c0.6,0,1.2-0.1,1.7-0.4c0.5-0.2,0.8-0.6,1.1-1
			c0.3-0.4,0.4-0.9,0.4-1.5c0-0.6-0.1-1.1-0.4-1.5c-0.3-0.4-0.6-0.8-1.1-1c-0.5-0.2-1-0.4-1.7-0.4H77V75.8z"/>
		<path class="st4" d="M86.1,75.8h4.5v1H85v-7.7h5.4v1h-4.3V75.8z M86,72.4h4v0.9h-4V72.4z"/>
	</g>
	<g>
		<path class="st4" d="M26.8,94h3.8v2h-6.4v-7.7h6.3v2h-3.7V94z M26.6,91.1h3.4V93h-3.4V91.1z"/>
		<path class="st4" d="M30.9,95.9l3.4-4.8l0,1.8L31,88.2h2.9l1.9,2.9l-1.2,0l1.9-2.9h2.8L36,92.8V91l3.5,4.9h-3l-1.9-3l1.2,0l-1.9,3
			H30.9z"/>
		<path class="st4" d="M39.8,95.9v-7.7h3.7c0.7,0,1.3,0.1,1.9,0.4c0.5,0.2,0.9,0.6,1.2,1s0.4,1,0.4,1.5c0,0.6-0.1,1.1-0.4,1.5
			s-0.7,0.8-1.2,1c-0.5,0.2-1.1,0.4-1.9,0.4h-2.3l1.2-1.1v3H39.8z M42.4,93.2L41.2,92h2.1c0.4,0,0.6-0.1,0.8-0.2
			c0.2-0.2,0.3-0.4,0.3-0.7c0-0.3-0.1-0.5-0.3-0.7s-0.4-0.2-0.8-0.2h-2.1l1.2-1.2V93.2z"/>
		<path class="st4" d="M50.4,94h3.8v2h-6.4v-7.7h6.3v2h-3.7V94z M50.2,91.1h3.4V93h-3.4V91.1z"/>
		<path class="st4" d="M55.3,95.9v-7.7H59c0.7,0,1.3,0.1,1.9,0.4c0.5,0.2,0.9,0.6,1.2,1s0.4,1,0.4,1.5c0,0.6-0.1,1.1-0.4,1.5
			s-0.7,0.8-1.2,1C60.3,93.9,59.7,94,59,94h-2.3l1.2-1.1v3H55.3z M57.8,93.2L56.7,92h2.1c0.4,0,0.6-0.1,0.8-0.2
			c0.2-0.2,0.3-0.4,0.3-0.7c0-0.3-0.1-0.5-0.3-0.7s-0.4-0.2-0.8-0.2h-2.1l1.2-1.2V93.2z M59.9,95.9L58,93.1h2.8l1.9,2.8H59.9z"/>
		<path class="st4" d="M63.4,95.9v-7.7H66v7.7H63.4z"/>
		<path class="st4" d="M69.8,94h3.8v2h-6.4v-7.7h6.3v2h-3.7V94z M69.7,91.1h3.4V93h-3.4V91.1z"/>
		<path class="st4" d="M74.7,95.9v-7.7h2.1l3.9,4.7h-1v-4.7h2.5v7.7h-2.1l-3.9-4.7h1v4.7H74.7z"/>
		<path class="st4" d="M87.5,96.1c-0.6,0-1.2-0.1-1.7-0.3c-0.5-0.2-1-0.5-1.4-0.8c-0.4-0.4-0.7-0.8-0.9-1.3c-0.2-0.5-0.3-1-0.3-1.6
			c0-0.6,0.1-1.1,0.3-1.6s0.5-0.9,0.9-1.3c0.4-0.4,0.8-0.6,1.4-0.8s1.1-0.3,1.7-0.3c0.8,0,1.4,0.1,2,0.4c0.6,0.3,1.1,0.6,1.4,1.1
			L89.3,91c-0.2-0.3-0.5-0.5-0.8-0.7c-0.3-0.2-0.6-0.2-0.9-0.2c-0.3,0-0.5,0-0.7,0.1s-0.4,0.2-0.6,0.4c-0.2,0.2-0.3,0.4-0.4,0.6
			s-0.1,0.5-0.1,0.8c0,0.3,0,0.6,0.1,0.8s0.2,0.4,0.4,0.6c0.2,0.2,0.3,0.3,0.6,0.4s0.5,0.1,0.7,0.1c0.3,0,0.7-0.1,0.9-0.2
			c0.3-0.2,0.5-0.4,0.8-0.7l1.6,1.5c-0.4,0.5-0.9,0.9-1.4,1.1S88.3,96.1,87.5,96.1z"/>
		<path class="st4" d="M91.7,95.9v-7.7h2.6v7.7H91.7z"/>
		<path class="st4" d="M94.7,95.9l3.4-7.7h2.6l3.4,7.7h-2.7l-2.5-6.5h1l-2.5,6.5H94.7z M96.7,94.6l0.7-1.9h3.5l0.7,1.9H96.7z"/>
	</g>
</g>
<path class="st2" d="M63.5,126.5L63.5,126.5 M0.5,63.5L0.5,63.5 M63.5,0.5L63.5,0.5 M126.5,63.5L126.5,63.5"/>
</svg>
