<?xml version="1.0" encoding="utf-8"?>
<!-- Generator: Adobe Illustrator 26.2.1, SVG Export Plug-In . SVG Version: 6.00 Build 0)  -->
<svg version="1.1" id="Capa_1" xmlns="http://www.w3.org/2000/svg" xmlns:xlink="http://www.w3.org/1999/xlink" x="0px" y="0px"
	 viewBox="0 0 104.7 23.3" style="enable-background:new 0 0 104.7 23.3;" xml:space="preserve">
<style type="text/css">
	.st0{fill:#FFFFFF;}
</style>
<g id="yhTm9j_00000093861817538601173250000005884354587304137371_">
	<g>
		<path class="st0" d="M52.5,17.2c0,2.1,0,4.1,0,6.2c-1.2,0-2.5,0-3.7,0c0-5.8,0-11.7,0-17.5c1.2,0,2.5,0,3.7,0c0,0.6,0,1.2,0,1.8
			c0,0,0.1-0.1,0.1-0.1c0.9-1.1,2.1-1.8,3.5-2c2.4-0.3,4.7,0.7,6,2.9c0.5,0.9,0.8,1.9,0.9,3c0.1,1.3,0,2.6-0.5,3.9
			c-0.6,1.5-1.5,2.7-3,3.3c-2,0.9-3.9,0.8-5.7-0.5c-0.4-0.3-0.7-0.6-1.1-1C52.6,17.2,52.6,17.2,52.5,17.2
			C52.5,17.2,52.5,17.2,52.5,17.2z M52.5,12.4c0,0.3,0,0.6,0.1,0.9c0.1,0.8,0.5,1.5,1.1,2.1c0.8,0.7,1.7,0.9,2.7,0.8
			c1-0.1,1.8-0.6,2.4-1.5c0.5-0.8,0.7-1.7,0.6-2.6c-0.1-0.8-0.3-1.5-0.8-2.1c-0.7-0.9-1.7-1.3-2.9-1.3c-1,0-1.8,0.5-2.4,1.3
			C52.7,10.7,52.5,11.5,52.5,12.4z"/>
		<path class="st0" d="M43.7,14.8c0.8,0.8,1.6,1.6,2.4,2.4c-0.1,0.1-0.2,0.2-0.3,0.3C45,18.2,44,18.6,43,18.9
			c-1,0.3-2.1,0.4-3.1,0.3c-3.1-0.3-5.5-2.5-6-5.5c-0.3-1.7-0.1-3.2,0.7-4.7c1-1.9,2.6-3,4.6-3.3C40.5,5.4,41.8,5.5,43,6
			c1.5,0.6,2.5,1.7,3.2,3.1c0.4,0.9,0.7,1.9,0.8,3c0,0.5,0.1,0.9,0.1,1.4c0,0,0,0.1,0,0.2c-3.2,0-6.3,0-9.5,0c0,0,0,0.1,0,0.1
			c0.4,1.2,1.2,2,2.5,2.3c0.7,0.1,1.4,0,2.1-0.2C42.8,15.5,43.3,15.2,43.7,14.8z M37.6,10.9c2,0,3.9,0,5.9,0c-0.2-0.6-0.5-1.2-1-1.6
			C42,9,41.4,8.8,40.7,8.8c-1.4,0-2.6,0.8-3.1,2C37.6,10.9,37.6,10.9,37.6,10.9z"/>
		<path class="st0" d="M78.8,12.7c0,1.6-0.8,3.3-2.2,4.6c-1,1-2.3,1.6-3.7,1.9c-1.7,0.3-3.2,0.1-4.7-0.7c-1.6-0.9-2.8-2.2-3.4-4
			c-0.7-2.1-0.4-4.1,0.9-5.9c1.2-1.6,2.8-2.6,4.8-2.9c3.5-0.6,6.8,1.5,7.9,4.6C78.7,10.9,78.8,11.6,78.8,12.7z M71.8,16.2
			c0.4,0,0.9-0.1,1.3-0.3c2.3-1.1,2.9-4.2,1.2-6c-0.9-1-2-1.4-3.3-1.1c-2.3,0.5-3.5,3-2.6,5.1C68.9,15.2,70.2,16.2,71.8,16.2z"/>
		<path class="st0" d="M32.1,19c-0.1,0-0.1,0-0.2,0c-1.1,0-2.1,0-3.2,0c-0.2,0-0.2,0-0.2-0.2c0-2.4,0-4.9,0-7.3
			c0-0.5-0.1-0.9-0.2-1.4c-0.4-1.1-1.4-1.5-2.5-1.5c-0.7,0.1-1.4,0.3-1.9,0.8c-0.5,0.5-0.7,1.1-0.7,1.7c0,2.5,0,5,0,7.5
			c0,0.1,0,0.1,0,0.2c-1.2,0-2.5,0-3.7,0c0-4.4,0-8.7,0-13.1c1.2,0,2.5,0,3.7,0c0,0.5,0,1.1,0,1.6c0,0,0,0,0.1,0
			c0.7-1,1.6-1.5,2.8-1.8c1.2-0.3,2.3-0.2,3.4,0.4c1.3,0.6,2.1,1.7,2.4,3.1c0.1,0.4,0.2,0.9,0.2,1.4c0,2.8,0,5.6,0,8.3
			C32.1,18.9,32.1,18.9,32.1,19z"/>
		<path class="st0" d="M92,17.3c0.5-0.8,1.1-1.7,1.6-2.5c0.2,0.1,0.4,0.2,0.6,0.4c1,0.6,2,1,3.2,1.1c0.5,0,1,0.1,1.5-0.1
			c0.2-0.1,0.4-0.1,0.6-0.3c0.5-0.3,0.5-0.9,0-1.3c-0.3-0.2-0.6-0.4-0.9-0.4c-0.7-0.2-1.4-0.4-2.1-0.6c-0.8-0.2-1.6-0.5-2.3-0.9
			C93,12,92.5,11,92.6,9.7c0.1-1.8,1-3,2.6-3.7c1-0.4,2-0.5,3-0.5c1.7,0.1,3.2,0.6,4.6,1.5c0,0,0.1,0.1,0.1,0.1
			c-0.5,0.9-1,1.7-1.5,2.6c-0.1,0-0.1,0-0.1-0.1c-0.9-0.5-1.8-0.9-2.8-1c-0.5-0.1-1.1-0.1-1.6,0c-0.1,0-0.3,0.1-0.4,0.2
			c-0.4,0.3-0.5,0.8-0.1,1.2c0.1,0.1,0.3,0.2,0.4,0.3c0.6,0.2,1.2,0.4,1.9,0.6c0.9,0.2,1.8,0.5,2.6,0.9c0.8,0.4,1.4,1,1.7,1.8
			c0.6,1.6,0.2,3.6-1.6,4.8c-0.8,0.5-1.6,0.7-2.4,0.8c-2,0.2-4-0.2-5.8-1.1c-0.4-0.2-0.7-0.5-1.1-0.7C92,17.4,92,17.3,92,17.3z"/>
		<path class="st0" d="M80.6,1.2c1.2,0,2.4,0,3.7,0c0,5.9,0,11.8,0,17.8c-1.2,0-2.4,0-3.7,0C80.6,13.1,80.6,7.1,80.6,1.2z"/>
		<path class="st0" d="M16.9,19c-1.2,0-2.5,0-3.7,0c0-4.4,0-8.7,0-13.1c1.2,0,2.4,0,3.7,0C16.9,10.2,16.9,14.6,16.9,19z"/>
		<path class="st0" d="M86.8,19c0-4.4,0-8.8,0-13.1c1.2,0,2.4,0,3.7,0c0,0,0,0.1,0,0.1c0,4.3,0,8.6,0,12.8c0,0.1,0,0.2-0.2,0.2
			c-1.1,0-2.3,0-3.4,0C86.9,19,86.8,19,86.8,19z"/>
		<path class="st0" d="M3.6,13c0.5,2.3,3.1,3.4,5.2,2c1,0.7,1.9,1.5,2.9,2.2c-1.4,1.5-3.8,2.5-6.4,1.9c-2.9-0.7-4.8-3-5.2-5.4
			C1.2,13.5,2.4,13.3,3.6,13z"/>
		<path class="st0" d="M3.6,11.8c-1.2-0.2-2.4-0.5-3.6-0.7c0.6-2.6,2.1-4.4,4.7-5.2c2.6-0.9,5.2-0.1,7,1.7c0,0-0.1,0-0.1,0.1
			C10.7,8.3,9.8,9,8.9,9.7c-0.1,0-0.1,0.1-0.2,0C6.7,8.4,4.1,9.4,3.6,11.8C3.6,11.7,3.6,11.8,3.6,11.8z"/>
		<path class="st0" d="M90.6,2c0,1.1-0.9,2-2,2c-1.1,0-2-0.9-2-2.1c0-1.1,1-2,2-1.9C89.7,0,90.6,0.9,90.6,2z"/>
		<path class="st0" d="M15,4c-1.1,0-2-0.9-2-2c0-1.1,0.9-2,2-2c1.1,0,2,0.9,2,2C17,3.1,16.1,4,15,4z"/>
		<path class="st0" d="M43.7,1.2c0,0.1,0,0.1-0.1,0.1c-0.4,0.9-0.8,1.7-1.3,2.6C42.3,4,42.3,4,42.2,4c-1.2,0-2.3,0-3.5,0
			c0,0-0.1,0-0.1,0c0,0,0-0.1,0-0.1c0.4-0.9,0.8-1.7,1.3-2.6c0-0.1,0.1-0.1,0.2-0.1c1.2,0,2.3,0,3.5,0C43.6,1.2,43.6,1.2,43.7,1.2z"
			/>
		<path class="st0" d="M104.7,18.6c0,0.4-0.4,0.8-0.8,0.8c-0.5,0-0.8-0.4-0.8-0.8c0-0.4,0.4-0.8,0.8-0.8
			C104.4,17.8,104.7,18.1,104.7,18.6z M103.9,17.9c-0.4,0-0.6,0.3-0.6,0.6c0,0.4,0.3,0.6,0.6,0.6c0.4,0,0.6-0.3,0.6-0.6
			C104.6,18.2,104.3,17.9,103.9,17.9z"/>
		<path class="st0" d="M104.2,18.5c0.1,0.1,0.1,0.3,0.2,0.4c-0.1,0-0.2,0-0.3-0.1c0-0.1-0.1-0.2-0.3-0.2c0,0.1,0,0.2,0,0.3
			c-0.1,0-0.1,0-0.2,0c0-0.3,0-0.5,0-0.8c0.1,0,0.3,0,0.4,0c0.1,0,0.2,0.1,0.2,0.2C104.3,18.4,104.3,18.5,104.2,18.5
			C104.2,18.5,104.2,18.6,104.2,18.5z M103.8,18.2c0,0.1,0,0.2,0,0.3c0.1,0,0.2-0.1,0.3-0.1c0,0,0-0.1,0-0.1
			C104,18.3,103.9,18.3,103.8,18.2z"/>
	</g>
</g>
</svg>
