<?xml version="1.0" encoding="utf-8"?>
<!-- Generator: Adobe Illustrator 26.2.1, SVG Export Plug-In . SVG Version: 6.00 Build 0)  -->
<svg version="1.1" id="Capa_1" xmlns="http://www.w3.org/2000/svg" xmlns:xlink="http://www.w3.org/1999/xlink" x="0px" y="0px"
	 viewBox="0 0 70.9 24.6" style="enable-background:new 0 0 70.9 24.6;" xml:space="preserve">
<style type="text/css">
	.st0{fill:#FFFFFF;}
</style>
<g>
	<g id="_x36_HFIdx_00000143577555593553485260000001451380690258754439_">
		<g>
			<path class="st0" d="M27.7,15.1c0-0.4,0-0.8,0.1-1.2c0-0.2,0.1-0.3,0.1-0.5c0,0,0-0.1,0-0.1c0.1-0.2,0.1-0.4,0.2-0.7
				c0.1-0.3,0.2-0.5,0.3-0.8c0.1-0.2,0.2-0.4,0.3-0.5c0.1-0.2,0.2-0.3,0.3-0.5c0.1-0.2,0.2-0.3,0.3-0.5c0.1-0.2,0.3-0.3,0.4-0.5
				c0.1-0.1,0.3-0.3,0.5-0.4C30.5,9.3,30.8,9.2,31,9c0.2-0.1,0.3-0.2,0.5-0.3c0.2-0.1,0.3-0.1,0.5-0.2c0.1,0,0.2-0.1,0.2-0.1
				c0.5-0.2,1-0.3,1.6-0.3c0.7,0,1.4,0.1,2,0.3c0.2,0.1,0.5,0.2,0.7,0.3c0.1,0.1,0.3,0.1,0.4,0.2c0.3,0.2,0.7,0.4,1,0.7
				c0.2,0.2,0.4,0.4,0.6,0.6c0.1,0.1,0.2,0.2,0.2,0.3c0.1,0.2,0.3,0.4,0.4,0.6c0.2,0.3,0.4,0.6,0.5,1c0.2,0.4,0.3,0.9,0.4,1.3
				c0.1,0.3,0.1,0.6,0.1,0.9c0,0.4,0.1,0.8,0,1.1c0,0.5-0.1,1-0.2,1.5c-0.1,0.3-0.2,0.6-0.3,0.9c-0.1,0.2-0.2,0.4-0.3,0.6
				c-0.1,0.2-0.2,0.4-0.3,0.5c-0.1,0.1-0.2,0.2-0.2,0.4c-0.2,0.3-0.5,0.6-0.8,0.9c-0.4,0.4-0.9,0.8-1.4,1c-0.3,0.2-0.6,0.3-0.9,0.4
				c-0.7,0.2-1.4,0.4-2.1,0.3c-0.2,0-0.5,0-0.7-0.1c-0.1,0-0.2,0-0.3,0c-0.5-0.1-0.9-0.3-1.4-0.5c-0.2-0.1-0.4-0.2-0.6-0.4
				c-0.4-0.2-0.7-0.5-1-0.8c-0.3-0.3-0.6-0.6-0.8-0.9c0-0.1-0.1-0.1-0.1-0.2c-0.2-0.3-0.4-0.7-0.6-1c-0.2-0.4-0.3-0.8-0.4-1.1
				C27.8,16.5,27.7,15.8,27.7,15.1z M34,10.3c-0.7,0-1.3,0.2-1.9,0.5c-0.4,0.2-0.7,0.5-1,0.7c-0.3,0.3-0.5,0.6-0.7,0.9
				c-0.2,0.3-0.4,0.7-0.5,1.1c-0.2,0.5-0.3,1.1-0.3,1.6c0,0.3,0,0.6,0.1,0.9c0.1,0.3,0.1,0.7,0.3,1c0.2,0.5,0.5,0.9,0.8,1.3
				c0.2,0.3,0.5,0.5,0.8,0.7c0.4,0.2,0.7,0.5,1.2,0.6c0.6,0.2,1.2,0.3,1.8,0.2c0.2,0,0.5-0.1,0.7-0.2c0.4-0.1,0.7-0.3,1-0.5
				c0.1-0.1,0.1-0.1,0.2-0.2c0.3-0.2,0.5-0.4,0.7-0.7c0.3-0.3,0.5-0.6,0.6-1c0.2-0.5,0.4-1,0.5-1.5c0-0.4,0.1-0.8,0-1.2
				c0-0.3-0.1-0.6-0.2-0.8c-0.1-0.5-0.4-1-0.7-1.5c-0.2-0.3-0.5-0.6-0.7-0.8c-0.2-0.2-0.5-0.4-0.7-0.6c-0.3-0.2-0.7-0.4-1.1-0.5
				C34.6,10.4,34.3,10.3,34,10.3z"/>
			<path class="st0" d="M49.5,21.8c0.1-0.1,0.1-0.2,0.2-0.4c0.1-0.2,0.2-0.4,0.3-0.6c0.1-0.2,0.2-0.5,0.3-0.7
				c0.1-0.2,0.2-0.4,0.3-0.7c0.1-0.2,0.2-0.5,0.3-0.7c0.1-0.2,0.1-0.3,0.2-0.5c0.2-0.4,0.3-0.7,0.5-1.1c0.1-0.3,0.3-0.6,0.4-0.9
				c0.1-0.2,0.2-0.5,0.3-0.7c0.1-0.2,0.1-0.3,0.2-0.5c0.2-0.4,0.4-0.8,0.5-1.2c0.2-0.4,0.3-0.7,0.5-1.1c0.1-0.2,0.2-0.4,0.3-0.7
				c0.1-0.1,0.1-0.3,0.2-0.4c0.1-0.3,0.3-0.7,0.4-1c0.1-0.3,0.2-0.5,0.4-0.8c0.1-0.2,0.2-0.4,0.3-0.6c0.2-0.4,0.4-0.8,0.5-1.1
				c0.1-0.2,0.2-0.3,0.3-0.5c0-0.1,0.1-0.2,0.2-0.2c0,0,0,0.1,0.1,0.1c0.1,0.2,0.2,0.4,0.3,0.6c0.1,0.2,0.3,0.5,0.4,0.7
				C56.8,9,56.9,9.2,57,9.3c0.1,0.3,0.3,0.6,0.4,0.8c0.1,0.2,0.2,0.4,0.3,0.6c0.2,0.4,0.4,0.8,0.6,1.2c0.1,0.2,0.1,0.3,0.2,0.5
				c0.1,0.3,0.2,0.5,0.4,0.8c0.2,0.5,0.5,1,0.7,1.5c0.1,0.3,0.3,0.6,0.4,0.9c0.2,0.4,0.4,0.8,0.5,1.2c0.1,0.3,0.3,0.6,0.4,0.9
				c0.2,0.4,0.4,0.8,0.6,1.3c0.2,0.4,0.4,0.9,0.6,1.3c0.2,0.3,0.3,0.7,0.5,1.1c0.1,0.2,0.2,0.4,0.3,0.6c0.1,0.3,0.3,0.6,0.4,0.9
				c0.1,0.3,0.3,0.6,0.5,0.9c0.1,0.2,0.1,0.3,0.2,0.5c0.1,0.1,0,0.3-0.2,0.3c-0.2,0-0.3,0-0.5,0c-0.4,0-0.8,0-1.1,0
				c-0.3,0-0.4-0.1-0.5-0.4c-0.1-0.2-0.2-0.4-0.3-0.6c-0.1-0.2-0.2-0.4-0.3-0.6c-0.2-0.4-0.3-0.8-0.5-1.2c-0.2-0.4-0.3-0.7-0.5-1.1
				c-0.1-0.2-0.2-0.4-0.3-0.6c0,0,0,0,0,0c-0.2-0.3-0.2-0.3-0.5-0.3c-0.6,0-1.2,0-1.8,0c-0.5,0-1.1,0-1.6,0c-0.3,0-0.6,0-0.9,0
				c-0.4,0-0.8,0-1.2,0c-0.3,0-0.6,0-1,0c-0.1,0-0.2,0.1-0.3,0.2c0,0,0,0,0,0.1c-0.2,0.4-0.3,0.9-0.5,1.3c0,0.1-0.1,0.3-0.1,0.4
				c-0.1,0.1-0.2,0.2-0.3,0.2c-0.1,0-0.2,0-0.3,0c-0.2,0-0.5,0-0.7,0c-0.2,0-0.5,0-0.7,0c0,0,0,0,0,0C49.6,22,49.5,21.9,49.5,21.8z
				 M56.1,11.8c0,0.1-0.1,0.1-0.1,0.1c-0.1,0.3-0.2,0.6-0.4,0.9c-0.1,0.3-0.2,0.6-0.4,0.9c-0.1,0.3-0.3,0.7-0.4,1
				c-0.2,0.4-0.3,0.8-0.5,1.1c-0.1,0.3-0.2,0.5-0.3,0.8c-0.1,0.3-0.2,0.5-0.3,0.8c0,0.1,0,0.1,0,0.2c0.1,0,0.2,0,0.2,0
				c0.9,0,1.8,0,2.8,0c0.5,0,1,0,1.5,0c0.1,0,0.1,0,0.2,0c0.1,0,0.1-0.1,0.1-0.2c0-0.1,0-0.1-0.1-0.2c-0.1-0.3-0.2-0.5-0.3-0.8
				c-0.3-0.7-0.6-1.3-0.8-2c-0.2-0.4-0.3-0.8-0.5-1.2c-0.2-0.4-0.3-0.8-0.5-1.2C56.1,12,56.1,11.9,56.1,11.8z"/>
			<path class="st0" d="M46.2,22.9c-0.1,0-0.2-0.1-0.2-0.2c-0.1-0.2-0.2-0.5-0.3-0.7c-0.2-0.4-0.4-0.9-0.6-1.3
				c-0.2-0.4-0.3-0.7-0.5-1.1c-0.1-0.2-0.2-0.4-0.3-0.6c-0.2-0.5-0.5-1-0.7-1.5c-0.2-0.4-0.4-0.8-0.6-1.2c-0.2-0.4-0.3-0.8-0.5-1.1
				c-0.1-0.3-0.3-0.6-0.4-1c-0.1-0.2-0.2-0.4-0.3-0.6c-0.1-0.2-0.2-0.4-0.2-0.6c-0.2-0.5-0.4-1-0.6-1.5c-0.1-0.3-0.3-0.6-0.4-0.9
				c-0.1-0.2-0.2-0.3-0.2-0.5c-0.1-0.1-0.1-0.3-0.2-0.4c-0.1-0.2,0-0.3,0.1-0.3c0.1,0,0.1,0,0.2,0c0.5,0,1,0,1.5,0
				c0.1,0,0.2,0,0.3,0.1c0.1,0.1,0.1,0.1,0.1,0.2c0.1,0.2,0.1,0.3,0.2,0.5c0.1,0.2,0.2,0.4,0.2,0.6c0,0.1,0.1,0.2,0.1,0.3
				c0.1,0.2,0.2,0.4,0.3,0.7c0,0.1,0.1,0.2,0.1,0.3c0.2,0.4,0.3,0.7,0.5,1.1c0.1,0.3,0.2,0.5,0.3,0.8c0.1,0.3,0.2,0.5,0.4,0.8
				c0.2,0.4,0.3,0.7,0.5,1.1c0.2,0.4,0.4,0.8,0.5,1.3c0.1,0.3,0.3,0.7,0.4,1c0.1,0.1,0.1,0.2,0.2,0.4c0.1-0.1,0.1-0.2,0.1-0.2
				c0.1-0.2,0.2-0.5,0.3-0.7c0.1-0.1,0.1-0.3,0.2-0.4c0.1-0.2,0.2-0.4,0.2-0.6c0.1-0.2,0.2-0.4,0.3-0.5c0.1-0.2,0.2-0.4,0.2-0.6
				c0.1-0.2,0.2-0.4,0.2-0.5c0.1-0.3,0.3-0.6,0.4-1c0.2-0.4,0.3-0.7,0.5-1.1c0.1-0.2,0.2-0.4,0.3-0.6c0.1-0.1,0.1-0.3,0.2-0.4
				c0.1-0.3,0.3-0.6,0.4-0.9c0.2-0.3,0.3-0.7,0.5-1c0.1-0.3,0.2-0.5,0.4-0.8c0.1-0.2,0.2-0.5,0.3-0.7c0.1-0.2,0.2-0.4,0.3-0.6
				c0.1-0.2,0.2-0.4,0.3-0.7c0.1-0.1,0.1-0.2,0.1-0.4c0-0.1,0-0.1,0.1-0.2c0.1-0.1,0.2-0.2,0.3-0.2c0.1,0,0.1,0,0.2,0
				c0.5,0,1,0,1.5,0c0,0,0.1,0,0.1,0c0.2,0,0.2,0.1,0.2,0.3c-0.1,0.1-0.1,0.2-0.2,0.4c-0.2,0.4-0.4,0.7-0.5,1.1
				c-0.2,0.3-0.3,0.7-0.4,1c-0.3,0.6-0.6,1.3-0.9,1.9c-0.2,0.3-0.3,0.7-0.5,1c-0.2,0.3-0.3,0.7-0.5,1c-0.2,0.5-0.4,0.9-0.7,1.4
				c-0.2,0.4-0.3,0.8-0.5,1.2c-0.1,0.3-0.3,0.7-0.5,1c-0.1,0.3-0.2,0.5-0.3,0.8c-0.1,0.1-0.1,0.3-0.2,0.4c-0.2,0.3-0.3,0.7-0.5,1
				c-0.1,0.3-0.3,0.6-0.4,0.9c-0.1,0.2-0.2,0.4-0.3,0.6c-0.1,0.2-0.2,0.4-0.3,0.7c-0.1,0.2-0.2,0.4-0.3,0.7
				c-0.2,0.4-0.3,0.7-0.5,1.1C46.4,22.7,46.3,22.8,46.2,22.9z"/>
			<path class="st0" d="M63.3,14.7c0-0.8,0-1.7,0-2.5c0-1.1,0-2.3,0-3.4c0-0.3,0-0.6,0-1c0-0.1,0-0.2,0-0.3c0-0.1,0.1-0.1,0.2-0.1
				c0.1,0,0.2,0,0.3,0c0.4,0,0.8,0,1.2,0c0.1,0,0.1,0,0.2,0c0.1,0,0.2,0.1,0.2,0.2c0,0.1,0,0.2,0,0.2c0,0.6,0,1.2,0,1.8
				c0,0.9,0,1.8,0,2.7c0,1.1,0,2.3,0,3.4c0,0.9,0,1.7,0,2.6c0,0.4,0,0.8,0,1.2c0,0.2,0,0.2,0.2,0.2c0.2,0,0.3,0,0.5,0
				c0.1,0,0.3,0,0.4,0c0.7,0,1.5,0,2.2,0c0.3,0,0.7,0,1,0c0.3,0,0.6,0,0.8,0c0.1,0,0.1,0,0.2,0c0.1,0,0.2,0.1,0.2,0.2
				c0,0.1,0,0.1,0,0.2c0,0.5,0,1,0,1.6c0,0.1,0,0.2-0.2,0.2c-0.1,0-0.1,0-0.2,0c-0.8,0-1.6,0-2.4,0c-0.9,0-1.7,0-2.6,0
				c-0.3,0-0.5,0-0.8,0c-0.4,0-0.7,0-1.1,0c-0.1,0-0.1,0-0.2,0c-0.1,0-0.2-0.1-0.2-0.2c0,0,0-0.1,0-0.1c0-0.8,0-1.7,0-2.5
				c0-0.9,0-1.9,0-2.8C63.3,15.8,63.3,15.2,63.3,14.7C63.3,14.7,63.3,14.7,63.3,14.7z"/>
			<path class="st0" d="M38.1,4.6c0-0.1,0-0.1,0-0.1c0-0.5,0-1,0-1.4c0-0.3,0-0.6,0-0.9c0-0.2,0.1-0.3,0.3-0.3
				c0.2,0,0.3,0.1,0.3,0.3c0,0.6,0,1.3,0,1.9c0,0.5,0,0.9,0,1.4c0,0,0,0.1,0,0.1c0,0.1,0,0.1-0.1,0.1c-0.2,0-0.4,0-0.6,0
				c-0.1,0-0.1-0.1-0.2-0.1c-0.2-0.2-0.3-0.5-0.5-0.7c-0.3-0.4-0.5-0.8-0.8-1.3c-0.1-0.2-0.2-0.3-0.3-0.5c0,0,0,0,0,0
				c0,0-0.1,0-0.1,0c0,0,0,0,0,0.1c0,0,0,0.1,0,0.1c0,0.6,0,1.2,0,1.8c0,0.2,0,0.4,0,0.6c0,0.1,0,0.1-0.2,0.2c-0.1,0-0.2,0-0.3,0
				c-0.1,0-0.2-0.1-0.2-0.2c0,0,0-0.1,0-0.1c0-1,0-1.9,0-2.9c0-0.1,0-0.3,0-0.4c0-0.2,0.1-0.3,0.2-0.3c0.1,0,0.3,0,0.4,0
				c0.1,0,0.2,0.1,0.2,0.2c0.3,0.4,0.5,0.8,0.8,1.2c0.1,0.1,0.2,0.2,0.3,0.4c0.2,0.3,0.3,0.5,0.5,0.8C37.9,4.5,38,4.5,38.1,4.6
				C38,4.6,38,4.6,38.1,4.6z"/>
			<path class="st0" d="M45.5,4c0-0.4,0-0.9,0-1.3c0-0.1,0-0.2,0-0.3c0-0.1,0-0.1,0-0.2c0-0.1,0.1-0.2,0.3-0.2c0.4,0,0.9,0,1.3,0
				c0.2,0,0.3,0.1,0.5,0.1c0.2,0,0.3,0.2,0.5,0.3c0.1,0.1,0.2,0.2,0.2,0.4c0,0.2,0.1,0.4,0,0.6c0,0.2-0.2,0.4-0.4,0.6
				C47.8,3.9,47.7,4,47.6,4c-0.1,0.1-0.1,0.1,0,0.2c0,0,0.1,0.1,0.1,0.1c0.2,0.2,0.4,0.5,0.6,0.7c0.1,0.1,0.2,0.2,0.3,0.3
				c0.1,0.1,0.1,0.2,0.2,0.2c0,0.1,0,0.1-0.1,0.2c0,0-0.1,0-0.1,0c-0.1,0-0.3,0-0.4,0c-0.1,0-0.3-0.1-0.3-0.2
				c-0.3-0.3-0.6-0.7-0.9-1.1c-0.2-0.2-0.3-0.3-0.6-0.2c-0.1,0-0.1,0.1-0.1,0.2c0,0.3,0,0.6,0,0.9c0,0.1,0,0.1,0,0.2
				c0,0.2,0,0.2-0.2,0.3c-0.1,0-0.3,0-0.4,0c-0.1,0-0.2-0.1-0.2-0.2c0-0.2,0-0.4,0-0.7C45.5,4.5,45.5,4.3,45.5,4
				C45.5,4,45.5,4,45.5,4z M46.2,3.1C46.2,3.1,46.2,3.1,46.2,3.1c0,0.2,0,0.3,0,0.5c0,0.1,0,0.2,0.2,0.2c0.2,0,0.4,0,0.6,0
				c0.2,0,0.4-0.1,0.5-0.3c0.1-0.2,0.2-0.4,0.1-0.6c0-0.1-0.1-0.2-0.2-0.3c-0.1,0-0.3-0.1-0.4-0.1c-0.2,0-0.3,0-0.5,0
				c-0.1,0-0.2,0-0.2,0.2C46.2,2.8,46.2,2.9,46.2,3.1z"/>
			<path class="st0" d="M64.6,1.8c0.2,0,0.3,0,0.5,0c0.3,0,0.5,0,0.8,0.2c0.2,0.1,0.4,0.2,0.5,0.4c0.1,0.1,0.1,0.2,0.1,0.3
				c0.1,0.4,0,0.8-0.3,1.1C66,3.8,65.9,3.9,65.8,4c-0.1,0.1-0.2,0.1,0,0.3c0.3,0.4,0.6,0.7,1,1.1c0,0,0.1,0.1,0.1,0.1
				c0,0,0.1,0.1,0.1,0.1c0,0.1,0,0.1,0,0.2c0,0-0.1,0-0.1,0.1c-0.3,0.1-0.6,0-0.8-0.2c-0.3-0.4-0.6-0.7-0.9-1c0,0-0.1,0-0.1-0.1
				c-0.1-0.2-0.3-0.2-0.5-0.2c-0.1,0-0.1,0-0.1,0.1c0,0,0,0.1,0,0.1c0,0.3,0,0.6,0,0.9c0,0,0,0.1,0,0.1c0,0.1-0.1,0.2-0.2,0.2
				c-0.1,0-0.2,0-0.4,0c-0.1,0-0.2-0.1-0.2-0.2c0-0.3,0-0.6,0-0.8c0-0.7,0-1.4,0-2.1c0-0.1,0-0.2,0-0.3c0,0,0-0.1,0-0.1
				c0-0.2,0.1-0.2,0.2-0.3c0,0,0,0,0.1,0C64.2,1.8,64.4,1.8,64.6,1.8C64.6,1.8,64.6,1.8,64.6,1.8z M64.4,3C64.4,3,64.4,3,64.4,3
				c0,0.1,0,0.3,0,0.4c0,0,0,0.1,0,0.1c0,0.1,0.1,0.1,0.1,0.1c0.2,0,0.5,0,0.7,0c0.2-0.1,0.4-0.2,0.5-0.5c0.1-0.3-0.1-0.6-0.4-0.7
				c-0.1,0-0.2,0-0.3,0c-0.2,0-0.4,0-0.5,0c-0.1,0-0.2,0-0.2,0.2C64.4,2.7,64.4,2.9,64.4,3z"/>
			<path class="st0" d="M33.1,5.8c-0.3,0-0.6,0-0.9-0.2c-0.5-0.2-0.8-0.5-0.9-1c-0.1-0.3-0.2-0.6-0.2-1c0-0.5,0.2-0.9,0.5-1.3
				c0.1-0.1,0.1-0.1,0.2-0.2C32.2,2,32.6,1.8,33,1.8c0.2,0,0.5,0,0.7,0.1c0.3,0.1,0.6,0.2,0.8,0.4C34.8,2.6,35,3,35,3.4
				c0.1,0.5,0,0.9-0.1,1.4c-0.1,0.2-0.2,0.4-0.4,0.5c0,0-0.1,0.1-0.1,0.1c-0.2,0.2-0.4,0.3-0.6,0.4C33.5,5.8,33.3,5.8,33.1,5.8z
				 M34.4,3.8C34.4,3.8,34.4,3.8,34.4,3.8c0-0.4-0.1-0.7-0.3-1c0,0-0.1-0.1-0.1-0.1c-0.2-0.2-0.4-0.3-0.6-0.3
				c-0.5-0.1-0.8,0-1.2,0.3c-0.2,0.2-0.3,0.4-0.4,0.7c-0.1,0.4,0,0.8,0.1,1.2c0.2,0.3,0.4,0.5,0.7,0.6c0.7,0.2,1.3-0.2,1.5-0.8
				C34.3,4.3,34.4,4,34.4,3.8z"/>
			<path class="st0" d="M59.3,3.8c0-0.3,0-0.5,0.1-0.7c0.1-0.3,0.3-0.5,0.5-0.8c0.2-0.2,0.5-0.3,0.7-0.4c0.3-0.1,0.6-0.1,0.9-0.1
				c0.2,0,0.3,0,0.5,0.1c0.2,0.1,0.4,0.1,0.6,0.3c0.3,0.2,0.4,0.4,0.5,0.7c0,0.1,0.1,0.2,0.1,0.4c0.1,0.4,0.1,0.8-0.1,1.2
				C63,4.7,63,4.9,62.8,5.1c-0.2,0.3-0.4,0.5-0.7,0.6c-0.5,0.2-1,0.2-1.5,0.1c-0.4-0.1-0.7-0.4-1-0.7C59.4,4.6,59.3,4.3,59.3,3.8z
				 M62.5,3.8c0-0.1,0-0.2,0-0.3c0-0.1,0-0.2-0.1-0.3c-0.1-0.2-0.2-0.4-0.3-0.5c-0.3-0.3-0.6-0.4-1-0.3c-0.4,0.1-0.7,0.3-0.9,0.6
				C60,3.3,60,3.7,60,4.1c0,0.4,0.2,0.7,0.5,1c0.2,0.2,0.4,0.3,0.7,0.3c0.1,0,0.1,0,0.2,0c0.3,0,0.5-0.1,0.7-0.3
				c0.1-0.1,0.1-0.1,0.2-0.2C62.4,4.5,62.5,4.2,62.5,3.8z"/>
			<path class="st0" d="M70.4,5.8c-0.1,0-0.1,0-0.1,0c-0.1,0-0.3-0.1-0.3-0.2c0-0.1-0.1-0.3-0.2-0.4C69.8,5,69.7,5,69.6,5
				c-0.3,0-0.7,0-1,0c-0.1,0-0.2,0-0.3,0c-0.1,0-0.2,0-0.2,0.1c-0.1,0.1-0.1,0.3-0.2,0.4c-0.1,0.2-0.2,0.2-0.3,0.2
				c-0.1,0-0.2,0-0.3-0.1c-0.1-0.1-0.1-0.1-0.1-0.2c0-0.1,0.1-0.1,0.1-0.2c0.1-0.3,0.2-0.6,0.3-0.9c0-0.1,0.1-0.2,0.1-0.3
				c0.1-0.3,0.2-0.6,0.3-0.9c0.1-0.2,0.2-0.5,0.3-0.7c0.1-0.1,0.1-0.3,0.2-0.4c0.1-0.1,0.2-0.2,0.3-0.2c0.1,0,0.2,0,0.4,0
				c0.1,0,0.1,0.1,0.2,0.1c0,0.1,0.1,0.2,0.1,0.3c0.2,0.4,0.3,0.8,0.5,1.3c0.2,0.5,0.4,0.9,0.5,1.4c0.1,0.2,0.1,0.3,0.2,0.5
				c0,0,0,0.1,0,0.1c0,0.1,0,0.2-0.2,0.3C70.5,5.8,70.4,5.8,70.4,5.8z M69,2.7c-0.1,0.1-0.1,0.1-0.1,0.2c-0.1,0.2-0.2,0.5-0.3,0.7
				c-0.1,0.2-0.2,0.4-0.2,0.7c0,0.1,0,0.2,0.1,0.2c0.3,0,0.6,0,0.9,0c0.2,0,0.2-0.1,0.1-0.2c0,0,0,0,0,0c-0.1-0.2-0.1-0.3-0.2-0.5
				c-0.1-0.3-0.2-0.5-0.3-0.8C69.1,2.9,69,2.8,69,2.7z"/>
			<path class="st0" d="M51.4,3.2c0-0.4,0-0.7,0-1.1c0-0.2,0.1-0.3,0.3-0.3c0.1,0,0.1,0,0.2,0c0.1,0,0.2,0.1,0.2,0.3
				c0,0.5,0,0.9,0,1.4c0,0.2,0,0.5,0,0.7c0,0.3-0.1,0.6-0.2,0.9c-0.1,0.3-0.4,0.5-0.7,0.6c-0.4,0.1-0.8,0.2-1.2,0.1
				c-0.3,0-0.5-0.1-0.7-0.3C49.1,5.3,49,5,48.9,4.7c-0.1-0.3,0-0.6,0-1c0-0.5,0-0.9,0-1.4c0-0.1,0-0.1,0-0.2c0-0.2,0.2-0.3,0.3-0.3
				c0,0,0.1,0,0.1,0c0.2,0,0.2,0.1,0.2,0.3c0,0.1,0,0.2,0,0.3c0,0.6,0,1.2,0,1.8c0,0.3,0,0.5,0.2,0.7c0.1,0.3,0.4,0.4,0.7,0.4
				c0.2,0,0.4,0,0.6-0.1c0.2-0.1,0.3-0.3,0.4-0.5c0.1-0.1,0.1-0.3,0.1-0.4C51.4,3.9,51.4,3.6,51.4,3.2C51.4,3.2,51.4,3.2,51.4,3.2z"
				/>
			<path class="st0" d="M40.3,5.8c-0.2,0-0.5,0-0.8-0.2c-0.1,0-0.2-0.1-0.2-0.2c0-0.1,0.1-0.3,0.2-0.4c0,0,0.1,0,0.1,0
				c0.1,0.1,0.3,0.1,0.4,0.1c0.3,0.1,0.6,0.1,0.9,0c0.3-0.1,0.4-0.3,0.3-0.6c0-0.1-0.1-0.2-0.2-0.3c-0.1-0.1-0.2-0.1-0.3-0.2
				C40.5,4,40.3,4,40.1,3.9c-0.2-0.1-0.4-0.2-0.6-0.4c-0.2-0.3-0.3-0.5-0.2-0.9c0.1-0.3,0.2-0.5,0.4-0.6C39.9,2,40,1.9,40.2,1.9
				c0.4-0.1,0.8-0.1,1.2,0c0.1,0,0.2,0.1,0.2,0.1c0.1,0.1,0.1,0.2,0.1,0.3c-0.1,0.1-0.2,0.2-0.3,0.1c-0.1,0-0.2-0.1-0.4-0.1
				c-0.2,0-0.4,0-0.6,0c-0.2,0-0.3,0.1-0.4,0.3c-0.1,0.2,0,0.4,0.1,0.5c0.1,0.1,0.2,0.1,0.4,0.2c0.1,0.1,0.3,0.1,0.5,0.2
				c0.3,0.1,0.5,0.3,0.7,0.5c0.2,0.2,0.2,0.4,0.2,0.6c0,0.4-0.2,0.8-0.6,1C41,5.8,40.7,5.8,40.3,5.8z"/>
			<path class="st0" d="M54.8,1.8c0.2,0,0.4,0,0.6,0.1c0.1,0,0.1,0,0.2,0.1c0.2,0.1,0.2,0.3,0,0.4c-0.1,0.1-0.1,0.1-0.2,0.1
				c-0.1,0-0.3-0.1-0.4-0.1c-0.4-0.1-0.7,0-1.1,0.2c-0.3,0.1-0.5,0.3-0.6,0.6c-0.1,0.1-0.1,0.3-0.1,0.5c0,0.5,0.1,1,0.5,1.4
				c0.1,0.1,0.3,0.2,0.5,0.2c0.4,0.1,0.7,0.1,1.1,0c0.1,0,0.2,0,0.2,0c0.1,0,0.2,0.1,0.2,0.2c0,0.2-0.1,0.3-0.3,0.3
				c-0.3,0.1-0.7,0.1-1,0.1c-0.2,0-0.5-0.1-0.7-0.1c-0.4-0.1-0.7-0.4-0.9-0.8c-0.2-0.4-0.3-0.8-0.2-1.2c0-0.4,0.1-0.7,0.3-1
				c0.2-0.2,0.4-0.5,0.7-0.6c0.3-0.1,0.6-0.2,0.9-0.3C54.6,1.8,54.7,1.8,54.8,1.8z"/>
			<path class="st0" d="M30,5.8c-0.2,0-0.5,0-0.7-0.1c-0.5-0.1-0.9-0.3-1.2-0.7c-0.1-0.2-0.2-0.3-0.3-0.5c0-0.2-0.1-0.4-0.1-0.6
				c0-0.1,0-0.2,0-0.4c0-0.3,0.2-0.7,0.3-1c0-0.1,0.1-0.1,0.2-0.2c0.3-0.3,0.6-0.5,1-0.6c0.3-0.1,0.7-0.1,1-0.1c0.1,0,0.2,0,0.4,0.1
				c0.1,0,0.2,0.1,0.2,0.2c0.1,0.1,0.1,0.2,0,0.3c-0.1,0.1-0.2,0.1-0.3,0.1c-0.1,0-0.2-0.1-0.2-0.1c-0.4-0.1-0.7,0-1,0.1
				c-0.2,0.1-0.3,0.2-0.5,0.3c-0.1,0.1-0.2,0.2-0.2,0.3c-0.3,0.6-0.2,1.1,0.1,1.6C28.8,5,29,5.1,29.2,5.2c0.4,0.2,0.9,0.2,1.4,0
				c0,0,0.1,0,0.1,0c0.1,0,0.1,0,0.1,0.1c0,0.1,0,0.2,0,0.2c0,0.1,0,0.2-0.1,0.2c0,0-0.1,0.1-0.2,0.1C30.4,5.8,30.2,5.8,30,5.8z"/>
			<path class="st0" d="M44,4c0,0.5,0,0.9,0,1.4c0,0.2,0,0.3-0.3,0.3c-0.1,0-0.2,0-0.3,0c-0.1,0-0.1-0.1-0.1-0.2c0-0.1,0-0.3,0-0.4
				c0-0.8,0-1.6,0-2.5c0,0,0,0,0,0c0-0.1,0-0.2-0.2-0.2c-0.3,0-0.5,0-0.8,0c-0.1,0-0.2,0-0.3-0.1C41.9,2.2,41.9,2,42,2
				c0.1-0.1,0.2-0.1,0.3-0.1c0.2,0,0.4,0,0.6,0c0.5,0,1.1,0,1.6,0c0.1,0,0.2,0,0.3,0c0.1,0,0.2,0,0.2,0.1c0.1,0.1,0.1,0.3,0,0.4
				c-0.1,0.1-0.2,0.1-0.3,0.1c-0.2,0-0.4,0-0.7,0c0,0-0.1,0-0.1,0c-0.1,0-0.1,0-0.2,0.2c0,0,0,0.1,0,0.1C44,3.1,44,3.6,44,4
				C44,4,44,4,44,4z"/>
			<path class="st0" d="M58.1,4.1c0,0.5,0,1,0,1.4c0,0.1,0,0.2-0.2,0.2c-0.1,0-0.2,0-0.4,0c-0.1,0-0.2-0.1-0.2-0.2c0-0.3,0-0.6,0-1
				c0-0.6,0-1.3,0-1.9c0,0,0,0,0-0.1c0-0.1,0-0.1-0.1-0.1c-0.2,0-0.4,0-0.6,0c-0.1,0-0.2,0-0.3,0c-0.2,0-0.3-0.1-0.3-0.2
				c0-0.2,0.1-0.3,0.2-0.3c0.1,0,0.1,0,0.2,0c0.6,0,1.2,0,1.7,0c0.3,0,0.6,0,0.9,0c0,0,0.1,0,0.1,0c0.1,0.1,0.2,0.2,0.1,0.4
				c0,0.1-0.1,0.2-0.3,0.2c-0.2,0-0.4,0-0.6,0c-0.1,0-0.2,0-0.3,0c-0.1,0-0.2,0.1-0.2,0.2c0,0.2,0,0.5,0,0.7
				C58.1,3.6,58.1,3.8,58.1,4.1C58.1,4.1,58.1,4.1,58.1,4.1z"/>
		</g>
	</g>
	<g>
		<path class="st0" d="M11.6,22.3l0-5.3c-3.1-0.2-5.6-1.9-6-4.1l-3.4,0l0,1.4L0,12.3V24c0,0.3,0.2,0.5,0.5,0.5h11.7l-2-2.2
			L11.6,22.3z"/>
		<path class="st0" d="M2.2,11.7l3.4,0c0.4-2.2,2.9-4,6-4.2l0-5.3l-1.4,0L12.2,0H0.5C0.2,0,0,0.2,0,0.5v11.8l2.2-2L2.2,11.7z"/>
		<path class="st0" d="M22.2,12.9l-3.5,0c-0.4,2.2-2.9,3.9-5.9,4.1l0,5.3l1.4,0l-1.9,2.2h11.6c0.3,0,0.5-0.2,0.5-0.5V12.3l-2.2,1.9
			L22.2,12.9z"/>
		<path class="st0" d="M23.9,0H12.2l2,2.2l-1.3,0l0,5.3c3.1,0.2,5.6,2,5.9,4.2l3.5,0l0-1.3l2.2,2V0.5C24.4,0.2,24.2,0,23.9,0z"/>
	</g>
</g>
</svg>
