<?xml version="1.0" encoding="utf-8"?>
<!-- Generator: Adobe Illustrator 26.2.1, SVG Export Plug-In . SVG Version: 6.00 Build 0)  -->
<svg version="1.1" id="Capa_1" xmlns="http://www.w3.org/2000/svg" xmlns:xlink="http://www.w3.org/1999/xlink" x="0px" y="0px"
	 viewBox="0 0 112.3 21.4" style="enable-background:new 0 0 112.3 21.4;" xml:space="preserve">
<style type="text/css">
	.st0{fill:#FFFFFF;}
</style>
<g>
	<g id="htiTIe_00000150789614431307686110000002524625255863810962_">
		<g>
			<path class="st0" d="M4.4,14.9c0.3-0.2,0.6-0.2,0.9,0c0.2,0.1,0.3,0.2,0.3,0.4c0.1,0.3,0.1,0.8-0.2,1c-0.3,0.2-0.7,0.3-1,0.1
				c-0.3-0.2-0.5-0.7-0.3-1.2c-0.1,0-0.1,0-0.1,0.1c-0.2,0.2-0.5,0.2-0.8,0.1c-0.1,0-0.1,0-0.1,0.1c0.1,0.2,0,0.3,0,0.5
				c0,0.1,0,0.1,0.1,0.1c0.7-0.1,1.2,0.5,1.2,1.1c0,0.3-0.2,0.6-0.4,0.8c-0.2,0.2-0.5,0.3-0.9,0.2C3,18,2.9,18,2.8,17.9
				c-0.1-0.1-0.3-0.2-0.3-0.4c-0.1-0.2-0.2-0.4-0.1-0.6c0,0,0-0.1,0-0.1c0-0.1,0-0.1-0.1-0.1c-0.1,0-0.3,0-0.4,0
				c-0.1,0-0.1-0.1-0.2-0.2c-0.2-0.3-0.3-0.6-0.5-0.9c0,0,0,0,0,0c0-0.3-0.3-0.5-0.3-0.7c-0.1-0.4-0.3-0.8-0.4-1.2
				c-0.1-0.4-0.2-0.8-0.2-1.2c-0.1-0.4-0.1-0.8-0.2-1.1c0-0.2,0-0.5,0-0.7c0,0,0,0,0-0.1c0-0.4,0-0.8,0.1-1.3C0.2,8.8,0.3,8.4,0.4,8
				c0-0.2,0.1-0.4,0.1-0.5C0.6,7.3,0.7,7,0.7,6.8c0.1-0.3,0.3-0.7,0.5-1c0.2-0.3,0.3-0.6,0.5-0.9C1.9,4.6,2.2,4.3,2.4,4
				c0.4-0.5,0.9-1,1.4-1.5c0.1-0.1,0.1-0.1,0.2,0c0.2,0.1,0.4,0.3,0.5,0.6c0.2,0.4-0.1,1-0.5,1.2C3.8,4.4,3.5,4.5,3.2,4.4
				c0,0,0,0,0,0c0,0,0,0,0,0c0,0,0,0,0,0c0.1,0.2,0.1,0.5,0.1,0.7c0,0.1,0,0.1,0.1,0.1c0.2,0,0.4,0,0.6,0.1c0.3,0.1,0.6,0.5,0.6,0.9
				c0,0.1,0,0.1,0,0.2c0,0.1,0,0.2-0.1,0.3c0,0,0,0.1,0,0.1c0,0,0.1,0,0.1,0c0.3-0.2,0.6-0.1,0.9,0.1C5.9,7.3,5.9,8,5.3,8.3
				C4.8,8.6,4.4,8.3,4.2,8C4,7.8,4,7.5,4.1,7.3c0,0,0-0.1,0-0.2c-0.1,0-0.1,0-0.1,0.1C3.8,7.3,3.6,7.3,3.4,7.3c-0.2,0-0.2,0-0.2,0.1
				c0,0.1,0,0.3,0,0.4c0,0.1,0,0.1,0.1,0.1c0.4-0.2,0.9,0.2,1.1,0.5c0.2,0.3,0.2,0.6,0,0.9c0,0.1-0.1,0.1-0.1,0.2c0,0,0,0,0.1,0
				c0.2-0.2,0.5-0.1,0.7-0.1c0.2,0,0.4,0.2,0.5,0.5c0.2,0.5,0,0.9-0.4,1.1c-0.3,0.1-0.7,0.1-0.9-0.1c-0.1-0.1-0.1-0.1-0.2-0.2
				C4,10.5,4,10.3,4.1,10c0-0.1,0.1-0.1,0.1-0.2c0,0,0,0,0,0c0,0-0.1,0-0.1,0C3.9,9.9,3.7,10,3.6,10c-0.1,0-0.2,0-0.3,0
				c-0.1,0-0.1,0-0.1,0.1c0,0.2,0.1,0.3-0.1,0.5c0,0,0,0.1,0,0.1c0,0,0.1,0,0.1,0c0,0,0,0,0,0c0.2-0.1,0.5,0,0.7,0
				c0.3,0.1,0.5,0.3,0.6,0.6c0.1,0.2,0.1,0.5,0,0.7c0,0,0,0.1,0,0.1c0,0,0.1,0,0.1,0c0.5-0.1,0.8,0,1.1,0.5c0.2,0.3,0,0.8-0.2,1
				c-0.2,0.1-0.4,0.2-0.6,0.2c-0.3,0-0.5-0.1-0.7-0.3C4,13.3,4,13.1,4,12.9c0-0.1,0-0.2,0-0.2c0,0,0-0.1,0-0.1c0,0-0.1,0-0.1,0
				c-0.2,0.1-0.4,0.2-0.6,0.1c-0.1,0-0.1,0-0.1,0.1c0,0.2,0,0.3,0,0.5c0,0,0,0.1,0.1,0.1c0.1,0,0.2,0,0.2,0c0.5,0,0.8,0.3,0.9,0.7
				c0.1,0.3,0.1,0.5-0.1,0.7C4.4,14.8,4.4,14.8,4.4,14.9C4.4,14.9,4.4,14.9,4.4,14.9z M1.9,11.9c0,0,0.1,0,0.1,0c0.1,0,0.3,0,0.4,0
				c0.1,0,0.1,0,0.1-0.1c-0.1-0.1,0-0.3,0-0.4c0,0,0-0.1,0-0.1c0,0,0-0.1-0.1-0.1c-0.2,0-0.3,0-0.5,0c0,0-0.1,0-0.1,0.1
				C1.9,11.5,1.9,11.7,1.9,11.9z M2.4,6.6c0.1,0,0.1,0,0.1-0.1c0-0.2,0-0.3,0-0.5c0-0.1,0-0.1-0.1-0.1c-0.1,0-0.3,0-0.4,0
				C2,5.9,1.9,5.9,2,6C2,6.2,2,6.3,2,6.5c0,0.1,0,0.1,0.1,0.1C2.2,6.6,2.3,6.6,2.4,6.6z M1.2,12.6C1.2,12.6,1.2,12.5,1.2,12.6
				c-0.2-0.1-0.3,0-0.4,0c-0.1,0-0.1,0-0.1,0.1c0,0.2,0,0.3-0.1,0.5c0,0.1,0,0.1,0.1,0.1c0.1,0,0.3,0,0.4,0c0.1,0,0.1,0,0.1-0.1
				C1.2,13,1.2,12.8,1.2,12.6z M1.9,14.5C1.9,14.5,1.9,14.5,1.9,14.5C1.9,14.5,2,14.6,1.9,14.5c0.2,0,0.3,0,0.5,0.1c0,0,0.1,0,0.1,0
				c0,0,0-0.1,0-0.1c-0.1-0.2,0-0.3,0-0.4c0,0,0-0.1,0-0.1c0,0-0.1,0-0.1,0C2.3,14,2.2,14,2,13.9c0,0-0.1,0-0.1,0c0,0-0.1,0-0.1,0.1
				C1.9,14.2,1.9,14.3,1.9,14.5z M2.5,8.9C2.5,8.9,2.5,8.9,2.5,8.9c0-0.1,0-0.1,0-0.2c0-0.1,0-0.1-0.1-0.1c-0.1,0-0.2,0-0.4,0
				c0,0-0.1,0-0.1,0c0,0,0,0.1,0,0.1C2,8.9,2,9,1.9,9.1c0,0.1,0,0.1,0.1,0.1c0.1,0,0.2,0,0.4,0c0.1,0,0.1,0,0.1-0.1
				C2.5,9.1,2.5,9,2.5,8.9z M0.9,10.5C0.9,10.5,0.9,10.5,0.9,10.5c0.1,0,0.1,0,0.2,0c0.1,0,0.1,0,0.1-0.1c-0.1-0.1,0-0.3,0-0.4
				c0-0.1,0-0.1-0.1-0.1c-0.1,0-0.2,0-0.3,0c-0.1,0-0.1,0-0.1,0.1c0,0.1,0,0.2,0,0.3c0,0.1,0,0.2,0,0.2C0.7,10.5,0.8,10.5,0.9,10.5
				C0.9,10.5,0.9,10.5,0.9,10.5z M0.9,7.3C0.8,7.3,0.8,7.3,0.9,7.3C0.8,7.5,0.8,7.6,0.8,7.8c0,0.1,0,0.1,0.1,0.1c0.1,0,0.2,0,0.3,0
				c0.1,0,0.1,0,0.1-0.1c0-0.2,0-0.3,0-0.5c0-0.1,0-0.1-0.1-0.1C1.1,7.3,1,7.3,0.9,7.3z"/>
			<path class="st0" d="M7.6,6.7c0.5,0,0.9,0.4,0.9,0.9C8.5,8,8,8.4,7.6,8.4c-0.4,0-0.9-0.4-0.9-0.9C6.8,7,7.1,6.7,7.6,6.7z"/>
			<path class="st0" d="M6.2,12.4c-0.5,0.1-0.9-0.4-0.9-0.9c0-0.5,0.4-0.9,1-0.8c0.4,0,0.8,0.4,0.8,0.9C7.1,11.9,6.7,12.4,6.2,12.4z
				"/>
			<path class="st0" d="M7.5,13.8c-0.6,0-0.9-0.4-0.9-0.9c0-0.2,0.1-0.5,0.3-0.6c0.1-0.1,0.3-0.2,0.5-0.2c0.7,0,1,0.4,1,0.8
				C8.4,13.4,8,13.8,7.5,13.8z"/>
			<path class="st0" d="M9.7,8.8c0,0.4-0.2,0.6-0.5,0.8c-0.2,0.1-0.4,0.1-0.6,0C8.5,9.6,8.3,9.5,8.2,9.3C8.1,9.1,8,8.9,8,8.7
				c0.1-0.3,0.2-0.5,0.4-0.6C8.6,8,8.7,8,8.8,8C9,8,9.1,8,9.2,8C9.6,8.2,9.8,8.5,9.7,8.8z"/>
			<path class="st0" d="M8.5,4.9c0,0.5-0.5,0.8-0.9,0.8c-0.5,0-0.9-0.5-0.9-0.9C6.8,4.4,7.1,4,7.6,4C8.1,4,8.5,4.4,8.5,4.9z"/>
			<path class="st0" d="M8.8,10.7c0.5,0,0.9,0.4,0.9,0.9c0,0.4-0.5,0.8-0.9,0.8C8.4,12.5,8,12,8,11.7C8,11.1,8.3,10.7,8.8,10.7z"/>
			<path class="st0" d="M6.2,5.3c0.5,0,0.9,0.4,0.9,0.8c0,0.5-0.4,0.9-0.9,0.9c-0.4,0-0.9-0.4-0.9-0.9C5.4,5.8,5.7,5.3,6.2,5.3z"/>
			<path class="st0" d="M8.9,4.4C8.4,4.4,8,4,8,3.5c0-0.6,0.4-0.9,0.9-0.9c0.5,0,0.8,0.3,0.9,0.9C9.8,4,9.3,4.4,8.9,4.4z"/>
			<path class="st0" d="M6.7,10.2c0-0.2,0-0.4,0.2-0.5c0.2-0.2,0.4-0.3,0.6-0.3c0.5,0,0.9,0.3,0.9,0.9c0,0.4-0.4,0.8-0.9,0.8
				C7,11.1,6.7,10.7,6.7,10.2z"/>
			<path class="st0" d="M9.7,14.3c0,0.5-0.4,0.9-0.9,0.9c-0.4,0-0.9-0.4-0.9-0.8c0-0.3,0.1-0.5,0.3-0.7c0.2-0.2,0.4-0.2,0.6-0.2
				C9.4,13.5,9.8,13.8,9.7,14.3z"/>
			<path class="st0" d="M8.1,6.2c0-0.5,0.3-0.8,0.8-0.8c0.6-0.1,0.9,0.5,1,0.9c0,0.4-0.4,0.9-0.9,0.9C8.5,7,8.1,6.8,8.1,6.2z"/>
			<path class="st0" d="M6.3,8c0.4,0,0.8,0.4,0.8,0.8c0,0.5-0.5,0.9-0.8,0.9c-0.5,0-0.9-0.4-0.9-0.7c0-0.3,0-0.5,0.2-0.7
				C5.8,8.1,6,8,6.3,8z"/>
			<path class="st0" d="M5.4,14.3c0-0.5,0.4-0.9,0.9-0.9c0.5,0,0.9,0.5,0.9,0.9c0,0.5-0.4,0.9-0.9,0.9C5.8,15.1,5.3,14.7,5.4,14.3z"
				/>
			<path class="st0" d="M7.6,3C7.2,3.1,6.8,2.6,6.8,2.2c0-0.5,0.4-0.9,0.9-0.9c0.5,0,0.8,0.3,0.9,0.9C8.5,2.6,8.1,3.1,7.6,3z"/>
			<path class="st0" d="M6.7,15.8c-0.1-0.6,0.4-0.9,0.8-0.9c0.5,0,0.8,0.3,0.9,0.8c0.1,0.5-0.4,0.9-0.8,1
				C7.2,16.6,6.7,16.2,6.7,15.8z"/>
			<path class="st0" d="M8.8,17.9C8.4,17.9,8,17.5,8,17c0-0.5,0.4-0.9,0.9-0.9c0.5,0,0.8,0.4,0.8,0.8C9.7,17.5,9.3,17.9,8.8,17.9z"
				/>
			<path class="st0" d="M9.4,19.9c0,0.5-0.4,0.8-0.9,0.8c-0.5,0-0.9-0.4-0.9-0.9c0-0.4,0.3-0.8,0.9-0.8C9.1,19.1,9.5,19.5,9.4,19.9z
				"/>
			<path class="st0" d="M5.5,3.5c0-0.4,0.4-0.9,0.9-0.8c0.4,0,0.8,0.4,0.8,0.9c0,0.5-0.4,0.8-0.9,0.8C5.9,4.3,5.4,4,5.5,3.5z"/>
			<path class="st0" d="M6.2,16.1c0.5,0,0.9,0.5,0.9,0.9c0,0.4-0.4,0.9-0.9,0.8c-0.4,0-0.8-0.4-0.8-0.9C5.4,16.6,5.8,16.1,6.2,16.1z
				"/>
			<path class="st0" d="M5.8,4.8c0.1,0.4-0.3,0.9-0.9,0.9c-0.5,0-0.8-0.4-0.8-0.8C4.1,4.4,4.5,4,4.9,4C5.4,4,5.8,4.3,5.8,4.8z"/>
			<path class="st0" d="M8.3,18.4c0,0.4-0.2,0.7-0.5,0.8c-0.6,0.2-1.2-0.2-1.2-0.8c0-0.3,0.2-0.6,0.5-0.8c0.2-0.1,0.3-0.1,0.5,0
				c0.2,0,0.4,0.1,0.5,0.3C8.3,18,8.3,18.2,8.3,18.4z"/>
			<path class="st0" d="M3.9,18.4c0-0.5,0.4-0.9,0.8-0.9c0.3,0,0.5,0,0.7,0.2c0.2,0.2,0.3,0.4,0.3,0.7c0,0.4-0.4,0.8-0.9,0.8
				C4.4,19.3,3.9,18.9,3.9,18.4z"/>
			<path class="st0" d="M9.8,0.8c0,0.4-0.2,0.7-0.6,0.8c-0.5,0.1-0.9-0.1-1-0.5c-0.1-0.2-0.1-0.5,0-0.7c0-0.1,0.1-0.1,0.2-0.2
				c0.3-0.1,0.6-0.1,0.9-0.2c0,0,0.1,0,0.1,0C9.6,0.2,9.9,0.5,9.8,0.8z"/>
			<path class="st0" d="M6.2,18.8c0.4,0,0.8,0.3,0.8,0.7c0,0.2,0,0.4-0.1,0.6c-0.1,0.2-0.3,0.3-0.4,0.4c0,0-0.1,0-0.1,0
				c-0.3-0.2-0.6-0.3-0.9-0.5c0,0-0.1-0.1-0.1-0.1c-0.1-0.4,0.1-0.9,0.5-1C6,18.8,6.1,18.8,6.2,18.8z"/>
			<path class="st0" d="M10.2,8.3c-0.5,0-0.8-0.4-0.8-0.8c0-0.4,0.4-0.7,0.8-0.7c0.4,0,0.8,0.4,0.7,0.8C10.9,8,10.6,8.3,10.2,8.3z"
				/>
			<path class="st0" d="M10.8,6.3c0-0.4,0.4-0.8,0.7-0.8c0.3,0,0.8,0.4,0.8,0.8c0,0.4-0.4,0.8-0.7,0.8C11.2,7,10.7,6.7,10.8,6.3z"/>
			<path class="st0" d="M11.6,10.9c0.4,0,0.8,0.4,0.7,0.7c0,0.3-0.4,0.7-0.8,0.7c-0.4,0-0.7-0.4-0.7-0.8
				C10.9,11.2,11.1,10.8,11.6,10.9z"/>
			<path class="st0" d="M9.5,2.1c0-0.4,0.4-0.7,0.7-0.7c0.4,0,0.8,0.4,0.8,0.8c0,0.4-0.4,0.7-0.7,0.7C9.9,2.9,9.5,2.5,9.5,2.1z"/>
			<path class="st0" d="M11.5,8.2c0.4,0,0.8,0.3,0.8,0.6c0,0.4-0.3,0.8-0.7,0.8c-0.5,0-0.8-0.4-0.8-0.7c0-0.2,0.1-0.4,0.2-0.5
				C11.2,8.2,11.3,8.2,11.5,8.2z"/>
			<path class="st0" d="M11.5,15c-0.5,0-0.7-0.4-0.7-0.7c0-0.2,0.1-0.4,0.2-0.5c0.2-0.2,0.4-0.2,0.6-0.2c0.3,0,0.7,0.4,0.6,0.8
				C12.3,14.6,11.9,15.1,11.5,15z"/>
			<path class="st0" d="M11,10.2c0.1,0.4-0.4,0.7-0.7,0.7c-0.4,0-0.7-0.4-0.7-0.7c0-0.2,0-0.4,0.2-0.6c0.1-0.1,0.3-0.2,0.5-0.2
				C10.6,9.4,11,9.8,11,10.2z"/>
			<path class="st0" d="M11,15.6c0,0.4-0.3,0.7-0.7,0.7c-0.3,0-0.7-0.4-0.7-0.6c0-0.2,0-0.5,0.2-0.6c0.1-0.1,0.3-0.2,0.5-0.2
				C10.6,14.9,11,15.2,11,15.6z"/>
			<path class="st0" d="M9.5,13c0-0.4,0.3-0.7,0.7-0.7c0.4,0,0.7,0.3,0.7,0.7c0,0.4-0.3,0.8-0.7,0.8C9.9,13.7,9.5,13.4,9.5,13z"/>
			<path class="st0" d="M11.5,2.9c0.4,0,0.8,0.4,0.8,0.8c-0.1,0.4-0.5,0.7-0.9,0.6c-0.3-0.1-0.6-0.4-0.6-0.7c0-0.2,0.1-0.4,0.3-0.6
				C11.2,2.9,11.4,2.9,11.5,2.9z"/>
			<path class="st0" d="M11.6,0.4c0.4,0,0.7,0.3,0.7,0.7c0,0.4-0.3,0.7-0.7,0.8c-0.5,0-0.8-0.3-0.8-0.7C10.9,0.7,11.2,0.3,11.6,0.4z
				"/>
			<path class="st0" d="M11.5,17.7c-0.2,0.1-0.4-0.1-0.5-0.2c-0.1-0.1-0.2-0.3-0.2-0.5c0-0.3,0.3-0.7,0.8-0.7c0.3,0,0.7,0.4,0.7,0.8
				C12.2,17.4,11.9,17.7,11.5,17.7z"/>
			<path class="st0" d="M10.2,4.2c0.4,0,0.7,0.3,0.7,0.7c0,0.4-0.3,0.7-0.7,0.7c-0.5,0-0.7-0.3-0.7-0.7C9.5,4.6,9.8,4.2,10.2,4.2z"
				/>
			<path class="st0" d="M11.5,18.9c0.4-0.1,0.8,0.4,0.7,0.7c0,0.4-0.3,0.7-0.7,0.7c-0.5,0-0.8-0.3-0.8-0.7
				C10.8,19.3,11.1,18.8,11.5,18.9z"/>
			<path class="st0" d="M10.2,17.6c0.4,0,0.7,0.3,0.7,0.7c0,0.4-0.3,0.7-0.8,0.7c-0.4,0-0.7-0.4-0.7-0.7
				C9.5,17.9,9.7,17.6,10.2,17.6z"/>
			<path class="st0" d="M4.9,2.8c-0.3,0-0.6-0.2-0.8-0.4c-0.1-0.1-0.1-0.2,0-0.2C4.6,1.9,5,1.7,5.4,1.4c0.1,0,0.1,0,0.2,0
				c0.2,0.2,0.3,0.6,0.1,0.9C5.6,2.6,5.4,2.7,5.2,2.8C5.1,2.8,5,2.8,4.9,2.8z"/>
			<path class="st0" d="M10,21.3C9.9,21.3,9.9,21.3,10,21.3c-0.2,0-0.3,0-0.4-0.1c-0.1-0.1-0.1-0.3-0.1-0.5c0-0.1,0.1-0.3,0.2-0.4
				c0.3-0.3,1-0.2,1.2,0.2c0.1,0.2,0.1,0.5,0,0.7c0,0.1-0.1,0.1-0.2,0.1C10.4,21.4,10.2,21.3,10,21.3C10,21.3,10,21.3,10,21.3z"/>
			<path class="st0" d="M14.3,9.5c-0.3,0-0.6-0.3-0.6-0.6c0-0.3,0.3-0.6,0.6-0.6c0.3,0,0.6,0.3,0.6,0.7C14.9,9.2,14.6,9.6,14.3,9.5z
				"/>
			<path class="st0" d="M12.9,5.5c-0.3,0-0.6-0.3-0.6-0.6c0-0.2,0.3-0.6,0.6-0.6c0.4,0,0.6,0.3,0.7,0.6C13.6,5.2,13.2,5.4,12.9,5.5z
				"/>
			<path class="st0" d="M14.2,6.8c-0.3,0-0.6-0.3-0.6-0.6c0-0.3,0.3-0.6,0.7-0.6c0.4,0,0.6,0.3,0.6,0.6C14.9,6.5,14.6,6.8,14.2,6.8z
				"/>
			<path class="st0" d="M12.3,10.3c0-0.3,0.3-0.6,0.7-0.6c0.3,0,0.6,0.4,0.6,0.6c0,0.3-0.3,0.6-0.6,0.6
				C12.6,10.9,12.3,10.6,12.3,10.3z"/>
			<path class="st0" d="M14.3,4.1c-0.3,0-0.7-0.3-0.6-0.6c0-0.3,0.3-0.6,0.7-0.6c0.3,0,0.6,0.3,0.6,0.6C14.9,3.8,14.6,4.1,14.3,4.1z
				"/>
			<path class="st0" d="M14.3,14.8c-0.3,0.1-0.6-0.3-0.6-0.6c0-0.3,0.3-0.6,0.7-0.6c0.3,0,0.6,0.3,0.6,0.6
				C14.9,14.5,14.7,14.9,14.3,14.8z"/>
			<path class="st0" d="M14.8,11.6c0,0.3-0.3,0.6-0.6,0.6c-0.4,0-0.6-0.3-0.6-0.7c0-0.3,0.4-0.6,0.6-0.6
				C14.5,11,14.9,11.3,14.8,11.6z"/>
			<path class="st0" d="M13,13.5c-0.4,0-0.6-0.3-0.6-0.7c0-0.3,0.3-0.6,0.6-0.6c0.3,0,0.6,0.3,0.6,0.6C13.6,13.2,13.3,13.6,13,13.5z
				"/>
			<path class="st0" d="M12.9,8.1c-0.2,0.1-0.3-0.1-0.4-0.2c-0.1-0.1-0.2-0.2-0.2-0.4c0-0.4,0.4-0.7,0.7-0.7c0.3,0,0.6,0.3,0.6,0.7
				C13.5,7.9,13.2,8.1,12.9,8.1z"/>
			<path class="st0" d="M14.1,20.3c-0.4,0-0.6-0.4-0.6-0.6c0-0.3,0.3-0.6,0.7-0.6c0.3,0,0.6,0.3,0.6,0.6
				C14.8,20,14.5,20.3,14.1,20.3z"/>
			<path class="st0" d="M12.4,2.2c0-0.4,0.2-0.6,0.6-0.6c0.3,0,0.6,0.3,0.6,0.6c0,0.3-0.3,0.6-0.6,0.6C12.7,2.8,12.4,2.5,12.4,2.2z"
				/>
			<path class="st0" d="M14.2,16.3c0.3,0,0.6,0.3,0.6,0.6c0,0.4-0.3,0.6-0.6,0.6c-0.3,0-0.6-0.3-0.6-0.6
				C13.5,16.6,13.8,16.3,14.2,16.3z"/>
			<path class="st0" d="M12.8,16.2c-0.3,0-0.6-0.3-0.6-0.6c0-0.3,0.3-0.6,0.6-0.6c0.3,0,0.6,0.3,0.6,0.6
				C13.5,15.9,13.2,16.3,12.8,16.2z"/>
			<path class="st0" d="M13.4,18.3c0.1,0.3-0.3,0.6-0.6,0.6c-0.3,0-0.6-0.3-0.6-0.6c0-0.4,0.3-0.6,0.6-0.7
				C13,17.7,13.4,17.9,13.4,18.3z"/>
			<path class="st0" d="M15.2,1.9c0-0.3,0.2-0.6,0.4-0.7c0,0,0.1,0,0.1,0c0.2,0.1,0.3,0.2,0.5,0.3c0.2,0.1,0.2,0.3,0.1,0.5
				c-0.1,0.1-0.1,0.3-0.3,0.3c-0.3,0.1-0.5,0.1-0.7-0.1C15.3,2.2,15.2,2.1,15.2,1.9z"/>
			<path class="st0" d="M15.1,7.6c0-0.3,0.2-0.5,0.5-0.5c0.2,0,0.5,0.3,0.5,0.5c0,0.2-0.3,0.5-0.5,0.5C15.4,8.1,15.1,7.9,15.1,7.6z"
				/>
			<path class="st0" d="M16.4,6.3C16.4,6,16.7,5.8,17,5.8c0.2,0,0.5,0.3,0.5,0.5c0,0.2-0.3,0.5-0.5,0.5C16.7,6.8,16.4,6.6,16.4,6.3z
				"/>
			<path class="st0" d="M16.9,14.7c-0.3,0-0.5-0.3-0.5-0.5c0-0.3,0.3-0.5,0.5-0.5c0.2,0,0.5,0.2,0.5,0.5
				C17.4,14.5,17.1,14.7,16.9,14.7z"/>
			<path class="st0" d="M15.1,4.9c0-0.3,0.2-0.5,0.5-0.5c0.3,0,0.5,0.2,0.5,0.5c0,0.2-0.3,0.5-0.5,0.5C15.4,5.5,15.1,5.2,15.1,4.9z"
				/>
			<path class="st0" d="M16.9,3c0.3,0,0.5,0.2,0.5,0.5c0,0.3-0.3,0.5-0.5,0.5c-0.2,0-0.5-0.2-0.5-0.4C16.4,3.2,16.6,3,16.9,3z"/>
			<path class="st0" d="M16.9,9.5c-0.3,0-0.5-0.3-0.5-0.5c0-0.2,0.3-0.5,0.5-0.5c0.2,0,0.5,0.3,0.5,0.5C17.4,9.2,17.1,9.5,16.9,9.5z
				"/>
			<path class="st0" d="M17,17.4c-0.3,0-0.5-0.2-0.5-0.5c0-0.3,0.3-0.5,0.5-0.5c0.2,0,0.5,0.2,0.5,0.6C17.5,17.2,17.2,17.4,17,17.4z
				"/>
			<path class="st0" d="M15.6,15c0.3-0.1,0.5,0.3,0.5,0.5c0,0.3-0.3,0.5-0.5,0.5c-0.2,0-0.5-0.3-0.5-0.5C15.1,15.2,15.3,15,15.6,15z
				"/>
			<path class="st0" d="M15.6,10.8c-0.3,0-0.5-0.3-0.5-0.5c0-0.3,0.3-0.5,0.5-0.5c0.2,0,0.5,0.3,0.5,0.5
				C16.1,10.5,15.9,10.8,15.6,10.8z"/>
			<path class="st0" d="M12.4,21.2c-0.1,0-0.2-0.2-0.2-0.3c0.1-0.3,0.2-0.5,0.5-0.6c0,0,0.1,0,0.1,0c0.3,0,0.5,0.3,0.6,0.5
				c0,0.1,0,0.1-0.1,0.1c-0.2,0-0.3,0.1-0.5,0.1c-0.1,0-0.1,0-0.2,0C12.6,21.2,12.5,21.2,12.4,21.2z"/>
			<path class="st0" d="M16.1,12.9c0,0.3-0.3,0.5-0.5,0.5c-0.2,0-0.5-0.3-0.5-0.5c0-0.2,0.3-0.5,0.5-0.5
				C15.8,12.4,16.1,12.7,16.1,12.9z"/>
			<path class="st0" d="M16.9,11.1c0.3,0,0.5,0.3,0.5,0.5c0,0.3-0.3,0.5-0.6,0.5c-0.3,0-0.5-0.3-0.5-0.6
				C16.4,11.3,16.6,11.1,16.9,11.1z"/>
			<path class="st0" d="M15.5,17.8c0.2-0.1,0.5,0.3,0.5,0.5c0,0.2-0.3,0.5-0.5,0.5c-0.2,0-0.5-0.2-0.5-0.5
				C15,18.1,15.2,17.8,15.5,17.8z"/>
			<path class="st0" d="M14.3,1.4c-0.4,0-0.5-0.3-0.6-0.5c0-0.1,0-0.3,0.1-0.4c0,0,0.1,0,0.1,0c0.2,0.1,0.3,0.1,0.5,0.2
				c0.2,0.1,0.3,0.1,0.5,0.2C15,0.9,15,1,14.9,1.1c-0.1,0.1-0.1,0.2-0.2,0.2C14.6,1.4,14.5,1.4,14.3,1.4C14.3,1.4,14.3,1.4,14.3,1.4
				z"/>
			<path class="st0" d="M6.4,1.4C6.3,1.4,6.1,1.3,6,1.3c0,0-0.1-0.1-0.1-0.1c0,0,0.1,0,0.1-0.1C6.2,1,6.4,0.9,6.6,0.8
				c0.1,0,0.2-0.1,0.3-0.1C7,0.7,7,0.6,7.1,0.6c0,0,0.1,0,0.1,0c0,0,0,0.1,0,0.1C7.2,0.9,7.1,1.1,6.9,1.2C6.7,1.3,6.6,1.4,6.4,1.4z"
				/>
			<path class="st0" d="M18.2,17.6c0.1,0,0.2,0,0.3,0.1c0.1,0.1,0.1,0.1,0,0.2c-0.1,0.1-0.3,0.3-0.4,0.4c-0.1,0.1-0.1,0.1-0.2,0.2
				c-0.1,0.1-0.1,0.1-0.2,0c-0.2-0.2-0.2-0.5,0-0.7C18,17.7,18.1,17.6,18.2,17.6z"/>
			<path class="st0" d="M17.8,10.4c0-0.2,0.2-0.4,0.4-0.4c0.2,0,0.4,0.2,0.4,0.4c0,0.2-0.2,0.4-0.4,0.4C18,10.8,17.8,10.5,17.8,10.4
				z"/>
			<path class="st0" d="M17.8,5.1c0-0.2,0.2-0.4,0.4-0.4c0.2,0,0.4,0.2,0.4,0.4c0,0.2-0.2,0.4-0.4,0.4C18,5.5,17.8,5.2,17.8,5.1z"/>
			<path class="st0" d="M17.8,7.7c0-0.2,0.2-0.4,0.4-0.4c0.2,0,0.4,0.2,0.4,0.4c0,0.2-0.2,0.4-0.4,0.4C18,8.1,17.8,7.9,17.8,7.7z"/>
			<path class="st0" d="M18.5,13c0,0.2-0.2,0.4-0.4,0.4c-0.2,0-0.4-0.2-0.4-0.4c0-0.2,0.2-0.4,0.4-0.4C18.3,12.6,18.5,12.8,18.5,13z
				"/>
			<path class="st0" d="M17.8,15.7c0-0.2,0.2-0.4,0.4-0.4c0.2,0,0.4,0.2,0.4,0.4c0,0.2-0.2,0.4-0.4,0.4C18.1,16,17.8,15.8,17.8,15.7
				z"/>
			<path class="st0" d="M10.2,0.4c-0.2,0-0.3-0.1-0.5-0.2c0,0,0-0.1,0-0.1c0,0,0,0,0.1,0c0.2,0,0.5,0,0.7,0c0.1,0,0.1,0,0.2,0
				c0,0,0.1,0,0.1,0c0,0,0,0.1,0,0.1C10.6,0.3,10.4,0.4,10.2,0.4z"/>
			<path class="st0" d="M16.2,19.6c0-0.4,0.4-0.6,0.7-0.4c0.1,0.1,0.1,0.1,0,0.2c-0.2,0.1-0.4,0.3-0.6,0.4c0,0-0.1,0-0.1,0.1
				C16.2,19.7,16.2,19.7,16.2,19.6C16.2,19.6,16.2,19.6,16.2,19.6z"/>
			<path class="st0" d="M20.9,10.4c0,0.2-0.1,0.3-0.3,0.3c-0.1,0-0.3-0.2-0.3-0.3c0-0.1,0.2-0.3,0.3-0.3
				C20.8,10.1,20.9,10.3,20.9,10.4z"/>
			<path class="st0" d="M20.1,8.1c0-0.2,0.1-0.3,0.3-0.3c0.1,0,0.3,0.2,0.3,0.3c0,0.1-0.2,0.3-0.3,0.3C20.2,8.4,20.1,8.2,20.1,8.1z"
				/>
			<path class="st0" d="M20.4,13.2c0.2,0,0.3,0.1,0.3,0.3c0,0.1-0.2,0.3-0.3,0.3c-0.1,0-0.3-0.2-0.3-0.3
				C20.1,13.3,20.2,13.2,20.4,13.2z"/>
			<path class="st0" d="M19.4,6.7c0,0.1-0.2,0.3-0.3,0.3c-0.1,0-0.3-0.2-0.3-0.3c0-0.2,0.2-0.3,0.4-0.3C19.3,6.5,19.4,6.6,19.4,6.7z
				"/>
			<path class="st0" d="M19,14.6c0-0.2,0.1-0.3,0.3-0.3c0.2,0,0.3,0.2,0.3,0.3c0,0.1-0.2,0.3-0.3,0.3C19.1,14.9,18.9,14.7,19,14.6z"
				/>
			<path class="st0" d="M19.7,11.7c0,0.2-0.1,0.3-0.3,0.3c-0.1,0-0.3-0.2-0.3-0.3c0-0.2,0.2-0.3,0.3-0.3
				C19.6,11.4,19.7,11.5,19.7,11.7z"/>
			<path class="st0" d="M19.2,9.5c-0.2,0-0.3-0.1-0.3-0.3c0-0.1,0.2-0.3,0.3-0.3c0.1,0,0.3,0.2,0.3,0.3C19.5,9.5,19.4,9.6,19.2,9.5z
				"/>
			<path class="st0" d="M19.9,6.2c-0.2,0-0.3-0.1-0.3-0.3c0-0.1,0.2-0.3,0.3-0.3c0.1,0,0.3,0.2,0.3,0.4C20.2,6.1,20.1,6.2,19.9,6.2z
				"/>
			<path class="st0" d="M17.3,2.7C17.3,2.7,17.3,2.7,17.3,2.7c0-0.1,0-0.2,0.1-0.3c0.1-0.1,0.1,0,0.2,0.1c0.1,0.1,0.2,0.2,0.3,0.3
				c0,0,0.1,0.1,0.1,0.1C18,3,17.9,3,17.9,3c-0.2,0.1-0.4,0-0.5-0.2C17.4,2.8,17.3,2.8,17.3,2.7z"/>
			<path class="st0" d="M19,4.5c-0.2,0-0.3-0.1-0.3-0.3c0-0.1,0.1-0.2,0.1-0.3c0,0,0.1,0,0.1,0c0.1,0.1,0.2,0.2,0.3,0.3
				c0,0,0,0.1,0,0.1C19.2,4.4,19.1,4.5,19,4.5z"/>
			<path class="st0" d="M19.1,17c0-0.2,0.2-0.4,0.4-0.4c0,0,0.1,0,0.1,0c0,0,0,0.1,0,0.1c-0.1,0.1-0.2,0.2-0.2,0.3
				c0,0-0.1,0.1-0.2,0.1C19.1,17.1,19.1,17,19.1,17z"/>
			<path class="st0" d="M12.7,0.4c-0.1,0-0.3-0.1-0.4-0.1c0,0,0-0.1-0.1-0.1c0,0,0.1,0,0.1,0c0.1,0,0.2,0,0.4,0c0,0,0.1,0,0.1,0
				c0,0,0.1,0.1,0.1,0.1C12.9,0.3,12.8,0.4,12.7,0.4C12.8,0.4,12.8,0.4,12.7,0.4C12.7,0.4,12.7,0.4,12.7,0.4z"/>
		</g>
	</g>
	<g>
		<path class="st0" d="M26.6,17.2c-0.2,0-0.2-0.1-0.2-0.3l1.9-12.6c0-0.2,0.1-0.3,0.3-0.3h4.9c2.4,0,3.4,0.9,3.4,3.2
			c0,0.5,0,1-0.1,1.7c-0.2,1.6-0.7,2.7-1.3,3.4c-0.6,0.7-1.7,1-3.1,1h-2.7L29.1,17c0,0.2-0.1,0.3-0.3,0.3H26.6z M30.1,10.7h2.2
			c1.1,0,1.6-0.6,1.9-2.3c0-0.4,0.1-0.6,0.1-0.8c0-0.8-0.3-1-1.2-1l-2.4,0L30.1,10.7z"/>
		<path class="st0" d="M37.3,13.1c0-0.7,0.1-1.6,0.2-2.6c0.4-2.5,1-4.2,2-5.2c0.9-1,2.3-1.4,4-1.4c3,0,4.4,1.3,4.4,4.5
			c0,0.7-0.1,1.5-0.2,2.5c-0.4,2.5-1,4.3-1.9,5.2s-2.2,1.4-4.1,1.4C38.7,17.5,37.3,16.3,37.3,13.1z M44,13.9
			c0.4-0.6,0.8-1.7,1.1-3.5c0.1-0.9,0.2-1.5,0.2-1.9c0-1.3-0.5-2-1.8-2c-2.1,0.1-2.6,0.7-3.2,4.3c-0.1,0.7-0.2,1.4-0.2,1.8
			c0,1.4,0.5,2,1.7,2C42.8,14.8,43.5,14.5,44,13.9z"/>
		<path class="st0" d="M48.6,17.2c-0.2,0-0.2-0.1-0.2-0.3l1.9-12.5c0-0.2,0.1-0.3,0.3-0.3h4.9c2,0,3.4,1.2,3.4,3.6
			c0,0.4,0,0.8-0.1,1.2c-0.3,2-1.3,3.4-2.5,4l0.8,4c0,0.2,0,0.3-0.2,0.3h-2.2c-0.1,0-0.2-0.1-0.3-0.2l-0.6-3.8h-2.2L51.1,17
			c0,0.2-0.1,0.3-0.3,0.3H48.6z M52.1,10.6H54c1.3,0,2-0.6,2.2-2.2c0-0.1,0-0.3,0-0.5c0-0.9-0.5-1.3-1.5-1.3h-2L52.1,10.6z"/>
		<path class="st0" d="M62.2,17.2c-0.2,0-0.2-0.1-0.2-0.3l1.6-10.2h-3.1c-0.2,0-0.3-0.1-0.2-0.3l0.3-2.1c0-0.2,0.1-0.3,0.3-0.3h9.1
			c0.2,0,0.3,0.1,0.2,0.3l-0.3,2.1c0,0.2-0.1,0.3-0.3,0.3h-3.2L64.8,17c0,0.2-0.1,0.3-0.3,0.3H62.2z"/>
		<path class="st0" d="M71,17.2c-1.1,0-1.4-1.2-1.3-1.6l1.7-11.2c0-0.2,0.1-0.3,0.3-0.3h2.2c0.2,0,0.2,0.1,0.2,0.3l-1.5,9.8h5.2
			c0.2,0,0.2,0.1,0.2,0.3L77.6,17c0,0.2-0.1,0.3-0.3,0.3H71z"/>
		<path class="st0" d="M78.1,17.2c-0.2,0-0.2-0.1-0.2-0.3l5.9-12.5c0-0.1,0.1-0.2,0.3-0.2h2.4c0.1,0,0.2,0.1,0.3,0.2l2,12.5
			c0,0.2,0,0.3-0.2,0.3h-2.4c-0.2,0-0.2-0.1-0.3-0.3l-0.3-2.1h-3.8L80.9,17c0,0.1-0.1,0.2-0.3,0.2H78.1z M82.9,12.2h2.5l-0.5-4.3
			L82.9,12.2z"/>
		<path class="st0" d="M90.2,17.2c-0.2,0-0.2-0.1-0.2-0.3l1.9-12.5c0-0.2,0.1-0.3,0.3-0.3h2.2c0.1,0,0.2,0.1,0.3,0.2l3,7.4l1.2-7.4
			c0-0.2,0.1-0.3,0.3-0.3h2.2c0.2,0,0.2,0.1,0.2,0.3L99.5,17c0,0.2-0.1,0.3-0.3,0.3h-2.2c-0.1,0-0.2-0.1-0.3-0.2l-3-7.7L92.6,17
			c0,0.2-0.1,0.3-0.3,0.3H90.2z"/>
		<path class="st0" d="M101.7,17.3c-0.2,0-0.2-0.1-0.2-0.3l2-12.7c0-0.2,0.1-0.3,0.3-0.3h4.6c2.7,0,4,1.1,4,4.2
			c0,0.7-0.1,1.6-0.2,2.7c-0.4,2.4-1,4.1-1.8,5c-0.8,0.9-2.1,1.3-3.8,1.3H101.7z M104.7,14.6h1.5c1.2,0,1.8-0.2,2.2-0.9
			c0.2-0.4,0.4-0.8,0.5-1.2c0.1-0.5,0.2-1.1,0.4-2c0.2-1,0.2-1.7,0.2-2.1c0-1.2-0.5-1.6-2-1.6h-1.6L104.7,14.6z"/>
	</g>
</g>
</svg>
