<?xml version="1.0" encoding="utf-8"?>
<!-- Generator: Adobe Illustrator 26.2.1, SVG Export Plug-In . SVG Version: 6.00 Build 0)  -->
<svg version="1.1" id="Capa_1" xmlns="http://www.w3.org/2000/svg" xmlns:xlink="http://www.w3.org/1999/xlink" x="0px" y="0px"
	 viewBox="0 0 64.5 59.1" style="enable-background:new 0 0 64.5 59.1;" xml:space="preserve">
<style type="text/css">
	.st0{fill:none;stroke:#FFFFFF;stroke-width:0.75;}
	.st1{fill:#FFFFFF;}
</style>
<g>
	<rect x="0.4" y="0.4" class="st0" width="63.8" height="58.3"/>
	<line class="st0" x1="25.9" y1="0.4" x2="25.9" y2="58.7"/>
	<g>
		<g>
			<path class="st1" d="M15.6,11.6v0.9C15.8,12.2,15.7,11.8,15.6,11.6"/>
		</g>
		<g>
			<path class="st1" d="M17.6,6.3c0,0.1-0.2,0.1-0.2,0.2C17.3,6.4,17.5,6.2,17.6,6.3 M18.2,6.2c0.1-0.1,0.2-0.2,0.3-0.1
				c0.1,0,0.1,0.1,0.2,0.1c0.1,0.1,0.1,0.1,0.2,0.2c0,0.1-0.1,0.3-0.2,0.1c-0.1-0.1-0.2-0.4-0.4-0.3c-0.1,0.1-0.2,0.2-0.3,0.1
				C18,6.3,18.1,6.3,18.2,6.2 M18.2,6.4c0.1-0.1,0.1,0.2,0.3,0.1C18.3,6.7,18.1,6.5,18.2,6.4 M17.4,6.7c0,0,0-0.1,0.1-0.1
				c0.1,0,0.3,0.1,0.3,0.2c0,0.1-0.1,0.4,0.3,0.4c0,0,0,0.1,0,0.1h0c0,0.1,0,0.1-0.1,0.2c0,0,0,0,0.1,0c0.5,0,0.8,0,0.9-0.2
				c0,0,0.1-0.1,0.1-0.2c0.1-0.3,0.1-0.5,0.1-0.7h0c0,0,0,0,0,0c0,0,0,0,0-0.1c-0.1-0.2-0.4-0.4-0.8-0.6c0,0,0,0-0.1,0c0,0,0,0,0,0
				c0,0,0,0,0,0l0,0h0c0,0,0.1,0,0.1,0c0.3,0,0.7,0.3,0.8,0.6c0.1-0.1,0.2-0.2,0.2-0.3h0c0,0,0-0.2,0.1-0.3c0,0,0-0.1,0-0.1
				c0,0-0.1,0-0.1,0c-0.1,0.1-0.2,0.1-0.2-0.1c0,0,0-0.1,0-0.1c0,0-0.1,0-0.1,0c-0.1,0.1-0.2,0.1-0.2-0.1c0,0,0-0.1,0-0.1
				c0,0-0.1,0-0.1,0c-0.1,0.1-0.2,0.1-0.2-0.1c0,0,0-0.1,0-0.1c0,0-0.1,0-0.1,0c0,0.1-0.1,0.2-0.1,0.2c0.3,0.1,0.6,0.2,0.8,0.4
				c0,0,0.1,0.1,0.1,0.1c0,0,0,0,0,0c0,0,0,0,0,0c0,0,0,0,0,0c0,0,0,0,0,0c0,0-0.1-0.1-0.1-0.1c-0.3-0.3-0.6-0.4-0.9-0.4
				c-0.2,0-0.1,0.2-0.1,0.3c-0.3-0.1-0.5,0.1-0.5,0.3c0,0.1,0,0.1,0.1,0.2c0,0,0,0,0,0c0,0-0.1,0-0.1-0.1c0,0,0-0.1,0-0.1
				c-0.2,0-0.4,0.1-0.4,0.3C17.2,6.5,17.4,6.7,17.4,6.7"/>
		</g>
		<g>
			<path class="st1" d="M23.4,16c-0.2-0.2-0.6-0.1-0.6-0.1c0.2-0.6-0.4-0.8-0.4-0.8c-0.2-0.1-0.4,0-0.4,0c0,0,0,0,0,0c0,0,0,0,0,0
				c0,0,0,0,0,0c-0.1,0.1-0.1,0.1-0.1,0.2c0,0.2,0.1,0.3,0.3,0.3c0.1,0,0.1,0,0.2-0.1c0.1,0,0.1-0.1,0.1-0.2
				c0.1,0.1,0.1,0.1,0.1,0.1c0.2,0.5-0.4,0.7-0.4,0.7C20.8,16.7,20,16,20,16l0.2-0.1c0.1,0,0.2,0,0.2,0c0,0,0,0,0,0
				c0,0.1,0.1,0.3,0.3,0.3c0.1,0,0.3-0.1,0.3-0.3c0,0,0-0.1,0-0.1l0,0c0,0,0,0,0,0c-0.2-0.2-0.7-0.1-0.7-0.1c0.2-0.5,0-0.8,0-0.8
				c-0.1-0.2-0.1-0.2-0.1-0.2c0-0.2,0-0.2,0-0.2c-0.1-0.1-0.2-0.1-0.2-0.1c-0.2,0-0.3,0-0.3,0c-0.2-0.1-0.3-0.1-0.3-0.1
				c-0.1,0.1,0,0.2,0,0.2c-0.2,0-0.3,0.2-0.3,0.2c-0.1,0.4,0.3,0.4,0.3,0.4c0.2,0,0.2-0.2,0.2-0.2c0-0.2-0.2-0.2-0.2-0.2
				c0-0.1,0.1-0.1,0.1-0.1c0.3-0.1,0.4,0.3,0.4,0.3c0.2,0.4-0.1,0.7-0.1,0.7c0,0.1-0.1,0-0.1,0c-0.2-0.1-0.4-0.2-0.4-0.2
				c0,0,0,0,0,0h-0.1c-0.1,0-0.2,0-0.3,0.1c0.1,0.1,0.5,0.4,0.5,0.4C19.2,16.1,19,16,19,16c-0.1-0.1-0.1-0.4-0.1-0.5c0,0,0,0,0,0
				c-0.1,0.1-0.3,0.1-0.4,0.2c0.1,0.2,0.3,0.6,0.3,0.6c-0.3,0.1-0.4-0.3-0.4-0.5c-0.1,0-0.1,0-0.2,0.1c0,0.1,0,0.1,0,0.1
				c0,0.2,0.2,0.5,0.2,0.5c-0.2,0-0.4,0.1-0.4,0.1c-0.1,0.1-0.1,0.3-0.1,0.3c0,0.1,0.1,0.1,0.2,0.1c0.1,0,0.2-0.1,0.2-0.2
				c0-0.1-0.1-0.2-0.2-0.2c0.1-0.2,0.2,0,0.2,0c0.2,0.2-0.1,0.5-0.1,0.5c-0.3,0.2-0.5-0.2-0.5-0.2c0.3-0.5,0.3-0.9,0.3-1.1
				c-0.1,0-0.2,0.1-0.3,0.1c0.1,0.5-0.2,0.7-0.2,0.7c-0.1-0.1-0.1-0.3-0.1-0.3c0-0.1-0.1-0.2-0.1-0.3c-0.1,0-0.2,0-0.3,0.1
				c0.1,0.3,0.1,0.7,0.1,0.7c-0.1,0.1-0.2,0.1-0.2,0.1c-0.2,0-0.1-0.1-0.1-0.1c0.1-0.1,0.1-0.2,0.1-0.2c-0.1-0.2-0.3,0-0.3,0
				c-0.3,0.2-0.2,0.4-0.2,0.4c0,0.1,0.4,0.2,0.4,0.2c-0.2,0.1-0.5,0.1-0.6,0.1c0-0.1-0.1-0.2-0.2-0.2c0,0,0,0,0,0
				c-0.1,0-0.2,0-0.2,0.1c0,0,0,0,0,0.1l-0.2,0c-0.1,0-0.2-0.4-0.3-0.8c-0.1,0-0.1,0-0.2,0c0.1,0.4,0.1,0.7,0.1,0.7
				c-0.1,0-0.4-0.2-0.4-0.2c-0.4-0.2-0.6-0.2-0.6-0.1c-0.2,0-0.3,0.2-0.3,0.4c0,0.2,0.2,0.4,0.4,0.4c0.2,0,0.4-0.2,0.4-0.4
				c0.1,0.1,0.3,0.1,0.3,0.1c0.4,0.2,0.7,0.3,0.8,0.3c0,0.1,0.1,0.2,0.3,0.2c0.1,0,0.2-0.1,0.2-0.1c0.8,0,1-0.4,1-0.4
				c0.1-0.1,0.1,0,0.1,0c0.3,0.4,0.8,0.2,0.8,0.2c0.1-0.1,0.1,0,0.1,0c0.1,0.2,0.3,0.1,0.3,0.1c0.2-0.1,0.1-0.2,0.1-0.2
				c-0.1-0.1,0-0.1,0-0.1c0.3,0,0.3-0.1,0.3-0.1c0.1-0.1-0.1-0.2-0.1-0.2c0-0.1,0-0.1,0-0.1c0.1-0.1,0.1-0.2,0.1-0.2
				c0.2,0,0.2-0.1,0.2-0.1c0-0.1-0.2-0.1-0.2-0.1c-0.2,0-0.1-0.1-0.1-0.1c0.3,0,0.7-0.1,0.7-0.1c0.6,0.5,1.5,0.6,1.5,0.6
				c0,0.1,0,0.2,0,0.2c0,0,0,0,0,0c-0.1,0-0.1,0.1-0.1,0.1c0,0.1,0.1,0.1,0.1,0.1c0,0,0,0,0,0c0.3-0.1,0.3-0.5,0.3-0.5
				c0.8,0.1,1.4-0.5,1.4-0.5c0.1-0.1,0.1,0,0.1,0c0,0,0,0,0,0c0,0.1,0.1,0.1,0.2,0.1c0.1,0,0.2,0,0.2-0.1c0,0,0-0.1,0-0.1v0v0
				C23.5,16,23.4,16,23.4,16"/>
		</g>
		<g>
			<path class="st1" d="M13.6,17c0.1,0,0.1-0.1,0.1-0.1c0-0.2-0.1-0.3-0.2-0.3c-0.1,0-0.2,0-0.3,0h0c-0.1,0-0.2,0-0.3,0
				c0,0-0.2,0.1-0.2,0.3c0,0,0,0.1,0.1,0.1c0,0-0.2,0.1-0.2,0.2c0,0,0,0.1,0.2,0.3c0,0,0.1,0.1,0.2,0.3c0,0,0,0.2,0.2,0.2
				c0.2,0,0.2-0.2,0.2-0.2c0-0.1,0.2-0.3,0.2-0.3c0.2-0.1,0.2-0.3,0.2-0.3C13.8,17.1,13.6,17,13.6,17"/>
		</g>
		<g>
			<polygon class="st1" points="15.1,16.1 15.2,16.1 15.1,16 			"/>
		</g>
		<g>
			<polygon class="st1" points="11.5,16.1 11.6,16.1 11.5,16 			"/>
		</g>
		<g>
			<path class="st1" d="M11.1,15.8C11.1,15.8,11,15.8,11.1,15.8l0,0.2c0,0,0.1,0,0.1,0c0,0,0,0,0,0C11.1,16,11.1,16,11.1,15.8
				C11.1,15.9,11.1,15.9,11.1,15.8C11.1,15.8,11.1,15.8,11.1,15.8"/>
		</g>
		<g>
			<path class="st1" d="M12.6,16C12.6,16,12.5,16,12.6,16c-0.1,0.1-0.1,0.1-0.1,0.2c0,0.1,0,0.1,0,0.1c0,0,0,0,0.1,0
				c0,0,0.1,0,0.1,0c0,0,0-0.1,0-0.1C12.7,16.1,12.7,16,12.6,16C12.7,16,12.7,16,12.6,16"/>
		</g>
		<g>
			<path class="st1" d="M14,16C13.9,16,13.9,16,14,16c-0.1,0.1-0.1,0.1-0.1,0.2c0,0.1,0,0.1,0,0.1c0,0,0,0,0.1,0c0,0,0.1,0,0.1,0
				c0,0,0-0.1,0-0.1C14.1,16.1,14.1,16,14,16C14,16,14,16,14,16"/>
		</g>
		<g>
			<polygon class="st1" points="10.3,16 10.4,16 10.3,15.8 			"/>
		</g>
		<g>
			<path class="st1" d="M8.2,15.1l-0.1,0.2l0,0c0,0,0.1,0,0.1,0c0,0,0,0,0,0C8.3,15.2,8.3,15.2,8.2,15.1C8.3,15.2,8.3,15.2,8.2,15.1
				C8.2,15.2,8.2,15.1,8.2,15.1"/>
		</g>
		<g>
			<path class="st1" d="M8.6,15.3c0,0,0,0.1-0.1,0.1c0,0.1,0,0.1,0,0.1c0,0,0,0.1,0.1,0.1c0,0,0.1,0,0.1,0c0,0,0.1-0.1,0.1-0.1
				c0-0.1,0-0.1,0-0.1C8.8,15.3,8.8,15.3,8.6,15.3C8.7,15.3,8.6,15.3,8.6,15.3"/>
		</g>
		<g>
			<path class="st1" d="M9.2,15.5C9.2,15.5,9.2,15.5,9.2,15.5l-0.1,0.2c0,0,0.1,0,0.1,0c0,0,0,0,0,0c0,0,0,0,0,0
				C9.3,15.5,9.3,15.5,9.2,15.5C9.3,15.5,9.3,15.5,9.2,15.5"/>
		</g>
		<g>
			<path class="st1" d="M17.3,15.5C17.3,15.5,17.3,15.5,17.3,15.5C17.2,15.5,17.2,15.5,17.3,15.5l0,0.2c0,0,0.1,0,0.1,0c0,0,0,0,0,0
				C17.4,15.6,17.4,15.5,17.3,15.5C17.4,15.5,17.3,15.5,17.3,15.5"/>
		</g>
		<g>
			<polygon class="st1" points="18.2,15.4 18.3,15.4 18.2,15.3 			"/>
		</g>
		<g>
			<path class="st1" d="M18.4,15.5L18.4,15.5C18.4,15.5,18.4,15.5,18.4,15.5C18.4,15.5,18.4,15.5,18.4,15.5
				C18.4,15.5,18.4,15.5,18.4,15.5L18.4,15.5l0-0.1l-0.1,0l0,0c0,0,0,0,0,0c0,0,0,0,0,0C18.3,15.5,18.3,15.5,18.4,15.5L18.4,15.5
				l-0.2,0.1l0,0c0,0,0,0,0-0.1l0-0.4l0,0l0.3,0.3c0,0,0,0,0.1,0c0,0,0,0,0,0l0,0L18.4,15.5z M17.7,15.8L17.7,15.8l0.1-0.5l-0.1,0
				c0,0-0.1,0-0.1,0c0,0,0,0,0,0.1l0,0l0-0.1l0.4-0.1l0,0l-0.1,0.4l0.1,0c0,0,0,0,0.1,0c0,0,0,0,0,0c0,0,0,0,0-0.1l0,0l0,0.1
				L17.7,15.8z M17.5,15.8C17.5,15.8,17.5,15.8,17.5,15.8c-0.1-0.1-0.1-0.1-0.1-0.1c0,0,0,0,0,0c0,0,0,0,0,0l0,0.1c0,0,0,0,0,0
				c0,0,0,0,0,0l0,0l0,0l-0.2,0.1l0,0l0,0c0,0,0,0,0,0c0,0,0,0,0,0l-0.1-0.3c0,0,0,0,0,0c0,0,0,0,0,0l0,0l0,0l0.2,0l0,0
				c0,0,0.1,0,0.1,0c0,0,0,0,0.1,0c0,0,0,0,0.1,0c0,0,0,0,0,0c0,0,0,0.1-0.1,0.1c0,0,0.1,0,0.1,0.1C17.6,15.7,17.6,15.7,17.5,15.8
				c0.1-0.1,0.1-0.1,0.1-0.1l0,0L17.5,15.8z M16.7,16L16.7,16L16.7,16C16.7,16,16.7,16,16.7,16c0-0.1,0-0.1,0-0.1l-0.1-0.3
				c0,0,0,0,0,0c0,0,0,0,0,0l0,0l0,0l0.4-0.1l0,0.1l0,0c0,0,0,0,0,0c0,0,0,0,0,0c0,0,0,0,0,0l-0.1,0l0,0.1l0,0c0,0,0,0,0,0
				c0,0,0,0,0,0l0,0l0,0.1l0,0c0,0,0,0,0,0c0,0,0,0,0,0c0,0,0,0,0,0l0,0l0,0.1c0,0,0,0,0,0c0,0,0,0,0,0c0,0,0,0,0,0c0,0,0,0,0.1,0
				c0,0,0,0,0,0c0,0,0,0,0-0.1l0,0l0,0.1L16.7,16z M16.5,15.7l0,0.1c0,0,0,0.1,0,0.1c0,0,0,0,0,0.1c0,0,0,0-0.1,0.1c0,0-0.1,0-0.1,0
				c0,0-0.1,0-0.1,0c0,0-0.1,0-0.1,0c0,0,0,0,0,0c0,0,0,0,0-0.1l0-0.2c0,0,0,0,0,0c0,0,0,0,0,0l0,0l0.2,0l0,0l0,0c0,0,0,0,0,0
				c0,0,0,0,0,0l0,0.2c0,0,0,0.1,0,0.1c0,0,0,0,0,0c0,0,0,0,0.1,0c0,0,0,0,0.1,0c0,0,0,0,0-0.1c0,0,0,0,0-0.1L16.5,15.7
				c0,0-0.1-0.1-0.1,0l0,0l0.2,0L16.5,15.7C16.5,15.6,16.5,15.7,16.5,15.7C16.5,15.7,16.5,15.7,16.5,15.7
				C16.5,15.7,16.5,15.7,16.5,15.7 M16,15.8C16,15.8,16,15.8,16,15.8C15.9,15.8,15.9,15.8,16,15.8c-0.1-0.1-0.1-0.1-0.1-0.1l-0.1,0
				l0,0.2l0,0C15.9,15.9,15.9,15.9,16,15.8C15.9,15.9,15.9,15.9,16,15.8L16,15.8l0,0.2l0,0c0,0,0,0,0,0c0,0,0,0,0,0l0,0l0,0.1
				c0,0,0,0,0,0c0,0,0,0,0,0l0,0l0,0l-0.2,0l0,0l0,0c0,0,0,0,0,0c0,0,0,0,0,0l0-0.3c0,0,0,0,0,0c0,0,0,0,0,0l0,0l0,0l0.4-0.1
				L16,15.8L16,15.8z M15.2,16.3L15.2,16.3C15.2,16.2,15.2,16.2,15.2,16.3C15.3,16.2,15.3,16.2,15.2,16.3
				C15.3,16.2,15.3,16.2,15.2,16.3L15.2,16.3l0-0.1l-0.1,0l0,0c0,0,0,0,0,0c0,0,0,0,0,0C15.1,16.2,15.1,16.2,15.2,16.3L15.2,16.3
				l-0.2,0l0,0c0,0,0,0,0.1-0.1l0.1-0.4l0,0l0.2,0.3c0,0,0,0.1,0,0.1c0,0,0,0,0,0l0,0L15.2,16.3z M14.5,16.3L14.5,16.3L14.5,16.3
				C14.6,16.3,14.6,16.3,14.5,16.3C14.6,16.3,14.6,16.3,14.5,16.3l0-0.4c0,0,0,0,0,0c0,0,0,0,0,0l0,0l0,0l0.2,0l0,0l0,0c0,0,0,0,0,0
				c0,0,0,0,0,0l0,0.3c0,0,0,0,0,0c0,0,0,0,0,0c0,0,0,0,0,0c0,0,0.1,0,0.1,0c0,0,0,0,0-0.1l0,0l0,0.1L14.5,16.3z M14.2,16.3
				c0,0-0.1,0.1-0.2,0.1c-0.1,0-0.1,0-0.1,0c0,0-0.1,0-0.1-0.1c0,0,0-0.1,0-0.1c0,0,0-0.1,0-0.1c0,0,0-0.1,0.1-0.1c0,0,0.1,0,0.1,0
				c0.1,0,0.1,0,0.2,0.1c0,0,0.1,0.1,0.1,0.2C14.2,16.2,14.2,16.3,14.2,16.3 M13.4,16C13.4,16,13.4,16,13.4,16
				C13.4,16,13.4,16,13.4,16C13.4,16,13.4,16,13.4,16l-0.1,0.4h0L13,16.1l0,0.2c0,0,0,0.1,0,0.1c0,0,0,0,0,0v0h-0.2v0c0,0,0,0,0,0
				c0,0,0,0,0,0c0,0,0,0,0,0l0-0.2c0,0,0-0.1-0.1-0.1v0l0.1,0l0.2,0.3L13.4,16c-0.1,0-0.1,0-0.2,0v0L13.4,16L13.4,16z M12.8,16.3
				c0,0-0.1,0.1-0.2,0.1c-0.1,0-0.1,0-0.1,0c0,0-0.1-0.1-0.1-0.1c0,0,0-0.1,0-0.1c0,0,0-0.1,0-0.1c0,0,0.1-0.1,0.1-0.1
				c0,0,0.1,0,0.1,0c0.1,0,0.1,0,0.2,0.1c0,0,0.1,0.1,0.1,0.2C12.9,16.2,12.8,16.3,12.8,16.3 M12.3,15.9L12,16.3l0.1,0
				c0,0,0,0,0.1,0c0,0,0,0,0,0c0,0,0,0,0-0.1l0,0l0,0.1l-0.4,0l0,0l0.3-0.4l-0.1,0c0,0-0.1,0-0.1,0c0,0,0,0,0,0.1l0,0l0-0.1
				L12.3,15.9L12.3,15.9z M11.8,16.3l-0.2,0l0,0c0,0,0,0,0,0c0,0,0,0,0,0c0,0,0,0,0,0l0,0l0,0l-0.1,0l0,0c0,0,0,0,0,0c0,0,0,0,0,0
				c0,0,0,0,0,0l0,0l-0.1,0l0,0c0,0,0.1,0,0.1-0.1l0.2-0.3l0,0l0.1,0.4C11.7,16.2,11.7,16.3,11.8,16.3
				C11.8,16.3,11.8,16.3,11.8,16.3L11.8,16.3z M11.3,16.3l-0.1,0c0,0,0-0.1-0.1-0.1c0,0,0-0.1,0-0.1c0,0,0,0,0,0c0,0,0,0,0,0l0,0.1
				c0,0,0,0,0,0c0,0,0,0,0,0h0l0,0l-0.2,0l0,0l0,0c0,0,0,0,0,0c0,0,0,0,0,0l0-0.3c0,0,0,0,0,0c0,0,0,0,0,0l0,0l0,0l0.2,0l0,0
				c0,0,0.1,0,0.1,0c0,0,0,0,0.1,0c0,0,0,0,0,0c0,0,0,0,0,0.1c0,0.1,0,0.1-0.1,0.1c0,0,0,0,0.1,0.1C11.2,16.2,11.3,16.2,11.3,16.3
				C11.3,16.2,11.3,16.2,11.3,16.3L11.3,16.3z M10.6,16.2l-0.2,0l0,0c0,0,0,0,0,0c0,0,0,0,0,0c0,0,0,0,0,0l0,0l0,0l-0.1,0l0,0
				c0,0,0,0,0,0c0,0,0,0,0,0c0,0,0,0,0,0l0,0l-0.1,0l0,0c0,0,0.1,0,0.1-0.1l0.2-0.3l0,0l0.1,0.4C10.5,16.1,10.5,16.1,10.6,16.2
				C10.5,16.1,10.5,16.1,10.6,16.2L10.6,16.2z M10.1,16.1L9.7,16l0,0h0c0,0,0,0,0,0c0,0,0,0,0,0l0.1-0.3c0,0,0,0,0,0c0,0,0,0,0,0
				l0,0l0,0l0.2,0l0,0l0,0c0,0,0,0,0,0c0,0,0,0,0,0l-0.1,0.2c0,0,0,0,0,0c0,0,0,0,0,0c0,0,0,0,0,0C10,16,10,16,10.1,16.1
				c0-0.1,0-0.1,0-0.2l0,0L10.1,16.1z M9.3,15.8C9.4,15.8,9.4,15.9,9.3,15.8c0,0.1,0.1,0.1,0.1,0.1l0,0l-0.1,0c0,0,0-0.1,0-0.1
				c0,0,0-0.1,0-0.1c0,0,0,0,0,0c0,0,0,0,0,0l0,0.1c0,0,0,0,0,0c0,0,0,0,0,0l0,0l0,0l-0.2-0.1l0,0l0,0c0,0,0,0,0,0c0,0,0,0,0,0
				l0.1-0.3c0,0,0,0,0,0c0,0,0,0,0,0l0,0l0,0l0.2,0l0,0c0,0,0.1,0,0.1,0c0,0,0,0,0,0c0,0,0,0,0,0c0,0,0,0,0,0.1
				c0,0.1-0.1,0.1-0.1,0.1C9.3,15.7,9.3,15.7,9.3,15.8 M8.9,15.6c0,0.1-0.1,0.1-0.1,0.1c-0.1,0-0.1,0-0.2,0c0,0-0.1,0-0.1-0.1
				c0,0,0-0.1-0.1-0.1c0,0,0-0.1,0-0.1c0,0,0-0.1,0.1-0.1c0,0,0.1,0,0.1-0.1c0,0,0.1,0,0.1,0c0.1,0,0.1,0.1,0.2,0.1
				C8.9,15.4,8.9,15.5,8.9,15.6 M8.4,15.3C8.4,15.3,8.4,15.3,8.4,15.3c-0.1,0.1-0.1,0.1-0.1,0.1c0,0-0.1,0-0.1,0l0,0l0,0.1
				c0,0,0,0,0,0c0,0,0,0,0,0l0,0l0,0l-0.2-0.1l0,0l0,0c0,0,0,0,0,0c0,0,0,0,0,0l0.1-0.2c0,0,0,0,0,0c0,0,0,0,0,0l0,0l0,0l0.2,0.1
				c0,0,0.1,0,0.1,0c0,0,0,0,0.1,0C8.4,15.2,8.4,15.2,8.4,15.3C8.4,15.3,8.4,15.3,8.4,15.3 M12.6,15.8l0.1,0l-0.2,0.1h0L12.6,15.8z
				 M18.5,14.8c-0.1,0-0.1,0-0.1,0c-0.2,0.1-2.1,0.9-5.2,0.9c-3.1,0-5-0.8-5.2-0.9c0,0,0,0-0.1,0c-0.1,0-0.1,0-0.2,0l-0.6,0.5h0
				c0.2,0,0.4,0.1,0.4,0.1c1.7,0.7,3.5,1,5.7,1c2.1,0,4-0.3,5.7-1c0,0,0.2-0.1,0.4-0.1h0l-0.6-0.5C18.6,14.8,18.5,14.8,18.5,14.8"/>
		</g>
		<g>
			<path class="st1" d="M11,8.6c-0.1,0-0.1,0.1-0.2,0.1h0.5C11.1,8.7,11.1,8.6,11,8.6"/>
		</g>
		<g>
			<path class="st1" d="M14.1,8.7c-0.1,0-0.2-0.1-0.2-0.1c0,0,0,0,0,0c-0.1,0-0.2-0.1-0.3-0.1h-1c-0.1,0-0.2,0.1-0.3,0.1
				c0,0,0,0,0,0c0,0-0.1,0.1-0.2,0.1c0,0,0,0,0,0L14.1,8.7C14.1,8.7,14.1,8.7,14.1,8.7"/>
		</g>
		<g>
			<path class="st1" d="M15.4,8.6C15.4,8.6,15.4,8.6,15.4,8.6C15.4,8.6,15.4,8.6,15.4,8.6c-0.1,0-0.1,0.1-0.2,0.1h0.4
				C15.5,8.7,15.4,8.6,15.4,8.6"/>
		</g>
		<g>
			<path class="st1" d="M10.7,12.5v-1C10.6,11.7,10.5,12.1,10.7,12.5"/>
		</g>
		<g>
			<path class="st1" d="M13.1,8.8h-2.5c0,0,0,0,0,0c0,0,0,0.1,0,0.1c0,0,0.1,0.1,0.1,0.1h2.4L13.1,8.8z"/>
		</g>
		<g>
			<path class="st1" d="M13,9.2h-2.2c0,0.1,0.1,0.1,0.1,0.2H13L13,9.2z"/>
		</g>
		<g>
			<path class="st1" d="M12.9,9.7l0.1-0.2h-2c0,0.1,0,0.1,0.1,0.2H12.9z"/>
		</g>
		<g>
			<path class="st1" d="M12.8,9.9h-1.7c0,0.1,0,0.1,0,0.2h1.7L12.8,9.9z"/>
		</g>
		<g>
			<path class="st1" d="M11.1,10.7H12l-0.3-0.2h-0.6C11.1,10.6,11.1,10.7,11.1,10.7"/>
		</g>
		<g>
			<path class="st1" d="M11.1,10.2C11.1,10.2,11.1,10.2,11.1,10.2c0,0,0,0.1,0,0.2h0.4l-0.3-0.2H11.1z"/>
		</g>
		<g>
			<path class="st1" d="M14.1,11.1h0.1v1.3L14.1,12V11.1z M13.1,10.8l1.1,1.6v0.8c0.1,0,0.1,0,0.2,0c0,0,0,0,0,0v-2.1h0.1v2.1
				c0.1,0,0.1,0,0.2,0v-2.1H15v2c0.1,0,0.1-0.1,0.2-0.1v-2h0.1V13c0.1-0.1,0.1-0.1,0.2-0.2c0,0,0,0,0,0v-1.4
				c-0.1-0.1-0.1-0.2-0.2-0.3h0c0-0.1-0.1-0.1-0.1-0.2h-1.2l-0.3,0.2l-0.5-0.2L13.1,10.8l1.9-0.6h-1.5l0-0.1h1.7c0-0.1,0-0.1,0-0.2
				h-1.8l0-0.1h1.9c0-0.1,0-0.1,0.1-0.2h-2l0-0.1h2.1c0-0.1,0.1-0.1,0.1-0.2h-2.3l0-0.1h2.4c0.1-0.1,0.1-0.2,0.1-0.2c0,0,0,0,0,0
				h-2.6l0,0v0V9v0.1v0.2v0.1v0.2v0.1v0.2V10.8L13.1,10.8z"/>
		</g>
		<g>
			<path class="st1" d="M13.6,13.4c0.1,0,0.1-0.1,0.2-0.1v-1.3l-0.2-0.2V13.4z"/>
		</g>
		<g>
			<path class="st1" d="M13.2,13.9c0-0.1,0.1-0.1,0.1-0.1l0,0c0-0.1,0.1-0.1,0.1-0.2v-1.8l-0.2-0.2V13.9z"/>
		</g>
		<g>
			<path class="st1" d="M12.9,13.5c0.1,0.1,0.1,0.1,0.2,0.2l0,0c0,0,0,0,0,0v-2.2l-0.2,0.2V13.5z"/>
		</g>
		<g>
			<path class="st1" d="M12.6,13.3c0.1,0,0.1,0.1,0.2,0.1v-1.6L12.6,12V13.3z"/>
		</g>
		<g>
			<path class="st1" d="M13.9,13.3c0.1,0,0.1,0,0.2,0v-0.9l-0.2-0.2V13.3z"/>
		</g>
		<g>
			<path class="st1" d="M12.2,13.2c0.1,0,0.1,0,0.2,0v-1.2l-0.2,0.2V13.2z"/>
		</g>
		<g>
			<path class="st1" d="M12.1,11.1h0.1v0.6l-0.1,0.4V11.1z M11.1,12.9v-1.9h0.1V13c0.1,0,0.1,0.1,0.2,0.1v-2h0.1v2.1
				c0.1,0,0.1,0,0.2,0v-2.1h0.1v2.1c0,0,0.1,0,0.1,0c0,0,0.1,0,0.1,0v-0.9L12,12.4l1.2-1.6h0l0,0h0h0l-0.4-0.6h-1.5l1.9,0.6
				l-0.7,0.3l-0.3-0.2H11c0,0.1,0,0.1-0.1,0.2c0,0.1,0,0.1-0.1,0.2v1.5C10.9,12.8,11,12.9,11.1,12.9"/>
		</g>
		<g>
			<path class="st1" d="M14.3,10.7h0.9c0-0.1,0-0.1,0-0.2h-0.6L14.3,10.7z"/>
		</g>
		<g>
			<path class="st1" d="M15.2,10.2H15l-0.3,0.2h0.4C15.2,10.3,15.2,10.3,15.2,10.2C15.2,10.2,15.2,10.2,15.2,10.2"/>
		</g>
		<g>
			<path class="st1" d="M10.2,4.6c0.3-0.1,0.6,0,0.7,0.2c0.5,0.5,0.2,1.1,0.1,1.2c0.1-0.3,0.1-0.7-0.3-0.8C10.4,5,10.1,5.3,10,5.4
				c0.1-0.3,0.4-0.5,0.9-0.4c-0.1-0.3-0.4-0.4-0.8-0.2C9.9,4.9,9.9,4.9,9.8,5C9.9,4.8,10,4.7,10.2,4.6 M10.2,6.1
				c0.2-0.1,0.4-0.2,0.4-0.4c0-0.1-0.1-0.1-0.2-0.1c-0.1,0-0.2,0.1-0.3,0.2c0-0.2,0.1-0.3,0.4-0.3c0.1,0,0.3,0.1,0.3,0.2
				C10.8,6,10.5,6.2,10.2,6.1 M11.8,5.4c0.2,0.3,0.7,0.7,1.3,0.9c0.2,0.1,0.3,0.7,0.1,1.1C13,7.3,13,7.2,13,7c0.1,0.1,0.2,0.2,0.2,0
				c-0.1-0.1-0.5-0.2-0.4-0.4c0.1-0.1,0.3,0.3,0.4,0.2c0-0.3-0.8-0.4-0.8-0.6c0-0.1,0.7,0.3,0.8,0.3C13.1,6.4,12.1,6,11.8,5.4
				C11.8,5.4,11.7,5.4,11.8,5.4C11.8,5.4,11.8,5.4,11.8,5.4 M13.5,6.7c0,0.3,0.1,0.6,0,0.8c-0.1,0,0-0.1,0-0.2c0-0.3,0-0.6-0.1-0.8
				c0-0.1-0.1-0.5-0.4-1C13,5.6,13.4,6.2,13.5,6.7 M13.8,5.7c0.2,0.1-0.1,0.5-0.1,0.5c0,0,0.2-0.2,0.3-0.1c0.1,0.1-0.2,0.5-0.3,0.5
				C13.2,6.1,13.7,5.9,13.8,5.7 M14.3,3.7c0,0.2-0.1,0.3-0.1,0.3c0,0,0,0,0,0c0.1-0.1,0-0.4-0.1-0.5c-0.1-0.1-0.2-0.1-0.2-0.2
				C13.9,3.2,14.3,3.3,14.3,3.7 M13.7,6.9c-0.1-0.1,0.1-0.3,0.2-0.5C14.1,6.4,13.8,6.9,13.7,6.9 M13.7,7.3c-0.1,0-0.1-0.1-0.1-0.2
				c0-0.1,0.2-0.2,0.3-0.3C13.9,6.9,13.9,7.1,13.7,7.3 M16.2,4.4c0.1,0,0.3,0.2,0.3,0.4c0.1,0.2,0,0.3,0,0.4c0,0,0,0,0,0
				c0,0,0,0,0,0c0-0.1,0-0.3-0.1-0.4c0-0.1-0.1-0.2-0.2-0.2c0.1,0.1,0.1,0.2,0.1,0.2c0,0.1,0,0.1,0,0.2c0,0.2-0.1,0.4-0.2,0.5
				c0,0,0,0,0,0c0,0,0,0,0,0c0.1-0.2,0.1-0.4,0-0.6c0,0,0,0,0-0.1c-0.1-0.1-0.2-0.3-0.4-0.3c0.1,0.1,0.2,0.2,0.2,0.3
				c0.1,0.2,0.1,0.5,0,0.6c0,0,0,0,0,0c0,0,0,0,0,0c0,0,0-0.1,0-0.1c0-0.1,0-0.2,0-0.2c-0.1-0.4-0.4-0.6-0.7-0.3
				C15.4,4.7,15.6,4.2,16.2,4.4 M9.9,6.3c0.4,0.2,0.8,0.2,1,0.2c0.1,0,0.2-0.1,0.3-0.1c0,0,0,0,0,0c0,0,0,0,0,0
				c0.1-0.1,0.2-0.3,0.2-0.6c0,0,0,0,0,0c0,0,0,0.1,0,0.2c0,0.1,0,0.2-0.1,0.3c0,0,0,0,0,0.1c0,0,0,0.1,0,0.1c0.1,0.1,0.2,0.1,0.4,0
				c0,0,0,0,0,0c0,0-0.1,0.1-0.3,0.1c0,0-0.1,0-0.1,0c0.1,0.2,0.4,0.3,0.6,0.3c0,0,0,0,0,0c0,0-0.1,0-0.2,0c-0.1,0-0.3,0-0.4-0.1
				C11.7,6.9,12,7,12.4,7.1c0,0-0.3,0-0.4,0c0.2,0.7,0.5,0.6,0.6,0.7c-0.1,0-0.2,0.2-0.1,0.3c0.4-0.1,0.7-0.2,0.8-0.2
				c0.1,0,0.4,0,0.8,0.2c0-0.1,0-0.1,0-0.2c-0.1-0.2-0.6-0.3-1.1-0.2c0,0,0,0-0.1,0c0,0,0,0,0,0c0,0,0,0,0,0l0,0c0,0,0.1,0,0.1,0
				c0.2-0.1,0.7-0.2,0.9,0c0,0,0,0,0,0c0.2,0.1,0.4-0.2,0.3-0.3c0.2,0,0.3-0.1,0.3-0.2c0,0-0.1,0-0.1,0l0,0c-0.1,0-0.1,0-0.1,0
				c0,0,0,0,0,0h0c0,0,0,0,0,0c0,0,0,0,0,0c0,0,0,0,0.1,0c0.3-0.2,0.4-0.5,0.4-0.6c0,0.1-0.1,0.1-0.2,0.1c0,0-0.1,0-0.1,0
				c0,0,0,0,0,0c0,0,0.1,0,0.1,0c0.1-0.1,0.2-0.2,0.2-0.3c-0.2-0.2-0.2-0.4-0.4-0.6c0-0.1-0.1-0.2-0.3-0.2c0,0,0,0-0.1,0
				c0,0,0,0,0,0c0,0,0,0,0,0c0.1-0.1,0.3,0,0.4,0.1c0-0.3,0.1-0.3,0.1-0.3c0,0,0,0,0,0c-0.2,0.5,0.2,1,0.4,1.2
				c0.4,0.2,1,0.2,1.5-0.1h0c-0.1,0-0.2,0-0.2,0c-0.1,0-0.2,0-0.2,0c0,0,0,0,0,0c0.1,0,0.1,0,0.2,0C17,6,17,5.2,16.9,5.2
				c0,0,0,0,0,0c0,0,0,0.1-0.1,0.1c0,0.1-0.1,0.1-0.1,0.1c0,0,0,0,0,0c0.1-0.2,0.1-0.4,0.1-0.7c0-0.1-0.1-0.3-0.2-0.3
				c-0.3-0.2-1-0.3-1.3,0c-0.1-0.1-0.3-0.2-0.5-0.3c0,0.2-0.3,0.5-0.5,0.6c0,0-0.1,0.1-0.2,0.1c0,0,0,0,0,0c0.3-0.2,0.5-0.5,0.5-0.8
				v0c0-0.2-0.1-0.5-0.2-0.7c-0.3-0.3-1.1-0.4-1.5-0.1c-0.1,0.1-0.2,0.2-0.2,0.4c0-0.1,0.1-0.2,0.3-0.3c0.2-0.1,0.5,0,0.5,0.2
				c-0.3-0.3-0.8-0.1-0.9,0.4v0c0,0,0,0,0,0h0c0,0,0,0,0-0.2c0-0.1,0-0.3,0.1-0.5c-0.6-0.1-1.4,0.2-1.4,1.2c0,0.1,0.1,0.3,0.2,0.4
				c0,0,0,0,0,0c0,0-0.1,0-0.1-0.1c-0.1-0.1-0.1-0.2-0.1-0.3c-0.4-0.1-0.7-0.1-0.9-0.1c-0.2,0-0.5,0.2-0.7,0.4
				c0,0.1-0.1,0.2-0.1,0.2C9.4,5.1,9.4,5.3,9.4,5.5C9.4,5.9,9.6,6.2,9.9,6.3"/>
		</g>
		<g>
			<path class="st1" d="M6.2,15.5C6.2,15.5,6.1,15.5,6.2,15.5c-0.1,0-0.1-0.1-0.1-0.1C6,15.5,6.1,15.5,6.2,15.5
				c-0.1,0.1-0.1,0.1-0.1,0.1l0,0c0,0-0.1,0-0.1,0h0c0,0,0,0,0,0c-0.1,0-0.1-0.1-0.1-0.2c0-0.1,0-0.2-0.1-0.2
				c0.2-0.1,0.4,0.1,0.4,0.2l0,0h0v0C6.2,15.4,6.2,15.4,6.2,15.5c0.1,0,0.1,0,0.1,0C6.3,15.5,6.2,15.5,6.2,15.5 M8,7.6
				c0.4,0,0.7,0,0.9,0.2c0,0,0,0,0,0C9,7.8,9.2,8,9.3,8.2C9,8,8.8,8,8.6,7.9C8.3,7.8,8.1,7.8,8,7.6 M7.5,6.9C7.8,7,7.8,6.7,7.8,6.8
				C7.9,6.9,7.7,7.1,7.5,6.9 M7.3,7C7.2,6.8,7.5,6.5,7.6,6.5c0.2-0.1,0.3,0,0.5,0.1c0.1,0,0.2,0,0.3,0c0.2,0,0.2,0.2,0.1,0.2
				c-0.2,0-0.3-0.1-0.4-0.1c-0.1,0-0.2,0-0.3,0c-0.1,0-0.2-0.1-0.2,0c0,0-0.1,0.1-0.1,0.2C7.5,7,7.4,7,7.3,7 M10.4,10
				c-0.1,0-0.1-0.3-0.5-0.2c-0.2,0.1-0.4,0-0.5,0C10,9.5,10.5,9.8,10.4,10 M10.5,10.6c0,0,0.1,0.2,0.1,0.3c0,0,0,0,0,0c0,0,0,0,0,0
				c0,0,0,0,0,0c0,0,0,0,0,0v0c0,0,0,0,0,0.1c0,0,0,0,0,0c0,0,0,0,0,0c0,0,0,0,0,0c0,0,0,0,0,0.1c0,0,0,0,0,0c0,0,0,0,0,0
				c0,0,0,0,0,0c0,0,0,0,0,0c0,0,0,0,0,0.1c0,0,0,0,0,0c0,0,0,0,0,0c0,0,0,0,0,0c0,0,0,0,0,0c0,0,0,0,0,0c0,0,0,0,0,0c0,0,0,0,0,0
				c0,0,0,0,0,0c0,0,0,0,0,0c0,0,0,0,0,0c0,0,0,0,0,0c0,0,0,0,0,0c0,0,0,0,0,0c0,0,0,0,0,0c0,0,0,0,0,0c0,0,0,0-0.1,0c0,0,0,0,0,0
				c0-0.1,0.1-0.1,0.1-0.2c0-0.1,0-0.1,0.1-0.1c0.1,0,0.1,0,0.1,0c-0.1-0.1-0.1-0.2,0-0.3C10.6,11,10.5,10.6,10.5,10.6 M10.7,11.4
				c0.4-0.6,0.3-1,0.3-1.1C11,9.5,10.6,9,10.5,9c0-0.1-0.1-0.1,0-0.1c0-0.1,0.1-0.1,0.1-0.1c0.1-0.1,0.3-0.2,0.4-0.3l0,0
				c0,0,0,0,0,0c0,0,0,0,0.1,0c0.1,0.1,0.2,0.2,0.5,0.2c0,0,0.1,0,0.2,0c0.1,0,0.4-0.1,0.4-0.1c0.1,0,0.2-0.1,0.2-0.1l0,0
				c0.4-0.2,0.7-0.2,0.8-0.2c0.1,0,0.4,0,0.8,0.2l0,0c0,0,0.1,0.1,0.2,0.1c0,0,0.2,0.1,0.4,0.1c0.1,0,0.1,0,0.2,0
				c0.3,0,0.4-0.1,0.5-0.2c0,0,0.1,0,0.1,0c0,0,0,0,0,0c0,0,0,0,0,0c0.1,0.1,0.3,0.2,0.4,0.3c0,0,0.1,0,0.1,0.1c0,0,0,0.1,0,0.1
				c0,0.1-0.5,0.6-0.5,1.2c0,0.1,0,0.5,0.3,1.1c0,0,0.4,0.7,0,1.4c0,0.1-0.4,0.6-1.2,0.6c-0.1,0-0.8,0-1,0.5c0,0,0,0,0,0
				c0,0-0.1,0.2-0.2,0.3c0,0,0,0,0,0c0,0,0,0,0,0c0-0.1-0.1-0.2-0.2-0.3c0,0,0,0,0,0c-0.2-0.4-0.9-0.5-1-0.5c-0.9,0-1.2-0.5-1.2-0.6
				C10.3,12.1,10.7,11.4,10.7,11.4 M15.8,10.9C15.8,10.9,15.8,10.9,15.8,10.9c0,0,0.1,0,0.1-0.1c0,0,0,0,0.1,0h0c0,0,0.1,0,0.1,0
				c0,0,0.1,0.1,0.1,0.2h0c0,0,0,0.2,0.1,0.2c0.1,0,0,0.1-0.1,0.1h0c-0.1,0-0.3-0.2-0.2-0.4C15.9,11,15.9,11,15.8,10.9L15.8,10.9
				C15.9,11,15.8,11,15.8,10.9C15.8,11,15.8,11,15.8,10.9C15.8,11,15.8,11,15.8,10.9c0,0.1,0,0.1,0,0.1c0,0,0,0.1-0.1,0.1
				C15.7,11,15.7,10.9,15.8,10.9 M16.3,11.5C16.3,11.5,16.3,11.5,16.3,11.5C16.3,11.5,16.3,11.5,16.3,11.5
				C16.3,11.6,16.3,11.6,16.3,11.5C16.3,11.6,16.3,11.6,16.3,11.5C16.3,11.6,16.3,11.6,16.3,11.5l0,0.1c0,0,0,0.1,0,0.2c0,0,0,0,0,0
				c0,0,0,0,0,0c0,0,0,0.1,0,0.1c0,0.1,0,0.2-0.1,0.3c0,0,0,0,0,0c0,0,0,0,0,0c0,0,0,0,0,0c0,0,0,0,0,0c0,0,0,0,0,0c0,0,0,0,0,0
				c0,0,0,0,0,0c0,0,0,0,0,0h0c0,0,0,0,0,0c0,0,0,0,0,0c0,0,0,0,0,0c0,0,0,0,0,0c0,0,0,0,0,0c0,0,0,0,0,0c0,0-0.1-0.1,0-0.1
				c0,0,0,0,0,0c0,0,0,0,0,0c0,0,0,0,0,0c0,0,0,0,0,0c0,0,0,0,0,0c0,0,0,0,0,0c0,0,0,0,0,0c0,0,0,0,0,0c0,0,0,0,0,0c0,0,0,0,0,0
				c0,0,0,0,0,0c0,0,0,0,0,0c0,0,0,0,0,0c0,0,0,0,0,0c0,0,0,0,0,0C16.2,11.8,16.2,11.6,16.3,11.5C16.3,11.5,16.3,11.5,16.3,11.5
				C16.3,11.5,16.3,11.5,16.3,11.5C16.3,11.5,16.3,11.5,16.3,11.5L16.3,11.5L16.3,11.5C16.3,11.5,16.3,11.5,16.3,11.5
				C16.3,11.5,16.3,11.5,16.3,11.5 M17.5,12.4c0.2,0.1,0.5,0,0.7-0.1c0,0,0,0,0,0c0,0,0,0.2-0.3,0.2c-0.5,0-0.8-0.4-0.7-0.4
				C17.2,12.1,17.3,12.3,17.5,12.4 M17.1,8.3c-0.1,0.1-0.2,0.2-0.3,0.3c-0.3,0.1-0.5-0.1-0.5-0.2c0,0,0.2,0.1,0.4,0.1
				C16.9,8.5,17,8.4,17.1,8.3C17.1,8.3,17.1,8.3,17.1,8.3 M16.1,7C16.1,7,16.1,7,16.1,7c-0.2-0.1-0.5-0.1-0.7,0
				c-0.2,0.1-0.3,0.2-0.3,0.2c0,0,0.2-0.4,0.7-0.5C16.1,6.9,16.1,7,16.1,7 M19.4,8.4c0.1,0,0.1,0,0.2,0c0.1,0,0.1-0.1,0.2-0.1
				c0,0,0,0,0,0.1c-0.1,0.1-0.2,0.1-0.3,0.1c-0.2,0-0.4,0-0.4-0.1C19.1,8.3,19.2,8.4,19.4,8.4 M19.9,7.6c0-0.2,0.3-0.4,0.3-0.5
				c0-0.1-0.1-0.2-0.1-0.3c0-0.2,0.1-0.4,0.4-0.4c0.1,0,0.2,0.1,0.3,0.2c0,0,0.1,0.1,0.1,0.1c0.2,0.3,0.4,0.8,0.6,1.3
				c0.3,1.3,0.5,3.2,0.1,5.4c0,0.2-0.1,0.7-0.1,0.6c0.4-3.6,0.2-4.5,0.1-4.5c-0.1,0-0.1,0.4-0.3,0.3c-0.2-0.1,0.4-0.9,0.2-1.4
				c-0.1-0.1-0.1,0.1-0.2,0.1c-0.3-0.1,0.1-0.8,0.1-0.8c-0.1-0.1-0.3-0.1-0.3-0.3c0-0.1,0.1-0.2,0-0.3c-0.1-0.1-0.1,0.1-0.1,0
				c-0.1-0.1,0-0.3-0.1-0.4c0,0-0.1,0.1-0.2,0c-0.1-0.1,0-0.2,0-0.2c-0.1,0-0.3,0.1-0.3,0.3c0,0.1,0.1,0.2,0.1,0.3
				c0,0.1-0.1,0.2-0.1,0.3C20,7.9,20.3,8,20.3,8.1c0,0.1-0.1,0.1-0.2,0.1C19.9,8.1,19.9,7.8,19.9,7.6 M17.7,14.3L17.7,14.3
				C17.7,14.3,17.7,14.4,17.7,14.3c-0.1,0-0.3-0.1-0.3-0.1c0,0-0.1-0.1-0.2,0h0l0,0c-0.1,0-0.1,0.1-0.2,0.2c0,0,0,0,0-0.1
				c0,0,0,0,0,0c0,0,0,0,0,0v0c0,0,0,0,0,0c0,0,0,0,0,0c0,0,0,0,0,0c0,0,0,0,0,0c0,0,0,0,0,0c0,0,0,0,0,0c0,0,0,0,0,0
				c0,0,0.1,0,0.2,0l0,0c0.1,0,0.2,0,0.2,0.1c0.1,0.1,0.2,0.1,0.3,0.1C17.8,14.2,17.7,14.3,17.7,14.3 M9.5,13.9
				C9.5,13.9,9.5,13.9,9.5,13.9C9.5,13.9,9.5,13.9,9.5,13.9C9.5,13.9,9.5,13.9,9.5,13.9c0,0-0.1,0.1-0.1,0.1c-0.1,0-0.1,0-0.1,0
				c0,0,0,0.1,0,0.1v0c0,0,0,0,0,0c0,0,0,0,0,0c0,0,0,0,0.1,0c0,0-0.1,0.1-0.1,0.1c-0.1,0-0.1-0.1-0.2-0.2c0,0,0,0,0,0c0,0,0,0,0,0
				c-0.1,0-0.2-0.1-0.3-0.1c0-0.2,0.6-0.1,0.6-0.1C9.4,13.8,9.4,13.8,9.5,13.9C9.5,13.9,9.5,13.9,9.5,13.9 M12,16.8
				c0,0-0.3-0.1-0.6,0.1c0,0-0.3,0.2-0.4,0.2c0,0,0.1-0.3,0.1-0.7c-0.1,0-0.1,0-0.2,0c0,0.3-0.1,0.7-0.3,0.8l-0.2,0c0,0,0,0,0-0.1
				c0,0-0.1-0.1-0.2-0.1c0,0,0,0,0,0c-0.1,0-0.2,0.1-0.2,0.2c0,0-0.4,0.1-0.6-0.1c0,0,0.3-0.1,0.4-0.2c0,0,0.1-0.2-0.2-0.4
				c0,0-0.2-0.1-0.3,0c0,0,0,0.1,0.1,0.2c0,0,0.1,0.1-0.1,0.1c0,0-0.2,0-0.2-0.1c0,0,0-0.4,0.1-0.7c-0.1,0-0.2,0-0.3-0.1
				c0,0.1-0.1,0.2-0.1,0.3c0,0,0,0.2-0.1,0.3c0,0-0.3-0.3-0.2-0.7c-0.1,0-0.2-0.1-0.3-0.1c0,0.2,0,0.6,0.3,1.1c0,0-0.3,0.3-0.5,0.2
				c0,0-0.4-0.2-0.1-0.5c0,0,0.2-0.1,0.2,0c-0.1,0-0.2,0.1-0.2,0.2c0,0.1,0.1,0.2,0.2,0.2c0.1,0,0.2-0.1,0.2-0.1
				c0-0.1,0-0.2-0.1-0.3c0,0-0.1-0.1-0.4-0.1c0,0,0.2-0.3,0.2-0.5c0,0,0,0,0-0.1c-0.1,0-0.1,0-0.2-0.1c0,0.2-0.1,0.6-0.4,0.5
				c0,0,0.2-0.3,0.3-0.6c-0.1,0-0.3-0.1-0.4-0.2c0,0,0,0,0,0c0,0.1,0,0.3-0.1,0.5c0,0-0.2,0.1-0.4-0.1c0,0,0.4-0.3,0.5-0.4
				c-0.1,0-0.2-0.1-0.3-0.1H7.1c0,0,0,0,0,0c0,0-0.2,0.2-0.4,0.2c0,0,0,0-0.1,0c0,0-0.3-0.3-0.1-0.7c0,0,0.1-0.3,0.4-0.3
				c0,0,0.1,0,0.1,0.1c0,0-0.3,0-0.2,0.2c0,0,0,0.2,0.2,0.2c0,0,0.3,0,0.3-0.4c0,0-0.1-0.2-0.3-0.2c0,0,0.1-0.1,0-0.2
				c0,0-0.1-0.1-0.3,0.1c0,0,0,0.1-0.3,0c0,0-0.1-0.1-0.2,0.1c0,0,0,0,0,0.2c0,0,0,0.1-0.1,0.2c0,0-0.1,0.1-0.1,0.3
				c-0.1-0.1-0.1-0.1-0.2-0.1c-0.1-0.1-0.1-0.7-0.2-0.9c0-0.1,0.1-0.3,0.1-0.6c0.8-0.2,1.1-0.8,1.2-1.1c0.1-0.5,0-0.9-0.1-1
				c0,0,0,0,0,0c0,0.1,0.1,0.1,0.1,0.2c0.4,0,0.7,0,0.9-0.1c0,0,0,0,0,0c0,0,0,0,0,0c0,0,0.1,0,0.1,0c0,0,0,0,0,0
				c0.6-0.3,0.8-0.8,1-1c-0.1,0-0.3-0.1-0.4-0.2c0.2,0,0.4,0.1,0.6,0.1c0.3,0,0.5-0.2,0.9-0.1c0,0,0,0.2,0.3,0.3
				c0,0.2,0,0.4,0.1,0.5c0,0,0,0.1,0,0.1s-0.3,0.2-0.2,0.4c0,0,0,0.1,0.1,0.1c0,0,0,0,0,0c0,0-0.1,0.1-0.1,0.1c0,0-0.2,0.3-0.1,0.4
				c0,0,0,0,0.1,0c-0.1,0.3,0,0.7,0.2,1l0,0c0,0,0.4,0.6,1.4,0.6h0c0.1,0,1,0,1.3,0.6c0,0,0.1,0.1,0.2,0.1c0.1,0,0.1-0.1,0.2-0.1
				c0.3-0.6,1.2-0.6,1.3-0.6h0c1,0,1.4-0.6,1.4-0.6l0,0c0.1-0.2,0.2-0.4,0.2-0.5c0.2-0.1,0.2-0.6,0.2-0.6c0.1,0.1,0.2,0.3,0.4,0.4
				c0,0.2,0,0.6,0.2,0.6c0.1,0,0.1-0.1,0.1-0.2c0.2,0.6,0,0.9,0.2,0.9c0.2,0,0.2-0.3,0.2-0.3c0,0,0.1,0.1,0.1,0.3
				c0,0.2,0,0.3,0.1,0.4c0.3,0,0.1-0.7,0.3-0.6c0,0.3,0,0.5,0.1,0.6c0,0.2,0,0.3-0.1,0.3c-0.4,0.1-0.7-0.2-1-0.1c0,0,0,0,0,0
				c-0.6-0.3-1-0.1-1-0.1c-0.2-0.2-0.2,0.1-0.3,0c-0.3-0.2-0.5,0.1-0.6,0.1c-0.1,0-0.2-0.2-0.4,0.2c-0.1,0.2-0.4,0.2-0.4,0.2
				c-0.1,0-0.2-0.1-0.2-0.1c0,0,0-0.1,0-0.1c0,0,0,0-0.1-0.1c0,0-0.1-0.1-0.1,0c-0.1,0-0.2,0.1-0.2,0.2c0,0,0,0.1,0,0.1
				c0,0,0,0,0.1,0c0.1,0,0.1,0.1,0.1,0.1v0c0,0.2-0.2,0.3-0.2,0.3c-0.1,0.1-0.3,0-0.3,0c-0.1-0.1-0.2-0.1-0.2-0.1
				c-0.1,0-0.1,0.1-0.1,0.1s0-0.1-0.1-0.1c0,0-0.1,0-0.2,0.1c0,0-0.2,0.2-0.3,0c0,0-0.2-0.2-0.2-0.3v0c0-0.1,0.1-0.1,0.1-0.1
				c0,0,0.1,0,0.1,0c0,0,0-0.1,0-0.1c0-0.1-0.1-0.2-0.2-0.2c0,0-0.1,0-0.1,0c0,0,0,0-0.1,0.1c0,0,0,0.1,0,0.1c0,0,0,0.1-0.2,0.1
				c0,0-0.4-0.1-0.4-0.2c-0.1-0.4-0.3-0.2-0.4-0.2c-0.1,0-0.3-0.3-0.6-0.1c0,0-0.1-0.2-0.3,0c0,0-0.3-0.2-0.8,0
				c0-0.1-0.2-0.1-0.2-0.1c-0.1,0-0.2-0.1-0.2-0.1c-0.1-0.1-0.4,0-0.5,0c-0.1,0-0.1,0-0.2-0.1C8.2,13.4,8,13.2,7.9,13
				c0,0-0.1-0.1-0.1-0.1c-0.1-0.1-0.1-0.1-0.1-0.3c-0.1-0.2,0-0.5,0.1-0.8c0-0.1,0-0.2,0-0.2c-0.2,0-0.4,0.1-0.7,0
				c0.1,0.3,0.1,0.5,0.1,0.8c0.1,0.1,0.2,0.2,0.2,0.3c0,0.1,0,0.3,0,0.4c0.1,0.1,0.3,0.3,0.5,0.4c0,0,0.7,0.6,0.8,0.6
				c0.1,0,0.2-0.1,0.2,0c0,0,0,0,0.1,0c0,0,0.1,0.1,0.1,0.1c-0.2,0.1-0.5,0.3-0.6,0.4c0,0-0.3,0.2-0.2,0.2c0,0,0.2,0,0.2,0
				c0,0-0.1,0-0.2,0.1c0.3,0.1,0.6,0.2,1,0.3c0.2-0.2,0.5-0.4,0.7-0.5c0,0,0.4,0,0.5-0.3c0-0.1,0.2,0.2,0.5,0c0,0,0.1,0.1,0.2,0.1
				c0,0-0.1,0-0.1,0.2c0,0-0.3,0-0.4,0.2c0,0-0.6,0-1.1,0.5c0.1,0,0.2,0,0.3,0.1c0.2-0.1,0.4-0.2,0.6-0.2c0,0,0.3,0,0.5,0.4
				c0.2,0,0.4,0.1,0.6,0.1c0,0,0,0,0,0c0.1,0,0.3-0.2,0.2-0.3c0,0-0.1-0.1-0.2,0c0,0-0.1,0.1-0.1,0c0,0,0-0.1,0-0.1
				c0,0-0.1-0.1,0.1,0c0,0,0.1,0,0.2,0c0.1,0,0.2-0.1,0.2-0.2c0-0.1-0.1-0.2-0.2-0.2c0,0,0,0,0,0c0,0,0,0,0,0.1c0,0,0,0.1-0.1,0.1
				c-0.1,0-0.1-0.3,0.1-0.3c0,0,0.1,0,0.3,0.1c0,0,0.3,0.4,0.5,0.5c0,0,0,0.1,0.1,0.2c0,0,0,0.1,0.2,0.1c0,0,0,0.1,0.1,0.1
				c0.1,0,0.3,0,0.4,0c0.1,0,0.3,0,0.4,0c0-0.1,0.1-0.1,0.1-0.1c0.2,0,0.1-0.1,0.2-0.1c0.2,0,0.1-0.2,0.1-0.2
				c0.2-0.1,0.5-0.5,0.5-0.5c0.1-0.1,0.3-0.1,0.3-0.1c0.2,0,0.2,0.2,0.1,0.3c0,0-0.1,0-0.1-0.1c0,0,0,0,0-0.1c0,0,0,0,0,0
				c-0.1,0-0.2,0.1-0.2,0.2c0,0.1,0.1,0.2,0.2,0.2c0.1,0,0.2,0,0.2,0c0.1,0,0.1,0,0.1,0c0,0,0,0.1,0,0.1c0,0.1-0.1,0-0.1,0
				c-0.1-0.1-0.2,0-0.2,0c-0.1,0.2,0.2,0.3,0.2,0.3c0,0,0,0,0,0c0.2,0,0.4,0,0.6-0.1c0.1-0.4,0.5-0.4,0.5-0.4c0.2,0,0.5,0.1,0.6,0.2
				c0.1,0,0.2,0,0.3-0.1c-0.5-0.4-1.1-0.4-1.1-0.5c-0.1-0.2-0.4-0.1-0.4-0.2c0-0.1-0.1-0.2-0.1-0.2c0.1,0,0.1-0.1,0.2-0.1
				c0.3,0.2,0.5-0.1,0.5,0c0.1,0.3,0.5,0.3,0.5,0.3c0.3,0.1,0.5,0.3,0.7,0.5c0.3-0.1,0.6-0.2,0.9-0.3c0,0,0,0,0,0c0,0,0,0,0,0
				c0,0,0,0,0,0l0,0c0,0,0-0.1,0-0.1c-0.1-0.1-0.2-0.3-0.2-0.3c0,0,0,0,0,0c0,0,0,0,0,0c0,0,0.2-0.3,0.4-0.1c0,0,0,0.1-0.1,0.1
				c0,0,0.2,0.2,0.2,0.4c0,0,0,0,0,0c0.1,0,0.1,0,0.1,0c0,0,0,0,0,0c-0.1-0.2-0.2-0.3-0.2-0.3c0,0,0.2,0,0.2-0.1c0,0,0-0.1,0-0.3
				c0.1,0,0.2,0,0.2,0.1c0.2,0,0.3-0.3,0.2-0.5c0,0,0.2-0.1,0.2-0.1c0.1,0.2,0.4,0.3,0.4,0c0.1,0.2,0.1,0.4,0.3,0.4
				c0.1,0,0.1-0.3,0.1-0.3c0,0.1,0.1,0.4,0.3,0.3c0.1,0,0.1-0.1,0.1-0.2c0-0.3-0.8-1.7-0.9-2.4c0,0,0,0,0,0c-0.1,0-0.1-0.2-0.1-0.3
				c0,0,0,0,0,0c-0.1,0-0.2-0.1-0.3-0.4c0-0.2,0.1-0.4,0.1-0.4c0,0,0,0,0,0c-0.1,0.2-0.1,0.4,0,0.5c0,0,0.1,0,0.1,0.1
				c0-0.1,0.1-0.1,0.1-0.1c0,0,0,0,0,0c-0.1,0.1-0.1,0.3,0,0.4c0,0,0.1,0.1,0.1,0.1c0.2-0.1,0.3-0.5,0.4-0.6c0.1,0-0.2,0.9,0.1,1.1
				c0.1,0,0.2-0.2,0.2-0.3c0.1,0.3-0.3,0.8,0,0.9c0.2,0,0.2-0.4,0.2-0.4c0.1,0.7-0.3,1.1-0.1,1.2c0.2,0.1,0.3-0.5,0.3-0.4
				c0,0.8-0.4,1-0.2,1.1c0.2,0.1,0.3-0.4,0.3-0.3c0,0.7-0.4,0.9-0.2,1.1c0.2,0.2,0.5-0.4,0.5-0.3c0,0.2-0.4,0.9-0.1,1
				c0.2,0,0.3-0.2,0.3-0.3c0.6-1.9,0.6-3.8,0.6-4.5c-0.1-1-0.1-1.9-0.4-2.7c-0.1-0.5-0.4-1.5-1.1-1.7c-0.3-0.1-0.6,0.2-0.5,0.5
				C19.9,6.9,20,7,20,7.3c-0.1,0.1-0.2,0.3-0.2,0.5c0,0.2,0.1,0.2,0.1,0.4c-0.2,0-0.3,0.1-0.6,0.1c-0.3,0.1-0.5,0.1-0.6,0.1
				c0,0,0,0,0,0c0.3,0,0.6-0.1,0.6-0.2c0.1-0.2,0-0.5-0.1-0.6c-0.2,0-0.3,0.2-0.9,0.1c-0.5,0-0.6,0.1-0.7,0.4c0,0,0-0.1,0-0.1
				c0-0.2,0.2-0.3,0.4-0.3c0-0.1,0-0.1,0-0.2c-0.1,0-0.1,0-0.2,0c-0.2,0-0.6,0.2-0.6,0.4c0,0,0,0.1,0,0.1c0,0,0,0.1,0,0.1
				c0,0,0,0,0,0.1c0.1,0.2,0.3,0.3,0.7,0.3c0,0,0,0,0,0c0,0-0.1,0-0.2,0c0,0-0.4,0-0.5-0.2c0,0,0,0,0,0c-0.1,0.1-0.3,0.2-0.4,0.2
				c-0.2,0-0.4-0.1-0.4-0.2c-0.2-0.3,0.1-0.9,0.1-1.1c0-0.5-0.8-0.3-1-0.2c-0.3,0.2-0.6,0.4-0.8,0.7c-0.1,0.1-0.2,0.3-0.3,0.5
				c0.1,0,0.4,0.2,0.6,0.2l0,0c0,0,0,0,0.1,0c0.1,0,0.3,0,0.5-0.1c0,0,0.1-0.1,0.2-0.1c0.1,0,0.1,0,0.2,0.1c0,0,0.5,0.4,0.7,0.5
				c0,0,0.1,0.1,0.1,0.1c0,0,0,0.1-0.1,0.2c0,0-0.3,0.3-0.4,0.7c0,0.1,0,0.1-0.1,0.2c-0.1,0.2-0.1,0.5,0.2,0.6c0,0,0.3,0.1,0.3-0.4
				c0,0,0,0.3,0.3,0.3c0.1,0,0.2-0.1,0.2-0.3c0,0,0,0,0,0c0-0.2,0-0.5,0-0.7c0,0,0,0,0,0c0,0,0,0,0,0.1c0,0.1-0.1,1.3,0.9,2.1
				c0,0-0.4-0.2-0.7-0.7c-0.2,0.1-0.4,0.3-0.3,0.7c0.1,0.2,0.2,0.3,0.2,0.3c0,0,0,0,0,0c0,0-0.1,0.1-0.1,0h0c0,0,0,0,0,0
				c0-0.1-0.1-0.1-0.1-0.1c-0.1-0.1-0.2-0.2-0.3-0.3l0,0c-0.1-0.2,0-0.6-0.5-0.6c0,0,0,0,0,0h0c0,0,0,0-0.1,0c0,0,0,0,0,0
				c-0.1-0.4-0.1-0.7-0.1-0.7c0.1-0.6,0.5-1.1,0.6-1.1c0,0,0,0,0-0.1c0,0,0,0,0,0l0,0c-0.2-0.1-0.6-0.5-0.7-0.5l0,0c0,0-0.1,0-0.1,0
				c-0.1,0-0.1,0-0.1,0c-0.2,0.2-0.4,0.2-0.6,0.2c0,0-0.1,0-0.1,0h0c-0.3,0-0.6-0.2-0.7-0.2C13.6,8,13.3,8,13.2,8
				c-0.1,0-0.4,0-0.9,0.2c-0.1,0-0.4,0.2-0.7,0.2h0c0,0,0,0-0.1,0c-0.1,0-0.4,0-0.5-0.2l0,0c0,0,0,0-0.1,0c0,0-0.1,0-0.1,0l0,0
				c-0.1,0-0.5,0.4-0.7,0.5l0,0c0,0,0,0,0,0c0,0,0,0.1,0,0.1c0,0.1,0.5,0.6,0.6,1.1c0,0,0,0.1,0,0.3c0-0.1-0.1-0.2-0.1-0.3
				c0-0.1,0-0.1-0.1-0.2l0,0c-0.1-0.1-0.2-0.2-0.3-0.2c-0.1,0-0.2-0.1-0.3-0.1C9.9,9.4,9.8,9.3,9.7,9.1c0-0.3-0.2-0.5-0.2-0.5
				c0,0,0.2,0.1,0.2,0.4c0.2-0.2,0.3-0.6,0.4-0.9C10.3,7.9,10.8,7.9,11,8c0,0,0.1,0,0.2,0.1c0.1,0,0.1,0.1,0.1,0.1
				c0.1,0,0.2,0,0.2,0c0,0,0,0.1,0.1,0.1c0,0,0,0,0.1,0l0,0h0c0.3,0,0.6-0.2,0.6-0.2l0,0c0,0,0,0,0,0c-0.1-0.1-0.3-0.2-0.4-0.2
				c-0.2,0-0.3-0.2-0.4-0.2c0,0-0.2,0-0.2,0c-0.4,0-0.6-0.1-1-0.1C10,7.5,10,7.8,9.8,7.9c0,0.1-0.1,0.1-0.2,0.2
				C9.6,8.2,9.5,8.2,9.4,8.3c0,0,0,0,0,0c0-0.1-0.1-0.3-0.2-0.4c0,0,0,0,0,0c0,0,0,0,0,0C9,7.6,8.8,7.4,8.4,7.3
				c-0.1,0-0.1,0-0.1-0.1c-0.1-0.1,0-0.1,0-0.1C8.4,7,8.6,7,8.7,7C9,6.8,8.9,6.6,8.8,6.5c-0.2,0-0.4-0.1-0.5-0.1
				C8.2,6.3,8.2,6.2,8,6.2c-0.1,0-0.2,0-0.3,0c-0.1,0-0.1,0.1-0.2,0.1C7.7,6.1,7.8,6.1,8,6C7.8,6,7.9,5.8,7.7,5.7
				c-0.1,0-0.1,0-0.2,0.1c0-0.1,0-0.3-0.2-0.4c-0.1-0.1-0.1,0-0.1,0.1c0,0.1,0.2,0.1,0.2,0.4c0,0-0.1,0-0.1,0.1
				c0-0.1-0.1-0.3-0.2-0.3C7,5.6,7,5.6,7,5.7C7,5.8,7.1,5.8,7.2,6c0,0-0.1,0.1-0.1,0.1C6.9,6.1,6.8,5.9,6.8,5.9
				c-0.1,0-0.2,0-0.1,0.1C6.7,6.1,6.9,6.2,7,6.2c0,0,0,0-0.1,0.1c-0.2,0-0.3-0.2-0.4-0.2c-0.1,0-0.2,0-0.1,0.1
				c0.1,0.1,0.3,0.2,0.4,0.2c0,0.1-0.1,0.1,0,0.2c-0.2,0-0.5,0.1-0.5,0.3c0.1,0,0.3-0.1,0.5,0c0.1,0.2,0.4,0.2,0.4,0.3
				c0.1,0.1,0.1,0.2,0.1,0.3c0.1,0.2,0.2,0.3,0.3,0.5C7.7,8.1,7.9,8.2,8,8.4c0,0,0,0.1,0,0.2C7.9,8.8,7.4,9,7.3,9.2
				c-0.2,0.2-1.8,1.4-2,1.9c0,0.1-0.1,0.3-0.1,0.4c-0.1,0.1-0.3,0-0.3,0c-0.1-0.1,0.1-0.2,0.1-0.4c0-0.1-0.1-0.1-0.2-0.1
				c-0.1,0-0.1,0.3-0.1,0.4c0,0,0.1,0.1,0,0.1c-0.1,0-0.1,0-0.1-0.1c0,0-0.1,0.1,0,0.1c0,0.1,0.2,0.1,0.2,0.2c0,0.1-0.1,0.1-0.1,0
				c-0.1,0.1,0,0.2,0,0.2c0.1,0,0.2-0.1,0.3-0.1c0,0.1,0,0.1-0.1,0.1C5,12.3,5.1,11.9,5.3,12c0.1,0,0.6,0.5,0.5,0.9c0,0,0,0.1,0,0.1
				c-0.1,0.1-0.3,0.3-0.4,0.4c-0.3,0.2,0.3,1.2,0.2,1.8c0,0.2,0.2,0.2,0.3,0.5c-0.1,0-0.3,0-0.3,0.1c0,0,0,0,0,0l0,0
				c0,0,0,0.1,0,0.1c0,0.1,0.1,0.3,0.3,0.3c0.1,0,0.3-0.1,0.3-0.3c0,0,0,0,0,0c0.1,0,0.1,0,0.2,0L6.4,16c0,0-0.8,0.7-2.2,0.3
				c0,0-0.6-0.2-0.4-0.7c0,0,0-0.1,0.1-0.1c0,0.1,0.1,0.1,0.1,0.2c0.1,0,0.1,0.1,0.2,0.1c0.2,0,0.3-0.1,0.3-0.3c0-0.1,0-0.2-0.1-0.2
				c0,0,0,0,0,0c0,0,0,0,0,0c0,0,0,0,0,0c-0.1-0.1-0.2-0.1-0.4,0c0,0-0.6,0.2-0.4,0.8c0,0-0.4-0.1-0.6,0.1c0,0-0.1,0.1,0,0.2v0v0
				c0,0,0,0.1,0,0.1c0,0.1,0.1,0.1,0.2,0.1c0.1,0,0.1,0,0.2-0.1c0,0,0,0,0,0c0,0,0.1,0,0.1,0c0,0,0.6,0.6,1.4,0.5c0,0,0,0.4,0.3,0.5
				c0,0,0,0,0,0c0.1,0,0.1-0.1,0.1-0.1c0-0.1-0.1-0.1-0.1-0.1c0,0,0,0,0,0c0,0,0-0.1,0-0.2c0,0,0.9-0.1,1.5-0.6c0,0,0.4,0.1,0.7,0.1
				c0,0,0,0.1-0.1,0.1c0,0-0.2,0-0.2,0.1c0,0,0,0.1,0.2,0.1c0,0,0,0.1,0.1,0.2c0,0,0.1,0.1,0,0.1c0,0-0.2,0.1-0.1,0.2
				c0,0,0,0.1,0.3,0.1c0,0,0.1,0,0,0.1c0,0-0.1,0.1,0.1,0.2c0,0,0.2,0.1,0.3-0.1c0,0,0-0.1,0.1,0c0,0,0.5,0.2,0.8-0.2
				c0,0,0-0.1,0.1,0c0,0,0.3,0.3,1,0.4c0,0.1,0.1,0.1,0.2,0.1c0.1,0,0.3-0.1,0.3-0.2c0.1,0,0.4,0,0.8-0.3c0,0,0.1-0.1,0.3-0.1
				c0,0.2,0.2,0.4,0.4,0.4c0.2,0,0.4-0.2,0.4-0.4C12.3,17,12.2,16.8,12,16.8"/>
		</g>
		<g>
			<path class="st1" d="M15.6,11.6v0.9C15.8,12.2,15.7,11.8,15.6,11.6"/>
		</g>
		<g>
			<path class="st1" d="M17.4,6.7c0,0,0-0.1,0.1-0.1c0.1,0,0.3,0.1,0.3,0.2c0,0.1-0.1,0.4,0.3,0.4c0,0,0,0.1,0,0.1h0
				c0,0.1,0,0.1-0.1,0.2c0,0,0,0,0.1,0c0.5,0,0.8,0,0.9-0.2c0,0,0.1-0.1,0.1-0.2c0.1-0.3,0.1-0.5,0.1-0.7h0c0,0,0,0,0,0
				c0,0,0,0,0-0.1c-0.1-0.2-0.4-0.4-0.8-0.6c0,0,0,0-0.1,0c0,0,0,0,0,0c0,0,0,0,0,0l0,0h0c0,0,0.1,0,0.1,0c0.3,0,0.7,0.3,0.8,0.6
				c0.1-0.1,0.2-0.2,0.2-0.3c0,0,0-0.2,0.1-0.3c0,0,0-0.1,0-0.1c0,0-0.1,0-0.1,0c-0.1,0.1-0.2,0.1-0.2-0.1c0,0,0-0.1,0-0.1
				c0,0-0.1,0-0.1,0c-0.1,0.1-0.2,0.1-0.2-0.1c0,0,0-0.1,0-0.1c0,0-0.1,0-0.1,0c-0.1,0.1-0.2,0.1-0.2-0.1c0,0,0-0.1,0-0.1
				c0,0-0.1,0-0.1,0c0,0.1-0.1,0.2-0.1,0.2c0.3,0.1,0.6,0.2,0.8,0.4c0,0,0.1,0.1,0.1,0.1l0,0h0c0,0,0,0,0,0c0,0,0,0,0,0
				c0,0-0.1-0.1-0.1-0.1c-0.3-0.3-0.6-0.4-0.9-0.4c-0.2,0-0.1,0.2-0.1,0.3c-0.3-0.1-0.5,0.1-0.5,0.3c0,0.1,0,0.1,0.1,0.2
				c0,0,0,0,0,0c0,0-0.1,0-0.1-0.1c0,0,0-0.1,0-0.1c-0.2,0-0.4,0.1-0.4,0.3C17.2,6.5,17.4,6.7,17.4,6.7 M18.2,6.4
				c0.1-0.1,0.1,0.2,0.3,0.1C18.3,6.7,18.1,6.5,18.2,6.4 M18.2,6.2c0.1-0.1,0.2-0.2,0.3-0.1c0.1,0,0.1,0.1,0.2,0.1
				c0.1,0.1,0.1,0.1,0.2,0.2c0,0.1-0.1,0.3-0.2,0.1c-0.1-0.1-0.2-0.4-0.4-0.3c-0.1,0.1-0.2,0.2-0.3,0.1C18,6.3,18.1,6.3,18.2,6.2
				 M17.6,6.3c0,0.1-0.2,0.1-0.2,0.2C17.3,6.4,17.5,6.2,17.6,6.3"/>
		</g>
		<g>
			<path class="st1" d="M23.4,16c-0.2-0.2-0.6-0.1-0.6-0.1c0.2-0.6-0.4-0.8-0.4-0.8c-0.2-0.1-0.4,0-0.4,0c0,0,0,0,0,0c0,0,0,0,0,0
				c0,0,0,0,0,0c-0.1,0.1-0.1,0.1-0.1,0.2c0,0.2,0.1,0.3,0.3,0.3c0.1,0,0.1,0,0.2-0.1c0.1,0,0.1-0.1,0.1-0.2
				c0.1,0.1,0.1,0.1,0.1,0.1c0.2,0.5-0.4,0.7-0.4,0.7C20.8,16.7,20,16,20,16l0.2-0.1c0.1,0,0.2,0,0.2,0c0,0,0,0,0,0
				c0,0.1,0.1,0.3,0.3,0.3c0.1,0,0.3-0.1,0.3-0.3c0,0,0-0.1,0-0.1l0,0c0,0,0,0,0,0c-0.2-0.2-0.7-0.1-0.7-0.1c0.2-0.5,0-0.8,0-0.8
				c-0.1-0.2-0.1-0.2-0.1-0.2c0-0.2,0-0.2,0-0.2c-0.1-0.1-0.2-0.1-0.2-0.1c-0.2,0-0.3,0-0.3,0c-0.2-0.1-0.3,0-0.3,0
				c-0.1,0.1,0,0.2,0,0.2c-0.2,0-0.3,0.2-0.3,0.2c-0.1,0.4,0.3,0.4,0.3,0.4c0.2,0,0.2-0.2,0.2-0.2c0-0.2-0.2-0.2-0.2-0.2
				c0-0.1,0.1-0.1,0.1-0.1c0.3-0.1,0.4,0.3,0.4,0.3c0.2,0.4-0.1,0.7-0.1,0.7c0,0.1-0.1,0-0.1,0c-0.2-0.1-0.4-0.2-0.4-0.2
				c0,0,0,0,0,0h-0.1c-0.1,0-0.2,0-0.3,0.1c0.1,0.1,0.5,0.4,0.5,0.4C19.2,16.1,19,16,19,16c-0.1-0.1-0.1-0.4-0.1-0.5c0,0,0,0,0,0
				c-0.1,0.1-0.3,0.1-0.4,0.2c0.1,0.2,0.3,0.6,0.3,0.6c-0.3,0.1-0.4-0.3-0.4-0.5c-0.1,0-0.1,0-0.2,0.1c0,0.1,0,0.1,0,0.1
				c0,0.2,0.2,0.5,0.2,0.5c-0.2,0-0.4,0.1-0.4,0.1c-0.1,0.1-0.1,0.3-0.1,0.3c0,0.1,0.1,0.1,0.2,0.1c0.1,0,0.2-0.1,0.2-0.2
				c0-0.1-0.1-0.2-0.1-0.2c0.1-0.2,0.2,0,0.2,0c0.2,0.2-0.1,0.5-0.1,0.5c-0.3,0.2-0.5-0.2-0.5-0.2c0.3-0.5,0.3-0.9,0.3-1.1
				c-0.1,0-0.2,0.1-0.3,0.1c0.1,0.5-0.2,0.7-0.2,0.7c-0.1-0.1-0.1-0.3-0.1-0.3c0-0.1-0.1-0.2-0.1-0.3c-0.1,0-0.2,0-0.3,0.1
				c0.1,0.3,0.1,0.7,0.1,0.7c-0.1,0.1-0.2,0.1-0.2,0.1c-0.2,0-0.1-0.1-0.1-0.1c0.1-0.1,0.1-0.2,0.1-0.2c-0.1-0.2-0.3,0-0.3,0
				c-0.3,0.2-0.2,0.4-0.2,0.4c0,0.1,0.4,0.2,0.4,0.2c-0.2,0.1-0.5,0.1-0.6,0.1c0-0.1-0.1-0.2-0.2-0.2c0,0,0,0,0,0
				c-0.1,0-0.2,0-0.2,0.1c0,0,0,0,0,0.1l-0.2,0c-0.1,0-0.2-0.4-0.3-0.8c-0.1,0-0.1,0-0.2,0c0.1,0.4,0.1,0.7,0.1,0.7
				c-0.1,0-0.4-0.2-0.4-0.2c-0.4-0.2-0.6-0.2-0.6-0.1c-0.2,0-0.3,0.2-0.3,0.4c0,0.2,0.2,0.4,0.4,0.4c0.2,0,0.4-0.2,0.4-0.4
				c0.1,0.1,0.3,0.1,0.3,0.1c0.4,0.2,0.7,0.3,0.8,0.3c0,0.1,0.1,0.2,0.3,0.2c0.1,0,0.2-0.1,0.2-0.1c0.8,0,1-0.4,1-0.4
				c0.1-0.1,0.1,0,0.1,0c0.3,0.4,0.8,0.2,0.8,0.2c0.1-0.1,0.1,0,0.1,0c0.1,0.2,0.3,0.1,0.3,0.1c0.2-0.1,0.1-0.2,0.1-0.2
				c-0.1-0.1,0-0.1,0-0.1c0.3,0,0.3-0.1,0.3-0.1c0.1-0.1-0.1-0.2-0.1-0.2c0-0.1,0-0.1,0-0.1c0.1-0.1,0.1-0.2,0.1-0.2
				c0.2,0,0.2-0.1,0.2-0.1c0-0.1-0.2-0.1-0.2-0.1c-0.2,0-0.1-0.1-0.1-0.1c0.3,0,0.7-0.1,0.7-0.1c0.6,0.5,1.5,0.6,1.5,0.6
				c0,0.1,0,0.2,0,0.2c0,0,0,0,0,0c-0.1,0-0.1,0.1-0.1,0.1c0,0.1,0.1,0.1,0.1,0.1c0,0,0,0,0,0c0.3-0.1,0.3-0.5,0.3-0.5
				c0.8,0.1,1.4-0.5,1.4-0.5c0.1-0.1,0.1,0,0.1,0c0,0,0,0,0,0c0,0.1,0.1,0.1,0.2,0.1c0.1,0,0.2,0,0.2-0.1c0,0,0-0.1,0-0.1v0v0
				C23.5,16,23.4,16,23.4,16"/>
		</g>
		<g>
			<path class="st1" d="M13.6,17c0.1,0,0.1-0.1,0.1-0.1c0-0.2-0.1-0.3-0.2-0.3c-0.1,0-0.2,0-0.3,0h0c-0.1,0-0.2,0-0.3,0
				c0,0-0.2,0.1-0.2,0.3c0,0,0,0.1,0.1,0.1c0,0-0.2,0.1-0.2,0.2c0,0,0,0.1,0.2,0.3c0,0,0.1,0.1,0.2,0.3c0,0,0,0.2,0.2,0.2
				c0.2,0,0.2-0.2,0.2-0.2c0-0.1,0.2-0.3,0.2-0.3c0.2-0.1,0.2-0.3,0.2-0.3C13.8,17.1,13.6,17,13.6,17"/>
		</g>
		<g>
			<polygon class="st1" points="15.1,16.1 15.2,16.1 15.1,16 			"/>
		</g>
		<g>
			<polygon class="st1" points="11.5,16.1 11.6,16.1 11.5,16 			"/>
		</g>
		<g>
			<path class="st1" d="M11.1,15.8C11,15.8,11,15.8,11.1,15.8l0,0.2c0,0,0.1,0,0.1,0c0,0,0,0,0,0C11.1,16,11.1,15.9,11.1,15.8
				C11.1,15.9,11.1,15.9,11.1,15.8C11.1,15.8,11.1,15.8,11.1,15.8"/>
		</g>
		<g>
			<path class="st1" d="M12.6,16C12.6,16,12.5,16,12.6,16c-0.1,0.1-0.1,0.1-0.1,0.2c0,0.1,0,0.1,0,0.1c0,0,0,0,0.1,0
				c0,0,0.1,0,0.1,0c0,0,0-0.1,0-0.1C12.7,16.1,12.7,16,12.6,16C12.7,16,12.7,16,12.6,16"/>
		</g>
		<g>
			<path class="st1" d="M14,16C13.9,16,13.9,16,14,16c-0.1,0.1-0.1,0.1-0.1,0.2c0,0.1,0,0.1,0,0.1c0,0,0,0,0.1,0c0,0,0.1,0,0.1,0
				c0,0,0-0.1,0-0.1C14.1,16.1,14.1,16,14,16C14,16,14,16,14,16"/>
		</g>
		<g>
			<polygon class="st1" points="10.3,16 10.4,16 10.3,15.8 			"/>
		</g>
		<g>
			<path class="st1" d="M8.2,15.1l-0.1,0.2l0,0c0,0,0.1,0,0.1,0c0,0,0,0,0,0C8.3,15.2,8.3,15.2,8.2,15.1C8.3,15.2,8.3,15.2,8.2,15.1
				C8.2,15.2,8.2,15.1,8.2,15.1"/>
		</g>
		<g>
			<path class="st1" d="M8.7,15.3C8.7,15.3,8.6,15.3,8.7,15.3c-0.1,0-0.1,0.1-0.2,0.1c0,0.1,0,0.1,0,0.1c0,0,0,0.1,0.1,0.1
				c0,0,0.1,0,0.1,0c0,0,0.1-0.1,0.1-0.1C8.8,15.5,8.8,15.4,8.7,15.3C8.8,15.3,8.8,15.3,8.7,15.3"/>
		</g>
		<g>
			<path class="st1" d="M9.2,15.5C9.2,15.5,9.2,15.5,9.2,15.5l-0.1,0.2c0,0,0.1,0,0.1,0c0,0,0,0,0,0c0,0,0,0,0,0
				C9.3,15.5,9.3,15.5,9.2,15.5C9.3,15.5,9.3,15.5,9.2,15.5"/>
		</g>
		<g>
			<path class="st1" d="M17.3,15.5C17.3,15.5,17.3,15.5,17.3,15.5C17.2,15.5,17.2,15.5,17.3,15.5l-0.1,0.2c0,0,0.1,0,0.1,0
				c0,0,0,0,0,0C17.4,15.6,17.4,15.5,17.3,15.5C17.4,15.5,17.3,15.5,17.3,15.5"/>
		</g>
		<g>
			<polygon class="st1" points="18.2,15.4 18.3,15.4 18.2,15.3 			"/>
		</g>
		<g>
			<path class="st1" d="M18.6,14.9c0,0-0.1,0-0.2,0c-0.1,0-0.1,0-0.1,0c-0.2,0.1-2.1,0.9-5.2,0.9c-3.1,0-5-0.8-5.2-0.9
				c0,0,0,0-0.1,0c-0.1,0-0.1,0-0.2,0l-0.6,0.5h0c0.2,0,0.4,0.1,0.4,0.1c1.7,0.7,3.5,1,5.7,1c2.1,0,4-0.3,5.7-1c0,0,0.2-0.1,0.4-0.1
				h0L18.6,14.9z M12.6,15.8l0.1,0l-0.2,0.1h0L12.6,15.8z M8.4,15.3C8.4,15.3,8.4,15.3,8.4,15.3c-0.1,0.1-0.1,0.1-0.1,0.1
				c0,0-0.1,0-0.1,0l0,0l0,0.1c0,0,0,0,0,0c0,0,0,0,0,0l0,0l0,0l-0.2-0.1l0,0l0,0c0,0,0,0,0,0c0,0,0,0,0,0l0.1-0.2c0,0,0,0,0,0
				c0,0,0,0,0,0l0,0l0,0l0.2,0.1c0,0,0.1,0,0.1,0c0,0,0,0,0.1,0C8.4,15.2,8.4,15.2,8.4,15.3C8.4,15.3,8.4,15.3,8.4,15.3 M8.9,15.6
				c0,0.1-0.1,0.1-0.1,0.1c-0.1,0-0.1,0-0.2,0c0,0-0.1,0-0.1-0.1c0,0-0.1-0.1-0.1-0.1c0,0,0-0.1,0-0.1c0,0,0-0.1,0.1-0.1
				c0,0,0.1,0,0.1-0.1c0,0,0.1,0,0.1,0c0.1,0,0.1,0.1,0.2,0.1C8.9,15.4,8.9,15.5,8.9,15.6 M9.3,15.8C9.4,15.8,9.4,15.9,9.3,15.8
				c0,0.1,0.1,0.1,0.1,0.1l0,0l-0.1,0c0,0,0-0.1,0-0.1c0,0,0-0.1,0-0.1c0,0,0,0,0,0c0,0,0,0,0,0l0,0.1c0,0,0,0,0,0c0,0,0,0,0,0l0,0
				l0,0l-0.2-0.1l0,0l0,0c0,0,0,0,0,0c0,0,0,0,0,0l0.1-0.3c0,0,0,0,0,0c0,0,0,0,0,0l0,0l0,0l0.2,0l0,0c0,0,0.1,0,0.1,0c0,0,0,0,0,0
				c0,0,0,0,0,0.1c0,0,0,0,0,0.1c0,0.1-0.1,0.1-0.1,0.1C9.3,15.7,9.3,15.7,9.3,15.8 M10.1,16.1L9.7,16l0,0h0c0,0,0,0,0,0
				c0,0,0,0,0,0l0.1-0.3c0,0,0,0,0,0c0,0,0,0,0,0l0,0l0,0l0.2,0l0,0l0,0c0,0,0,0,0,0c0,0,0,0,0,0l-0.1,0.2c0,0,0,0,0,0c0,0,0,0,0,0
				c0,0,0,0,0,0C10,16,10,16,10.1,16.1c0-0.1,0-0.1,0-0.2l0,0L10.1,16.1z M10.6,16.2l-0.2,0l0,0c0,0,0,0,0,0c0,0,0,0,0,0
				c0,0,0,0,0,0l0,0l0,0l-0.1,0l0,0c0,0,0,0,0,0c0,0,0,0,0,0c0,0,0,0,0,0l0,0l-0.1,0l0,0c0,0,0.1,0,0.1-0.1l0.2-0.3l0,0l0.1,0.4
				C10.5,16.1,10.5,16.1,10.6,16.2C10.5,16.1,10.5,16.1,10.6,16.2L10.6,16.2z M11.3,16.3l-0.1,0c0,0,0-0.1-0.1-0.1c0,0,0-0.1,0-0.1
				c0,0,0,0,0,0c0,0,0,0,0,0l0,0.1c0,0,0,0,0,0c0,0,0,0,0,0h0l0,0l-0.2,0l0,0l0,0c0,0,0,0,0,0c0,0,0,0,0,0l0-0.3c0,0,0,0,0,0
				c0,0,0,0,0,0l0,0l0,0l0.2,0l0,0c0,0,0.1,0,0.1,0c0,0,0,0,0.1,0c0,0,0,0,0,0c0,0,0,0,0,0.1c0,0,0,0.1-0.1,0.1c0,0,0,0,0.1,0.1
				C11.2,16.2,11.3,16.2,11.3,16.3C11.3,16.2,11.3,16.2,11.3,16.3L11.3,16.3z M11.8,16.3l-0.2,0l0,0c0,0,0,0,0,0c0,0,0,0,0,0
				c0,0,0,0,0,0l0,0l0,0l-0.1,0l0,0c0,0,0,0,0,0c0,0,0,0,0,0c0,0,0,0,0,0l0,0l-0.1,0l0,0c0,0,0.1,0,0.1-0.1l0.2-0.3l0,0l0.1,0.4
				C11.7,16.2,11.7,16.3,11.8,16.3C11.8,16.3,11.8,16.3,11.8,16.3L11.8,16.3z M12.3,15.9L12,16.3l0.1,0c0,0,0,0,0.1,0c0,0,0,0,0,0
				c0,0,0,0,0-0.1l0,0l0,0.1l-0.4,0l0,0l0.3-0.4l-0.1,0c0,0-0.1,0-0.1,0c0,0,0,0,0,0.1l0,0l0-0.1L12.3,15.9L12.3,15.9z M12.8,16.3
				c0,0-0.1,0.1-0.2,0.1c-0.1,0-0.1,0-0.1,0c0,0-0.1-0.1-0.1-0.1c0,0,0-0.1,0-0.1c0,0,0-0.1,0-0.1c0,0,0.1-0.1,0.1-0.1
				c0,0,0.1,0,0.1,0c0.1,0,0.1,0,0.2,0.1c0,0,0.1,0.1,0.1,0.2C12.9,16.2,12.8,16.3,12.8,16.3 M13.4,16C13.4,16,13.4,16,13.4,16
				C13.4,16,13.4,16,13.4,16C13.4,16,13.4,16,13.4,16l-0.1,0.4h0L13,16.1v0.2c0,0,0,0.1,0,0.1c0,0,0,0,0,0v0h-0.2v0c0,0,0,0,0,0
				c0,0,0,0,0,0c0,0,0,0,0,0l0-0.2c0,0,0-0.1-0.1-0.1v0l0.1,0l0.2,0.3L13.4,16c-0.1,0-0.1,0-0.2,0v0L13.4,16L13.4,16z M14.2,16.3
				c0,0-0.1,0.1-0.2,0.1c-0.1,0-0.1,0-0.1,0c0,0-0.1,0-0.1-0.1c0,0,0-0.1,0-0.1c0,0,0-0.1,0-0.1c0,0,0-0.1,0.1-0.1c0,0,0.1,0,0.1,0
				c0.1,0,0.1,0,0.2,0.1c0,0,0.1,0.1,0.1,0.2C14.2,16.2,14.2,16.3,14.2,16.3 M14.5,16.3L14.5,16.3L14.5,16.3
				C14.6,16.3,14.6,16.3,14.5,16.3C14.6,16.3,14.6,16.3,14.5,16.3l0-0.4c0,0,0,0,0,0c0,0,0,0,0,0l0,0l0,0l0.2,0l0,0l0,0c0,0,0,0,0,0
				c0,0,0,0,0,0l0,0.3c0,0,0,0,0,0c0,0,0,0,0,0c0,0,0,0,0,0c0,0,0.1,0,0.1,0c0,0,0,0,0-0.1l0,0l0,0.1L14.5,16.3z M15.2,16.3
				L15.2,16.3C15.2,16.2,15.2,16.2,15.2,16.3C15.3,16.2,15.3,16.2,15.2,16.3C15.3,16.2,15.3,16.2,15.2,16.3L15.2,16.3l0-0.1l-0.1,0
				l0,0c0,0,0,0,0,0c0,0,0,0,0,0C15.1,16.2,15.1,16.2,15.2,16.3L15.2,16.3l-0.2,0l0,0c0,0,0,0,0.1-0.1l0.1-0.4l0,0l0.2,0.3
				c0,0,0,0.1,0,0.1c0,0,0,0,0,0l0,0L15.2,16.3z M16,15.8C16,15.8,16,15.8,16,15.8C15.9,15.8,15.9,15.8,16,15.8
				c-0.1-0.1-0.1-0.1-0.1-0.1l-0.1,0l0,0.2l0,0C15.9,15.9,15.9,15.9,16,15.8C15.9,15.9,15.9,15.9,16,15.8L16,15.8l0,0.2l0,0
				c0,0,0,0,0,0c0,0,0,0,0,0l0,0l0,0.1c0,0,0,0,0,0c0,0,0,0,0,0l0,0l0,0l-0.2,0l0,0l0,0c0,0,0,0,0,0c0,0,0,0,0,0l0-0.3c0,0,0,0,0,0
				c0,0,0,0,0,0l0,0l0,0l0.4-0.1L16,15.8L16,15.8z M16.5,15.7l0,0.1c0,0,0,0.1,0,0.1c0,0,0,0,0,0.1c0,0,0,0-0.1,0.1c0,0-0.1,0-0.1,0
				c0,0-0.1,0-0.1,0c0,0-0.1,0-0.1,0c0,0,0,0,0,0c0,0,0,0,0-0.1l0-0.2c0,0,0,0,0,0c0,0,0,0,0,0l0,0l0.2,0l0,0l0,0c0,0,0,0,0,0
				c0,0,0,0,0,0l0,0.2c0,0,0,0.1,0,0.1c0,0,0,0,0,0c0,0,0,0,0.1,0c0,0,0,0,0.1,0c0,0,0,0,0-0.1c0,0,0,0,0-0.1L16.5,15.7
				c0,0-0.1-0.1-0.1,0l0,0l0.2,0L16.5,15.7C16.5,15.6,16.5,15.7,16.5,15.7C16.5,15.7,16.5,15.7,16.5,15.7
				C16.5,15.7,16.5,15.7,16.5,15.7 M16.7,16L16.7,16L16.7,16C16.7,16,16.7,16,16.7,16c0-0.1,0-0.1,0-0.1l-0.1-0.3c0,0,0,0,0,0
				c0,0,0,0,0,0l0,0l0,0l0.4-0.1l0,0.1l0,0c0,0,0,0,0,0c0,0,0,0,0,0c0,0,0,0,0,0l-0.1,0l0,0.1l0,0c0,0,0,0,0,0c0,0,0,0,0,0l0,0
				l0,0.1l0,0c0,0,0,0,0,0c0,0,0,0,0,0c0,0,0,0,0,0l0,0l0,0.1c0,0,0,0,0,0c0,0,0,0,0,0c0,0,0,0,0,0c0,0,0,0,0.1,0c0,0,0,0,0,0
				c0,0,0,0,0-0.1l0,0l0,0.1L16.7,16z M17.5,15.8C17.5,15.8,17.5,15.8,17.5,15.8c-0.1-0.1-0.1-0.1-0.1-0.1c0,0,0,0,0,0c0,0,0,0,0,0
				l0,0.1c0,0,0,0,0,0c0,0,0,0,0,0l0,0l0,0l-0.2,0.1l0,0l0,0c0,0,0,0,0,0c0,0,0,0,0,0l-0.1-0.3c0,0,0,0,0,0c0,0,0,0,0,0l0,0l0,0
				l0.2,0l0,0c0,0,0.1,0,0.1,0c0,0,0,0,0.1,0c0,0,0,0,0.1,0c0,0,0,0,0,0c0,0.1,0,0.1-0.1,0.1c0,0,0.1,0,0.1,0.1
				C17.6,15.7,17.6,15.7,17.5,15.8c0.1-0.1,0.1-0.1,0.1-0.1l0,0L17.5,15.8z M17.7,15.8L17.7,15.8l0.1-0.5l-0.1,0c0,0-0.1,0-0.1,0
				c0,0,0,0,0,0.1l0,0l0-0.1l0.4-0.1l0,0l-0.1,0.4l0.1,0c0,0,0,0,0.1,0c0,0,0,0,0,0c0,0,0,0,0-0.1l0,0l0,0.1L17.7,15.8z M18.4,15.5
				L18.4,15.5C18.4,15.5,18.4,15.5,18.4,15.5C18.4,15.5,18.4,15.5,18.4,15.5C18.4,15.5,18.4,15.5,18.4,15.5L18.4,15.5l0-0.1l-0.1,0
				l0,0c0,0,0,0,0,0c0,0,0,0,0,0C18.3,15.5,18.3,15.5,18.4,15.5L18.4,15.5l-0.2,0.1l0,0c0,0,0,0,0-0.1l0-0.4l0,0l0.3,0.3
				c0,0,0,0,0.1,0c0,0,0,0,0,0l0,0L18.4,15.5z"/>
		</g>
		<g>
			<path class="st1" d="M11.2,8.7c-0.1-0.1-0.2-0.1-0.2-0.1c-0.1,0-0.1,0.1-0.2,0.1H11.2z"/>
		</g>
		<g>
			<path class="st1" d="M12.4,8.6c0,0-0.1,0.1-0.2,0.1c0,0,0,0,0,0h2c0,0,0,0,0,0c-0.1,0-0.2-0.1-0.2-0.1c0,0,0,0,0,0
				c-0.1,0-0.2-0.1-0.3-0.1h-1C12.6,8.5,12.5,8.6,12.4,8.6C12.4,8.6,12.4,8.6,12.4,8.6"/>
		</g>
		<g>
			<path class="st1" d="M15.4,8.6C15.4,8.6,15.4,8.6,15.4,8.6c0,0-0.1,0.1-0.2,0.1h0.4C15.5,8.7,15.4,8.6,15.4,8.6
				C15.4,8.6,15.4,8.6,15.4,8.6"/>
		</g>
		<g>
			<path class="st1" d="M10.7,12.5v-1C10.6,11.7,10.5,12.1,10.7,12.5"/>
		</g>
		<g>
			<polygon class="st1" points="13.1,10.8 11.2,10.2 12.7,10.2 			"/>
		</g>
		<g>
			<path class="st1" d="M13.1,8.8h-2.5c0,0,0,0,0,0c0,0,0,0.1,0,0.1c0,0,0.1,0.1,0.1,0.1h2.4L13.1,8.8z"/>
		</g>
		<g>
			<path class="st1" d="M13,9.2h-2.2c0,0.1,0.1,0.1,0.1,0.2H13L13,9.2z"/>
		</g>
		<g>
			<path class="st1" d="M12.9,9.5h-2C11,9.6,11,9.7,11,9.7h1.8L12.9,9.5z"/>
		</g>
		<g>
			<path class="st1" d="M12.8,9.9h-1.7c0,0.1,0,0.1,0,0.2h1.7L12.8,9.9z"/>
		</g>
		<g>
			<path class="st1" d="M11.7,10.5h-0.6c0,0.1,0,0.1,0,0.2H12L11.7,10.5z"/>
		</g>
		<g>
			<path class="st1" d="M11.5,10.4l-0.3-0.2h-0.1v0c0,0,0,0.1,0,0.2H11.5z"/>
		</g>
		<g>
			<path class="st1" d="M13.1,8.8L13.1,8.8L13.1,8.8l0,0.2v0.1v0.2v0.1v0.2v0.1v0.2v0.7l1.9-0.6h-1.5l0-0.1h1.7c0-0.1,0-0.1,0-0.2
				h-1.8l0-0.1h1.9c0-0.1,0-0.1,0.1-0.2h-2l0-0.1h2.1c0-0.1,0.1-0.1,0.1-0.2h-2.3l0-0.1h2.4c0.1-0.1,0.1-0.2,0.1-0.2c0,0,0,0,0,0
				H13.1z"/>
		</g>
		<g>
			<path class="st1" d="M13.6,11.9v1.5c0.1,0,0.1-0.1,0.2-0.1v-1.3L13.6,11.9z"/>
		</g>
		<g>
			<path class="st1" d="M13.2,11.6v2.2c0-0.1,0.1-0.1,0.1-0.1l0,0c0-0.1,0.1-0.1,0.1-0.2v-1.8L13.2,11.6z"/>
		</g>
		<g>
			<path class="st1" d="M12.9,11.7v1.8c0.1,0.1,0.1,0.1,0.2,0.2l0,0c0,0,0,0,0,0v-2.2L12.9,11.7z"/>
		</g>
		<g>
			<path class="st1" d="M12.6,12v1.3c0.1,0,0.1,0.1,0.2,0.1v-1.6L12.6,12z"/>
		</g>
		<g>
			<path class="st1" d="M13.9,13.3c0.1,0,0.1,0,0.2,0v-0.9l-0.2-0.2V13.3z"/>
		</g>
		<g>
			<path class="st1" d="M12.2,13.2c0.1,0,0.1,0,0.2,0v-1.2l-0.2,0.2V13.2z"/>
		</g>
		<g>
			<path class="st1" d="M13.1,10.8l-0.7,0.3l-0.3-0.2H11c0,0.1,0,0.1-0.1,0.2h0h0c0,0.1,0,0.1-0.1,0.2v1.5c0,0.1,0.1,0.1,0.2,0.2
				v-1.9h0.1V13c0.1,0,0.1,0.1,0.2,0.1v-2h0.1v2.1c0.1,0,0.1,0,0.2,0v-2.1h0.1v2.1c0,0,0.1,0,0.1,0c0,0,0.1,0,0.1,0v-0.9L12,12.4
				L13.1,10.8z M12.1,11.1h0.1v0.6l-0.1,0.4V11.1z"/>
		</g>
		<g>
			<path class="st1" d="M15.3,11.1L15.3,11.1c0-0.1-0.1-0.1-0.1-0.2h-1.2l-0.3,0.2l-0.5-0.2l-0.2-0.1l1.1,1.6v0.8c0.1,0,0.1,0,0.2,0
				c0,0,0,0,0,0v-2.1h0.1v2.1c0.1,0,0.1,0,0.2,0v-2.1H15v2c0.1,0,0.1-0.1,0.2-0.1v-2H15.3l0,1.9c0.1-0.1,0.1-0.1,0.2-0.2
				c0,0,0,0,0,0v-1.4C15.4,11.3,15.4,11.2,15.3,11.1 M14.3,12.4L14.1,12v-0.9h0.1V12.4z"/>
		</g>
		<g>
			<path class="st1" d="M14.3,10.7h0.9c0-0.1,0-0.1,0-0.2h-0.6L14.3,10.7z"/>
		</g>
		<g>
			<path class="st1" d="M15,10.2l-0.3,0.2h0.4c0-0.1,0-0.1,0-0.1c0,0,0,0,0-0.1H15z"/>
		</g>
		<g>
			<path class="st1" d="M16.2,6.2c0.1,0,0.1,0,0.2,0c0.6-0.2,0.7-1,0.6-1c0,0,0,0,0,0c0,0,0,0.1-0.1,0.1c0,0.1-0.1,0.1-0.1,0.1
				c0,0,0,0,0,0c0.1-0.2,0.1-0.4,0.1-0.7c0-0.1-0.1-0.3-0.2-0.3c-0.3-0.2-1-0.3-1.3,0c-0.1-0.1-0.3-0.2-0.5-0.3
				c0,0.2-0.3,0.5-0.5,0.6c0,0-0.1,0.1-0.2,0.1c0,0,0,0,0,0c0.3-0.2,0.5-0.5,0.5-0.8v0c0-0.2-0.1-0.5-0.2-0.7
				c-0.3-0.3-1.1-0.4-1.5-0.1c-0.1,0.1-0.2,0.2-0.2,0.4c0-0.1,0.1-0.2,0.3-0.3c0.2-0.1,0.5,0,0.5,0.2c-0.3-0.3-0.8-0.1-0.9,0.4v0
				c0,0,0,0,0,0h0c0,0,0,0,0-0.2c0-0.1,0-0.3,0.1-0.5c-0.6-0.1-1.4,0.2-1.4,1.2c0,0.1,0.1,0.3,0.2,0.4c0,0,0,0,0,0
				c0,0-0.1,0-0.1-0.1c-0.1-0.1-0.1-0.2-0.1-0.3c-0.4-0.1-0.7-0.1-0.9-0.1c-0.2,0-0.5,0.2-0.7,0.4c0,0.1-0.1,0.2-0.1,0.2
				C9.4,5.1,9.4,5.3,9.4,5.5c0,0.4,0.2,0.7,0.5,0.8c0.4,0.2,0.8,0.2,1,0.2c0.1,0,0.2-0.1,0.3-0.1c0,0,0,0,0,0c0,0,0,0,0,0
				c0.1-0.1,0.2-0.3,0.2-0.6c0,0,0,0,0,0c0,0,0,0.1,0,0.2c0,0.1,0,0.2-0.1,0.3c0,0,0,0,0,0c0,0,0,0.1,0,0.1c0.1,0.1,0.2,0.1,0.4,0
				c0,0,0,0,0,0c0,0-0.1,0.1-0.3,0.1c0,0-0.1,0-0.1,0c0.1,0.2,0.4,0.3,0.6,0.3c0,0,0,0,0,0c0,0-0.1,0-0.2,0c-0.1,0-0.3,0-0.4-0.1
				C11.7,6.9,12,7,12.4,7.1c0,0-0.3,0-0.4,0c0.2,0.7,0.5,0.6,0.6,0.7c-0.1,0-0.2,0.2-0.1,0.3c0.4-0.1,0.7-0.2,0.8-0.2
				c0.1,0,0.4,0,0.8,0.2c0-0.1,0-0.1,0-0.2c-0.1-0.2-0.6-0.3-1.1-0.2c0,0,0,0-0.1,0c0,0,0,0,0,0c0,0,0,0,0,0l0,0l0,0
				c0,0,0.1,0,0.1,0c0.2-0.1,0.7-0.2,0.9,0c0,0,0,0,0,0c0.2,0.1,0.4-0.2,0.3-0.3c0.2,0,0.3-0.1,0.3-0.2c0,0-0.1,0-0.1,0l0,0
				c-0.1,0-0.1,0-0.1,0c0,0,0,0,0,0l0,0c0,0,0,0,0,0c0,0,0,0,0,0c0,0,0,0,0.1,0c0.3-0.2,0.4-0.5,0.4-0.6c0,0.1-0.1,0.1-0.2,0.1
				c0,0-0.1,0-0.1,0c0,0,0,0,0,0c0,0,0.1,0,0.1,0c0.1-0.1,0.2-0.2,0.2-0.3c-0.2-0.2-0.2-0.4-0.4-0.6c0-0.1-0.1-0.2-0.3-0.2
				c0,0,0,0-0.1,0c0,0,0,0,0,0c0,0,0,0,0,0c0.1-0.1,0.3,0,0.4,0.1c0-0.3,0.1-0.3,0.1-0.3c0,0,0,0,0,0c-0.2,0.5,0.2,1,0.4,1.2
				c0.4,0.2,1,0.2,1.5-0.1c-0.1,0-0.2,0-0.2,0C16.2,6.2,16.1,6.2,16.2,6.2C16.1,6.2,16.2,6.2,16.2,6.2 M10.2,6.1
				c0.2-0.1,0.4-0.2,0.4-0.4c0-0.1-0.1-0.1-0.2-0.1c-0.1,0-0.2,0.1-0.3,0.2c0-0.2,0.1-0.3,0.4-0.3c0.1,0,0.3,0.1,0.3,0.2
				C10.8,6,10.5,6.2,10.2,6.1 M11,5.9c0.1-0.3,0.2-0.7-0.3-0.8C10.4,5,10.1,5.3,10,5.4c0.1-0.3,0.4-0.5,0.9-0.4
				c-0.1-0.3-0.4-0.4-0.8-0.2C9.9,4.9,9.9,4.9,9.8,5c0.1-0.2,0.2-0.3,0.4-0.4c0.3-0.1,0.6,0,0.7,0.2C11.4,5.2,11.2,5.9,11,5.9
				 M13.2,7.3C13,7.3,13,7.2,13,7c0.1,0.1,0.2,0.2,0.2,0c-0.1-0.1-0.5-0.2-0.4-0.4c0.1-0.1,0.3,0.3,0.4,0.2c0-0.3-0.8-0.4-0.8-0.6
				c0-0.1,0.7,0.3,0.8,0.3c0-0.1-1-0.6-1.3-1.1c0,0,0-0.1,0-0.1c0,0,0,0,0,0c0.2,0.3,0.7,0.7,1.3,0.9C13.3,6.3,13.4,7,13.2,7.3
				 M13.4,7.5c-0.1,0,0-0.1,0-0.2c0-0.3,0-0.6-0.1-0.8c0-0.1-0.1-0.5-0.4-1c0.1,0.1,0.5,0.7,0.5,1.2C13.5,6.9,13.6,7.3,13.4,7.5
				 M13.8,5.7c0.2,0.1-0.1,0.5-0.1,0.5c0,0,0.2-0.2,0.3-0.1c0.1,0.1-0.2,0.5-0.3,0.5C13.2,6.1,13.7,5.9,13.8,5.7 M13.7,7.3
				c-0.1,0-0.1-0.1,0-0.2c0-0.1,0.2-0.2,0.3-0.3C13.9,6.9,13.9,7.1,13.7,7.3 M13.7,6.9c-0.1-0.1,0.1-0.3,0.2-0.5
				C14.1,6.4,13.8,6.9,13.7,6.9 M13.9,3.2c0,0,0.4,0.1,0.4,0.4c0,0.2-0.1,0.3-0.1,0.3c0,0,0,0,0,0c0.1-0.1,0-0.4-0.1-0.5
				C14.1,3.3,13.9,3.3,13.9,3.2 M16.1,5.4C16.1,5.4,16.1,5.4,16.1,5.4C16.1,5.4,16.1,5.4,16.1,5.4c0,0,0-0.1,0-0.1
				c0-0.1,0-0.2,0-0.2c-0.1-0.4-0.4-0.6-0.7-0.3c0,0,0.3-0.5,0.9-0.3c0.1,0,0.3,0.2,0.3,0.4c0.1,0.2,0,0.3,0,0.4c0,0,0,0,0,0
				c0,0,0,0,0,0c0-0.1,0-0.3-0.1-0.4c0-0.1-0.1-0.2-0.2-0.2c0.1,0.1,0.1,0.2,0.1,0.2c0,0.1,0,0.1,0,0.2c0,0.2-0.1,0.4-0.2,0.5
				c0,0,0,0,0,0c0,0,0,0,0,0c0.1-0.2,0.1-0.4,0-0.6c0,0,0,0,0-0.1c-0.1-0.1-0.2-0.3-0.4-0.3c0.1,0.1,0.2,0.2,0.2,0.3
				C16.2,5,16.2,5.2,16.1,5.4"/>
		</g>
		<g>
			<path class="st1" d="M21.9,10.6c-0.1-1-0.1-1.9-0.4-2.7c-0.1-0.5-0.4-1.5-1.1-1.7c-0.3-0.1-0.6,0.2-0.5,0.5C19.9,6.9,20,7,20,7.3
				c-0.1,0.1-0.2,0.3-0.2,0.5c0,0.2,0.1,0.2,0.1,0.4c-0.2,0-0.3,0.1-0.6,0.1c-0.3,0.1-0.5,0.1-0.6,0.1c0,0,0,0,0,0
				c0.3,0,0.6-0.1,0.6-0.2c0.1-0.2,0-0.5-0.1-0.6c-0.2,0-0.3,0.2-0.8,0.1c-0.5,0-0.6,0.1-0.7,0.4c0,0,0-0.1,0-0.1
				c0-0.2,0.2-0.3,0.4-0.3c0-0.1,0-0.1,0-0.2c-0.1,0-0.1,0-0.2,0c-0.2,0-0.6,0.2-0.6,0.4c0,0,0,0.1,0,0.1c0,0,0,0.1,0,0.1
				c0,0,0,0,0,0.1c0.1,0.2,0.3,0.3,0.7,0.3c0,0,0,0,0,0c0,0-0.1,0-0.2,0c0,0-0.4,0-0.5-0.2c0,0,0,0,0,0c-0.1,0.1-0.3,0.2-0.4,0.2
				c-0.2,0-0.4-0.1-0.4-0.2c-0.2-0.3,0.1-0.9,0.1-1.1c0-0.5-0.8-0.3-1-0.2c-0.3,0.2-0.6,0.4-0.8,0.7c-0.1,0.1-0.2,0.3-0.3,0.5
				c0.1,0,0.4,0.2,0.6,0.2l0,0c0,0,0,0,0.1,0c0.1,0,0.3,0,0.5-0.2c0,0,0.1-0.1,0.2-0.1c0.1,0,0.1,0,0.2,0.1c0,0,0.5,0.4,0.7,0.5
				c0,0,0.1,0.1,0.1,0.1c0,0,0,0.1-0.1,0.2c0,0-0.3,0.3-0.4,0.7c0,0.1,0,0.1-0.1,0.2c-0.1,0.2-0.1,0.5,0.2,0.6c0,0,0.3,0.1,0.3-0.4
				c0,0,0.1,0.3,0.3,0.3c0.1,0,0.2-0.1,0.2-0.3l0,0c0-0.2,0-0.5,0-0.7c0,0,0,0,0,0c0,0,0,0,0,0.1c0,0.1-0.1,1.3,0.9,2.1
				c0,0-0.4-0.2-0.7-0.7c-0.2,0.1-0.4,0.3-0.3,0.7c0.1,0.2,0.2,0.3,0.2,0.3c0,0,0,0,0,0c0,0-0.1,0.1-0.1,0h0c0,0,0,0,0,0
				c0-0.1-0.1-0.1-0.1-0.1c-0.1-0.1-0.2-0.2-0.3-0.3l0,0c-0.1-0.2,0-0.6-0.5-0.6c0,0,0,0,0,0h0c0,0,0,0-0.1,0c0,0,0,0,0,0
				c-0.1-0.4-0.1-0.7-0.1-0.7c0.1-0.6,0.5-1.1,0.6-1.1c0,0,0,0,0-0.1c0,0,0,0,0,0l0,0c-0.2-0.1-0.6-0.5-0.7-0.5l0,0c0,0-0.1,0-0.1,0
				c-0.1,0-0.1,0-0.1,0c-0.2,0.2-0.4,0.2-0.6,0.2c0,0-0.1,0-0.1,0h0c-0.3,0-0.6-0.2-0.7-0.2C13.6,8,13.3,8,13.2,8
				c-0.1,0-0.4,0-0.9,0.2c-0.1,0-0.4,0.2-0.7,0.2h0c0,0,0,0-0.1,0c-0.1,0-0.4,0-0.6-0.2l0,0c0,0,0,0-0.1,0c0,0-0.1,0-0.1,0l0,0
				c-0.1,0-0.5,0.4-0.7,0.5l0,0c0,0,0,0,0,0c0,0,0,0.1,0,0.1c0,0.1,0.5,0.6,0.6,1.1c0,0,0,0.1,0,0.3c0-0.1-0.1-0.2-0.1-0.3
				c0-0.1,0-0.1-0.1-0.2c-0.1-0.1-0.2-0.2-0.3-0.2c-0.1,0-0.2-0.1-0.3-0.1C9.9,9.4,9.8,9.3,9.7,9.1c0-0.3-0.2-0.5-0.2-0.5
				c0,0,0.2,0.1,0.2,0.4c0.2-0.2,0.3-0.6,0.4-0.9C10.3,7.9,10.8,7.9,11,8c0,0,0.1,0,0.2,0c0.1,0,0.1,0.1,0.1,0.1c0.1,0,0.2,0,0.2,0
				c0,0,0,0.1,0.1,0.1c0,0,0.1,0,0.1,0l0,0h0c0.3,0,0.6-0.2,0.6-0.2l0,0c0,0,0,0,0,0c-0.1-0.1-0.3-0.2-0.4-0.2
				c-0.2,0-0.3-0.2-0.4-0.2c0,0-0.2,0-0.2,0c-0.4,0-0.6-0.1-1-0.1C10,7.5,10,7.8,9.8,7.9c0,0.1-0.1,0.1-0.2,0.2
				C9.6,8.2,9.5,8.2,9.4,8.3c0,0,0,0,0,0c0-0.1-0.1-0.3-0.2-0.4c0,0,0,0,0,0c0,0,0,0,0,0C9,7.6,8.8,7.3,8.4,7.3
				c-0.1,0-0.1,0-0.1-0.1c-0.1-0.1,0-0.1,0-0.1C8.4,7,8.6,7,8.7,7C9,6.8,8.9,6.6,8.8,6.5c-0.2,0-0.4-0.1-0.5-0.1
				C8.2,6.3,8.2,6.2,8,6.2c-0.1,0-0.2,0-0.3,0c-0.1,0-0.1,0.1-0.2,0.1C7.7,6.1,7.8,6.1,8,6.1C7.8,6,7.9,5.8,7.7,5.7
				c-0.1,0-0.1,0-0.2,0.1c0-0.1,0-0.3-0.2-0.4c-0.1-0.1-0.1,0-0.1,0.1c0,0.1,0.2,0.1,0.2,0.4c0,0-0.1,0-0.1,0.1
				c0-0.1-0.1-0.3-0.2-0.3C7,5.6,7,5.6,7,5.7C7,5.8,7.1,5.8,7.2,6c0,0-0.1,0.1-0.1,0.1C6.9,6.1,6.8,5.9,6.8,5.9
				c-0.1,0-0.2,0-0.1,0.1c0,0.1,0.2,0.2,0.3,0.2c0,0,0,0-0.1,0.1c-0.2,0-0.3-0.2-0.4-0.2c-0.1,0-0.2,0-0.1,0.1
				c0.1,0.1,0.3,0.2,0.4,0.2c0,0.1-0.1,0.1-0.1,0.2c-0.2,0-0.5,0.1-0.5,0.3c0.1,0,0.3-0.1,0.5,0c0.1,0.2,0.4,0.2,0.4,0.3
				c0.1,0.1,0.1,0.2,0.1,0.3c0.1,0.2,0.2,0.3,0.3,0.5C7.7,8.1,7.9,8.2,8,8.4c0,0,0,0.1,0,0.2C7.9,8.8,7.4,9,7.3,9.2
				c-0.2,0.2-1.8,1.4-2,2c0,0.1-0.1,0.3-0.1,0.4c-0.1,0.1-0.3,0-0.3,0c-0.1-0.1,0.1-0.2,0.1-0.4c0-0.1-0.1-0.1-0.2-0.1
				c-0.1,0-0.1,0.3-0.1,0.4c0,0,0.1,0.1,0,0.1c-0.1,0-0.1,0-0.1-0.1c0,0-0.1,0.1,0,0.1c0,0.1,0.2,0.1,0.2,0.2c0,0.1-0.1,0.1-0.1,0
				c-0.1,0.1,0,0.2,0,0.2c0.1,0,0.2-0.1,0.3-0.1c0,0.1,0,0.1-0.1,0.1C5,12.3,5.1,11.9,5.3,12c0.1,0,0.6,0.5,0.5,0.9c0,0,0,0.1,0,0.1
				c-0.1,0.1-0.3,0.2-0.4,0.4c-0.3,0.2,0.3,1.2,0.2,1.8c0,0.2,0.2,0.2,0.3,0.5c-0.1,0-0.3,0-0.3,0.1c0,0,0,0,0,0l0,0
				c0,0,0,0.1,0,0.1c0,0.1,0.1,0.3,0.3,0.3c0.1,0,0.3-0.1,0.3-0.3c0,0,0,0,0,0c0.1,0,0.1,0,0.2,0L6.4,16c0,0-0.8,0.7-2.2,0.3
				c0,0-0.6-0.2-0.4-0.7c0,0,0-0.1,0.1-0.1c0,0.1,0.1,0.1,0.1,0.2c0.1,0,0.1,0.1,0.2,0.1c0.2,0,0.3-0.1,0.3-0.3c0-0.1,0-0.2-0.1-0.2
				c0,0,0,0,0,0c0,0,0,0,0,0c0,0,0,0,0,0c-0.1-0.1-0.2-0.1-0.4,0c0,0-0.6,0.2-0.4,0.8c0,0-0.4-0.1-0.6,0.1c0,0-0.1,0.1,0,0.2v0v0
				c0,0,0,0.1,0,0.1c0,0.1,0.1,0.1,0.2,0.1c0.1,0,0.1,0,0.2-0.1c0,0,0,0,0,0c0,0,0.1,0,0.1,0c0,0,0.6,0.6,1.4,0.5c0,0,0,0.4,0.3,0.5
				c0,0,0,0,0,0c0.1,0,0.1-0.1,0.1-0.1c0-0.1-0.1-0.1-0.1-0.1c0,0,0,0,0,0c0,0,0-0.1,0-0.2c0,0,0.9-0.1,1.5-0.6c0,0,0.4,0.1,0.7,0.1
				c0,0,0,0.1-0.1,0.1c0,0-0.2,0-0.2,0.1c0,0,0,0.1,0.2,0.1c0,0,0,0.1,0.1,0.2c0,0,0.1,0.1,0,0.1c0,0-0.2,0.1-0.1,0.2
				c0,0,0,0.1,0.3,0.1c0,0,0.1,0,0,0.1c0,0-0.1,0.1,0.1,0.2c0,0,0.2,0.1,0.3-0.1c0,0,0-0.1,0.1,0c0,0,0.5,0.2,0.8-0.2
				c0,0,0-0.1,0.1,0c0,0,0.3,0.3,1,0.4c0,0.1,0.1,0.1,0.2,0.1c0.1,0,0.3-0.1,0.3-0.2c0.1,0,0.4,0,0.8-0.3c0,0,0.1-0.1,0.3-0.1
				c0,0.2,0.2,0.4,0.4,0.4c0.2,0,0.4-0.2,0.4-0.4c0-0.2-0.1-0.4-0.3-0.4c0,0-0.3-0.1-0.6,0.1c0,0-0.3,0.2-0.4,0.2
				c0,0,0.1-0.3,0.1-0.7c-0.1,0-0.1,0-0.2,0c0,0.3-0.1,0.7-0.3,0.8l-0.2,0c0,0,0,0,0-0.1c0,0-0.1-0.1-0.2-0.1c0,0,0,0,0,0
				c-0.1,0-0.2,0.1-0.2,0.2c0,0-0.4,0.1-0.6-0.1c0,0,0.3-0.1,0.4-0.2c0,0,0.1-0.2-0.2-0.4c0,0-0.2-0.1-0.3,0c0,0,0,0.1,0.1,0.2
				c0,0,0.1,0.1-0.1,0.1c0,0-0.2,0-0.2-0.1c0,0,0-0.4,0.1-0.7c-0.1,0-0.2,0-0.3-0.1c0,0.1-0.1,0.2-0.1,0.3c0,0,0,0.2-0.1,0.3
				c0,0-0.3-0.3-0.2-0.7c-0.1,0-0.2-0.1-0.3-0.1c0,0.2,0,0.6,0.3,1.1c0,0-0.3,0.3-0.5,0.2c0,0-0.4-0.2-0.1-0.5c0,0,0.2-0.1,0.2,0
				c-0.1,0-0.2,0.1-0.2,0.2c0,0.1,0.1,0.2,0.2,0.2c0.1,0,0.2-0.1,0.2-0.1c0-0.1,0-0.2-0.1-0.3c0,0-0.1-0.1-0.4-0.1
				c0,0,0.2-0.3,0.2-0.5c0,0,0,0,0-0.1c-0.1,0-0.1,0-0.2-0.1c0,0.2-0.1,0.6-0.4,0.5c0,0,0.2-0.3,0.3-0.6c-0.1,0-0.3-0.1-0.4-0.2
				c0,0,0,0,0,0c0,0.1,0,0.3-0.1,0.5c0,0-0.2,0.1-0.4-0.1c0,0,0.4-0.3,0.5-0.4c-0.1,0-0.2-0.1-0.3-0.1H7.1c0,0,0,0,0,0
				c0,0-0.2,0.2-0.4,0.2c0,0,0,0-0.1,0c0,0-0.3-0.3-0.1-0.7c0,0,0.1-0.3,0.4-0.3c0,0,0.1,0,0.1,0.1c0,0-0.3,0-0.2,0.2
				c0,0,0,0.2,0.2,0.2c0,0,0.3,0,0.3-0.4c0,0-0.1-0.2-0.3-0.2c0,0,0.1-0.1,0-0.2c0,0-0.1-0.1-0.3,0.1c0,0,0,0.1-0.3,0
				c0,0-0.1-0.1-0.2,0.1c0,0,0,0,0,0.2c0,0,0,0.1-0.1,0.2c0,0-0.1,0.1-0.1,0.3c-0.1-0.1-0.1-0.1-0.2-0.1c-0.1-0.1-0.1-0.7-0.2-0.9
				c0-0.1,0.1-0.3,0.1-0.6c0.8-0.2,1.1-0.8,1.2-1.1c0.1-0.5,0-0.9-0.1-1c0,0,0,0,0,0c0,0.1,0.1,0.1,0.1,0.2c0.4,0,0.7,0,0.9-0.1
				c0,0,0,0,0,0c0,0,0,0,0,0c0,0,0.1,0,0.1,0c0,0,0,0,0,0c0.6-0.3,0.8-0.8,1-1c-0.1,0-0.3-0.1-0.4-0.2c0.2,0,0.4,0.1,0.6,0.1
				c0.3,0,0.5-0.2,0.9-0.1c0,0,0,0.2,0.3,0.3c0,0.2,0,0.4,0.1,0.5c0,0,0,0.1,0,0.1s-0.3,0.2-0.2,0.4c0,0,0,0.1,0.1,0.1c0,0,0,0,0,0
				c0,0-0.1,0.1-0.1,0.1c0,0-0.2,0.3-0.1,0.4c0,0,0,0,0.1,0c-0.1,0.3-0.1,0.7,0.2,1l0,0c0,0,0.4,0.6,1.4,0.6h0c0.1,0,1,0,1.3,0.6
				c0,0,0.1,0.1,0.2,0.1c0.1,0,0.1-0.1,0.2-0.1c0.3-0.6,1.2-0.6,1.3-0.6h0c1,0,1.4-0.6,1.4-0.6l0,0c0.1-0.2,0.2-0.4,0.2-0.5
				c0.2-0.1,0.2-0.6,0.2-0.6c0.1,0.1,0.2,0.3,0.4,0.4c0,0.2,0,0.6,0.2,0.6c0.1,0,0.1-0.1,0.1-0.2c0.2,0.6,0,0.9,0.2,0.9
				c0.2,0,0.2-0.3,0.2-0.3c0,0,0.1,0.1,0.1,0.3c0,0.2,0,0.3,0.1,0.4c0.3,0,0.1-0.7,0.3-0.6c0,0.3,0,0.5,0.1,0.6c0,0.2,0,0.3-0.1,0.3
				c-0.4,0.1-0.7-0.2-1-0.1c0,0,0,0,0,0c-0.6-0.3-1-0.1-1-0.1c-0.2-0.2-0.2,0.1-0.3,0.1c-0.3-0.2-0.5,0.1-0.6,0.1
				c-0.1,0-0.2-0.2-0.4,0.2c-0.1,0.2-0.4,0.2-0.4,0.2c-0.1,0-0.2-0.1-0.2-0.1c0,0,0-0.1,0-0.1c0,0,0,0-0.1-0.1c0,0-0.1-0.1-0.1,0
				c-0.1,0-0.2,0.1-0.2,0.2c0,0,0,0.1,0,0.1c0,0,0,0,0.1,0c0.1,0,0.1,0.1,0.1,0.1v0c0,0.2-0.2,0.3-0.2,0.3c-0.1,0.1-0.3,0-0.3,0
				c-0.1-0.1-0.2-0.1-0.2-0.1c-0.1,0-0.1,0.1-0.1,0.1s0-0.1-0.2-0.1c0,0-0.1,0-0.2,0.1c0,0-0.2,0.2-0.3,0c0,0-0.2-0.2-0.2-0.3v0
				c0-0.1,0.1-0.1,0.1-0.1c0,0,0.1,0,0.1,0c0,0,0-0.1,0-0.1c0-0.1-0.1-0.2-0.2-0.2c0,0-0.1,0-0.1,0c0,0,0,0-0.1,0.1c0,0,0,0.1,0,0.1
				c0,0,0,0.1-0.2,0.1c0,0-0.4-0.1-0.4-0.2c-0.1-0.4-0.3-0.2-0.4-0.2c-0.1,0-0.3-0.3-0.6-0.1c0,0-0.1-0.2-0.3-0.1c0,0-0.3-0.2-0.8,0
				c0-0.1-0.2-0.1-0.2-0.1c-0.1,0-0.2-0.1-0.2-0.1c-0.1-0.1-0.4,0-0.5,0c-0.1,0-0.1,0-0.2-0.1C8.2,13.4,8,13.2,7.9,13
				c0,0-0.1-0.1-0.1-0.1c-0.1-0.1-0.1-0.1-0.1-0.3c-0.1-0.2,0-0.5,0.1-0.8c0-0.1,0-0.2,0-0.2c-0.2,0-0.4,0.1-0.7,0
				c0.1,0.3,0.1,0.5,0.1,0.8c0.1,0.1,0.2,0.2,0.2,0.3c0,0.1,0,0.3,0,0.4c0.1,0.1,0.3,0.3,0.5,0.4c0,0,0.7,0.6,0.8,0.6
				c0.1,0,0.2-0.1,0.2,0c0,0,0.1,0,0.1,0c0,0,0.1,0.1,0.1,0.1c-0.2,0.1-0.5,0.3-0.6,0.4c0,0-0.3,0.2-0.2,0.2c0,0,0.2,0,0.2,0
				c0,0-0.1,0-0.2,0.1c0.3,0.1,0.6,0.2,1,0.3c0.2-0.2,0.5-0.4,0.7-0.5c0,0,0.4,0,0.5-0.3c0-0.1,0.2,0.2,0.5,0c0,0,0.1,0.1,0.2,0.1
				c0,0-0.1,0-0.1,0.2c0,0-0.3,0-0.4,0.2c0,0-0.6,0-1.1,0.5c0.1,0,0.2,0,0.3,0.1c0.2-0.1,0.4-0.2,0.6-0.2c0,0,0.3,0,0.5,0.4
				c0.2,0,0.4,0.1,0.6,0.1c0,0,0,0,0,0c0.1,0,0.3-0.2,0.2-0.3c0,0-0.1-0.1-0.2,0c0,0-0.1,0.1-0.1,0c0,0,0-0.1,0-0.1
				c0,0-0.1-0.1,0.1,0c0,0,0.1,0,0.2,0c0.1,0,0.2-0.1,0.2-0.2c0-0.1-0.1-0.2-0.2-0.2c0,0,0,0,0,0c0,0,0,0,0,0.1c0,0,0,0.1-0.1,0.1
				c-0.1,0-0.1-0.3,0.1-0.3c0,0,0.1,0,0.3,0.1c0,0,0.3,0.4,0.5,0.5c0,0,0,0.1,0.1,0.2c0,0,0,0.1,0.2,0.1c0,0,0,0.1,0.1,0.1
				c0.1,0,0.3,0,0.4,0c0.1,0,0.3,0,0.4,0c0-0.1,0.1-0.1,0.1-0.1c0.2,0,0.1-0.1,0.2-0.1c0.2,0,0.1-0.2,0.1-0.2
				c0.2-0.1,0.5-0.5,0.5-0.5c0.1-0.1,0.3-0.1,0.3-0.1c0.2,0,0.2,0.2,0.1,0.3c0,0-0.1,0-0.1-0.1c0,0,0,0,0-0.1c0,0,0,0,0,0
				c-0.1,0-0.2,0.1-0.2,0.2c0,0.1,0.1,0.2,0.2,0.2c0.1,0,0.2,0,0.2,0c0.1,0,0.1,0,0.1,0c0,0,0,0.1,0,0.1c0,0.1-0.1,0-0.1,0
				c-0.1-0.1-0.2,0-0.2,0c-0.1,0.2,0.2,0.3,0.2,0.3c0,0,0,0,0,0c0.2,0,0.4,0,0.6-0.1c0.1-0.4,0.5-0.4,0.5-0.4c0.2,0,0.5,0.1,0.6,0.2
				c0.1,0,0.2,0,0.3-0.1c-0.5-0.4-1.1-0.4-1.1-0.5c-0.1-0.2-0.4-0.1-0.4-0.2c0-0.1-0.1-0.2-0.1-0.2c0.1,0,0.1-0.1,0.2-0.1
				c0.3,0.2,0.5-0.1,0.5,0c0.1,0.3,0.5,0.3,0.5,0.3c0.3,0.1,0.5,0.3,0.7,0.5c0.3-0.1,0.6-0.2,0.9-0.3c0,0,0,0,0,0c0,0,0,0,0,0
				c0,0,0,0,0,0l0,0c0,0,0-0.1,0-0.1h0c-0.1-0.1-0.2-0.3-0.2-0.3c0,0,0,0,0,0c0,0,0,0,0,0c0,0,0.2-0.3,0.4-0.1c0,0,0,0.1-0.2,0.1
				c0,0,0.2,0.3,0.2,0.4c0,0,0,0,0,0c0.1,0,0.1,0,0.1,0c0,0,0,0,0,0c-0.1-0.2-0.2-0.3-0.2-0.3c0,0,0.2,0,0.2-0.1c0,0,0-0.1,0-0.3
				c0.1,0,0.2,0,0.2,0.1c0.2,0,0.3-0.3,0.2-0.5c0,0,0.2-0.1,0.2-0.1c0.1,0.2,0.4,0.3,0.4,0c0.1,0.2,0.1,0.4,0.3,0.4
				c0.1,0,0.1-0.3,0.1-0.3c0,0.1,0.1,0.4,0.3,0.3c0.1,0,0.1-0.1,0.1-0.2c0-0.3-0.8-1.7-0.9-2.4c0,0,0,0,0,0c-0.1,0-0.1-0.2-0.1-0.3
				c0,0,0,0,0,0c-0.1,0-0.2-0.1-0.3-0.4c0-0.2,0.1-0.4,0.1-0.4c0,0,0,0,0,0c-0.1,0.2-0.1,0.4,0,0.5c0,0,0.1,0,0.1,0.1
				c0-0.1,0.1-0.1,0.1-0.1c0,0,0,0,0,0c-0.1,0.1-0.1,0.3,0,0.4c0,0,0.1,0.1,0.1,0.1c0.2-0.1,0.3-0.5,0.4-0.6c0.1,0-0.2,0.9,0.1,1.1
				c0.1,0,0.2-0.2,0.2-0.3c0.1,0.3-0.3,0.8,0,0.9c0.2,0,0.2-0.4,0.3-0.4c0.1,0.7-0.3,1.1-0.1,1.2c0.2,0.1,0.3-0.5,0.3-0.4
				c0,0.8-0.4,1-0.2,1.1c0.2,0.1,0.3-0.4,0.3-0.3c0,0.7-0.4,0.9-0.2,1.1c0.2,0.2,0.5-0.4,0.5-0.3c0,0.2-0.4,0.9-0.1,1
				c0.2,0,0.3-0.2,0.3-0.3C21.9,13.1,21.9,11.2,21.9,10.6 M16.1,7C16.1,7,16.1,7,16.1,7c-0.2-0.1-0.5-0.1-0.7,0
				c-0.2,0.1-0.3,0.2-0.3,0.2c0,0,0.3-0.4,0.7-0.5C16.1,6.9,16.1,7,16.1,7 M17.1,8.3c-0.1,0.1-0.2,0.2-0.3,0.3
				c-0.3,0.1-0.5-0.1-0.5-0.2c0,0,0.2,0.1,0.4,0.1C16.9,8.5,17,8.4,17.1,8.3C17.1,8.3,17.1,8.3,17.1,8.3 M6.1,15.4L6.1,15.4
				L6.1,15.4L6.1,15.4L6.1,15.4c0,0,0.1,0.1,0.1,0.1c0,0,0,0,0,0c0,0-0.1,0-0.1,0c0,0,0,0,0,0c0,0-0.1-0.1-0.1-0.1
				c0,0.1,0,0.1,0.1,0.2c0,0,0,0-0.1,0l0,0c0,0-0.1,0-0.1,0h0c0,0,0,0,0,0c-0.1,0-0.1-0.1-0.1-0.2c0-0.1,0-0.2-0.1-0.2
				C5.9,15.1,6.1,15.3,6.1,15.4 M7.5,6.9C7.8,7,7.8,6.7,7.8,6.8C7.9,6.9,7.7,7.1,7.5,6.9 M7.8,6.7c-0.1,0-0.2-0.1-0.2,0
				c0,0-0.1,0.1-0.1,0.2C7.5,7,7.4,7,7.3,7C7.2,6.8,7.5,6.5,7.6,6.5c0.2-0.1,0.3,0,0.5,0.1c0.1,0,0.2,0,0.3,0c0.2,0,0.1,0.2,0.1,0.2
				c-0.2,0-0.3-0.1-0.4-0.1C8,6.7,7.9,6.7,7.8,6.7 M8.6,7.9C8.3,7.8,8.1,7.8,8,7.6c0.4,0,0.7,0,0.9,0.2c0,0,0,0,0,0
				C9,7.8,9.2,8,9.3,8.2C9,8,8.8,8,8.6,7.9 M10.4,10c-0.1,0-0.1-0.3-0.5-0.2c-0.2,0.1-0.4,0-0.5,0C10,9.5,10.5,9.8,10.4,10
				 M15.9,10.8C16,10.8,16,10.8,15.9,10.8L15.9,10.8c0.1,0,0.1,0,0.2,0c0,0,0.1,0.1,0.1,0.2c0,0,0,0.2,0.1,0.2c0,0,0,0.1-0.1,0.1h0
				c-0.1,0-0.3-0.2-0.2-0.4c0,0-0.1,0-0.1,0h0c0,0,0,0,0,0c0,0,0,0,0,0c0,0,0,0,0,0c0,0,0,0,0,0c0,0,0,0.1-0.1,0.1
				c0-0.1,0-0.1,0.1-0.2c0,0,0,0,0,0C15.8,10.9,15.9,10.9,15.9,10.8 M10.5,11.6C10.5,11.6,10.5,11.6,10.5,11.6
				C10.5,11.6,10.5,11.6,10.5,11.6c0,0.1,0,0.1,0,0.1c0,0,0,0,0,0c0,0,0,0,0,0c0,0,0,0,0,0c0,0,0,0,0,0c0,0,0,0,0,0c0,0,0,0,0,0
				c0,0,0,0,0,0c0,0,0,0,0,0c0,0,0,0,0,0c0,0,0,0,0,0c0,0,0,0-0.1,0c0,0,0,0,0,0c0-0.1,0.1-0.1,0.1-0.2c0-0.1,0-0.1,0.1-0.1
				C10.4,11.5,10.4,11.5,10.5,11.6c-0.2-0.2-0.2-0.3-0.1-0.4c0.2-0.2,0-0.5,0-0.5c0,0,0.1,0.2,0.1,0.3c0,0,0,0,0,0c0,0,0,0,0,0
				c0,0,0,0,0,0c0,0,0,0,0,0v0c0,0,0,0,0,0.1c0,0,0,0,0,0c0,0,0,0,0,0c0,0,0,0,0,0c0,0,0,0,0,0.1c0,0,0,0,0,0c0,0,0,0,0,0
				c0,0,0,0,0,0c0,0,0,0,0,0C10.5,11.5,10.5,11.5,10.5,11.6C10.5,11.5,10.5,11.5,10.5,11.6C10.5,11.5,10.5,11.5,10.5,11.6
				 M15.7,12.7c0,0.1-0.4,0.6-1.2,0.6c-0.1,0-0.8,0-1,0.5c0,0,0,0,0,0c0,0-0.1,0.2-0.2,0.3c0,0,0,0,0,0c0,0,0,0,0,0
				c0-0.1-0.1-0.2-0.2-0.3c0,0,0,0,0,0c-0.2-0.4-0.9-0.5-1-0.5c-0.9,0-1.2-0.5-1.2-0.6c-0.4-0.6,0-1.4,0-1.4c0.4-0.6,0.3-1,0.3-1.1
				C11,9.5,10.6,9,10.5,9c0-0.1-0.1-0.1,0-0.1c0-0.1,0.1-0.1,0.1-0.1c0.1-0.1,0.3-0.2,0.4-0.3l0,0c0,0,0,0,0,0c0,0,0,0,0.1,0
				c0.1,0.1,0.2,0.2,0.5,0.2c0,0,0.1,0,0.2,0c0.1,0,0.4-0.1,0.4-0.1c0.1,0,0.2-0.1,0.2-0.1l0,0c0.4-0.2,0.7-0.2,0.8-0.2
				c0.1,0,0.4,0,0.8,0.2l0,0c0,0,0.1,0.1,0.2,0.1c0,0,0.2,0.1,0.4,0.1c0.1,0,0.1,0,0.2,0c0.3,0,0.4-0.1,0.5-0.2c0,0,0.1,0,0.1,0
				c0,0,0,0,0,0c0,0,0,0,0,0c0.1,0.1,0.3,0.2,0.4,0.3c0,0,0.1,0,0.1,0.1c0,0,0,0.1,0,0.1c0,0.1-0.5,0.6-0.5,1.2c0,0.1,0,0.5,0.3,1.1
				C15.7,11.4,16.1,12.1,15.7,12.7 M16.3,12.2L16.3,12.2C16.3,12.2,16.3,12.2,16.3,12.2C16.3,12.2,16.3,12.2,16.3,12.2
				C16.3,12.2,16.2,12.2,16.3,12.2C16.2,12.3,16.2,12.3,16.3,12.2C16.2,12.3,16.2,12.3,16.3,12.2C16.2,12.3,16.2,12.3,16.3,12.2
				c-0.1,0.1-0.1,0.1-0.1,0.1c0,0,0,0,0,0h0c0,0,0,0,0,0c0,0,0,0,0,0c0,0,0,0,0,0c0,0,0,0,0,0c0,0,0,0,0,0c0,0,0,0,0,0
				c0,0-0.1-0.1,0-0.1c0,0,0,0,0,0c0,0,0,0,0,0c0,0,0,0,0,0c0,0,0,0,0,0c0,0,0,0,0,0c0,0,0,0,0,0c0,0,0,0,0,0c0,0,0,0,0,0
				c0,0,0,0,0,0c0,0,0,0,0,0c0,0,0,0,0,0c0,0,0,0,0,0c0,0,0,0,0,0c0,0,0,0,0,0c0,0,0,0,0,0c0-0.2,0-0.4,0-0.4c0,0,0,0,0,0
				c0,0,0,0,0,0c0,0,0,0,0,0h0c0,0,0,0,0,0c0,0,0,0,0,0c0,0,0,0,0,0c0,0,0,0,0,0c0,0,0,0,0,0c0,0,0,0,0,0c0,0,0,0,0,0v0
				c0,0,0,0.1,0,0.2c0,0,0,0,0,0v0c0,0,0,0.1,0,0.1C16.4,12,16.3,12.1,16.3,12.2 M17.9,12.5c-0.5,0-0.8-0.4-0.7-0.4
				c0,0,0.2,0.2,0.3,0.2c0.2,0.1,0.5,0,0.7-0.1c0,0,0,0,0,0C18.2,12.3,18.2,12.5,17.9,12.5 M9.5,13.9C9.5,13.9,9.5,13.9,9.5,13.9
				C9.5,13.9,9.5,13.9,9.5,13.9C9.5,13.9,9.5,13.9,9.5,13.9c0,0-0.1,0.1-0.1,0.1c-0.1,0-0.1,0-0.1,0c0,0,0,0.1,0,0.1v0c0,0,0,0,0,0
				c0,0,0,0,0,0c0,0,0,0,0.1,0c0,0-0.1,0.1-0.1,0.1c-0.1,0-0.1-0.1-0.2-0.2c0,0,0,0,0,0c0,0,0,0,0,0c-0.1,0-0.2-0.1-0.3-0.1
				c0-0.2,0.6-0.1,0.6-0.1C9.4,13.8,9.4,13.8,9.5,13.9C9.5,13.9,9.5,13.9,9.5,13.9 M17.7,14.3L17.7,14.3
				C17.7,14.3,17.7,14.4,17.7,14.3c-0.1,0-0.3-0.1-0.3-0.1c0,0-0.1-0.1-0.2,0h0l0,0c-0.1,0-0.1,0.1-0.2,0.2c0,0,0,0,0-0.1
				c0,0,0,0,0,0c0,0,0,0,0,0v0c0,0,0,0,0,0c0,0,0,0,0,0c0,0,0,0,0,0c0,0,0,0,0,0c0,0,0,0,0,0c0,0,0,0,0,0c0,0,0,0,0,0
				c0,0,0.1,0,0.2,0c0.1,0,0.2,0,0.2,0.1c0.1,0.1,0.2,0.1,0.3,0.1C17.8,14.2,17.7,14.3,17.7,14.3 M19.7,8.4c-0.1,0-0.2,0.1-0.3,0.1
				c-0.2,0-0.4,0-0.4-0.1c0.1,0,0.3,0.1,0.5,0c0.1,0,0.1,0,0.2,0C19.7,8.3,19.7,8.3,19.7,8.4C19.8,8.3,19.7,8.3,19.7,8.4 M21.5,13.5
				c0,0.2-0.1,0.7-0.1,0.6c0.4-3.6,0.2-4.5,0.1-4.5c-0.1,0-0.1,0.4-0.3,0.3c-0.2-0.1,0.5-0.9,0.2-1.4c-0.1-0.1-0.1,0.1-0.2,0.1
				c-0.3-0.1,0.1-0.8,0.1-0.8c-0.1-0.1-0.3-0.1-0.3-0.3c0-0.1,0.1-0.2,0-0.3c-0.1-0.1-0.1,0.1-0.1,0c-0.1-0.1,0-0.3-0.1-0.4
				c0,0-0.1,0.1-0.2,0c-0.1-0.1,0-0.2-0.1-0.2c-0.1,0-0.3,0.1-0.3,0.3c0,0.1,0.1,0.2,0.1,0.3c0,0.1-0.1,0.2-0.1,0.3
				C20,7.9,20.3,8,20.3,8.1c0,0.1-0.1,0.1-0.2,0.1c-0.1,0-0.1-0.4-0.1-0.5c0-0.2,0.3-0.4,0.3-0.5c0-0.1-0.1-0.2-0.1-0.3
				c0-0.2,0.1-0.4,0.4-0.4c0.1,0,0.2,0.1,0.3,0.2c0,0,0.1,0.1,0.1,0.1c0.2,0.3,0.4,0.8,0.6,1.3C21.7,9.3,21.9,11.3,21.5,13.5"/>
		</g>
	</g>
	<g>
		<g>
			<path class="st1" d="M31.7,55.7c-0.4,0.2-0.7,0.3-1,0.3c-0.9,0-1.3-0.6-1.3-1.5c0-0.9,0.4-1.4,1.3-1.4c0.4,0,0.7,0.1,0.9,0.2
				l-0.2,0.4c-0.2-0.1-0.4-0.2-0.7-0.2c-0.5,0-0.7,0.4-0.7,0.9c0,0.7,0.3,1,0.7,1c0.2,0,0.3,0,0.5-0.1v-0.5h-0.4l0-0.4h0.9V55.7z"/>
		</g>
		<g>
			<path class="st1" d="M34,54.8c0,0.7-0.4,1.1-1,1.1c-0.6,0-1-0.4-1-1.1c0-0.6,0.3-1.1,1-1.1C33.7,53.8,34,54.2,34,54.8z
				 M33.4,54.8c0-0.5-0.1-0.7-0.4-0.7c-0.3,0-0.4,0.2-0.4,0.7c0,0.5,0.1,0.7,0.4,0.7C33.3,55.5,33.4,55.3,33.4,54.8z"/>
		</g>
		<g>
			<path class="st1" d="M34.9,54c0.1-0.1,0.3-0.3,0.6-0.3c0.5,0,0.8,0.3,0.8,1.1c0,0.7-0.4,1.1-0.9,1.1c-0.3,0-0.5-0.1-0.6-0.3
				l-0.1,0.3h-0.3V53H35v0.7L34.9,54z M35,55.3c0.1,0.1,0.2,0.2,0.4,0.2c0.2,0,0.4-0.2,0.4-0.7c0-0.5-0.2-0.7-0.4-0.7
				c-0.1,0-0.3,0.1-0.4,0.2V55.3z"/>
		</g>
		<g>
			<path class="st1" d="M36.9,55.9v-1.7l-0.2-0.1v-0.3h0.8v2.1H36.9z M36.9,53h0.6v0.5h-0.6V53z"/>
		</g>
		<g>
			<path class="st1" d="M38.4,55c0,0.3,0.2,0.5,0.5,0.5c0.2,0,0.4-0.1,0.6-0.2l0.1,0.4c-0.2,0.1-0.5,0.2-0.8,0.2c-0.6,0-1-0.4-1-1.1
				c0-0.6,0.3-1.1,1-1.1c0.6,0,0.9,0.5,0.9,1V55H38.4z M38.8,54.2c-0.3,0-0.4,0.2-0.4,0.5h0.8C39.2,54.4,39.1,54.2,38.8,54.2z"/>
		</g>
		<g>
			<path class="st1" d="M41.3,54.3c-0.1,0-0.2,0-0.3,0c-0.1,0-0.3,0.1-0.4,0.1v1.5h-0.6v-2.1h0.4l0.1,0.3h0c0.1-0.1,0.3-0.3,0.5-0.3
				c0.1,0,0.2,0,0.2,0L41.3,54.3z"/>
		</g>
		<g>
			<path class="st1" d="M43,55.9v-1.2c0-0.3-0.1-0.5-0.4-0.5c-0.1,0-0.3,0.1-0.4,0.1v1.6h-0.6v-2.1H42l0.1,0.2
				c0.1-0.1,0.3-0.3,0.7-0.3c0.5,0,0.7,0.3,0.7,0.8v1.3H43z"/>
		</g>
		<g>
			<path class="st1" d="M45.8,54.8c0,0.7-0.4,1.1-1,1.1c-0.6,0-1-0.4-1-1.1c0-0.6,0.3-1.1,1-1.1C45.5,53.8,45.8,54.2,45.8,54.8z
				 M45.3,54.8c0-0.5-0.1-0.7-0.4-0.7c-0.3,0-0.4,0.2-0.4,0.7c0,0.5,0.1,0.7,0.4,0.7C45.1,55.5,45.3,55.3,45.3,54.8z"/>
		</g>
		<g>
			<path class="st1" d="M48.5,54c0-0.1-0.1-0.2-0.1-0.4V53H49v2.9h-0.4l-0.1-0.2c-0.1,0.1-0.3,0.3-0.6,0.3c-0.5,0-0.8-0.3-0.8-1.1
				c0-0.7,0.4-1.1,0.9-1.1C48.2,53.8,48.4,53.8,48.5,54z M48.5,54.3c-0.1-0.1-0.2-0.1-0.4-0.1c-0.3,0-0.4,0.2-0.4,0.7
				c0,0.5,0.2,0.7,0.4,0.7c0.1,0,0.3-0.1,0.4-0.2V54.3z"/>
		</g>
		<g>
			<path class="st1" d="M50,55c0,0.3,0.2,0.5,0.5,0.5c0.2,0,0.4-0.1,0.6-0.2l0.1,0.4c-0.2,0.1-0.5,0.2-0.8,0.2c-0.6,0-1-0.4-1-1.1
				c0-0.6,0.3-1.1,1-1.1c0.6,0,0.9,0.5,0.9,1V55H50z M50.4,54.2c-0.3,0-0.4,0.2-0.4,0.5h0.8C50.7,54.4,50.7,54.2,50.4,54.2z"/>
		</g>
		<g>
			<path class="st1" d="M53.8,55.9c-0.8,0-1.2-0.5-1.2-1.5c0-0.9,0.4-1.5,1.2-1.5c0.4,0,0.7,0.1,1,0.2l-0.2,0.4
				c-0.1-0.1-0.4-0.2-0.7-0.2c-0.5,0-0.7,0.3-0.7,1c0,0.7,0.2,1,0.7,1c0.3,0,0.6-0.1,0.8-0.3l0.2,0.4C54.5,55.8,54.2,55.9,53.8,55.9
				z"/>
		</g>
		<g>
			<path class="st1" d="M55.2,55.9V53h0.6v0.8c0,0.1,0,0.3-0.1,0.3c0.1-0.1,0.3-0.3,0.6-0.3c0.6,0,0.8,0.3,0.8,0.8v1.3h-0.6v-1.2
				c0-0.3-0.1-0.5-0.4-0.5c-0.1,0-0.3,0.1-0.4,0.1v1.6H55.2z"/>
		</g>
		<g>
			<path class="st1" d="M57.6,55.9v-1.7l-0.2-0.1v-0.3h0.8v2.1H57.6z M57.6,53h0.6v0.5h-0.6V53z"/>
		</g>
		<g>
			<path class="st1" d="M58.7,55.3V53h0.5v2.3c0,0.2,0.1,0.2,0.3,0.2v0.4c0,0-0.2,0-0.3,0C58.8,55.9,58.7,55.7,58.7,55.3z"/>
		</g>
		<g>
			<path class="st1" d="M60.4,55c0,0.3,0.2,0.5,0.5,0.5c0.2,0,0.4-0.1,0.6-0.2l0.1,0.4c-0.2,0.1-0.5,0.2-0.8,0.2c-0.6,0-1-0.4-1-1.1
				c0-0.6,0.3-1.1,1-1.1c0.6,0,0.9,0.5,0.9,1V55H60.4z M60.8,54.2c-0.3,0-0.4,0.2-0.4,0.5h0.8C61.2,54.4,61.1,54.2,60.8,54.2z"/>
		</g>
	</g>
	<g>
		<path class="st1" d="M31.7,28l0-1.9h0c0,0.2-0.1,0.4-0.1,0.6L31.2,28h-0.7l-0.3-1.4c0-0.1-0.1-0.3-0.1-0.6h0l0,1.9h-0.4l0.1-2.3
			h0.8c0,0,0.3,1.2,0.4,1.9h0c0.2-0.7,0.5-1.9,0.5-1.9h0.7l0.1,2.3H31.7z"/>
		<path class="st1" d="M32.7,28v-1.3l-0.2,0v-0.3h0.6V28H32.7z M32.7,25.6h0.4V26h-0.4V25.6z"/>
		<path class="st1" d="M34.5,28v-1c0-0.3-0.1-0.4-0.3-0.4c-0.1,0-0.2,0.1-0.3,0.1V28h-0.4v-1.7h0.3l0.1,0.2c0.1-0.1,0.3-0.2,0.5-0.2
			c0.4,0,0.6,0.2,0.6,0.7v1H34.5z"/>
		<path class="st1" d="M35.4,28v-1.3l-0.2,0v-0.3h0.6V28H35.4z M35.4,25.6h0.4V26h-0.4V25.6z"/>
		<path class="st1" d="M36.6,26.8c0,0.3,0.7,0.2,0.7,0.7c0,0.3-0.2,0.5-0.7,0.5c-0.2,0-0.4-0.1-0.5-0.1l0.1-0.3
			c0.1,0.1,0.2,0.1,0.4,0.1c0.1,0,0.2-0.1,0.2-0.2c0-0.3-0.7-0.2-0.7-0.8c0-0.2,0.2-0.5,0.6-0.5c0.2,0,0.4,0,0.5,0.1l-0.1,0.3
			c-0.1-0.1-0.3-0.1-0.4-0.1C36.7,26.6,36.6,26.7,36.6,26.8z"/>
		<path class="st1" d="M38.3,28c-0.3,0-0.5-0.1-0.5-0.6v-0.8h-0.2v-0.3h0.2V26l0.4-0.1v0.4h0.4v0.3h-0.4v0.8c0,0.1,0.1,0.2,0.2,0.2
			c0.1,0,0.2,0,0.3-0.1l0.1,0.3C38.6,28,38.4,28,38.3,28z"/>
		<path class="st1" d="M39.3,27.3c0,0.3,0.1,0.4,0.4,0.4c0.2,0,0.3-0.1,0.5-0.1l0.1,0.3c-0.1,0.1-0.4,0.2-0.6,0.2
			c-0.5,0-0.8-0.3-0.8-0.9c0-0.5,0.2-0.9,0.8-0.9c0.5,0,0.7,0.4,0.7,0.8v0.2H39.3z M39.6,26.6c-0.2,0-0.3,0.2-0.3,0.4h0.6
			C39.9,26.8,39.8,26.6,39.6,26.6z"/>
		<path class="st1" d="M41.5,26.7c-0.1,0-0.1,0-0.2,0c-0.1,0-0.2,0.1-0.3,0.1V28h-0.4v-1.7h0.3l0,0.2h0c0.1-0.1,0.2-0.3,0.4-0.3
			c0.1,0,0.2,0,0.2,0L41.5,26.7z"/>
		<path class="st1" d="M41.9,28v-1.3l-0.2,0v-0.3h0.6V28H41.9z M41.9,25.6h0.4V26h-0.4V25.6z"/>
		<path class="st1" d="M44.2,27.1c0,0.6-0.3,0.9-0.8,0.9c-0.5,0-0.8-0.3-0.8-0.9c0-0.5,0.3-0.9,0.8-0.9
			C43.9,26.3,44.2,26.7,44.2,27.1z M43.8,27.1c0-0.4-0.1-0.5-0.3-0.5c-0.2,0-0.3,0.1-0.3,0.5c0,0.4,0.1,0.5,0.3,0.5
			C43.6,27.7,43.8,27.5,43.8,27.1z"/>
		<path class="st1" d="M46.3,26.4c0-0.1,0-0.2,0-0.3v-0.5h0.4V28h-0.4l-0.1-0.2c-0.1,0.1-0.2,0.2-0.4,0.2c-0.4,0-0.7-0.3-0.7-0.9
			c0-0.5,0.3-0.9,0.7-0.9C46.1,26.3,46.2,26.3,46.3,26.4z M46.3,26.7c-0.1,0-0.2-0.1-0.3-0.1c-0.2,0-0.3,0.1-0.3,0.5
			c0,0.4,0.1,0.5,0.3,0.5c0.1,0,0.2-0.1,0.3-0.1V26.7z"/>
		<path class="st1" d="M47.4,27.3c0,0.3,0.1,0.4,0.4,0.4c0.2,0,0.3-0.1,0.5-0.1l0.1,0.3c-0.1,0.1-0.4,0.2-0.6,0.2
			c-0.5,0-0.8-0.3-0.8-0.9c0-0.5,0.2-0.9,0.8-0.9c0.5,0,0.7,0.4,0.7,0.8v0.2H47.4z M47.7,26.6c-0.2,0-0.3,0.2-0.3,0.4H48
			C48,26.8,48,26.6,47.7,26.6z"/>
		<path class="st1" d="M50.2,28c-0.3,0-0.6-0.1-0.7-0.2l0.2-0.3c0.1,0.1,0.4,0.2,0.6,0.2c0.2,0,0.4-0.1,0.4-0.3
			c0-0.5-1.1-0.2-1.1-1.1c0-0.3,0.3-0.6,0.8-0.6c0.3,0,0.5,0.1,0.7,0.2l-0.1,0.4c-0.1-0.1-0.3-0.1-0.5-0.1c-0.2,0-0.3,0.1-0.3,0.2
			c0,0.4,1.1,0.3,1.1,1C51,27.7,50.7,28,50.2,28z"/>
		<path class="st1" d="M52.3,28l-0.1-0.2C52.2,27.9,52,28,51.8,28c-0.3,0-0.6-0.2-0.6-0.5c0-0.3,0.2-0.5,0.6-0.5h0.3v-0.1
			c0-0.2-0.1-0.3-0.3-0.3c-0.2,0-0.4,0.1-0.5,0.1l-0.1-0.3c0.2-0.1,0.4-0.1,0.7-0.1c0.5,0,0.7,0.2,0.7,0.6V28H52.3z M52.2,27.2h-0.3
			c-0.2,0-0.3,0.1-0.3,0.2c0,0.2,0.1,0.2,0.2,0.2c0.1,0,0.2,0,0.3-0.1V27.2z"/>
		<path class="st1" d="M53,27.5v-1.9h0.4v1.9c0,0.1,0.1,0.2,0.3,0.2V28c0,0-0.1,0-0.2,0C53.1,28,53,27.8,53,27.5z"/>
		<path class="st1" d="M55.1,28L55,27.8c-0.1,0.1-0.3,0.2-0.5,0.2c-0.4,0-0.6-0.2-0.6-0.7v-1h0.4v1c0,0.3,0.1,0.3,0.3,0.3
			c0.1,0,0.2,0,0.3-0.1v-1.3h0.5V28H55.1z"/>
		<path class="st1" d="M56.8,26.4c0-0.1,0-0.2,0-0.3v-0.5h0.4V28h-0.4l-0.1-0.2c-0.1,0.1-0.2,0.2-0.4,0.2c-0.4,0-0.7-0.3-0.7-0.9
			c0-0.5,0.3-0.9,0.7-0.9C56.6,26.3,56.7,26.3,56.8,26.4z M56.7,26.7c-0.1,0-0.2-0.1-0.3-0.1c-0.2,0-0.3,0.1-0.3,0.5
			c0,0.4,0.1,0.5,0.3,0.5c0.1,0,0.2-0.1,0.3-0.1V26.7z"/>
	</g>
	<g>
		<path class="st1" d="M30.8,6.8c-0.5,0-0.9-0.2-1.1-0.4L30,5.9c0.2,0.2,0.6,0.3,0.9,0.3s0.5-0.2,0.5-0.5c0-0.7-1.6-0.4-1.6-1.6
			c0-0.5,0.4-1,1.2-1c0.4,0,0.8,0.1,1,0.2l-0.2,0.5c-0.2-0.1-0.5-0.2-0.8-0.2c-0.3,0-0.5,0.1-0.5,0.4c0,0.6,1.6,0.4,1.6,1.6
			C32.1,6.3,31.6,6.8,30.8,6.8z"/>
		<path class="st1" d="M33.2,5.6c0,0.4,0.2,0.6,0.7,0.6c0.3,0,0.5-0.1,0.8-0.2l0.1,0.5c-0.2,0.1-0.6,0.3-1,0.3
			c-0.8,0-1.3-0.5-1.3-1.3c0-0.8,0.4-1.3,1.2-1.3c0.8,0,1.1,0.6,1.1,1.2v0.3H33.2z M33.7,4.6c-0.3,0-0.5,0.3-0.5,0.6h0.9
			C34.1,4.9,34,4.6,33.7,4.6z"/>
		<path class="st1" d="M36.8,4.7c-0.1,0-0.2,0-0.3,0c-0.2,0-0.3,0.1-0.5,0.2v1.9h-0.7V4.2h0.5l0.1,0.3h0c0.1-0.2,0.3-0.4,0.6-0.4
			c0.1,0,0.2,0,0.3,0L36.8,4.7z"/>
		<path class="st1" d="M38.7,6.7h-1l-0.8-2.6h0.8l0.5,2.1h0l0.5-2.1h0.7L38.7,6.7z"/>
		<path class="st1" d="M40,6.7V4.7l-0.3-0.1V4.2h1v2.6H40z M40,3.1h0.7v0.6H40V3.1z"/>
		<path class="st1" d="M43.3,6.6c-0.1,0.1-0.5,0.2-0.9,0.2c-0.8,0-1.2-0.4-1.2-1.3c0-0.8,0.5-1.3,1.2-1.3c0.3,0,0.6,0.1,0.9,0.2
			l-0.2,0.5c-0.2-0.1-0.4-0.2-0.6-0.2c-0.4,0-0.6,0.2-0.6,0.8c0,0.6,0.2,0.8,0.6,0.8c0.3,0,0.5-0.1,0.7-0.2L43.3,6.6z"/>
		<path class="st1" d="M44,6.7V4.7l-0.3-0.1V4.2h1v2.6H44z M44,3.1h0.7v0.6H44V3.1z"/>
		<path class="st1" d="M47.6,5.4c0,0.9-0.4,1.3-1.2,1.3c-0.8,0-1.2-0.5-1.2-1.3c0-0.8,0.4-1.3,1.2-1.3C47.2,4.1,47.6,4.7,47.6,5.4z
			 M46.9,5.4c0-0.6-0.2-0.8-0.5-0.8c-0.3,0-0.5,0.2-0.5,0.8c0,0.6,0.2,0.8,0.5,0.8C46.7,6.3,46.9,6.1,46.9,5.4z"/>
		<path class="st1" d="M31.4,9.6c0-0.1-0.1-0.3-0.1-0.5V8.3h0.7v3.6h-0.6l-0.1-0.3c-0.1,0.2-0.3,0.3-0.7,0.3c-0.6,0-1-0.4-1-1.3
			c0-0.8,0.5-1.3,1.1-1.3C31.1,9.3,31.3,9.4,31.4,9.6z M31.4,10c-0.1-0.1-0.3-0.1-0.5-0.1c-0.3,0-0.5,0.2-0.5,0.8
			c0,0.6,0.2,0.8,0.5,0.8c0.2,0,0.3-0.1,0.5-0.2V10z"/>
		<path class="st1" d="M33.3,10.8c0,0.4,0.2,0.6,0.7,0.6c0.3,0,0.5-0.1,0.8-0.2l0.1,0.5c-0.2,0.1-0.6,0.3-1,0.3
			c-0.8,0-1.3-0.5-1.3-1.3c0-0.8,0.4-1.3,1.2-1.3c0.8,0,1.1,0.6,1.1,1.2v0.3H33.3z M33.7,9.8c-0.3,0-0.5,0.3-0.5,0.6h0.9
			C34.2,10.1,34.1,9.8,33.7,9.8z"/>
		<path class="st1" d="M37.6,12c-0.5,0-0.9-0.2-1.1-0.4l0.3-0.5c0.2,0.2,0.6,0.3,0.9,0.3c0.3,0,0.5-0.2,0.5-0.5
			c0-0.7-1.6-0.4-1.6-1.6c0-0.5,0.4-1,1.2-1c0.4,0,0.8,0.1,1,0.2l-0.2,0.5C38.4,9,38,9,37.7,9c-0.3,0-0.5,0.1-0.5,0.4
			c0,0.6,1.6,0.4,1.6,1.6C38.8,11.5,38.4,12,37.6,12z"/>
		<path class="st1" d="M40.9,11.9l-0.1-0.3c-0.1,0.2-0.4,0.4-0.7,0.4c-0.5,0-0.9-0.3-0.9-0.8c0-0.5,0.3-0.8,1-0.8h0.5v-0.1
			c0-0.3-0.2-0.4-0.4-0.4c-0.3,0-0.6,0.1-0.8,0.2l-0.2-0.5c0.3-0.1,0.6-0.2,1-0.2c0.7,0,1,0.3,1,1v1.6H40.9z M40.7,10.8h-0.4
			c-0.3,0-0.4,0.1-0.4,0.3c0,0.2,0.1,0.4,0.4,0.4c0.2,0,0.3-0.1,0.5-0.2V10.8z"/>
		<path class="st1" d="M42,11.3V8.3h0.7v2.9c0,0.2,0.1,0.2,0.4,0.2V12c0,0-0.2,0-0.4,0C42.2,12,42,11.7,42,11.3z"/>
		<path class="st1" d="M45.3,11.9l-0.1-0.3c-0.1,0.2-0.4,0.4-0.8,0.4c-0.6,0-0.9-0.4-0.9-1.1V9.4h0.7v1.6c0,0.4,0.1,0.5,0.4,0.5
			c0.2,0,0.3-0.1,0.5-0.2V9.4h0.7v2.6H45.3z"/>
		<path class="st1" d="M48,9.6c0-0.1-0.1-0.3-0.1-0.5V8.3h0.7v3.6H48l-0.1-0.3c-0.1,0.2-0.3,0.3-0.7,0.3c-0.6,0-1-0.4-1-1.3
			c0-0.8,0.5-1.3,1.1-1.3C47.6,9.3,47.8,9.4,48,9.6z M47.9,10c-0.1-0.1-0.3-0.1-0.5-0.1c-0.3,0-0.5,0.2-0.5,0.8
			c0,0.6,0.2,0.8,0.5,0.8c0.2,0,0.3-0.1,0.5-0.2V10z"/>
		<path class="st1" d="M32.9,17.2l-0.1-3h0c-0.1,0.4-0.1,0.6-0.2,0.8l-0.5,2.1h-1L30.6,15c0-0.2-0.1-0.5-0.2-0.8h0l0,3h-0.6l0.1-3.5
			h1.2c0,0,0.4,1.8,0.6,2.9h0c0.2-1.1,0.7-2.9,0.7-2.9h1.2l0.1,3.5H32.9z"/>
		<path class="st1" d="M34.8,16.1c0,0.4,0.2,0.6,0.7,0.6c0.3,0,0.5-0.1,0.8-0.2l0.1,0.5c-0.2,0.1-0.6,0.3-1,0.3
			c-0.8,0-1.3-0.5-1.3-1.3c0-0.8,0.4-1.3,1.2-1.3c0.8,0,1.1,0.6,1.1,1.2v0.3H34.8z M35.3,15c-0.3,0-0.5,0.3-0.5,0.6h0.9
			C35.8,15.3,35.7,15,35.3,15z"/>
		<path class="st1" d="M37.9,17.2c-0.5,0-0.8-0.2-0.8-0.9v-1.3h-0.4v-0.5h0.4v-0.4l0.7-0.2v0.7h0.7v0.5h-0.7v1.3
			c0,0.2,0.1,0.3,0.3,0.3c0.1,0,0.3,0,0.4-0.1l0.1,0.5C38.4,17.1,38.1,17.2,37.9,17.2z"/>
		<path class="st1" d="M40.5,15.2c-0.1,0-0.2,0-0.3,0c-0.2,0-0.3,0.1-0.5,0.2v1.9H39v-2.6h0.5l0.1,0.3h0c0.1-0.2,0.3-0.4,0.6-0.4
			c0.1,0,0.2,0,0.3,0L40.5,15.2z"/>
		<path class="st1" d="M43,15.9c0,0.9-0.4,1.3-1.2,1.3c-0.8,0-1.2-0.5-1.2-1.3c0-0.8,0.4-1.3,1.2-1.3C42.6,14.5,43,15.1,43,15.9z
			 M42.3,15.9c0-0.6-0.2-0.8-0.5-0.8s-0.5,0.2-0.5,0.8c0,0.6,0.2,0.8,0.5,0.8C42.2,16.7,42.3,16.5,42.3,15.9z"/>
		<path class="st1" d="M44.2,17.4v0.8h-0.7v-3.5h0.6l0.1,0.3c0.1-0.2,0.4-0.3,0.7-0.3c0.6,0,1,0.4,1,1.3c0,0.9-0.5,1.3-1.1,1.3
			c-0.3,0-0.5-0.1-0.6-0.3C44.1,16.9,44.2,17.2,44.2,17.4z M44.2,16.4c0.1,0.1,0.3,0.3,0.4,0.3c0.3,0,0.5-0.2,0.5-0.8
			c0-0.6-0.2-0.8-0.5-0.8c-0.2,0-0.4,0.1-0.5,0.2V16.4z"/>
		<path class="st1" d="M48.7,15.9c0,0.9-0.4,1.3-1.2,1.3c-0.8,0-1.2-0.5-1.2-1.3c0-0.8,0.4-1.3,1.2-1.3
			C48.2,14.5,48.7,15.1,48.7,15.9z M48,15.9c0-0.6-0.2-0.8-0.5-0.8c-0.3,0-0.5,0.2-0.5,0.8c0,0.6,0.2,0.8,0.5,0.8
			C47.8,16.7,48,16.5,48,15.9z"/>
		<path class="st1" d="M49.2,16.5v-2.9h0.7v2.9c0,0.2,0.1,0.2,0.4,0.2v0.5c0,0-0.2,0-0.4,0C49.4,17.2,49.2,16.9,49.2,16.5z"/>
		<path class="st1" d="M50.9,17.2v-2.1L50.6,15v-0.4h1v2.6H50.9z M50.9,13.6h0.7v0.6h-0.7V13.6z"/>
		<path class="st1" d="M53.2,17.2c-0.5,0-0.8-0.2-0.8-0.9v-1.3H52v-0.5h0.4v-0.4l0.7-0.2v0.7h0.7v0.5h-0.7v1.3
			c0,0.2,0.1,0.3,0.3,0.3c0.1,0,0.3,0,0.4-0.1l0.1,0.5C53.7,17.1,53.4,17.2,53.2,17.2z"/>
		<path class="st1" d="M55.8,17.2l-0.1-0.3c-0.1,0.2-0.4,0.4-0.7,0.4c-0.5,0-0.9-0.3-0.9-0.8c0-0.5,0.3-0.8,1-0.8h0.5v-0.1
			c0-0.3-0.2-0.4-0.4-0.4c-0.3,0-0.6,0.1-0.8,0.2l-0.2-0.5c0.3-0.1,0.6-0.2,1-0.2c0.7,0,1,0.3,1,1v1.6H55.8z M55.6,16h-0.4
			c-0.3,0-0.4,0.1-0.4,0.3c0,0.2,0.1,0.4,0.4,0.4c0.2,0,0.3-0.1,0.5-0.2V16z"/>
		<path class="st1" d="M58.4,17.2v-1.5c0-0.4-0.1-0.6-0.5-0.6c-0.2,0-0.3,0.1-0.4,0.2v1.9h-0.7v-2.6h0.5l0.1,0.3
			c0.1-0.2,0.4-0.3,0.8-0.3c0.6,0,0.9,0.4,0.9,1v1.6H58.4z"/>
		<path class="st1" d="M62,15.9c0,0.9-0.4,1.3-1.2,1.3c-0.8,0-1.2-0.5-1.2-1.3c0-0.8,0.4-1.3,1.2-1.3C61.5,14.5,62,15.1,62,15.9z
			 M61.3,15.9c0-0.6-0.2-0.8-0.5-0.8c-0.3,0-0.5,0.2-0.5,0.8c0,0.6,0.2,0.8,0.5,0.8C61.1,16.7,61.3,16.5,61.3,15.9z"/>
		<path class="st1" d="M31.2,22.4c-1.2,0-1.5-0.9-1.5-1.8c0-0.9,0.3-1.8,1.5-1.8c1.2,0,1.5,0.8,1.5,1.8
			C32.7,21.5,32.4,22.4,31.2,22.4z M31.2,19.4c-0.6,0-0.8,0.6-0.8,1.2c0,0.7,0.2,1.3,0.8,1.3c0.6,0,0.8-0.6,0.8-1.3
			C32,19.9,31.8,19.4,31.2,19.4z"/>
		<path class="st1" d="M35.3,22.2c-0.1,0.1-0.5,0.2-0.9,0.2c-0.8,0-1.2-0.4-1.2-1.3c0-0.8,0.5-1.3,1.2-1.3c0.3,0,0.6,0.1,0.9,0.2
			l-0.2,0.5c-0.2-0.1-0.4-0.2-0.6-0.2c-0.4,0-0.6,0.2-0.6,0.8c0,0.6,0.2,0.8,0.6,0.8c0.3,0,0.5-0.1,0.7-0.2L35.3,22.2z"/>
		<path class="st1" d="M37.8,22.2c-0.1,0.1-0.5,0.2-0.9,0.2c-0.8,0-1.2-0.4-1.2-1.3c0-0.8,0.5-1.3,1.2-1.3c0.3,0,0.6,0.1,0.9,0.2
			l-0.2,0.5c-0.2-0.1-0.4-0.2-0.6-0.2c-0.4,0-0.6,0.2-0.6,0.8c0,0.6,0.2,0.8,0.6,0.8c0.3,0,0.5-0.1,0.7-0.2L37.8,22.2z"/>
		<path class="st1" d="M38.4,22.4v-2.1l-0.3-0.1v-0.4h1v2.6H38.4z M38.4,18.8h0.7v0.6h-0.7V18.8z"/>
		<path class="st1" d="M41.4,20c0-0.1-0.1-0.3-0.1-0.5v-0.8H42v3.6h-0.6l-0.1-0.3c-0.1,0.2-0.3,0.3-0.7,0.3c-0.6,0-1-0.4-1-1.3
			c0-0.8,0.5-1.3,1.1-1.3C41,19.8,41.2,19.8,41.4,20z M41.3,20.4c-0.1-0.1-0.3-0.1-0.5-0.1c-0.3,0-0.5,0.2-0.5,0.8
			c0,0.6,0.2,0.8,0.5,0.8c0.2,0,0.3-0.1,0.5-0.2V20.4z"/>
		<path class="st1" d="M43.2,21.3c0,0.4,0.2,0.6,0.7,0.6c0.3,0,0.5-0.1,0.8-0.2l0.1,0.5c-0.2,0.1-0.6,0.3-1,0.3
			c-0.8,0-1.3-0.5-1.3-1.3c0-0.8,0.4-1.3,1.2-1.3c0.8,0,1.1,0.6,1.1,1.2v0.3H43.2z M43.7,20.3c-0.3,0-0.5,0.3-0.5,0.6h0.9
			C44.1,20.5,44,20.3,43.7,20.3z"/>
		<path class="st1" d="M46.9,22.4v-1.5c0-0.4-0.1-0.6-0.5-0.6c-0.2,0-0.3,0.1-0.4,0.2v1.9h-0.7v-2.6h0.5l0.1,0.3
			c0.1-0.2,0.4-0.3,0.8-0.3c0.6,0,0.9,0.4,0.9,1v1.6H46.9z"/>
		<path class="st1" d="M49.1,22.4c-0.5,0-0.8-0.2-0.8-0.9v-1.3h-0.4v-0.5h0.4v-0.4l0.7-0.2v0.7h0.7v0.5H49v1.3
			c0,0.2,0.1,0.3,0.3,0.3c0.1,0,0.3,0,0.4-0.1l0.1,0.5C49.6,22.3,49.3,22.4,49.1,22.4z"/>
		<path class="st1" d="M50.7,21.3c0,0.4,0.2,0.6,0.7,0.6c0.3,0,0.5-0.1,0.8-0.2l0.1,0.5c-0.2,0.1-0.6,0.3-1,0.3
			c-0.8,0-1.3-0.5-1.3-1.3c0-0.8,0.4-1.3,1.2-1.3c0.8,0,1.1,0.6,1.1,1.2v0.3H50.7z M51.1,20.3c-0.3,0-0.5,0.3-0.5,0.6h0.9
			C51.6,20.5,51.5,20.3,51.1,20.3z"/>
	</g>
</g>
</svg>
