<?xml version="1.0" encoding="utf-8"?>
<!-- Generator: Adobe Illustrator 26.2.1, SVG Export Plug-In . SVG Version: 6.00 Build 0)  -->
<svg version="1.1" id="Capa_1" xmlns="http://www.w3.org/2000/svg" xmlns:xlink="http://www.w3.org/1999/xlink" x="0px" y="0px"
	 viewBox="0 0 82.9 24.9" style="enable-background:new 0 0 82.9 24.9;" xml:space="preserve">
<style type="text/css">
	.st0{fill:#FFFFFF;}
</style>
<g>
	<path class="st0" d="M0,11.2C0,8.5,1.2,6,3.1,4.1C2.2,5.8,7.4,7.8,8.6,8.6c0.1,0.1,0.2,0.1,0.2,0.2C9.2,9,9.4,9.1,9.4,9.1
		c1.3,0.8,2.1,1.5,2.6,1.9c0.2,0.2,0.4,0.3,0.5,0.5c0.3,0.4,0.6,0.8,0.7,1.3c0.6,1.9-0.1,4-1.7,6.2c-0.1,0.1-0.1,0.1-0.1,0.2
		c0,0.2,0.1,0.4,0.2,0.4c0.1,0,0.1,0,0.2,0c4-2.1,6.9-5.6,8.2-9.4l0-0.1c0.6-1.9,0.6-3.8-1.4-4.5c0,0-1.6-0.8-5.3-0.7
		C11.9,5.1,10,5.4,8.7,5.7C7.2,5.9,5.1,6.5,5.8,5C6,4.4,6.6,3.5,7.2,2.9C9,1.1,11.9,0,15.3,0c1.4,0,2.6,0.2,3.8,0.5l0,0l0.2,0.1
		l0.2,0.1c5.4,1.8,8.7,6.3,8.7,10.5c0,6.2-6.3,11.3-14.1,11.3C6.3,22.5,0,17.4,0,11.2"/>
	<polygon class="st0" points="19.3,0.6 19.1,0.5 19.1,0.5 	"/>
	<g>
		<path class="st0" d="M61.2,13.3L61.2,13.3c0,2,0.6,3.7,1.9,4.9c1.3,1.2,3.2,1.8,5.7,1.8h0.6h0.5h0.5v-1.2h-0.4h-0.1h0h0
			c-0.9,0-1.8-0.2-2.1-0.3c0,0,0,0,0,0l0,0v0l-0.1,0c-2.1-0.6-3.4-2.4-3.4-5.3V3.8h-0.5h-0.6h-1.9V13.3z"/>
		<path class="st0" d="M74.6,12.9L74.6,12.9l0-7.9h0h0.3h0h0c1.6,0,3,0.8,3.8,2c0.6,0.9,1,2.1,1,3.6v2.3L74.6,12.9z M75,3.8h-0.6
			h-3.7h-0.8v0.7h0.5c0.5,0,0.8,0.2,1,0.4c0.2,0.3,0.2,0.7,0.2,1.3V20h0.1h0.6h1.8h0.4v-5.4h5.1v3.7c0,1,0.8,1.6,1.5,1.6h0.7h0.5
			h0.3v-9.5v0c0-2-0.6-3.7-1.9-4.9C79.5,4.4,77.6,3.8,75,3.8"/>
		<path class="st0" d="M51.8,3.8h-1.1v0h-3v0H46v0.7h0.5c0.5,0,0.8,0.2,1,0.5c0.2,0.3,0.2,0.8,0.2,1.3v0v12.4v0.1V19v0.2l0.2,0
			c1.1-0.2,1.9-0.6,2.8-1.4l0.1-0.1V5h0c0.9,0,1.7,0.2,2,0.3l0,0h0h0c0,0,0,0,0,0l0.1,0c2.1,0.6,3.4,2.4,3.4,5.3
			c0,0.6,0,1.2-0.1,1.7c0,0.5-0.1,1-0.2,1.5c-0.1,0.3-0.1,0.6-0.2,0.9v0c-0.2,1.1-1.3,4.2-6.9,4.8h0l0,0c0,0-0.1,0-0.1,0.1
			c-0.1,0-0.1,0.1-0.2,0.1l0.1,0.3c0,0,0.2,0,0.2,0c2.3,0,4.9-0.2,6.9-1.5c2-1.3,3.4-3.7,3.5-8v0c0,0,0,0,0,0c0-2-0.6-3.7-1.9-4.9
			C56.2,4.4,54.3,3.8,51.8,3.8"/>
		<path class="st0" d="M45.1,19.3L45.1,19.3c-0.5,0-0.8-0.2-1-0.5c-0.2-0.3-0.2-0.8-0.2-1.4v0V3.8h-0.2h-2.4l-0.5,0v15h0
			c-0.9,0-1.7-0.2-2-0.3l0,0v0c0,0,0,0,0,0v0l-0.1,0c0,0,0,0,0,0c0,0,0,0,0,0c-2-0.6-3.4-2.4-3.4-5.3V5.8V5.6V5.4
			c0-1-0.8-1.6-1.6-1.6h0h-1.4v9.5v0c0,2,0.6,3.7,1.9,4.9c1.3,1.2,3.2,1.8,5.7,1.8h0.6h4.3h0.8v-0.7L45.1,19.3L45.1,19.3z"/>
		<path class="st0" d="M82.7,23.6c-0.1-0.1-0.2-0.2-0.4-0.3l-0.2-0.2C82,23.1,81.9,23,81.8,23c-0.1-0.1-0.1-0.1-0.1-0.2
			c0-0.1,0-0.2,0.1-0.2c0.1-0.1,0.2-0.1,0.3-0.1c0.1,0,0.2,0,0.3,0c0.1,0,0.2,0.1,0.3,0.1l0.1,0v-0.5l0,0c-0.1,0-0.2,0-0.3-0.1
			c-0.1,0-0.2,0-0.3,0c-0.3,0-0.5,0.1-0.6,0.2c-0.2,0.1-0.2,0.3-0.2,0.5c0,0.2,0,0.3,0.1,0.4c0.1,0.1,0.2,0.2,0.5,0.4l0.2,0.1
			c0.1,0.1,0.2,0.2,0.3,0.2c0.1,0.1,0.1,0.1,0.1,0.2c0,0.1,0,0.2-0.1,0.3c-0.1,0.1-0.2,0.1-0.3,0.1c-0.1,0-0.2,0-0.3-0.1
			c-0.1,0-0.2-0.1-0.3-0.1l-0.1,0v0.5l0,0c0.1,0,0.2,0.1,0.3,0.1c0.1,0,0.2,0,0.3,0c0.3,0,0.5-0.1,0.7-0.2c0.2-0.1,0.3-0.3,0.3-0.6
			C82.9,23.9,82.8,23.7,82.7,23.6 M79.6,23.7l0.3-1l0.3,1H79.6z M79.7,22.1L79.7,22.1l-0.9,2.7h0.5l0.2-0.8h0.8l0.2,0.8h0.5
			l-0.9-2.7H79.7z M77.9,22.1c-0.3,0-0.6,0.1-0.8,0.4c-0.2,0.3-0.2,0.6-0.2,1c0,0.5,0.1,0.9,0.3,1.1c0.2,0.2,0.4,0.3,0.8,0.3
			c0.1,0,0.3,0,0.4-0.1c0.1,0,0.2-0.1,0.3-0.1l0,0v0v-0.4v-0.1l-0.1,0c-0.1,0.1-0.2,0.1-0.3,0.1c-0.1,0-0.2,0.1-0.3,0.1
			c-0.2,0-0.4-0.1-0.5-0.3c-0.1-0.2-0.1-0.5-0.1-0.8c0-0.3,0-0.5,0.1-0.7c0.1-0.2,0.2-0.3,0.4-0.3c0.1,0,0.2,0,0.3,0.1
			c0.1,0.1,0.1,0.2,0.1,0.3v0.1h0.5v-0.1c0-0.2-0.1-0.4-0.2-0.6C78.4,22.1,78.2,22.1,77.9,22.1 M76,22.2v2.7h0.5v-2.7L76,22.2
			L76,22.2z M75,23.2c-0.1,0.1-0.2,0.1-0.3,0.1h-0.2v-0.8h0.2c0.1,0,0.2,0,0.3,0.1c0.1,0.1,0.1,0.1,0.1,0.3
			C75.1,23,75.1,23.1,75,23.2 M75.4,23.6c0-0.1-0.1-0.1-0.2-0.2c0.1,0,0.2-0.1,0.2-0.2c0.1-0.1,0.1-0.3,0.1-0.5
			c0-0.2-0.1-0.4-0.2-0.6c-0.1-0.1-0.3-0.2-0.6-0.2H74v0.1v2.7h0.5v-1.1h0.2c0.2,0,0.3,0,0.3,0.1c0,0.1,0.1,0.2,0.1,0.4l0.2,0.6h0.4
			l-0.2-0.8C75.5,23.9,75.4,23.7,75.4,23.6 M72.6,23.6h1v-0.4v-0.1h-1v-0.7h1v-0.4v-0.1h-1.5v0.1v2.7h1.5v-0.4v0h-1L72.6,23.6
			L72.6,23.6z M70.3,24.2l-0.7-2.1h-0.6v0.1v2.7h0.4l0-2l0.6,2h0.4l0.6-2v2h0.4v-2.7l-0.6,0L70.3,24.2z M67.4,23.7l0.3-1l0.3,1H67.4
			z M67.4,22.1L67.4,22.1l-0.9,2.7H67l0.2-0.8h0.8l0.2,0.8h0.5l-0.9-2.7H67.4z M64.8,23.3L64.8,23.3l-0.2-0.2
			c-0.1-0.1-0.2-0.1-0.3-0.2c-0.1-0.1-0.1-0.1-0.1-0.2c0-0.1,0-0.2,0.1-0.2c0.1-0.1,0.2-0.1,0.3-0.1c0.1,0,0.2,0,0.3,0
			c0.1,0,0.2,0.1,0.3,0.1l0.1,0v-0.5l0,0c-0.1,0-0.2,0-0.3-0.1c-0.1,0-0.2,0-0.3,0c-0.3,0-0.5,0.1-0.6,0.2c-0.2,0.1-0.3,0.3-0.3,0.5
			c0,0.2,0,0.3,0.1,0.4c0.1,0.1,0.2,0.2,0.5,0.4l0.2,0.1c0.1,0.1,0.2,0.2,0.3,0.2c0,0.1,0.1,0.1,0.1,0.2c0,0.1,0,0.2-0.1,0.3
			c-0.1,0.1-0.2,0.1-0.3,0.1c-0.1,0-0.2,0-0.3-0.1c-0.1,0-0.2-0.1-0.3-0.1l-0.1,0v0.5l0,0c0.1,0,0.2,0.1,0.3,0.1c0.1,0,0.2,0,0.3,0
			c0.3,0,0.5-0.1,0.7-0.2c0.2-0.1,0.3-0.3,0.3-0.6c0-0.2,0-0.3-0.1-0.5C65.1,23.5,64.9,23.4,64.8,23.3 M62.1,23.7l0.3-1l0.3,1H62.1z
			 M62.1,22.1L62.1,22.1l-0.9,2.7v-0.3v0h-1v-2.3h-0.5v0v2.7h1.4h0.5l0.2-0.8h0.8l0.2,0.8h0.5l-0.9-2.7L62.1,22.1L62.1,22.1z
			 M57.3,23.6h1v-0.4v-0.1h-1v-0.7h1v-0.4v-0.1h-1.5v0.1v2.7h1.5v-0.4v0h-1V23.6z M55.8,24.2c-0.1,0.1-0.3,0.2-0.5,0.2h-0.2v-1.9
			l0.2,0c0.2,0,0.4,0.1,0.5,0.2c0.1,0.1,0.2,0.4,0.2,0.8C55.9,23.9,55.9,24.1,55.8,24.2 M55.3,22.1h-0.7v0.1v2.7h0.7h0
			c0.3,0,0.6-0.1,0.8-0.3c0.2-0.2,0.3-0.6,0.3-1.1c0-0.4-0.1-0.8-0.3-1C56,22.2,55.7,22.1,55.3,22.1 M52.4,24.2
			c-0.1,0.1-0.3,0.2-0.5,0.2h-0.2v-1.9l0.2,0c0.2,0,0.4,0.1,0.5,0.2c0.1,0.1,0.2,0.4,0.2,0.8C52.6,23.9,52.5,24.1,52.4,24.2
			 M52,22.1h-0.7v0.1v2.7H52h0c0.3,0,0.6-0.1,0.8-0.3c0.2-0.2,0.3-0.6,0.3-1.1c0-0.4-0.1-0.8-0.3-1C52.6,22.2,52.3,22.1,52,22.1
			 M49.6,23.7l0.3-1l0.3,1H49.6z M49.6,22.1L49.6,22.1l-0.9,2.7h0.5l0.2-0.8h0.8l0.2,0.8H51l-0.9-2.7H49.6z M47.9,24.2
			c-0.1,0.1-0.3,0.2-0.5,0.2h-0.2v-1.9l0.2,0c0.2,0,0.4,0.1,0.5,0.2c0.1,0.1,0.2,0.4,0.2,0.8C48.1,23.9,48,24.1,47.9,24.2
			 M47.5,22.1h-0.7v0.1v2.7h0.7c0.3,0,0.6-0.1,0.8-0.3c0.2-0.2,0.3-0.6,0.3-1.1c0-0.4-0.1-0.8-0.3-1C48.1,22.2,47.9,22.1,47.5,22.1
			 M45.8,22.2v2.7h0.5v-2.7L45.8,22.2L45.8,22.2z M44.9,23.3L44.9,23.3l-0.2-0.2c-0.1-0.1-0.2-0.1-0.3-0.2c-0.1-0.1-0.1-0.1-0.1-0.2
			c0-0.1,0-0.2,0.1-0.2c0.1-0.1,0.2-0.1,0.3-0.1c0.1,0,0.2,0,0.3,0c0.1,0,0.2,0.1,0.3,0.1l0.1,0v-0.5l0,0c-0.1,0-0.2,0-0.3-0.1
			c-0.1,0-0.2,0-0.3,0c-0.3,0-0.5,0.1-0.6,0.2c-0.2,0.1-0.2,0.3-0.2,0.5c0,0.2,0,0.3,0.1,0.4c0.1,0.1,0.2,0.2,0.5,0.4l0.2,0.1
			c0.1,0.1,0.2,0.2,0.3,0.2c0.1,0.1,0.1,0.1,0.1,0.2c0,0.1,0,0.2-0.1,0.3c-0.1,0.1-0.2,0.1-0.3,0.1c-0.1,0-0.2,0-0.3-0.1
			c-0.1,0-0.2-0.1-0.3-0.1l-0.1,0v0.5l0,0c0.1,0,0.2,0.1,0.3,0.1c0.1,0,0.2,0,0.3,0c0.3,0,0.5-0.1,0.7-0.2c0.2-0.1,0.3-0.3,0.3-0.6
			c0-0.2-0.1-0.3-0.1-0.5C45.2,23.5,45.1,23.4,44.9,23.3 M42.9,23.2c-0.1,0.1-0.2,0.1-0.3,0.1h-0.2v-0.8h0.2c0.1,0,0.2,0,0.3,0.1
			c0.1,0.1,0.1,0.1,0.1,0.3C43,23,43,23.1,42.9,23.2 M43.2,23.6c0-0.1-0.1-0.1-0.2-0.2c0.1,0,0.2-0.1,0.2-0.2
			c0.1-0.1,0.1-0.3,0.1-0.5c0-0.2-0.1-0.4-0.2-0.6c-0.1-0.1-0.3-0.2-0.6-0.2h-0.8v0.1v2.7h0.5v-1.1h0.2c0.2,0,0.3,0,0.3,0.1
			c0,0.1,0.1,0.2,0.1,0.4l0.2,0.6h0.4l-0.2-0.8C43.3,23.9,43.3,23.7,43.2,23.6 M40.5,23.6h1v-0.4v-0.1h-1v-0.7h1v-0.4v-0.1H40v0.1
			v2.7h1.5v-0.4v0h-1L40.5,23.6L40.5,23.6z M38.7,24.2l-0.6-2.1l-0.5,0l0,0.1l0.8,2.7H39l0.9-2.7l-0.5,0L38.7,24.2z M36.9,22.2v2.7
			h0.5v-2.7L36.9,22.2L36.9,22.2z M36,24l-0.9-1.9l-0.5,0v0.1v2.7H35l0-2l0.9,2h0.5v-2.7H36L36,24z M33.6,23.9c0,0.2,0,0.3-0.1,0.4
			c0,0.1-0.2,0.1-0.4,0.1c-0.2,0-0.3-0.1-0.4-0.1c-0.1-0.1-0.1-0.2-0.1-0.4v-1.8h-0.4V24c0,0.3,0.1,0.5,0.2,0.7
			c0.2,0.1,0.4,0.2,0.6,0.2c0.3,0,0.5-0.1,0.6-0.2c0.2-0.1,0.2-0.4,0.2-0.6v-1.9h-0.5V23.9z"/>
	</g>
	<rect x="72.6" y="21.7" class="st0" width="1" height="0.2"/>
</g>
</svg>
