<?xml version="1.0" encoding="utf-8"?>
<!-- Generator: Adobe Illustrator 26.2.1, SVG Export Plug-In . SVG Version: 6.00 Build 0)  -->
<svg version="1.1" id="Capa_1" xmlns="http://www.w3.org/2000/svg" xmlns:xlink="http://www.w3.org/1999/xlink" x="0px" y="0px"
	 viewBox="0 0 117.6 20.7" style="enable-background:new 0 0 117.6 20.7;" xml:space="preserve">
<style type="text/css">
	.st0{fill:#FFFFFF;}
</style>
<g>
	<path class="st0" d="M7.1,12.5c0-0.2,0.1-0.4,0.1-0.6c0-0.2,0-0.4-0.1-0.6c-0.1-0.2-0.2-0.3-0.3-0.5c-0.1-0.1-0.2-0.2-0.4-0.3
		c-0.2-0.1-0.3-0.1-0.5-0.1H5.4v3H6c0.2,0,0.4,0,0.5-0.1c0.1-0.1,0.3-0.2,0.4-0.3C7,12.8,7.1,12.6,7.1,12.5 M22.4,14.9
		c0.1-0.4,0.2-0.8,0.2-1.4c0-0.4-0.1-0.9-0.2-1.2c-0.1-0.4-0.3-0.7-0.5-1c-0.2-0.3-0.5-0.5-0.8-0.6c-0.3-0.2-0.6-0.2-1-0.2h-0.9v6.3
		H20c0.3,0,0.7-0.1,1-0.2s0.6-0.3,0.8-0.6C22,15.6,22.2,15.3,22.4,14.9 M29.5,12.4c0.1-0.2,0.1-0.4,0.1-0.6c0-0.2,0-0.4-0.1-0.6
		c-0.1-0.2-0.1-0.3-0.2-0.5c-0.1-0.1-0.2-0.2-0.4-0.3c-0.1-0.1-0.3-0.1-0.5-0.1h-0.7v2.9h0.4c0.2,0,0.4,0,0.6-0.1
		c0.2-0.1,0.3-0.2,0.5-0.3C29.3,12.8,29.4,12.6,29.5,12.4 M38.8,14.9c0.1-0.4,0.1-0.9,0.1-1.4c0-0.5,0-1-0.1-1.4
		c-0.1-0.4-0.2-0.8-0.4-1.1c-0.2-0.3-0.4-0.5-0.7-0.7c-0.3-0.2-0.6-0.2-0.9-0.2c-0.4,0-0.7,0.1-0.9,0.2s-0.5,0.4-0.7,0.7
		c-0.2,0.3-0.3,0.7-0.4,1.1c-0.1,0.4-0.1,0.9-0.1,1.4c0,0.5,0,1,0.1,1.4c0.1,0.4,0.2,0.8,0.4,1.1c0.2,0.3,0.4,0.6,0.7,0.7
		c0.3,0.2,0.6,0.3,0.9,0.3c0.4,0,0.7-0.1,0.9-0.3c0.3-0.2,0.5-0.4,0.7-0.7C38.6,15.7,38.7,15.4,38.8,14.9 M50.2,14.9
		c0.1-0.4,0.2-0.8,0.2-1.4c0-0.4-0.1-0.9-0.2-1.2c-0.1-0.4-0.3-0.7-0.5-1c-0.2-0.3-0.5-0.5-0.8-0.6c-0.3-0.2-0.6-0.2-1-0.2H47v6.3
		h0.9c0.3,0,0.7-0.1,1-0.2c0.3-0.1,0.6-0.3,0.8-0.6C49.9,15.6,50.1,15.3,50.2,14.9 M71,14.6h2.2l-1.1-2.5L71,14.6z M88.7,14.9
		c0.1-0.4,0.2-0.8,0.2-1.4c0-0.4-0.1-0.9-0.2-1.2c-0.1-0.4-0.3-0.7-0.5-1c-0.2-0.3-0.5-0.5-0.8-0.6c-0.3-0.2-0.6-0.2-1-0.2h-0.9v6.3
		h0.9c0.3,0,0.7-0.1,1-0.2c0.3-0.1,0.6-0.3,0.8-0.6C88.4,15.6,88.6,15.3,88.7,14.9 M108.8,14.6h2.2l-1.1-2.5L108.8,14.6z M114,17.5
		h-1.8l-0.9-2.2h-2.8l-0.9,2.2h-1.2l3.5-8h0.8L114,17.5z M105.4,17.5h-1.8V9.7h1.8V17.5z M102.6,9.7l-3.2,8h-0.8l-3.5-8h1.8l2.4,5.4
		l2.2-5.4H102.6z M94.2,17.5h-1.8V9.7h1.8V17.5z M90.9,13.5c0,0.6-0.1,1.1-0.3,1.6c-0.2,0.5-0.5,0.9-0.8,1.3
		c-0.4,0.4-0.8,0.6-1.4,0.9c-0.5,0.2-1.1,0.3-1.8,0.3h-2.9V9.7h2.6c0.7,0,1.3,0.1,1.8,0.3c0.6,0.2,1,0.4,1.5,0.8
		c0.4,0.3,0.7,0.7,0.9,1.2C90.7,12.4,90.9,12.9,90.9,13.5 M82.5,17.5h-5.4V9.7h1.8v7.1h3.7V17.5z M76.2,17.5h-1.8l-0.9-2.2h-2.8
		l-0.9,2.2h-1.2l3.5-8h0.8L76.2,17.5z M69.5,9.7l-3.2,8h-0.8l-3.5-8h1.8l2.4,5.4l2.2-5.4H69.5z M59.2,17.5h-5.4V9.7h5.4v0.7h-3.6
		v2.6h3v0.7h-3v3.1h3.6V17.5z M52.4,13.5c0,0.6-0.1,1.1-0.3,1.6c-0.2,0.5-0.5,0.9-0.8,1.3c-0.4,0.4-0.8,0.6-1.3,0.9
		c-0.5,0.2-1.1,0.3-1.8,0.3h-2.9V9.7h2.6c0.7,0,1.3,0.1,1.8,0.3c0.6,0.2,1,0.4,1.5,0.8c0.4,0.3,0.7,0.7,0.9,1.2
		C52.3,12.4,52.4,12.9,52.4,13.5 M40.9,13.5c0,0.4,0,0.8-0.1,1.2c-0.1,0.4-0.2,0.7-0.4,1c-0.2,0.3-0.4,0.6-0.6,0.8
		c-0.2,0.2-0.5,0.5-0.8,0.6c-0.3,0.2-0.6,0.3-1,0.4c-0.4,0.1-0.7,0.1-1.1,0.1c-0.4,0-0.8,0-1.1-0.1c-0.4-0.1-0.7-0.2-1-0.4
		c-0.3-0.2-0.6-0.4-0.8-0.6c-0.2-0.2-0.5-0.5-0.6-0.8c-0.2-0.3-0.3-0.6-0.4-1c-0.1-0.4-0.1-0.7-0.1-1.2c0-0.4,0-0.8,0.1-1.1
		c0.1-0.4,0.2-0.7,0.4-1c0.2-0.3,0.4-0.6,0.6-0.8c0.2-0.2,0.5-0.4,0.8-0.6c0.3-0.2,0.6-0.3,1-0.4c0.4-0.1,0.7-0.1,1.1-0.1
		c0.4,0,0.8,0,1.1,0.1c0.4,0.1,0.7,0.2,1,0.4c0.3,0.2,0.6,0.4,0.8,0.6c0.2,0.2,0.5,0.5,0.6,0.8c0.2,0.3,0.3,0.6,0.4,1
		C40.9,12.8,40.9,13.1,40.9,13.5 M29.8,13.8l2.6,3.8h-1.9L28.1,14h-0.3v3.6H26V9.7h2.7c0.5,0,0.9,0.1,1.2,0.2
		c0.4,0.1,0.6,0.3,0.9,0.4c0.2,0.2,0.4,0.4,0.5,0.7c0.1,0.3,0.2,0.5,0.2,0.9c0,0.2,0,0.4-0.1,0.6c-0.1,0.2-0.2,0.4-0.3,0.6
		c-0.1,0.2-0.3,0.3-0.5,0.4C30.3,13.6,30.1,13.7,29.8,13.8 M24.5,13.5c0,0.6-0.1,1.1-0.3,1.6c-0.2,0.5-0.5,0.9-0.8,1.3
		c-0.4,0.4-0.8,0.6-1.4,0.9c-0.5,0.2-1.1,0.3-1.8,0.3h-2.9V9.7h2.6c0.7,0,1.3,0.1,1.8,0.3c0.6,0.2,1,0.4,1.4,0.8
		c0.4,0.3,0.7,0.7,0.9,1.2C24.4,12.4,24.5,12.9,24.5,13.5 M15.9,17.5h-5.4V9.7h5.4v0.7h-3.6v2.6h3v0.7h-3v3.1h3.6V17.5z M9,11.9
		c0,0.4-0.1,0.7-0.2,1c-0.1,0.3-0.3,0.5-0.6,0.7C8,13.7,7.7,13.9,7.4,14c-0.3,0.1-0.6,0.1-0.9,0.1h-1v3.4H3.6V9.7h2.5
		c0.4,0,0.8,0,1.1,0.1c0.4,0.1,0.7,0.2,0.9,0.4c0.3,0.2,0.5,0.4,0.6,0.7C9,11.2,9,11.5,9,11.9 M117.6,6.5H0v14.1h117.6V6.5z"/>
	<path class="st0" d="M0.2,0.2c0-0.1,0-0.1,0.1-0.1h1.4C2.4,0.1,3,0.7,3,1.4c0,0.7-0.6,1.3-1.3,1.3H0.9v1.4c0,0.1-0.1,0.1-0.1,0.1
		H0.3c-0.1,0-0.1-0.1-0.1-0.1V0.2z M1.6,2C2,2,2.2,1.7,2.2,1.4C2.2,1,2,0.8,1.6,0.8H0.9V2H1.6z"/>
	<path class="st0" d="M7.9,0.2c0-0.1,0-0.1,0.1-0.1h1.7c0.7,0,1.3,0.6,1.3,1.3c0,0.5-0.4,1-0.9,1.2l0.8,1.5c0,0.1,0,0.2-0.1,0.2
		h-0.6c-0.1,0-0.1,0-0.1-0.1L9.3,2.6H8.6v1.5c0,0.1-0.1,0.1-0.1,0.1H8c-0.1,0-0.1-0.1-0.1-0.1V0.2z M9.6,2c0.3,0,0.6-0.3,0.6-0.6
		c0-0.3-0.3-0.6-0.6-0.6h-1V2H9.6z"/>
	<path class="st0" d="M16,0.2c0-0.1,0-0.1,0.1-0.1h2.4c0.1,0,0.1,0.1,0.1,0.1v0.5c0,0.1,0,0.1-0.1,0.1h-1.8v1h1.5
		c0.1,0,0.1,0.1,0.1,0.1v0.5c0,0.1-0.1,0.1-0.1,0.1h-1.5v1h1.8c0.1,0,0.1,0.1,0.1,0.1v0.5c0,0.1,0,0.1-0.1,0.1h-2.4
		C16,4.2,16,4.2,16,4.1V0.2z"/>
	<path class="st0" d="M23.6,0.2c0-0.1,0.1-0.1,0.1-0.1h0.6c0.1,0,0.1,0.1,0.1,0.1v2.4c0,0.5,0.3,0.9,0.9,0.9c0.5,0,0.9-0.4,0.9-0.9
		V0.2c0-0.1,0-0.1,0.1-0.1h0.6c0.1,0,0.1,0.1,0.1,0.1v2.5c0,0.9-0.7,1.6-1.7,1.6c-0.9,0-1.7-0.7-1.7-1.6V0.2z"/>
	<path class="st0" d="M32.1,0.1C32.1,0,32.2,0,32.2,0h0.1l2.5,2.6h0V0.2c0-0.1,0-0.1,0.1-0.1h0.5c0.1,0,0.1,0.1,0.1,0.1v4
		c0,0.1-0.1,0.1-0.1,0.1h-0.1l-2.5-2.7h0v2.6c0,0.1,0,0.1-0.1,0.1h-0.5c-0.1,0-0.1-0.1-0.1-0.1V0.1z"/>
	<path class="st0" d="M40.9,0.2c0-0.1,0.1-0.1,0.1-0.1h0.6c0.1,0,0.1,0.1,0.1,0.1v3.9c0,0.1-0.1,0.1-0.1,0.1H41
		c-0.1,0-0.1-0.1-0.1-0.1V0.2z"/>
	<path class="st0" d="M46.4,0.2c0-0.1,0-0.2,0.1-0.2h0.6c0.1,0,0.1,0,0.1,0.1l1.1,2.6h0l1.1-2.6c0,0,0-0.1,0.1-0.1h0.6
		c0.1,0,0.1,0.1,0.1,0.2l-1.8,4c0,0,0,0.1-0.1,0.1h-0.1c-0.1,0-0.1,0-0.1-0.1L46.4,0.2z"/>
	<path class="st0" d="M55,0.2c0-0.1,0-0.1,0.1-0.1h2.4c0.1,0,0.1,0.1,0.1,0.1v0.5c0,0.1,0,0.1-0.1,0.1h-1.8v1h1.5
		c0.1,0,0.1,0.1,0.1,0.1v0.5c0,0.1-0.1,0.1-0.1,0.1h-1.5v1h1.8c0.1,0,0.1,0.1,0.1,0.1v0.5c0,0.1,0,0.1-0.1,0.1h-2.4
		c-0.1,0-0.1-0.1-0.1-0.1V0.2z"/>
	<path class="st0" d="M62.7,0.2c0-0.1,0-0.1,0.1-0.1h1.7c0.7,0,1.3,0.6,1.3,1.3c0,0.5-0.4,1-0.9,1.2l0.8,1.5c0,0.1,0,0.2-0.1,0.2H65
		c-0.1,0-0.1,0-0.1-0.1l-0.8-1.6h-0.7v1.5c0,0.1-0.1,0.1-0.1,0.1h-0.5c-0.1,0-0.1-0.1-0.1-0.1V0.2z M64.4,2C64.7,2,65,1.7,65,1.4
		c0-0.3-0.3-0.6-0.6-0.6h-1V2H64.4z"/>
	<path class="st0" d="M70.6,3.6l0.2-0.4c0-0.1,0.1-0.1,0.2,0c0,0,0.5,0.4,0.9,0.4c0.3,0,0.5-0.2,0.5-0.5c0-0.3-0.3-0.5-0.8-0.7
		c-0.6-0.2-1.1-0.6-1.1-1.3c0-0.5,0.4-1.1,1.3-1.1c0.6,0,1.1,0.3,1.2,0.4c0.1,0,0.1,0.1,0,0.2l-0.2,0.3c0,0.1-0.1,0.1-0.2,0.1
		c0,0-0.5-0.3-0.8-0.3c-0.3,0-0.5,0.2-0.5,0.4c0,0.3,0.2,0.5,0.7,0.7c0.6,0.2,1.2,0.6,1.2,1.3c0,0.6-0.5,1.2-1.4,1.2
		c-0.8,0-1.2-0.4-1.3-0.5C70.5,3.8,70.5,3.7,70.6,3.6"/>
	<path class="st0" d="M78.2,0.2c0-0.1,0.1-0.1,0.1-0.1h0.6c0.1,0,0.1,0.1,0.1,0.1v3.9c0,0.1-0.1,0.1-0.1,0.1h-0.6
		c-0.1,0-0.1-0.1-0.1-0.1V0.2z"/>
	<path class="st0" d="M84.8,0.8h-0.9c-0.1,0-0.1-0.1-0.1-0.1V0.2c0-0.1,0-0.1,0.1-0.1h2.6c0.1,0,0.1,0.1,0.1,0.1v0.5
		c0,0.1,0,0.1-0.1,0.1h-0.9v3.3c0,0.1-0.1,0.1-0.1,0.1h-0.6c-0.1,0-0.1-0.1-0.1-0.1V0.8z"/>
	<path class="st0" d="M90.6,4.1l1.9-4c0,0,0-0.1,0.1-0.1h0.1c0.1,0,0.1,0,0.1,0.1l1.8,4c0,0.1,0,0.2-0.1,0.2h-0.5
		c-0.1,0-0.1,0-0.2-0.1l-0.3-0.6h-1.8l-0.3,0.6c0,0.1-0.1,0.1-0.2,0.1h-0.5C90.6,4.2,90.6,4.1,90.6,4.1 M93.2,2.8l-0.6-1.3h0L92,2.8
		H93.2z"/>
	<path class="st0" d="M99.3,0.2c0-0.1,0-0.1,0.1-0.1h1.7c0.7,0,1.3,0.6,1.3,1.3c0,0.5-0.4,1-0.9,1.2l0.8,1.5c0,0.1,0,0.2-0.1,0.2
		h-0.6c-0.1,0-0.1,0-0.1-0.1l-0.8-1.6H100v1.5c0,0.1-0.1,0.1-0.1,0.1h-0.5c-0.1,0-0.1-0.1-0.1-0.1V0.2z M101,2
		c0.3,0,0.6-0.3,0.6-0.6c0-0.3-0.3-0.6-0.6-0.6h-1V2H101z"/>
	<path class="st0" d="M107.4,0.2c0-0.1,0.1-0.1,0.1-0.1h0.6c0.1,0,0.1,0.1,0.1,0.1v3.9c0,0.1-0.1,0.1-0.1,0.1h-0.6
		c-0.1,0-0.1-0.1-0.1-0.1V0.2z"/>
	<path class="st0" d="M115.3,0c1.2,0,2.1,1,2.1,2.1c0,1.2-1,2.1-2.1,2.1s-2.1-0.9-2.1-2.1C113.1,1,114.1,0,115.3,0 M115.3,3.5
		c0.7,0,1.4-0.6,1.4-1.4c0-0.8-0.6-1.4-1.4-1.4s-1.4,0.6-1.4,1.4C113.9,2.9,114.5,3.5,115.3,3.5"/>
</g>
</svg>
