<?xml version="1.0" encoding="utf-8"?>
<!-- Generator: Adobe Illustrator 26.2.1, SVG Export Plug-In . SVG Version: 6.00 Build 0)  -->
<svg version="1.1" id="Capa_1" xmlns="http://www.w3.org/2000/svg" xmlns:xlink="http://www.w3.org/1999/xlink" x="0px" y="0px"
	 viewBox="0 0 262.1 190.4" style="enable-background:new 0 0 262.1 190.4;" xml:space="preserve">
<style type="text/css">
	.st0{fill:#FFFFFF;}
	.st1{font-family:'Montserrat-Bold';}
	.st2{font-size:46.6166px;}
	.st3{fill:#EC670D;}
	.st4{fill:none;stroke:#EC670D;stroke-width:3.409;stroke-linecap:round;}
</style>
<text transform="matrix(1.0123 0 0 1 0.98 177.9469)"><tspan x="0" y="0" class="st0 st1 st2">IM</tspan><tspan x="59.8" y="0" class="st0 st1 st2">P</tspan><tspan x="93.5" y="0" class="st0 st1 st2">ERIUM</tspan></text>
<rect x="165.8" y="136.9" class="st3" width="7.6" height="6.2"/>
<path class="st3" d="M141.7,88.7c-2.7,2.6-4.7,10.3-3.8,14.1h7.4C144.9,97.9,144.6,93.2,141.7,88.7 M136.5,88.8h-2.7
	c-16.3,0-32.5,0-48.8-0.1c-2.3,0-3.5,0.6-4.1,2.5c-3,9-3,17.9,0.1,26.8c0.6,1.7,1.7,2.4,3.8,2.4c16.4-0.1,32.8,0,49.2,0h2.5
	C132.8,109.9,132.8,99.5,136.5,88.8 M151.6,44.8c-0.7,0.3-1.3,0.5-1.8,0.7c-16.7,7.5-33.4,15.1-50.2,22.3C96.1,69.4,95,71,95,74.6
	c0.1,3.5,0.1,7.1,0.1,10.9h3.3c13.4,0,26.7,0,40.1,0c5.2,0,7.1,0.9,8.5,5.5c1.2,4.1,1.6,8.3,2.1,12.5c0.3,2.5-0.3,3-3.2,3
	c-2.7,0-5.4,0-8.3,0c0,4.6,0.6,8.8,2.7,12.8c0.3,0.6,1.3,1.1,2.1,1.2c2.9,0.5,4.9-0.7,6.3-3c2.3-4,3-8.3,3.1-12.7
	c0-19.4,0-38.7,0-58.1C151.8,46.1,151.7,45.6,151.6,44.8 M181.8,120.4c0.1-0.7,0.1-1.1,0.1-1.5c0-29.2,0-58.3,0.1-87.5
	c0-1.5-0.8-2-2.1-2.6c-13-5.8-26-11.6-39-17.4c-5-2.2-10-4.5-15.3-6.8v48c0.8-0.4,1.4-0.6,1.9-0.8c7.9-3.5,15.8-7.1,23.7-10.6
	c3.4-1.5,4.4-1,4.4,2.4c0,20.4,0,40.9,0,61.3c0,5.1-1,10.1-3.8,14.6c-0.2,0.3-0.2,0.6-0.3,1H181.8z M91.4,85.4c0-5.2,0.1-10.1,0-15
	c-0.1-2,0.8-3,2.7-3.9c8.5-3.7,16.9-7.6,25.4-11.3c1.6-0.7,2.1-1.5,2.1-3c-0.1-16.1,0-32.1,0-48.2c0-0.6,0-1.1,0-1.7
	c0.1-2.3,1.2-2.9,3.5-1.9c7,3.1,14,6.2,21,9.3c12.5,5.6,24.9,11.2,37.4,16.7c1.7,0.8,2.4,1.7,2.4,3.4c0,30.3,0,60.6,0,90.9
	c0,2.7-0.3,3-3.4,3c-32.8,0-65.6,0-98.4,0c-3.3,0-5.3-1.6-6.1-4c-1.2-3.8-2.2-7.8-2.6-11.7c-0.7-5.7-0.1-11.4,1.8-16.9
	c1.7-4.8,3.2-5.8,8.8-5.8C87.5,85.4,89.3,85.4,91.4,85.4"/>
<line class="st4" x1="89.4" y1="97" x2="126.4" y2="97"/>
<line class="st4" x1="89.4" y1="111.6" x2="126.4" y2="111.6"/>
<line class="st4" x1="85.2" y1="104.3" x2="126.4" y2="104.3"/>
<rect x="5.1" y="136.9" class="st3" width="7.6" height="6.2"/>
</svg>
