<?xml version="1.0" encoding="utf-8"?>
<!-- Generator: Adobe Illustrator 26.2.1, SVG Export Plug-In . SVG Version: 6.00 Build 0)  -->
<svg version="1.1" id="Capa_1" xmlns="http://www.w3.org/2000/svg" xmlns:xlink="http://www.w3.org/1999/xlink" x="0px" y="0px"
	 viewBox="0 0 335.7 57.3" style="enable-background:new 0 0 335.7 57.3;" xml:space="preserve">
<style type="text/css">
	.st0{enable-background:new    ;}
	.st1{fill:#FFFFFF;}
	.st2{fill:#EC670D;}
</style>
<g>
	<g class="st0">
		<path class="st1" d="M80.9,52.3V19.6h7.6v32.6H80.9z"/>
		<path class="st1" d="M96.3,52.3V19.6h6.3l14.1,23h-3.4l13.8-23h6.3l0.1,32.6h-7.2l0-21.8h1.3l-11,18.3h-3.4l-11.3-18.3h1.6v21.8
			H96.3z"/>
	</g>
	<g class="st0">
		<path class="st1" d="M141.4,52.3V19.6h14.3c3,0,5.5,0.5,7.6,1.4c2.1,0.9,3.8,2.3,5,4.1c1.2,1.8,1.7,3.9,1.7,6.3
			c0,2.4-0.6,4.5-1.7,6.3c-1.2,1.8-2.8,3.1-5,4.1c-2.1,0.9-4.7,1.4-7.6,1.4h-10.1l3.4-3.4v12.4H141.4z M149,40.7l-3.4-3.6h9.6
			c2.4,0,4.1-0.5,5.3-1.5c1.2-1,1.7-2.4,1.7-4.1c0-1.8-0.6-3.2-1.7-4.2c-1.2-1-2.9-1.5-5.3-1.5h-9.6l3.4-3.6V40.7z"/>
	</g>
	<g class="st0">
		<path class="st1" d="M183.1,46.2h18v6.1h-25.6V19.6h25v6.1h-17.4V46.2z M182.6,32.8h15.9v5.9h-15.9V32.8z"/>
		<path class="st1" d="M207.2,52.3V19.6h14.3c3,0,5.5,0.5,7.6,1.4c2.1,0.9,3.8,2.3,5,4.1s1.7,3.9,1.7,6.3c0,2.4-0.6,4.5-1.7,6.3
			c-1.2,1.8-2.8,3.1-5,4c-2.1,0.9-4.7,1.4-7.6,1.4h-10.1l3.4-3.3v12.4H207.2z M214.8,40.7l-3.4-3.5h9.6c2.4,0,4.1-0.5,5.3-1.5
			c1.2-1,1.7-2.4,1.7-4.2c0-1.8-0.6-3.2-1.7-4.2c-1.2-1-2.9-1.5-5.3-1.5h-9.6l3.4-3.6V40.7z M228.2,52.3l-8.3-11.8h8.2l8.4,11.8
			H228.2z"/>
		<path class="st1" d="M241.9,52.3V19.6h7.6v32.6H241.9z"/>
		<path class="st1" d="M272,52.8c-4.7,0-8.4-1.3-11-3.9s-4-6.3-4-11V19.6h7.6v18c0,3.1,0.6,5.3,1.9,6.7c1.3,1.4,3.1,2.1,5.4,2.1
			c2.3,0,4.1-0.7,5.4-2.1c1.3-1.4,1.9-3.6,1.9-6.7v-18h7.6v18.3c0,4.8-1.3,8.5-4,11S276.7,52.8,272,52.8z"/>
		<path class="st1" d="M294.5,52.3V19.6h6.3l14.1,23h-3.4l13.8-23h6.3l0.1,32.6h-7.2l0-21.8h1.3l-11,18.3h-3.4l-11.3-18.3h1.6v21.8
			H294.5z"/>
	</g>
	<rect x="241.8" y="11.2" class="st2" width="7.6" height="6.2"/>
	<rect x="81.1" y="11.2" class="st2" width="7.6" height="6.2"/>
</g>
<g>
	<path class="st2" d="M39.6,41.1c-1.2,1.2-2.2,4.8-1.8,6.5h3.4C41.1,45.3,41,43.1,39.6,41.1 M37.2,41.1H36c-7.5,0-15,0-22.6,0
		c-1.1,0-1.6,0.3-1.9,1.2c-1.4,4.2-1.4,8.3,0,12.4c0.3,0.8,0.8,1.1,1.8,1.1c7.6,0,15.2,0,22.8,0h1.2C35.5,50.9,35.5,46.1,37.2,41.1
		 M44.2,20.8c-0.3,0.1-0.6,0.2-0.8,0.3c-7.7,3.5-15.4,7-23.2,10.3c-1.6,0.7-2.1,1.5-2.1,3.1c0,1.6,0,3.3,0,5h1.5
		c6.2,0,12.3,0,18.5,0c2.4,0,3.3,0.4,3.9,2.5c0.6,1.9,0.7,3.8,1,5.8c0.1,1.2-0.1,1.4-1.5,1.4c-1.2,0-2.5,0-3.8,0
		c0,2.1,0.3,4.1,1.2,5.9c0.1,0.3,0.6,0.5,1,0.6c1.3,0.2,2.3-0.3,2.9-1.4c1.1-1.9,1.4-3.8,1.4-5.9c0-9,0-17.9,0-26.9
		C44.3,21.4,44.3,21.1,44.2,20.8 M58.2,55.7c0-0.3,0-0.5,0-0.7c0-13.5,0-27,0-40.5c0-0.7-0.4-0.9-1-1.2c-6-2.7-12-5.4-18-8
		c-2.3-1-4.6-2.1-7.1-3.1v22.2c0.4-0.2,0.6-0.3,0.9-0.4c3.7-1.6,7.3-3.3,11-4.9c1.6-0.7,2-0.5,2,1.1c0,9.4,0,18.9,0,28.4
		c0,2.4-0.5,4.7-1.8,6.8c-0.1,0.1-0.1,0.3-0.1,0.5L58.2,55.7L58.2,55.7z M16.4,39.5c0-2.4,0-4.7,0-6.9c0-0.9,0.4-1.4,1.2-1.8
		c3.9-1.7,7.8-3.5,11.7-5.2c0.7-0.3,1-0.7,1-1.4c0-7.4,0-14.8,0-22.3c0-0.3,0-0.5,0-0.8c0-1.1,0.6-1.3,1.6-0.9
		c3.2,1.4,6.5,2.9,9.7,4.3c5.8,2.6,11.5,5.2,17.3,7.7c0.8,0.4,1.1,0.8,1.1,1.6c0,14,0,28,0,42c0,1.2-0.1,1.4-1.6,1.4
		c-15.2,0-30.3,0-45.5,0c-1.5,0-2.5-0.7-2.8-1.9c-0.6-1.8-1-3.6-1.2-5.4c-0.3-2.6,0-5.3,0.8-7.8c0.8-2.2,1.5-2.7,4.1-2.7
		C14.6,39.5,15.4,39.5,16.4,39.5"/>
	<path class="st2" d="M32.6,45.7H15.3c-0.4,0-0.8-0.4-0.8-0.8v0c0-0.4,0.4-0.8,0.8-0.8h17.3c0.4,0,0.8,0.4,0.8,0.8v0
		C33.4,45.3,33,45.7,32.6,45.7z"/>
	<path class="st2" d="M32.6,52.4H15.3c-0.4,0-0.8-0.4-0.8-0.8v0c0-0.4,0.4-0.8,0.8-0.8h17.3c0.4,0,0.8,0.4,0.8,0.8v0
		C33.4,52.1,33,52.4,32.6,52.4z"/>
	<path class="st2" d="M32.6,49.1H13.4c-0.4,0-0.8-0.4-0.8-0.8v0c0-0.4,0.4-0.8,0.8-0.8h19.2c0.4,0,0.8,0.4,0.8,0.8v0
		C33.4,48.7,33,49.1,32.6,49.1z"/>
</g>
</svg>
