<?xml version="1.0" encoding="utf-8"?>
<!-- Generator: Adobe Illustrator 26.2.1, SVG Export Plug-In . SVG Version: 6.00 Build 0)  -->
<svg version="1.1" id="Capa_1" xmlns="http://www.w3.org/2000/svg" xmlns:xlink="http://www.w3.org/1999/xlink" x="0px" y="0px"
	 viewBox="0 0 262.1 190.4" style="enable-background:new 0 0 262.1 190.4;" xml:space="preserve">
<style type="text/css">
	.st0{enable-background:new    ;}
	.st1{fill:#FFFFFF;}
	.st2{fill:#EC670D;}
</style>
<g class="st0">
	<path class="st1" d="M4.9,177.9v-32.6h7.6v32.6H4.9z"/>
	<path class="st1" d="M20.4,177.9v-32.6h6.3l14.1,23h-3.4l13.8-23h6.3l0.1,32.6h-7.2v-21.8h1.3l-11,18.3h-3.4L26,156.1h1.6v21.8
		H20.4z"/>
</g>
<g class="st0">
	<path class="st1" d="M65.4,177.9v-32.6h14.3c3,0,5.5,0.5,7.6,1.4s3.8,2.3,5,4.1s1.7,3.9,1.7,6.3c0,2.4-0.6,4.5-1.7,6.3
		c-1.2,1.8-2.8,3.1-5,4.1c-2.1,0.9-4.7,1.4-7.6,1.4h-10l3.4-3.4v12.4H65.4z M73.1,166.4l-3.4-3.6h9.6c2.4,0,4.1-0.5,5.3-1.5
		c1.2-1,1.7-2.4,1.7-4.1c0-1.8-0.6-3.2-1.7-4.2c-1.2-1-2.9-1.5-5.3-1.5h-9.6l3.4-3.6V166.4z"/>
</g>
<g class="st0">
	<path class="st1" d="M107.1,171.9h18v6.1H99.5v-32.6h25v6.1h-17.4V171.9z M106.6,158.5h15.9v5.9h-15.9V158.5z"/>
	<path class="st1" d="M131.2,177.9v-32.6h14.3c3,0,5.5,0.5,7.6,1.4s3.8,2.3,5,4.1s1.7,3.9,1.7,6.3c0,2.4-0.6,4.5-1.7,6.3
		c-1.2,1.8-2.8,3.1-5,4c-2.1,0.9-4.7,1.4-7.6,1.4h-10.1l3.4-3.3v12.4L131.2,177.9L131.2,177.9z M138.9,166.4l-3.4-3.5h9.6
		c2.4,0,4.1-0.5,5.3-1.5s1.7-2.4,1.7-4.2s-0.6-3.2-1.7-4.2c-1.2-1-2.9-1.5-5.3-1.5h-9.6l3.4-3.6V166.4z M152.2,177.9l-8.3-11.8h8.2
		l8.4,11.8H152.2z"/>
	<path class="st1" d="M165.9,177.9v-32.6h7.6v32.6H165.9z"/>
	<path class="st1" d="M196,178.5c-4.7,0-8.4-1.3-11-3.9c-2.6-2.6-4-6.3-4-11v-18.3h7.6v18c0,3.1,0.6,5.3,1.9,6.7
		c1.3,1.4,3.1,2.1,5.4,2.1s4.1-0.7,5.4-2.1c1.3-1.4,1.9-3.6,1.9-6.7v-18h7.6v18.3c0,4.8-1.3,8.5-4,11
		C204.4,177.2,200.7,178.5,196,178.5z"/>
	<path class="st1" d="M218.6,177.9v-32.6h6.3l14.1,23h-3.3l13.8-23h6.3l0.1,32.6h-7.2v-21.8h1.3l-11,18.3h-3.4l-11.3-18.3h1.6v21.8
		H218.6z"/>
</g>
<rect x="165.8" y="136.9" class="st2" width="7.6" height="6.2"/>
<rect x="5.1" y="136.9" class="st2" width="7.6" height="6.2"/>
<g>
	<path class="st2" d="M141.7,88.7c-2.7,2.6-4.7,10.3-3.8,14.1h7.4C144.9,97.9,144.6,93.2,141.7,88.7 M136.5,88.8h-2.7
		c-16.3,0-32.5,0-48.8-0.1c-2.3,0-3.5,0.6-4.1,2.5c-3,9-3,17.9,0.1,26.8c0.6,1.7,1.7,2.4,3.8,2.4c16.4-0.1,32.8,0,49.2,0h2.5
		C132.8,109.9,132.8,99.5,136.5,88.8 M151.6,44.8c-0.7,0.3-1.3,0.5-1.8,0.7c-16.7,7.5-33.4,15.1-50.2,22.3C96.1,69.4,95,71,95,74.6
		c0.1,3.5,0.1,7.1,0.1,10.9h3.3c13.4,0,26.7,0,40.1,0c5.2,0,7.1,0.9,8.5,5.5c1.2,4.1,1.6,8.3,2.1,12.5c0.3,2.5-0.3,3-3.2,3
		c-2.7,0-5.4,0-8.3,0c0,4.6,0.6,8.8,2.7,12.8c0.3,0.6,1.3,1.1,2.1,1.2c2.9,0.5,4.9-0.7,6.3-3c2.3-4,3-8.3,3.1-12.7
		c0-19.4,0-38.7,0-58.1C151.8,46.1,151.7,45.6,151.6,44.8 M181.8,120.4c0.1-0.7,0.1-1.1,0.1-1.5c0-29.2,0-58.3,0.1-87.5
		c0-1.5-0.8-2-2.1-2.6c-13-5.8-26-11.6-39-17.4c-5-2.2-10-4.5-15.3-6.8v48c0.8-0.4,1.4-0.6,1.9-0.8c7.9-3.5,15.8-7.1,23.7-10.6
		c3.4-1.5,4.4-1,4.4,2.4c0,20.4,0,40.9,0,61.3c0,5.1-1,10.1-3.8,14.6c-0.2,0.3-0.2,0.6-0.3,1h30.3V120.4z M91.4,85.4
		c0-5.2,0.1-10.1,0-15c-0.1-2,0.8-3,2.7-3.9c8.5-3.7,16.9-7.6,25.4-11.3c1.6-0.7,2.1-1.5,2.1-3c-0.1-16.1,0-32.1,0-48.2
		c0-0.6,0-1.1,0-1.7c0.1-2.3,1.2-2.9,3.5-1.9c7,3.1,14,6.2,21,9.3c12.5,5.6,24.9,11.2,37.4,16.7c1.7,0.8,2.4,1.7,2.4,3.4
		c0,30.3,0,60.6,0,90.9c0,2.7-0.3,3-3.4,3c-32.8,0-65.6,0-98.4,0c-3.3,0-5.3-1.6-6.1-4c-1.2-3.8-2.2-7.8-2.6-11.7
		c-0.7-5.7-0.1-11.4,1.8-16.9c1.7-4.8,3.2-5.8,8.8-5.8C87.5,85.4,89.3,85.4,91.4,85.4"/>
	<path class="st2" d="M126.5,98.7H89.1c-0.9,0-1.7-0.8-1.7-1.7l0,0c0-0.9,0.8-1.7,1.7-1.7h37.5c0.9,0,1.7,0.8,1.7,1.7l0,0
		C128.2,97.9,127.5,98.7,126.5,98.7z"/>
	<path class="st2" d="M126.5,113.3H89.1c-0.9,0-1.7-0.8-1.7-1.7l0,0c0-0.9,0.8-1.7,1.7-1.7h37.5c0.9,0,1.7,0.8,1.7,1.7l0,0
		C128.2,112.5,127.5,113.3,126.5,113.3z"/>
	<path class="st2" d="M126.5,106H85.1c-0.9,0-1.7-0.8-1.7-1.7v0c0-0.9,0.8-1.7,1.7-1.7h41.5c0.9,0,1.7,0.8,1.7,1.7v0
		C128.2,105.2,127.5,106,126.5,106z"/>
</g>
</svg>
