<?xml version="1.0" encoding="utf-8"?>
<!-- Generator: Adobe Illustrator 26.2.1, SVG Export Plug-In . SVG Version: 6.00 Build 0)  -->
<svg version="1.1" id="Capa_1" xmlns="http://www.w3.org/2000/svg" xmlns:xlink="http://www.w3.org/1999/xlink" x="0px" y="0px"
	 viewBox="0 0 651.1 653.1" style="enable-background:new 0 0 651.1 653.1;" xml:space="preserve">
<style type="text/css">
	.st0{fill:#EC6608;}
</style>
<g>
	<path class="st0" d="M634.6,186.6C547,147.7,459.7,108.2,372.3,69C323.2,47,274,25.1,224.7,3.3c-16.2-7.2-23.7-2.9-24.4,13.4
		c-0.2,4,0,7.9,0,11.9c0,113.1-0.2,226.1,0.3,339.2c0,11-3.9,16.6-14.9,21.4C126,415.4,66.9,442.7,7.1,468.7c-2.7,1.2-5,2.4-7.1,3.7
		v180.7h650.8c0-147.5,0-294.9,0.3-442.4C651.1,198.6,646.6,191.9,634.6,186.6z"/>
</g>
</svg>
